G04 Layer_Physical_Order=2*
G04 Layer_Color=16711680*
%FSLAX25Y25*%
%MOIN*%
G70*
G01*
G75*
%ADD10C,0.03937*%
%ADD11C,0.02756*%
%ADD12C,0.04724*%
%ADD13C,0.12205*%
%ADD14C,0.04724*%
%ADD15C,0.08200*%
%ADD16O,0.07874X0.03937*%
%ADD17O,0.07874X0.03937*%
%ADD18C,0.05000*%
%ADD19R,0.05906X0.05906*%
%ADD20C,0.05906*%
%ADD21R,0.07874X0.07874*%
%ADD22C,0.07874*%
%ADD23R,0.07874X0.07874*%
%ADD24R,0.05000X0.05000*%
%ADD25R,0.05000X0.05000*%
%ADD26O,0.05000X0.09000*%
%ADD27O,0.09000X0.05000*%
%ADD28R,0.05906X0.05906*%
%ADD29C,0.06496*%
G36*
X583969Y392205D02*
X585202Y391831D01*
X586337Y391224D01*
X587332Y390408D01*
X588149Y389412D01*
X588756Y388277D01*
X589129Y387045D01*
X589246Y385858D01*
X589246Y385858D01*
X589249Y385360D01*
Y8502D01*
X589247Y8004D01*
X589247Y8004D01*
X589247Y8004D01*
X589127Y6782D01*
X588742Y5514D01*
X588118Y4346D01*
X587278Y3323D01*
X586254Y2482D01*
X585086Y1858D01*
X583818Y1474D01*
X582597Y1353D01*
X582597Y1353D01*
Y1353D01*
X582105Y1323D01*
X7886D01*
X7843Y1314D01*
X6693Y1428D01*
X5436Y1809D01*
X4277Y2428D01*
X3262Y3262D01*
X2428Y4277D01*
X1809Y5436D01*
X1428Y6693D01*
X1321Y7777D01*
X1323Y7787D01*
Y385365D01*
X1354Y385857D01*
X1354D01*
X1354Y385857D01*
X1471Y387040D01*
X1843Y388267D01*
X2447Y389398D01*
X3261Y390389D01*
X4252Y391202D01*
X5383Y391807D01*
X6610Y392179D01*
X7792Y392296D01*
X7792Y392296D01*
X8290Y392298D01*
X582688D01*
X582801Y392320D01*
X583969Y392205D01*
D02*
G37*
%LPC*%
G36*
X96957Y380039D02*
Y377075D01*
X99921D01*
X99867Y377488D01*
X99514Y378340D01*
X98953Y379071D01*
X98222Y379632D01*
X97370Y379985D01*
X96957Y380039D01*
D02*
G37*
G36*
X95957D02*
X95543Y379985D01*
X94692Y379632D01*
X93961Y379071D01*
X93400Y378340D01*
X93047Y377488D01*
X92992Y377075D01*
X95957D01*
Y380039D01*
D02*
G37*
G36*
X99921Y376075D02*
X96957D01*
Y373110D01*
X97370Y373165D01*
X98222Y373518D01*
X98953Y374079D01*
X99514Y374810D01*
X99867Y375661D01*
X99921Y376075D01*
D02*
G37*
G36*
X95957D02*
X92992D01*
X93047Y375661D01*
X93400Y374810D01*
X93961Y374079D01*
X94692Y373518D01*
X95543Y373165D01*
X95957Y373110D01*
Y376075D01*
D02*
G37*
G36*
X574815Y384888D02*
X573464Y384755D01*
X572166Y384361D01*
X570969Y383721D01*
X569920Y382860D01*
X569059Y381811D01*
X568419Y380614D01*
X568025Y379315D01*
X567892Y377965D01*
X568025Y376614D01*
X568419Y375315D01*
X569059Y374118D01*
X569920Y373069D01*
X570969Y372208D01*
X572166Y371568D01*
X573464Y371175D01*
X574815Y371041D01*
X576166Y371175D01*
X577464Y371568D01*
X578661Y372208D01*
X579710Y373069D01*
X580571Y374118D01*
X581211Y375315D01*
X581605Y376614D01*
X581738Y377965D01*
X581605Y379315D01*
X581211Y380614D01*
X580571Y381811D01*
X579710Y382860D01*
X578661Y383721D01*
X577464Y384361D01*
X576166Y384755D01*
X574815Y384888D01*
D02*
G37*
G36*
X15760D02*
X14409Y384755D01*
X13110Y384361D01*
X11913Y383721D01*
X10864Y382860D01*
X10003Y381811D01*
X9364Y380614D01*
X8970Y379315D01*
X8837Y377965D01*
X8970Y376614D01*
X9364Y375315D01*
X10003Y374118D01*
X10864Y373069D01*
X11913Y372208D01*
X13110Y371568D01*
X14409Y371175D01*
X15760Y371041D01*
X17110Y371175D01*
X18409Y371568D01*
X19606Y372208D01*
X20655Y373069D01*
X21516Y374118D01*
X22156Y375315D01*
X22550Y376614D01*
X22683Y377965D01*
X22550Y379315D01*
X22156Y380614D01*
X21516Y381811D01*
X20655Y382860D01*
X19606Y383721D01*
X18409Y384361D01*
X17110Y384755D01*
X15760Y384888D01*
D02*
G37*
G36*
X322154Y372598D02*
Y368020D01*
X326732D01*
X326622Y368851D01*
X326108Y370092D01*
X325291Y371157D01*
X324226Y371975D01*
X322985Y372488D01*
X322154Y372598D01*
D02*
G37*
G36*
X321154D02*
X320322Y372488D01*
X319082Y371975D01*
X318016Y371157D01*
X317199Y370092D01*
X316995Y369600D01*
X317175Y369633D01*
X317502Y369714D01*
X317801Y369813D01*
X318073Y369930D01*
X318318Y370065D01*
X318535Y370218D01*
X318726Y370390D01*
Y368020D01*
X321154D01*
Y372598D01*
D02*
G37*
G36*
X231406Y367906D02*
Y364942D01*
X234370D01*
X234315Y365355D01*
X233963Y366207D01*
X233402Y366938D01*
X232671Y367499D01*
X231819Y367852D01*
X231406Y367906D01*
D02*
G37*
G36*
X230406D02*
X229992Y367852D01*
X229140Y367499D01*
X228409Y366938D01*
X227848Y366207D01*
X227496Y365355D01*
X227441Y364942D01*
X230406D01*
Y367906D01*
D02*
G37*
G36*
X321154Y367020D02*
X318726D01*
Y364650D01*
X318535Y364821D01*
X318318Y364974D01*
X318073Y365110D01*
X317801Y365227D01*
X317502Y365326D01*
X317175Y365407D01*
X316995Y365439D01*
X317199Y364948D01*
X318016Y363882D01*
X319082Y363065D01*
X320322Y362551D01*
X321154Y362442D01*
Y367020D01*
D02*
G37*
G36*
X59677Y364948D02*
X58177D01*
Y361917D01*
X60634D01*
Y363727D01*
X60794Y363662D01*
X61018Y363604D01*
X61307Y363553D01*
X62079Y363471D01*
X62531Y363447D01*
X62173Y363914D01*
X61442Y364475D01*
X60591Y364827D01*
X59677Y364948D01*
D02*
G37*
G36*
X498150Y382704D02*
X388779D01*
X387957Y382596D01*
X387191Y382279D01*
X386533Y381774D01*
X378282Y373522D01*
X378038Y373290D01*
X377518Y372850D01*
X377308Y372695D01*
X377121Y372572D01*
X376971Y372488D01*
X376863Y372441D01*
X376853Y372439D01*
X376772Y372449D01*
X375496Y372281D01*
X374307Y371789D01*
X373286Y371006D01*
X372502Y369985D01*
X372010Y368796D01*
X371842Y367520D01*
X372010Y366244D01*
X372502Y365055D01*
X373286Y364034D01*
X374307Y363251D01*
X375496Y362758D01*
X376772Y362590D01*
X378047Y362758D01*
X379236Y363251D01*
X380257Y364034D01*
X381041Y365055D01*
X381533Y366244D01*
X381701Y367520D01*
X381690Y367602D01*
X381693Y367612D01*
X381740Y367719D01*
X381824Y367870D01*
X381946Y368056D01*
X382098Y368261D01*
X382751Y369006D01*
X390095Y376351D01*
X496834D01*
X506888Y366297D01*
X506907Y366150D01*
X507284Y365240D01*
X507884Y364458D01*
X508665Y363859D01*
X509575Y363482D01*
X510551Y363354D01*
X511528Y363482D01*
X512437Y363859D01*
X513219Y364458D01*
X513818Y365240D01*
X514195Y366150D01*
X514324Y367126D01*
X514195Y368102D01*
X513818Y369012D01*
X513219Y369794D01*
X512437Y370393D01*
X511528Y370770D01*
X511381Y370789D01*
X500396Y381774D01*
X499738Y382279D01*
X498972Y382596D01*
X498150Y382704D01*
D02*
G37*
G36*
X490551Y370898D02*
X489575Y370770D01*
X488665Y370393D01*
X487884Y369794D01*
X487284Y369012D01*
X486907Y368102D01*
X486779Y367126D01*
X486907Y366150D01*
X487284Y365240D01*
X487884Y364458D01*
X488665Y363859D01*
X489575Y363482D01*
X490551Y363354D01*
X491528Y363482D01*
X492437Y363859D01*
X493219Y364458D01*
X493818Y365240D01*
X494195Y366150D01*
X494324Y367126D01*
X494195Y368102D01*
X493818Y369012D01*
X493219Y369794D01*
X492437Y370393D01*
X491528Y370770D01*
X490551Y370898D01*
D02*
G37*
G36*
X326732Y367020D02*
X322154D01*
Y362442D01*
X322985Y362551D01*
X324226Y363065D01*
X325291Y363882D01*
X326108Y364948D01*
X326622Y366188D01*
X326732Y367020D01*
D02*
G37*
G36*
X57177Y364948D02*
X55677D01*
X54764Y364827D01*
X53912Y364475D01*
X53181Y363914D01*
X52620Y363182D01*
X52267Y362331D01*
X52213Y361917D01*
X57177D01*
Y364948D01*
D02*
G37*
G36*
X234370Y363942D02*
X231406D01*
Y360977D01*
X231819Y361032D01*
X232671Y361385D01*
X233402Y361946D01*
X233963Y362677D01*
X234315Y363528D01*
X234370Y363942D01*
D02*
G37*
G36*
X230406D02*
X227441D01*
X227496Y363528D01*
X227848Y362677D01*
X228409Y361946D01*
X229140Y361385D01*
X229992Y361032D01*
X230406Y360977D01*
Y363942D01*
D02*
G37*
G36*
X268606Y362767D02*
Y359942D01*
X271431D01*
X271381Y360319D01*
X271042Y361137D01*
X270503Y361840D01*
X269801Y362379D01*
X268983Y362718D01*
X268606Y362767D01*
D02*
G37*
G36*
X247806D02*
Y359942D01*
X250631D01*
X250581Y360319D01*
X250242Y361137D01*
X249704Y361840D01*
X249001Y362379D01*
X248183Y362718D01*
X247806Y362767D01*
D02*
G37*
G36*
X267606D02*
X267228Y362718D01*
X266410Y362379D01*
X265708Y361840D01*
X265169Y361137D01*
X264830Y360319D01*
X264780Y359942D01*
X267606D01*
Y362767D01*
D02*
G37*
G36*
X246806D02*
X246428Y362718D01*
X245610Y362379D01*
X244908Y361840D01*
X244369Y361137D01*
X244030Y360319D01*
X243980Y359942D01*
X246806D01*
Y362767D01*
D02*
G37*
G36*
X60634Y360917D02*
X58177D01*
Y357887D01*
X59677D01*
X60591Y358008D01*
X61442Y358360D01*
X62173Y358921D01*
X62482Y359324D01*
X61018Y359230D01*
X60794Y359173D01*
X60634Y359108D01*
Y360917D01*
D02*
G37*
G36*
X57177D02*
X52213D01*
X52267Y360504D01*
X52620Y359652D01*
X53181Y358921D01*
X53912Y358360D01*
X54764Y358008D01*
X55677Y357887D01*
X57177D01*
Y360917D01*
D02*
G37*
G36*
X271431Y358942D02*
X268606D01*
Y356116D01*
X268983Y356166D01*
X269801Y356505D01*
X270503Y357044D01*
X271042Y357746D01*
X271381Y358564D01*
X271431Y358942D01*
D02*
G37*
G36*
X250631D02*
X247806D01*
Y356116D01*
X248183Y356166D01*
X249001Y356505D01*
X249704Y357044D01*
X250242Y357746D01*
X250581Y358564D01*
X250631Y358942D01*
D02*
G37*
G36*
X267606D02*
X264780D01*
X264830Y358564D01*
X265169Y357746D01*
X265708Y357044D01*
X266410Y356505D01*
X267228Y356166D01*
X267606Y356116D01*
Y358942D01*
D02*
G37*
G36*
X246806D02*
X243980D01*
X244030Y358564D01*
X244369Y357746D01*
X244908Y357044D01*
X245610Y356505D01*
X246428Y356166D01*
X246806Y356116D01*
Y358942D01*
D02*
G37*
G36*
X48177Y353102D02*
Y348138D01*
X51207D01*
Y349638D01*
X51087Y350552D01*
X50734Y351403D01*
X50173Y352134D01*
X49442Y352695D01*
X48591Y353048D01*
X48177Y353102D01*
D02*
G37*
G36*
X47177D02*
X46764Y353048D01*
X45912Y352695D01*
X45181Y352134D01*
X44620Y351403D01*
X44267Y350552D01*
X44147Y349638D01*
Y348138D01*
X47177D01*
Y353102D01*
D02*
G37*
G36*
X51207Y347138D02*
X48177D01*
Y342173D01*
X48591Y342228D01*
X49442Y342581D01*
X50173Y343142D01*
X50734Y343873D01*
X51087Y344724D01*
X51207Y345638D01*
Y347138D01*
D02*
G37*
G36*
X47177D02*
X44147D01*
Y345638D01*
X44267Y344724D01*
X44620Y343873D01*
X45181Y343142D01*
X45912Y342581D01*
X46764Y342228D01*
X47177Y342173D01*
Y347138D01*
D02*
G37*
G36*
X59677Y341233D02*
X55677D01*
X54819Y341120D01*
X54019Y340789D01*
X53333Y340262D01*
X52806Y339575D01*
X52474Y338776D01*
X52361Y337917D01*
X52474Y337059D01*
X52806Y336260D01*
X53333Y335573D01*
X54019Y335046D01*
X54819Y334715D01*
X55677Y334602D01*
X59677D01*
X60535Y334715D01*
X61335Y335046D01*
X62022Y335573D01*
X62549Y336260D01*
X62880Y337059D01*
X62993Y337917D01*
X62880Y338776D01*
X62549Y339575D01*
X62022Y340262D01*
X61335Y340789D01*
X60535Y341120D01*
X59677Y341233D01*
D02*
G37*
G36*
X96457Y339891D02*
X95599Y339778D01*
X94799Y339446D01*
X94112Y338919D01*
X93585Y338233D01*
X93254Y337433D01*
X93141Y336575D01*
X93254Y335717D01*
X93585Y334917D01*
X94112Y334230D01*
X94799Y333703D01*
X95599Y333372D01*
X96457Y333259D01*
X97315Y333372D01*
X98115Y333703D01*
X98801Y334230D01*
X99328Y334917D01*
X99660Y335717D01*
X99773Y336575D01*
X99660Y337433D01*
X99328Y338233D01*
X98801Y338919D01*
X98115Y339446D01*
X97315Y339778D01*
X96457Y339891D01*
D02*
G37*
G36*
X268106Y332619D02*
X267283Y332510D01*
X266517Y332193D01*
X265895Y331716D01*
X265842Y331701D01*
X265762Y331685D01*
X265309Y331650D01*
X249964D01*
X249804Y331662D01*
X249674Y331681D01*
X249569Y331701D01*
X249516Y331716D01*
X248894Y332193D01*
X248128Y332510D01*
X247306Y332619D01*
X246483Y332510D01*
X245717Y332193D01*
X245095Y331716D01*
X245042Y331701D01*
X244962Y331685D01*
X244509Y331650D01*
X235906D01*
X235061Y331482D01*
X234345Y331003D01*
X231447Y328106D01*
X231248Y327943D01*
X231135Y327864D01*
X231035Y327802D01*
X230960Y327765D01*
X230933Y327754D01*
X230906Y327758D01*
X230047Y327645D01*
X229248Y327313D01*
X228561Y326786D01*
X228544Y326764D01*
X228518Y326753D01*
X228438Y326727D01*
X228324Y326699D01*
X228196Y326677D01*
X227856Y326650D01*
X108642D01*
X107797Y326482D01*
X107081Y326003D01*
X20486Y239408D01*
X20008Y238692D01*
X19839Y237847D01*
Y200553D01*
X20008Y199708D01*
X20486Y198992D01*
X33047Y186431D01*
X33763Y185952D01*
X34608Y185784D01*
X95180D01*
X95384Y185759D01*
X95588Y185720D01*
X95767Y185673D01*
X95923Y185619D01*
X96055Y185560D01*
X96166Y185497D01*
X96257Y185431D01*
X96289Y185402D01*
X96348Y185325D01*
X97130Y184725D01*
X98039Y184348D01*
X99016Y184220D01*
X99992Y184348D01*
X100902Y184725D01*
X101683Y185325D01*
X102283Y186106D01*
X102660Y187016D01*
X102788Y187992D01*
X102660Y188969D01*
X102283Y189878D01*
X101683Y190660D01*
X100902Y191259D01*
X99992Y191636D01*
X99016Y191765D01*
X98039Y191636D01*
X97130Y191259D01*
X96348Y190660D01*
X96289Y190582D01*
X96257Y190553D01*
X96166Y190488D01*
X96055Y190424D01*
X95923Y190365D01*
X95767Y190311D01*
X95588Y190264D01*
X95395Y190228D01*
X95110Y190200D01*
X35522D01*
X24255Y201467D01*
Y236933D01*
X27430Y240108D01*
X27892Y239917D01*
Y209400D01*
X28060Y208555D01*
X28539Y207839D01*
X35339Y201039D01*
X36055Y200560D01*
X36900Y200392D01*
X93624D01*
X94468Y200560D01*
X95185Y201039D01*
X97865Y203719D01*
X98027Y203845D01*
X98198Y203962D01*
X98358Y204055D01*
X98506Y204127D01*
X98642Y204179D01*
X98765Y204212D01*
X98876Y204230D01*
X98919Y204233D01*
X99016Y204220D01*
X99992Y204348D01*
X100902Y204725D01*
X101683Y205325D01*
X102283Y206106D01*
X102660Y207016D01*
X102788Y207992D01*
X102660Y208969D01*
X102283Y209878D01*
X101683Y210660D01*
X100902Y211259D01*
X99992Y211636D01*
X99016Y211765D01*
X98039Y211636D01*
X97130Y211259D01*
X96348Y210660D01*
X95749Y209878D01*
X95372Y208969D01*
X95243Y207992D01*
X95256Y207895D01*
X95254Y207853D01*
X95236Y207741D01*
X95202Y207618D01*
X95151Y207483D01*
X95079Y207335D01*
X94985Y207175D01*
X94875Y207013D01*
X94693Y206792D01*
X92709Y204808D01*
X37815D01*
X32308Y210314D01*
Y211076D01*
X32808Y211322D01*
X33350Y210906D01*
X34260Y210529D01*
X35236Y210401D01*
X35333Y210414D01*
X35376Y210412D01*
X35487Y210393D01*
X35610Y210360D01*
X35746Y210308D01*
X35894Y210236D01*
X36054Y210143D01*
X36216Y210032D01*
X36437Y209851D01*
X39748Y206539D01*
X40464Y206060D01*
X41309Y205892D01*
X89124D01*
X89969Y206060D01*
X90685Y206539D01*
X97865Y213719D01*
X98027Y213845D01*
X98198Y213962D01*
X98358Y214055D01*
X98506Y214127D01*
X98642Y214179D01*
X98765Y214212D01*
X98876Y214230D01*
X98919Y214232D01*
X99016Y214220D01*
X99992Y214348D01*
X100902Y214725D01*
X101683Y215325D01*
X102283Y216106D01*
X102660Y217016D01*
X102788Y217992D01*
X102660Y218969D01*
X102283Y219878D01*
X101683Y220660D01*
X100902Y221259D01*
X99992Y221636D01*
X99016Y221765D01*
X98039Y221636D01*
X97130Y221259D01*
X96348Y220660D01*
X95749Y219878D01*
X95372Y218969D01*
X95243Y217992D01*
X95256Y217895D01*
X95254Y217852D01*
X95236Y217741D01*
X95202Y217618D01*
X95151Y217483D01*
X95079Y217335D01*
X94985Y217175D01*
X94875Y217013D01*
X94693Y216792D01*
X88209Y210308D01*
X66984D01*
X66885Y210808D01*
X67122Y210906D01*
X67904Y211506D01*
X68503Y212287D01*
X68880Y213197D01*
X69009Y214173D01*
X68880Y215150D01*
X68503Y216059D01*
X67904Y216841D01*
X67122Y217440D01*
X66213Y217817D01*
X65236Y217946D01*
X64260Y217817D01*
X63350Y217440D01*
X62569Y216841D01*
X61969Y216059D01*
X61592Y215150D01*
X61464Y214173D01*
X61592Y213197D01*
X61969Y212287D01*
X62569Y211506D01*
X63350Y210906D01*
X63588Y210808D01*
X63488Y210308D01*
X56984D01*
X56885Y210808D01*
X57122Y210906D01*
X57904Y211506D01*
X58503Y212287D01*
X58880Y213197D01*
X59009Y214173D01*
X58880Y215150D01*
X58503Y216059D01*
X57904Y216841D01*
X57122Y217440D01*
X56213Y217817D01*
X55236Y217946D01*
X54260Y217817D01*
X53350Y217440D01*
X52569Y216841D01*
X51969Y216059D01*
X51592Y215150D01*
X51464Y214173D01*
X51592Y213197D01*
X51969Y212287D01*
X52569Y211506D01*
X53350Y210906D01*
X53588Y210808D01*
X53488Y210308D01*
X46984D01*
X46885Y210808D01*
X47122Y210906D01*
X47904Y211506D01*
X48503Y212287D01*
X48880Y213197D01*
X49009Y214173D01*
X48880Y215150D01*
X48503Y216059D01*
X47904Y216841D01*
X47122Y217440D01*
X46213Y217817D01*
X45236Y217946D01*
X44260Y217817D01*
X43350Y217440D01*
X42569Y216841D01*
X41969Y216059D01*
X41592Y215150D01*
X41464Y214173D01*
X41592Y213197D01*
X41969Y212287D01*
X42569Y211506D01*
X43350Y210906D01*
X43588Y210808D01*
X43488Y210308D01*
X42224D01*
X39509Y213022D01*
X39383Y213184D01*
X39267Y213356D01*
X39173Y213516D01*
X39101Y213664D01*
X39050Y213799D01*
X39016Y213922D01*
X38998Y214034D01*
X38996Y214076D01*
X39009Y214173D01*
X38880Y215150D01*
X38503Y216059D01*
X37904Y216841D01*
X37122Y217440D01*
X36213Y217817D01*
X35236Y217946D01*
X34260Y217817D01*
X33350Y217440D01*
X32808Y217024D01*
X32308Y217271D01*
Y220808D01*
X32808Y221054D01*
X33243Y220721D01*
X34204Y220322D01*
X34736Y220252D01*
Y224173D01*
Y228094D01*
X34204Y228024D01*
X33243Y227626D01*
X32808Y227292D01*
X32308Y227539D01*
Y239974D01*
X108625Y316292D01*
X269600D01*
X270445Y316460D01*
X271161Y316939D01*
X275114Y320892D01*
X318738D01*
X318908Y320392D01*
X318168Y319824D01*
X317385Y318803D01*
X316892Y317615D01*
X316724Y316339D01*
X316747Y316160D01*
X316742Y315934D01*
X316710Y315596D01*
X316655Y315276D01*
X316578Y314971D01*
X316479Y314681D01*
X316358Y314405D01*
X316215Y314141D01*
X316048Y313888D01*
X315929Y313736D01*
X311094Y308901D01*
X277577D01*
X277408Y308920D01*
X277122Y308977D01*
X276846Y309055D01*
X276580Y309155D01*
X276322Y309278D01*
X276071Y309424D01*
X275826Y309594D01*
X275587Y309790D01*
X275441Y309929D01*
X275338Y310063D01*
X274351Y310820D01*
X273202Y311296D01*
X271969Y311458D01*
X270735Y311296D01*
X269586Y310820D01*
X268599Y310063D01*
X267842Y309076D01*
X267366Y307927D01*
X267204Y306693D01*
X267366Y305460D01*
X267842Y304311D01*
X268599Y303324D01*
X269586Y302566D01*
X270735Y302090D01*
X271969Y301928D01*
X273202Y302090D01*
X274351Y302566D01*
X275338Y303324D01*
X275441Y303457D01*
X275587Y303597D01*
X275826Y303792D01*
X276071Y303962D01*
X276322Y304109D01*
X276580Y304231D01*
X276846Y304332D01*
X277122Y304410D01*
X277408Y304466D01*
X277577Y304485D01*
X312008D01*
X312853Y304654D01*
X313569Y305132D01*
X319051Y310614D01*
X319203Y310733D01*
X319456Y310900D01*
X319720Y311043D01*
X319996Y311164D01*
X320286Y311263D01*
X320590Y311340D01*
X320911Y311395D01*
X321249Y311427D01*
X321475Y311433D01*
X321654Y311409D01*
X322930Y311577D01*
X324118Y312070D01*
X325139Y312853D01*
X325923Y313874D01*
X326415Y315063D01*
X326583Y316339D01*
X326415Y317615D01*
X325923Y318803D01*
X325139Y319824D01*
X324399Y320392D01*
X324569Y320892D01*
X373856D01*
X374026Y320392D01*
X373286Y319824D01*
X372502Y318803D01*
X372010Y317615D01*
X371842Y316339D01*
X372010Y315063D01*
X372502Y313874D01*
X373286Y312853D01*
X374307Y312070D01*
X375496Y311577D01*
X376772Y311409D01*
X378047Y311577D01*
X379236Y312070D01*
X380257Y312853D01*
X381041Y313874D01*
X381533Y315063D01*
X381701Y316339D01*
X381533Y317615D01*
X381041Y318803D01*
X380257Y319824D01*
X379517Y320392D01*
X379687Y320892D01*
X398164D01*
X398410Y320392D01*
X398113Y320004D01*
X397781Y319205D01*
X397668Y318346D01*
X397672Y318319D01*
X397661Y318292D01*
X397623Y318217D01*
X397562Y318117D01*
X397488Y318010D01*
X397267Y317751D01*
X379523Y300008D01*
X148824D01*
X147979Y299840D01*
X147263Y299361D01*
X100167Y252265D01*
X100004Y252139D01*
X99833Y252023D01*
X99673Y251929D01*
X99525Y251857D01*
X99390Y251806D01*
X99267Y251772D01*
X99155Y251754D01*
X99113Y251752D01*
X99016Y251765D01*
X98039Y251636D01*
X97130Y251259D01*
X96348Y250660D01*
X95749Y249878D01*
X95372Y248969D01*
X95243Y247992D01*
X95372Y247016D01*
X95749Y246106D01*
X96348Y245325D01*
X97130Y244725D01*
X98039Y244348D01*
X99016Y244220D01*
X99992Y244348D01*
X100902Y244725D01*
X101683Y245325D01*
X102283Y246106D01*
X102660Y247016D01*
X102788Y247992D01*
X102776Y248089D01*
X102778Y248132D01*
X102796Y248243D01*
X102829Y248366D01*
X102881Y248502D01*
X102953Y248650D01*
X103046Y248810D01*
X103157Y248972D01*
X103338Y249193D01*
X149738Y295592D01*
X153583D01*
X153734Y295092D01*
X153239Y294761D01*
X141839Y283361D01*
X141360Y282645D01*
X141192Y281800D01*
Y243608D01*
X141360Y242763D01*
X141839Y242047D01*
X154743Y229143D01*
X154869Y228981D01*
X154985Y228810D01*
X155079Y228650D01*
X155151Y228502D01*
X155202Y228366D01*
X155236Y228243D01*
X155254Y228132D01*
X155256Y228089D01*
X155243Y227992D01*
X155372Y227016D01*
X155749Y226106D01*
X156348Y225325D01*
X157130Y224725D01*
X158039Y224348D01*
X159016Y224220D01*
X159992Y224348D01*
X160902Y224725D01*
X161683Y225325D01*
X162283Y226106D01*
X162660Y227016D01*
X162788Y227992D01*
X162660Y228969D01*
X162283Y229878D01*
X161683Y230660D01*
X160902Y231259D01*
X159992Y231636D01*
X159016Y231765D01*
X158919Y231752D01*
X158876Y231754D01*
X158765Y231772D01*
X158642Y231806D01*
X158506Y231857D01*
X158358Y231929D01*
X158198Y232023D01*
X158036Y232133D01*
X157816Y232315D01*
X145608Y244523D01*
Y280886D01*
X155542Y290820D01*
X155812Y290782D01*
X156032Y290247D01*
X155749Y289878D01*
X155372Y288969D01*
X155243Y287992D01*
X155372Y287016D01*
X155749Y286106D01*
X156348Y285325D01*
X157130Y284725D01*
X158039Y284348D01*
X159016Y284220D01*
X159992Y284348D01*
X160902Y284725D01*
X161683Y285325D01*
X162283Y286106D01*
X162660Y287016D01*
X162788Y287992D01*
X162660Y288969D01*
X162283Y289878D01*
X161812Y290492D01*
X162031Y290992D01*
X198563D01*
X200825Y288731D01*
X200987Y288532D01*
X201067Y288419D01*
X201128Y288319D01*
X201166Y288244D01*
X201176Y288217D01*
X201173Y288189D01*
X201286Y287331D01*
X201617Y286531D01*
X202144Y285845D01*
X202831Y285318D01*
X203630Y284986D01*
X204488Y284873D01*
X205347Y284986D01*
X206146Y285318D01*
X206833Y285845D01*
X207360Y286531D01*
X207691Y287331D01*
X207804Y288189D01*
X207691Y289047D01*
X207360Y289847D01*
X206833Y290534D01*
X206146Y291061D01*
X205347Y291392D01*
X204488Y291505D01*
X204461Y291501D01*
X204434Y291512D01*
X204359Y291550D01*
X204259Y291611D01*
X204152Y291686D01*
X203893Y291906D01*
X201039Y294761D01*
X200543Y295092D01*
X200695Y295592D01*
X380438D01*
X381283Y295760D01*
X381999Y296239D01*
X400443Y314683D01*
X400641Y314845D01*
X400755Y314925D01*
X400855Y314986D01*
X400930Y315024D01*
X400957Y315034D01*
X400984Y315031D01*
X401012Y315034D01*
X401039Y315024D01*
X401114Y314986D01*
X401214Y314925D01*
X401320Y314850D01*
X401579Y314629D01*
X409266Y306943D01*
X409982Y306464D01*
X410827Y306296D01*
X418208D01*
X418368Y306283D01*
X418498Y306265D01*
X418603Y306244D01*
X418656Y306230D01*
X419278Y305753D01*
X420044Y305435D01*
X420866Y305327D01*
X421688Y305435D01*
X422455Y305753D01*
X423077Y306230D01*
X423130Y306244D01*
X423210Y306260D01*
X423663Y306296D01*
X442119D01*
X442159Y306294D01*
X442306Y306274D01*
X442429Y306251D01*
X442516Y306228D01*
X442560Y306212D01*
X442573Y306202D01*
X442833Y305864D01*
X443490Y305359D01*
X444257Y305042D01*
X445079Y304933D01*
X445901Y305042D01*
X446667Y305359D01*
X447325Y305864D01*
X447830Y306522D01*
X448147Y307288D01*
X448256Y308110D01*
X448147Y308932D01*
X447830Y309698D01*
X447325Y310356D01*
X446667Y310861D01*
X445901Y311178D01*
X445079Y311287D01*
X444257Y311178D01*
X443490Y310861D01*
X443342Y310747D01*
X442762Y310712D01*
X423525D01*
X423364Y310724D01*
X423234Y310743D01*
X423130Y310763D01*
X423077Y310778D01*
X422455Y311255D01*
X421688Y311572D01*
X420866Y311681D01*
X420044Y311572D01*
X419278Y311255D01*
X418656Y310778D01*
X418603Y310763D01*
X418522Y310747D01*
X418070Y310712D01*
X411741D01*
X404648Y317805D01*
X404486Y318004D01*
X404406Y318117D01*
X404345Y318217D01*
X404307Y318292D01*
X404296Y318319D01*
X404300Y318346D01*
X404187Y319205D01*
X403856Y320004D01*
X403558Y320392D01*
X403805Y320892D01*
X457186D01*
X476392Y301686D01*
Y282489D01*
X475919Y282329D01*
X475881Y282378D01*
X474816Y283195D01*
X473575Y283709D01*
X472744Y283818D01*
Y278740D01*
Y273662D01*
X473575Y273772D01*
X474816Y274285D01*
X475881Y275103D01*
X475919Y275152D01*
X476392Y274991D01*
Y237315D01*
X459939Y220861D01*
X459460Y220145D01*
X459292Y219300D01*
Y206548D01*
X445791Y193047D01*
X445669Y192943D01*
X445564Y192864D01*
X445475Y192804D01*
X445428Y192777D01*
X444650Y192675D01*
X443884Y192357D01*
X443262Y191880D01*
X443209Y191866D01*
X443129Y191850D01*
X442676Y191814D01*
X425100D01*
X424939Y191827D01*
X424809Y191845D01*
X424705Y191866D01*
X424651Y191880D01*
X424029Y192357D01*
X423263Y192675D01*
X422441Y192783D01*
X421619Y192675D01*
X420853Y192357D01*
X420230Y191880D01*
X420177Y191866D01*
X420097Y191850D01*
X419645Y191814D01*
X406872D01*
X406465Y192165D01*
X406352Y193024D01*
X406021Y193823D01*
X405494Y194510D01*
X404808Y195037D01*
X404008Y195368D01*
X403150Y195481D01*
X402291Y195368D01*
X401492Y195037D01*
X400805Y194510D01*
X400278Y193823D01*
X399947Y193024D01*
X399834Y192165D01*
X399947Y191307D01*
X400278Y190507D01*
X400805Y189821D01*
X401492Y189294D01*
X402291Y188963D01*
X403150Y188850D01*
X403321Y188872D01*
X404148Y188045D01*
X404864Y187566D01*
X405709Y187398D01*
X419782D01*
X419943Y187386D01*
X420073Y187367D01*
X420177Y187347D01*
X420230Y187332D01*
X420853Y186855D01*
X421619Y186538D01*
X422441Y186429D01*
X423263Y186538D01*
X424029Y186855D01*
X424651Y187332D01*
X424705Y187347D01*
X424785Y187363D01*
X425237Y187398D01*
X442814D01*
X442974Y187386D01*
X443105Y187367D01*
X443209Y187347D01*
X443262Y187332D01*
X443884Y186855D01*
X444650Y186538D01*
X445472Y186429D01*
X446295Y186538D01*
X447061Y186855D01*
X447719Y187360D01*
X448224Y188018D01*
X448541Y188784D01*
X448643Y189561D01*
X448671Y189609D01*
X448716Y189677D01*
X449011Y190022D01*
X463061Y204073D01*
X463540Y204789D01*
X463708Y205634D01*
Y218386D01*
X480161Y234839D01*
X480640Y235555D01*
X480808Y236400D01*
Y302600D01*
X480640Y303445D01*
X480161Y304161D01*
X459661Y324661D01*
X458945Y325140D01*
X458100Y325308D01*
X274200D01*
X273355Y325140D01*
X272639Y324661D01*
X268686Y320708D01*
X231559D01*
X231526Y321208D01*
X231764Y321239D01*
X232563Y321570D01*
X233250Y322097D01*
X233777Y322784D01*
X234108Y323584D01*
X234221Y324442D01*
X234218Y324469D01*
X234228Y324496D01*
X234266Y324571D01*
X234327Y324671D01*
X234402Y324778D01*
X234623Y325037D01*
X236820Y327234D01*
X244647D01*
X244808Y327221D01*
X244938Y327203D01*
X245042Y327183D01*
X245095Y327168D01*
X245717Y326691D01*
X246483Y326373D01*
X247306Y326265D01*
X248128Y326373D01*
X248894Y326691D01*
X249516Y327168D01*
X249569Y327183D01*
X249649Y327198D01*
X250102Y327234D01*
X265447D01*
X265608Y327221D01*
X265738Y327203D01*
X265842Y327183D01*
X265895Y327168D01*
X266517Y326691D01*
X267283Y326373D01*
X268106Y326265D01*
X268928Y326373D01*
X269694Y326691D01*
X270352Y327196D01*
X270857Y327853D01*
X271174Y328620D01*
X271282Y329442D01*
X271174Y330264D01*
X270857Y331030D01*
X270352Y331688D01*
X269694Y332193D01*
X268928Y332510D01*
X268106Y332619D01*
D02*
G37*
G36*
X416417Y340748D02*
X406968D01*
Y331299D01*
X416417D01*
Y340748D01*
D02*
G37*
G36*
X523425Y338788D02*
X522149Y338620D01*
X520960Y338127D01*
X519940Y337344D01*
X519156Y336323D01*
X518664Y335134D01*
X518496Y333858D01*
X518664Y332582D01*
X519156Y331393D01*
X519940Y330373D01*
X520960Y329589D01*
X522149Y329097D01*
X523425Y328929D01*
X524701Y329097D01*
X525890Y329589D01*
X526911Y330373D01*
X527694Y331393D01*
X528187Y332582D01*
X528355Y333858D01*
X528187Y335134D01*
X527694Y336323D01*
X526911Y337344D01*
X525890Y338127D01*
X524701Y338620D01*
X523425Y338788D01*
D02*
G37*
G36*
X67717Y327332D02*
X66858Y327219D01*
X66059Y326887D01*
X65372Y326360D01*
X64845Y325674D01*
X64514Y324874D01*
X64401Y324016D01*
X64514Y323158D01*
X64845Y322358D01*
X65372Y321671D01*
X66059Y321144D01*
X66858Y320813D01*
X67717Y320700D01*
X68575Y320813D01*
X69375Y321144D01*
X70061Y321671D01*
X70588Y322358D01*
X70919Y323158D01*
X71032Y324016D01*
X70919Y324874D01*
X70588Y325674D01*
X70061Y326360D01*
X69375Y326887D01*
X68575Y327219D01*
X67717Y327332D01*
D02*
G37*
G36*
X96457Y325757D02*
X95598Y325644D01*
X94799Y325312D01*
X94112Y324785D01*
X93585Y324099D01*
X93254Y323299D01*
X93141Y322441D01*
X93254Y321583D01*
X93585Y320783D01*
X94112Y320096D01*
X94799Y319569D01*
X95598Y319238D01*
X96457Y319125D01*
X97315Y319238D01*
X98115Y319569D01*
X98801Y320096D01*
X99328Y320783D01*
X99659Y321583D01*
X99772Y322441D01*
X99659Y323299D01*
X99328Y324099D01*
X98801Y324785D01*
X98115Y325312D01*
X97315Y325644D01*
X96457Y325757D01*
D02*
G37*
G36*
X550394Y320820D02*
X549417Y320691D01*
X548508Y320314D01*
X547726Y319715D01*
X547127Y318933D01*
X546750Y318024D01*
X546621Y317047D01*
X546750Y316071D01*
X547127Y315161D01*
X547726Y314380D01*
X548508Y313780D01*
X549417Y313403D01*
X550394Y313275D01*
X551370Y313403D01*
X552280Y313780D01*
X553061Y314380D01*
X553661Y315161D01*
X554038Y316071D01*
X554166Y317047D01*
X554038Y318024D01*
X553661Y318933D01*
X553061Y319715D01*
X552280Y320314D01*
X551370Y320691D01*
X550394Y320820D01*
D02*
G37*
G36*
X47717Y327332D02*
X46858Y327219D01*
X46059Y326887D01*
X45372Y326360D01*
X44845Y325674D01*
X44514Y324874D01*
X44401Y324016D01*
X44514Y323158D01*
X44845Y322358D01*
X45372Y321671D01*
X46059Y321144D01*
X46858Y320813D01*
X47008Y320793D01*
X55003Y312798D01*
X55579Y312356D01*
X56249Y312079D01*
X56969Y311984D01*
X78780D01*
X79499Y312079D01*
X80169Y312356D01*
X80745Y312798D01*
X84671Y316724D01*
X85580Y317560D01*
X86066Y317945D01*
X86541Y318278D01*
X86996Y318555D01*
X87430Y318776D01*
X87842Y318944D01*
X88231Y319060D01*
X88598Y319127D01*
X88995Y319151D01*
X89002Y319153D01*
X89744D01*
Y319935D01*
X89747Y319953D01*
X89744Y319970D01*
Y319989D01*
X89746Y320003D01*
X89744Y320010D01*
Y325728D01*
X84026D01*
X84019Y325730D01*
X84005Y325728D01*
X83986D01*
X83969Y325732D01*
X83951Y325728D01*
X83169D01*
Y324986D01*
X83167Y324979D01*
X83143Y324582D01*
X83075Y324216D01*
X82960Y323826D01*
X82792Y323414D01*
X82571Y322980D01*
X82294Y322525D01*
X81967Y322059D01*
X81115Y321040D01*
X80896Y320811D01*
X77628Y317544D01*
X58120D01*
X55397Y320267D01*
X55588Y320728D01*
X61004D01*
Y327303D01*
X54429D01*
Y321888D01*
X53967Y321696D01*
X50939Y324724D01*
X50919Y324874D01*
X50588Y325674D01*
X50061Y326360D01*
X49374Y326887D01*
X48575Y327219D01*
X47717Y327332D01*
D02*
G37*
G36*
X235512Y311418D02*
X226063D01*
Y301969D01*
X235512D01*
Y311418D01*
D02*
G37*
G36*
X67717Y307332D02*
X66858Y307219D01*
X66059Y306887D01*
X65372Y306360D01*
X64845Y305674D01*
X64514Y304874D01*
X64401Y304016D01*
X64514Y303158D01*
X64845Y302358D01*
X65372Y301671D01*
X66059Y301144D01*
X66858Y300813D01*
X67717Y300700D01*
X68575Y300813D01*
X69375Y301144D01*
X70061Y301671D01*
X70588Y302358D01*
X70919Y303158D01*
X71032Y304016D01*
X70919Y304874D01*
X70588Y305674D01*
X70061Y306360D01*
X69375Y306887D01*
X68575Y307219D01*
X67717Y307332D01*
D02*
G37*
G36*
X57717D02*
X56858Y307219D01*
X56059Y306887D01*
X55372Y306360D01*
X54845Y305674D01*
X54514Y304874D01*
X54401Y304016D01*
X54514Y303158D01*
X54845Y302358D01*
X55372Y301671D01*
X56059Y301144D01*
X56858Y300813D01*
X57717Y300700D01*
X58575Y300813D01*
X59374Y301144D01*
X60061Y301671D01*
X60588Y302358D01*
X60919Y303158D01*
X61032Y304016D01*
X60919Y304874D01*
X60588Y305674D01*
X60061Y306360D01*
X59374Y306887D01*
X58575Y307219D01*
X57717Y307332D01*
D02*
G37*
G36*
X47717D02*
X46858Y307219D01*
X46059Y306887D01*
X45372Y306360D01*
X44845Y305674D01*
X44514Y304874D01*
X44401Y304016D01*
X44514Y303158D01*
X44845Y302358D01*
X45372Y301671D01*
X46059Y301144D01*
X46858Y300813D01*
X47717Y300700D01*
X48575Y300813D01*
X49374Y301144D01*
X50061Y301671D01*
X50588Y302358D01*
X50919Y303158D01*
X51032Y304016D01*
X50919Y304874D01*
X50588Y305674D01*
X50061Y306360D01*
X49374Y306887D01*
X48575Y307219D01*
X47717Y307332D01*
D02*
G37*
G36*
X472244Y338788D02*
X470968Y338620D01*
X469779Y338127D01*
X468758Y337344D01*
X467975Y336323D01*
X467482Y335134D01*
X467314Y333858D01*
X467482Y332582D01*
X467975Y331393D01*
X468758Y330373D01*
X469779Y329589D01*
X470968Y329097D01*
X472244Y328929D01*
X472326Y328939D01*
X472336Y328937D01*
X472443Y328890D01*
X472594Y328806D01*
X472780Y328683D01*
X472985Y328532D01*
X473731Y327879D01*
X506809Y294801D01*
X507467Y294296D01*
X508233Y293979D01*
X509055Y293870D01*
X548390D01*
X548508Y293780D01*
X549417Y293403D01*
X550394Y293275D01*
X551370Y293403D01*
X552280Y293780D01*
X553061Y294380D01*
X553661Y295161D01*
X554038Y296071D01*
X554166Y297047D01*
X554038Y298024D01*
X553661Y298933D01*
X553061Y299715D01*
X552280Y300314D01*
X551370Y300691D01*
X550394Y300820D01*
X549417Y300691D01*
X548508Y300314D01*
X548390Y300224D01*
X510371D01*
X478247Y332348D01*
X478014Y332592D01*
X477575Y333111D01*
X477419Y333322D01*
X477296Y333508D01*
X477212Y333659D01*
X477166Y333767D01*
X477163Y333776D01*
X477174Y333858D01*
X477006Y335134D01*
X476513Y336323D01*
X475730Y337344D01*
X474709Y338127D01*
X473520Y338620D01*
X472244Y338788D01*
D02*
G37*
G36*
X244488Y291505D02*
X243630Y291392D01*
X242830Y291061D01*
X242144Y290534D01*
X241617Y289847D01*
X241286Y289047D01*
X241173Y288189D01*
X241286Y287331D01*
X241617Y286531D01*
X242144Y285845D01*
X242830Y285318D01*
X243630Y284986D01*
X244488Y284873D01*
X245347Y284986D01*
X246146Y285318D01*
X246833Y285845D01*
X247360Y286531D01*
X247691Y287331D01*
X247804Y288189D01*
X247691Y289047D01*
X247360Y289847D01*
X246833Y290534D01*
X246146Y291061D01*
X245347Y291392D01*
X244488Y291505D01*
D02*
G37*
G36*
X99016Y291765D02*
X98039Y291636D01*
X97130Y291259D01*
X96348Y290660D01*
X95749Y289878D01*
X95372Y288969D01*
X95243Y287992D01*
X95372Y287016D01*
X95749Y286106D01*
X96348Y285325D01*
X97130Y284725D01*
X98039Y284348D01*
X99016Y284220D01*
X99992Y284348D01*
X100902Y284725D01*
X101683Y285325D01*
X102283Y286106D01*
X102660Y287016D01*
X102788Y287992D01*
X102660Y288969D01*
X102283Y289878D01*
X101683Y290660D01*
X100902Y291259D01*
X99992Y291636D01*
X99016Y291765D01*
D02*
G37*
G36*
X471744Y283818D02*
X470913Y283709D01*
X469672Y283195D01*
X468607Y282378D01*
X467789Y281312D01*
X467586Y280821D01*
X467766Y280853D01*
X468092Y280934D01*
X468391Y281033D01*
X468663Y281150D01*
X468908Y281286D01*
X469126Y281439D01*
X469316Y281610D01*
Y279240D01*
X471744D01*
Y283818D01*
D02*
G37*
G36*
X421366Y281829D02*
Y279004D01*
X424192D01*
X424142Y279381D01*
X423803Y280199D01*
X423264Y280902D01*
X422562Y281441D01*
X421744Y281780D01*
X421366Y281829D01*
D02*
G37*
G36*
X420366D02*
X419988Y281780D01*
X419171Y281441D01*
X418468Y280902D01*
X417929Y280199D01*
X417591Y279381D01*
X417541Y279004D01*
X420366D01*
Y281829D01*
D02*
G37*
G36*
X401484Y281811D02*
Y278846D01*
X404449D01*
X404394Y279260D01*
X404041Y280112D01*
X403480Y280843D01*
X402749Y281404D01*
X401898Y281756D01*
X401484Y281811D01*
D02*
G37*
G36*
X400484D02*
X400070Y281756D01*
X399219Y281404D01*
X398488Y280843D01*
X397927Y280112D01*
X397574Y279260D01*
X397520Y278846D01*
X400484D01*
Y281811D01*
D02*
G37*
G36*
X445579Y281435D02*
Y278610D01*
X448404D01*
X448354Y278988D01*
X448016Y279806D01*
X447477Y280508D01*
X446774Y281047D01*
X445957Y281386D01*
X445579Y281435D01*
D02*
G37*
G36*
X444579D02*
X444201Y281386D01*
X443383Y281047D01*
X442681Y280508D01*
X442142Y279806D01*
X441803Y278988D01*
X441753Y278610D01*
X444579D01*
Y281435D01*
D02*
G37*
G36*
X159516Y281913D02*
Y278492D01*
X162937D01*
X162867Y279024D01*
X162469Y279986D01*
X161835Y280811D01*
X161009Y281445D01*
X160048Y281843D01*
X159516Y281913D01*
D02*
G37*
G36*
X158516D02*
X157984Y281843D01*
X157022Y281445D01*
X156197Y280811D01*
X155563Y279986D01*
X155165Y279024D01*
X155095Y278492D01*
X158516D01*
Y281913D01*
D02*
G37*
G36*
X471744Y278240D02*
X469316D01*
Y275870D01*
X469126Y276042D01*
X468908Y276195D01*
X468663Y276330D01*
X468391Y276447D01*
X468092Y276546D01*
X467766Y276627D01*
X467586Y276660D01*
X467789Y276168D01*
X468607Y275103D01*
X469672Y274285D01*
X470913Y273772D01*
X471744Y273662D01*
Y278240D01*
D02*
G37*
G36*
X424192Y278004D02*
X421366D01*
Y275178D01*
X421744Y275228D01*
X422562Y275567D01*
X423264Y276106D01*
X423803Y276808D01*
X424142Y277626D01*
X424192Y278004D01*
D02*
G37*
G36*
X420366D02*
X417541D01*
X417591Y277626D01*
X417929Y276808D01*
X418468Y276106D01*
X419171Y275567D01*
X419988Y275228D01*
X420366Y275178D01*
Y278004D01*
D02*
G37*
G36*
X404449Y277846D02*
X401484D01*
Y274882D01*
X401898Y274937D01*
X402749Y275289D01*
X403480Y275850D01*
X404041Y276581D01*
X404394Y277433D01*
X404449Y277846D01*
D02*
G37*
G36*
X400484D02*
X397520D01*
X397574Y277433D01*
X397927Y276581D01*
X398488Y275850D01*
X399219Y275289D01*
X400070Y274937D01*
X400484Y274882D01*
Y277846D01*
D02*
G37*
G36*
X448404Y277610D02*
X445579D01*
Y274785D01*
X445957Y274834D01*
X446774Y275173D01*
X447477Y275712D01*
X448016Y276414D01*
X448354Y277232D01*
X448404Y277610D01*
D02*
G37*
G36*
X444579D02*
X441753D01*
X441803Y277232D01*
X442142Y276414D01*
X442681Y275712D01*
X443383Y275173D01*
X444201Y274834D01*
X444579Y274785D01*
Y277610D01*
D02*
G37*
G36*
X99016Y281765D02*
X98039Y281636D01*
X97130Y281259D01*
X96348Y280660D01*
X95749Y279878D01*
X95372Y278969D01*
X95243Y277992D01*
X95372Y277016D01*
X95749Y276106D01*
X96348Y275325D01*
X97130Y274725D01*
X98039Y274348D01*
X99016Y274220D01*
X99992Y274348D01*
X100902Y274725D01*
X101683Y275325D01*
X102283Y276106D01*
X102660Y277016D01*
X102788Y277992D01*
X102660Y278969D01*
X102283Y279878D01*
X101683Y280660D01*
X100902Y281259D01*
X99992Y281636D01*
X99016Y281765D01*
D02*
G37*
G36*
X158516Y277492D02*
X155095D01*
X155165Y276960D01*
X155563Y275999D01*
X156197Y275173D01*
X157022Y274539D01*
X157984Y274141D01*
X158516Y274071D01*
Y277492D01*
D02*
G37*
G36*
X452874Y340789D02*
X451641Y340626D01*
X450491Y340150D01*
X449505Y339393D01*
X448747Y338406D01*
X448271Y337257D01*
X448109Y336024D01*
X448271Y334790D01*
X448747Y333641D01*
X449505Y332654D01*
X450491Y331897D01*
X451641Y331421D01*
X452874Y331258D01*
X453041Y331280D01*
X453243Y331275D01*
X453550Y331245D01*
X453844Y331192D01*
X454125Y331118D01*
X454394Y331022D01*
X454653Y330905D01*
X454903Y330765D01*
X455146Y330602D01*
X455278Y330497D01*
X508596Y277179D01*
X509312Y276700D01*
X510157Y276532D01*
X517537D01*
X517728Y276509D01*
X518025Y276448D01*
X518313Y276363D01*
X518594Y276254D01*
X518869Y276119D01*
X519139Y275958D01*
X519405Y275770D01*
X519666Y275553D01*
X519830Y275397D01*
X519940Y275255D01*
X520960Y274471D01*
X522149Y273979D01*
X523425Y273811D01*
X524701Y273979D01*
X525890Y274471D01*
X526911Y275255D01*
X527694Y276275D01*
X528187Y277464D01*
X528355Y278740D01*
X528187Y280016D01*
X527694Y281205D01*
X526911Y282226D01*
X525890Y283009D01*
X524701Y283502D01*
X523425Y283670D01*
X522149Y283502D01*
X520960Y283009D01*
X519940Y282226D01*
X519830Y282083D01*
X519666Y281927D01*
X519405Y281711D01*
X519139Y281523D01*
X518869Y281362D01*
X518594Y281227D01*
X518313Y281117D01*
X518025Y281032D01*
X517728Y280971D01*
X517537Y280948D01*
X511072D01*
X458401Y333619D01*
X458295Y333752D01*
X458132Y333994D01*
X457993Y334245D01*
X457875Y334504D01*
X457780Y334773D01*
X457706Y335054D01*
X457653Y335347D01*
X457622Y335654D01*
X457617Y335856D01*
X457639Y336024D01*
X457477Y337257D01*
X457001Y338406D01*
X456244Y339393D01*
X455257Y340150D01*
X454107Y340626D01*
X452874Y340789D01*
D02*
G37*
G36*
X379724Y276905D02*
X378671Y276766D01*
X377689Y276360D01*
X376846Y275713D01*
X376200Y274870D01*
X375793Y273888D01*
X375654Y272835D01*
X375793Y271781D01*
X376200Y270799D01*
X376846Y269957D01*
X377689Y269310D01*
X378671Y268903D01*
X379724Y268764D01*
X380778Y268903D01*
X381760Y269310D01*
X382603Y269957D01*
X383249Y270799D01*
X383656Y271781D01*
X383795Y272835D01*
X383656Y273888D01*
X383249Y274870D01*
X382603Y275713D01*
X381760Y276360D01*
X380778Y276766D01*
X379724Y276905D01*
D02*
G37*
G36*
X278405Y283744D02*
X171988D01*
X171269Y283649D01*
X170598Y283372D01*
X170023Y282930D01*
X162952Y275859D01*
X162528Y276143D01*
X162867Y276960D01*
X162937Y277492D01*
X159516D01*
Y274071D01*
X160048Y274141D01*
X160865Y274480D01*
X161149Y274056D01*
X159405Y272312D01*
X158923Y271852D01*
X158785Y271734D01*
X158039Y271636D01*
X157130Y271259D01*
X156348Y270660D01*
X155749Y269878D01*
X155372Y268969D01*
X155243Y267992D01*
X155372Y267016D01*
X155749Y266106D01*
X156348Y265325D01*
X157130Y264725D01*
X158039Y264348D01*
X159016Y264220D01*
X159992Y264348D01*
X160902Y264725D01*
X161683Y265325D01*
X162283Y266106D01*
X162660Y267016D01*
X162748Y267688D01*
X163694Y268739D01*
X173140Y278185D01*
X251142D01*
Y270748D01*
X258622D01*
Y278185D01*
X277254D01*
X280562Y274877D01*
X281022Y274395D01*
X281140Y274257D01*
X281238Y273512D01*
X281615Y272602D01*
X282214Y271821D01*
X282996Y271221D01*
X283906Y270844D01*
X284882Y270716D01*
X285858Y270844D01*
X286768Y271221D01*
X287306Y271634D01*
X288717Y271708D01*
X302296D01*
X302684Y271698D01*
X303299Y271646D01*
X303822Y271561D01*
X304249Y271449D01*
X304577Y271318D01*
X304809Y271180D01*
X304955Y271048D01*
X305040Y270923D01*
X305091Y270784D01*
X305118Y270527D01*
Y269803D01*
X305899D01*
X305917Y269800D01*
X305934Y269803D01*
X313751D01*
X313768Y269800D01*
X313785Y269803D01*
X314567D01*
Y270528D01*
X314596Y270795D01*
X314648Y270943D01*
X314736Y271074D01*
X314883Y271210D01*
X315114Y271350D01*
X315441Y271483D01*
X315867Y271597D01*
X316388Y271684D01*
X317002Y271737D01*
X317396Y271748D01*
X326914D01*
X327421Y271718D01*
X327627Y271692D01*
X327791Y271662D01*
X327813Y271656D01*
X328168Y270799D01*
X328815Y269957D01*
X329658Y269310D01*
X330639Y268903D01*
X331693Y268764D01*
X332746Y268903D01*
X333728Y269310D01*
X334571Y269957D01*
X335218Y270799D01*
X335625Y271781D01*
X335763Y272835D01*
X335625Y273888D01*
X335218Y274870D01*
X334571Y275713D01*
X333728Y276360D01*
X332746Y276766D01*
X331693Y276905D01*
X331468Y276875D01*
X331390Y276935D01*
X330720Y277212D01*
X330000Y277307D01*
X317396D01*
X317002Y277317D01*
X316388Y277371D01*
X315867Y277458D01*
X315441Y277572D01*
X315114Y277705D01*
X314883Y277845D01*
X314736Y277980D01*
X314648Y278112D01*
X314596Y278260D01*
X314567Y278527D01*
Y279252D01*
X313785D01*
X313768Y279255D01*
X313751Y279252D01*
X305118D01*
Y278388D01*
X305102Y278231D01*
X305048Y278080D01*
X304959Y277946D01*
X304810Y277809D01*
X304578Y277668D01*
X304250Y277534D01*
X303823Y277419D01*
X303300Y277332D01*
X302685Y277278D01*
X302288Y277268D01*
X288211D01*
X287545Y277283D01*
X287365Y277297D01*
X286768Y277755D01*
X285858Y278132D01*
X285186Y278220D01*
X284135Y279166D01*
X280371Y282930D01*
X279795Y283372D01*
X279125Y283649D01*
X278405Y283744D01*
D02*
G37*
G36*
X297638Y269458D02*
X296780Y269344D01*
X295980Y269013D01*
X295293Y268486D01*
X294766Y267800D01*
X294435Y267000D01*
X294398Y266713D01*
X294317Y266701D01*
X294236Y266696D01*
X288717D01*
X288513Y266722D01*
X288310Y266760D01*
X288131Y266807D01*
X287975Y266861D01*
X287843Y266920D01*
X287732Y266983D01*
X287641Y267049D01*
X287609Y267078D01*
X287549Y267156D01*
X286768Y267755D01*
X285858Y268132D01*
X284882Y268261D01*
X283906Y268132D01*
X282996Y267755D01*
X282214Y267156D01*
X281615Y266374D01*
X281238Y265464D01*
X281109Y264488D01*
X281238Y263512D01*
X281615Y262602D01*
X282214Y261821D01*
X282996Y261221D01*
X283906Y260844D01*
X284882Y260716D01*
X285858Y260844D01*
X286768Y261221D01*
X287549Y261821D01*
X287609Y261898D01*
X287641Y261927D01*
X287732Y261993D01*
X287843Y262056D01*
X287975Y262115D01*
X288131Y262169D01*
X288310Y262216D01*
X288502Y262252D01*
X288787Y262280D01*
X295984D01*
X296829Y262448D01*
X297434Y262853D01*
X297638Y262826D01*
X298496Y262939D01*
X299296Y263270D01*
X299983Y263797D01*
X300510Y264484D01*
X300841Y265283D01*
X300954Y266142D01*
X300841Y267000D01*
X300510Y267800D01*
X299983Y268486D01*
X299296Y269013D01*
X298496Y269344D01*
X297638Y269458D01*
D02*
G37*
G36*
X254882Y268261D02*
X253906Y268132D01*
X252996Y267755D01*
X252214Y267156D01*
X252155Y267078D01*
X252123Y267049D01*
X252032Y266983D01*
X251921Y266920D01*
X251789Y266861D01*
X251633Y266807D01*
X251454Y266760D01*
X251261Y266724D01*
X250977Y266696D01*
X239946D01*
X239733Y266712D01*
X239380Y266763D01*
X239099Y266828D01*
X238893Y266901D01*
X238765Y266968D01*
X238706Y267015D01*
X238694Y267032D01*
X238693Y267033D01*
X238681Y267132D01*
Y267854D01*
X237899D01*
X237881Y267858D01*
X237864Y267854D01*
X232106D01*
Y261279D01*
X237864D01*
X237881Y261276D01*
X237899Y261279D01*
X238681D01*
Y261998D01*
X238683Y262012D01*
X238722Y262039D01*
X238856Y262100D01*
X239071Y262166D01*
X239349Y262222D01*
X239973Y262280D01*
X251047D01*
X251250Y262255D01*
X251454Y262216D01*
X251633Y262169D01*
X251789Y262115D01*
X251921Y262056D01*
X252032Y261993D01*
X252123Y261927D01*
X252155Y261898D01*
X252214Y261821D01*
X252996Y261221D01*
X253906Y260844D01*
X254882Y260716D01*
X255858Y260844D01*
X256768Y261221D01*
X257549Y261821D01*
X258149Y262602D01*
X258526Y263512D01*
X258654Y264488D01*
X258526Y265464D01*
X258149Y266374D01*
X257549Y267156D01*
X256768Y267755D01*
X255858Y268132D01*
X254882Y268261D01*
D02*
G37*
G36*
X99016Y271765D02*
X98039Y271636D01*
X97130Y271259D01*
X96348Y270660D01*
X95749Y269878D01*
X95372Y268969D01*
X95243Y267992D01*
X95372Y267016D01*
X95749Y266106D01*
X96348Y265325D01*
X97130Y264725D01*
X98039Y264348D01*
X99016Y264220D01*
X99992Y264348D01*
X100902Y264725D01*
X101683Y265325D01*
X102283Y266106D01*
X102660Y267016D01*
X102788Y267992D01*
X102660Y268969D01*
X102283Y269878D01*
X101683Y270660D01*
X100902Y271259D01*
X99992Y271636D01*
X99016Y271765D01*
D02*
G37*
G36*
X225394Y267883D02*
X224535Y267770D01*
X223736Y267438D01*
X223049Y266911D01*
X222522Y266225D01*
X222191Y265425D01*
X222078Y264567D01*
X222191Y263709D01*
X222522Y262909D01*
X223049Y262222D01*
X223736Y261695D01*
X224535Y261364D01*
X225394Y261251D01*
X226252Y261364D01*
X227051Y261695D01*
X227738Y262222D01*
X228265Y262909D01*
X228596Y263709D01*
X228709Y264567D01*
X228596Y265425D01*
X228265Y266225D01*
X227738Y266911D01*
X227051Y267438D01*
X226252Y267770D01*
X225394Y267883D01*
D02*
G37*
G36*
X401772Y264182D02*
X400914Y264069D01*
X400114Y263738D01*
X399427Y263211D01*
X398900Y262524D01*
X398569Y261724D01*
X398456Y260866D01*
X398569Y260008D01*
X398900Y259208D01*
X399427Y258521D01*
X400114Y257995D01*
X400914Y257663D01*
X401772Y257550D01*
X402630Y257663D01*
X403430Y257995D01*
X404116Y258521D01*
X404643Y259208D01*
X404975Y260008D01*
X405088Y260866D01*
X404975Y261724D01*
X404643Y262524D01*
X404116Y263211D01*
X403430Y263738D01*
X402630Y264069D01*
X401772Y264182D01*
D02*
G37*
G36*
X159016Y261765D02*
X158039Y261636D01*
X157130Y261259D01*
X156348Y260660D01*
X155749Y259878D01*
X155372Y258969D01*
X155243Y257992D01*
X155372Y257016D01*
X155749Y256106D01*
X156348Y255325D01*
X157130Y254725D01*
X158039Y254348D01*
X159016Y254220D01*
X159992Y254348D01*
X160902Y254725D01*
X161683Y255325D01*
X162283Y256106D01*
X162660Y257016D01*
X162788Y257992D01*
X162660Y258969D01*
X162283Y259878D01*
X161683Y260660D01*
X160902Y261259D01*
X159992Y261636D01*
X159016Y261765D01*
D02*
G37*
G36*
X99016D02*
X98039Y261636D01*
X97130Y261259D01*
X96348Y260660D01*
X95749Y259878D01*
X95372Y258969D01*
X95243Y257992D01*
X95372Y257016D01*
X95749Y256106D01*
X96348Y255325D01*
X97130Y254725D01*
X98039Y254348D01*
X99016Y254220D01*
X99992Y254348D01*
X100902Y254725D01*
X101683Y255325D01*
X102283Y256106D01*
X102660Y257016D01*
X102788Y257992D01*
X102660Y258969D01*
X102283Y259878D01*
X101683Y260660D01*
X100902Y261259D01*
X99992Y261636D01*
X99016Y261765D01*
D02*
G37*
G36*
X323819Y253283D02*
X322765Y253144D01*
X321784Y252737D01*
X320941Y252091D01*
X320294Y251248D01*
X319887Y250266D01*
X319749Y249213D01*
X319887Y248159D01*
X320294Y247178D01*
X320941Y246335D01*
X321784Y245688D01*
X322765Y245281D01*
X323819Y245142D01*
X324872Y245281D01*
X325854Y245688D01*
X326697Y246335D01*
X327344Y247178D01*
X327750Y248159D01*
X327889Y249213D01*
X327750Y250266D01*
X327344Y251248D01*
X326697Y252091D01*
X325854Y252737D01*
X324872Y253144D01*
X323819Y253283D01*
D02*
G37*
G36*
X159016Y251765D02*
X158039Y251636D01*
X157130Y251259D01*
X156348Y250660D01*
X155749Y249878D01*
X155372Y248969D01*
X155243Y247992D01*
X155372Y247016D01*
X155749Y246106D01*
X156348Y245325D01*
X157130Y244725D01*
X158039Y244348D01*
X159016Y244220D01*
X159992Y244348D01*
X160902Y244725D01*
X161683Y245325D01*
X162283Y246106D01*
X162660Y247016D01*
X162788Y247992D01*
X162660Y248969D01*
X162283Y249878D01*
X161683Y250660D01*
X160902Y251259D01*
X159992Y251636D01*
X159016Y251765D01*
D02*
G37*
G36*
X309843Y238111D02*
X308610Y237949D01*
X307460Y237473D01*
X306473Y236716D01*
X306319Y236515D01*
X306317Y236513D01*
X306079Y236264D01*
X305855Y236065D01*
X305624Y235891D01*
X305386Y235742D01*
X305139Y235618D01*
X304883Y235515D01*
X304614Y235436D01*
X304333Y235378D01*
X304159Y235357D01*
X284193D01*
X283698Y235381D01*
X283112Y235442D01*
X282917Y235476D01*
X282784Y235509D01*
X282734Y235527D01*
X282710Y235541D01*
X282689Y235557D01*
X282608Y235590D01*
X282593Y235600D01*
X282576Y235603D01*
X282018Y235834D01*
X281299Y235929D01*
X277362D01*
X276642Y235834D01*
X275972Y235557D01*
X275396Y235115D01*
X274955Y234539D01*
X274677Y233869D01*
X274582Y233149D01*
X274677Y232430D01*
X274955Y231760D01*
X275396Y231184D01*
X275689Y230959D01*
Y230340D01*
X275396Y230115D01*
X274955Y229539D01*
X274677Y228869D01*
X274582Y228149D01*
X274677Y227430D01*
X274955Y226760D01*
X275396Y226184D01*
X275508Y226098D01*
Y225468D01*
X275245Y225267D01*
X274769Y224646D01*
X274470Y223924D01*
X274434Y223649D01*
X279330D01*
X284227D01*
X284191Y223924D01*
X283892Y224646D01*
X283416Y225267D01*
X283289Y225364D01*
X283445Y225874D01*
X284566Y225942D01*
X294349D01*
X294435Y225284D01*
X294766Y224484D01*
X295293Y223797D01*
X295980Y223270D01*
X296780Y222939D01*
X297638Y222826D01*
X298496Y222939D01*
X299296Y223270D01*
X299983Y223797D01*
X300510Y224484D01*
X300841Y225284D01*
X300954Y226142D01*
X300841Y227000D01*
X300510Y227800D01*
X299983Y228486D01*
X299296Y229013D01*
X298496Y229345D01*
X297638Y229457D01*
X297467Y229435D01*
X297192Y229711D01*
X296475Y230189D01*
X295630Y230357D01*
X284193D01*
X283698Y230381D01*
X283651Y230386D01*
X283662Y230888D01*
X284566Y230942D01*
X304324D01*
X304486Y230924D01*
X304777Y230869D01*
X305060Y230793D01*
X305335Y230696D01*
X305604Y230576D01*
X305867Y230434D01*
X306125Y230268D01*
X306379Y230078D01*
X306429Y230034D01*
X306473Y229977D01*
X307460Y229219D01*
X308610Y228743D01*
X309843Y228581D01*
X311076Y228743D01*
X312225Y229219D01*
X313212Y229977D01*
X313315Y230111D01*
X313461Y230250D01*
X313700Y230445D01*
X313945Y230615D01*
X314196Y230762D01*
X314454Y230884D01*
X314720Y230985D01*
X314996Y231063D01*
X315283Y231119D01*
X315451Y231138D01*
X323023D01*
X327032Y227129D01*
X327061Y227095D01*
X327207Y226897D01*
X327331Y226702D01*
X327432Y226514D01*
X327511Y226330D01*
X327570Y226152D01*
X327611Y225977D01*
X327635Y225804D01*
X327638Y225710D01*
X327623Y225591D01*
X327761Y224537D01*
X328168Y223555D01*
X328815Y222712D01*
X329658Y222066D01*
X330639Y221659D01*
X331693Y221520D01*
X332746Y221659D01*
X333728Y222066D01*
X334571Y222712D01*
X335218Y223555D01*
X335625Y224537D01*
X335763Y225591D01*
X335625Y226644D01*
X335218Y227626D01*
X334571Y228469D01*
X333728Y229116D01*
X332746Y229522D01*
X331693Y229661D01*
X331574Y229645D01*
X331480Y229649D01*
X331307Y229672D01*
X331132Y229713D01*
X330953Y229773D01*
X330770Y229852D01*
X330581Y229953D01*
X330387Y230076D01*
X330188Y230223D01*
X330155Y230251D01*
X325498Y234907D01*
X324782Y235386D01*
X323937Y235554D01*
X315451D01*
X315283Y235573D01*
X314996Y235630D01*
X314720Y235708D01*
X314454Y235808D01*
X314196Y235931D01*
X313945Y236077D01*
X313701Y236247D01*
X313461Y236443D01*
X313315Y236582D01*
X313212Y236716D01*
X312225Y237473D01*
X311076Y237949D01*
X309843Y238111D01*
D02*
G37*
G36*
X159016Y241765D02*
X158039Y241636D01*
X157130Y241259D01*
X156348Y240660D01*
X155749Y239878D01*
X155372Y238969D01*
X155243Y237992D01*
X155372Y237016D01*
X155749Y236106D01*
X156348Y235325D01*
X157130Y234725D01*
X158039Y234348D01*
X159016Y234220D01*
X159992Y234348D01*
X160902Y234725D01*
X161683Y235325D01*
X162283Y236106D01*
X162660Y237016D01*
X162788Y237992D01*
X162660Y238969D01*
X162283Y239878D01*
X161683Y240660D01*
X160902Y241259D01*
X159992Y241636D01*
X159016Y241765D01*
D02*
G37*
G36*
X99016Y231765D02*
X98039Y231636D01*
X97130Y231259D01*
X96348Y230660D01*
X96289Y230582D01*
X96257Y230553D01*
X96166Y230488D01*
X96055Y230424D01*
X95923Y230365D01*
X95767Y230311D01*
X95588Y230264D01*
X95395Y230228D01*
X95110Y230200D01*
X69055D01*
X68210Y230032D01*
X67494Y229553D01*
X66387Y228446D01*
X66225Y228320D01*
X66054Y228204D01*
X65894Y228110D01*
X65746Y228038D01*
X65610Y227987D01*
X65487Y227953D01*
X65376Y227935D01*
X65333Y227933D01*
X65236Y227946D01*
X64260Y227817D01*
X63350Y227440D01*
X62569Y226841D01*
X61969Y226059D01*
X61592Y225150D01*
X61464Y224173D01*
X61592Y223197D01*
X61969Y222287D01*
X62569Y221506D01*
X63350Y220906D01*
X64260Y220529D01*
X65236Y220401D01*
X66213Y220529D01*
X67122Y220906D01*
X67904Y221506D01*
X68503Y222287D01*
X68880Y223197D01*
X69009Y224173D01*
X68996Y224270D01*
X68998Y224313D01*
X69016Y224424D01*
X69050Y224547D01*
X69101Y224683D01*
X69173Y224831D01*
X69267Y224991D01*
X69377Y225153D01*
X69559Y225374D01*
X69970Y225784D01*
X95180D01*
X95384Y225759D01*
X95588Y225720D01*
X95767Y225673D01*
X95923Y225619D01*
X96055Y225560D01*
X96166Y225497D01*
X96257Y225431D01*
X96289Y225402D01*
X96348Y225325D01*
X97130Y224725D01*
X98039Y224348D01*
X99016Y224220D01*
X99992Y224348D01*
X100902Y224725D01*
X101683Y225325D01*
X102283Y226106D01*
X102660Y227016D01*
X102788Y227992D01*
X102660Y228969D01*
X102283Y229878D01*
X101683Y230660D01*
X100902Y231259D01*
X99992Y231636D01*
X99016Y231765D01*
D02*
G37*
G36*
X35736Y228094D02*
Y224673D01*
X39157D01*
X39087Y225205D01*
X38689Y226167D01*
X38055Y226992D01*
X37230Y227626D01*
X36268Y228024D01*
X35736Y228094D01*
D02*
G37*
G36*
X55236Y227946D02*
X54260Y227817D01*
X53350Y227440D01*
X52569Y226841D01*
X51969Y226059D01*
X51592Y225150D01*
X51464Y224173D01*
X51592Y223197D01*
X51969Y222287D01*
X52569Y221506D01*
X53350Y220906D01*
X54260Y220529D01*
X55236Y220401D01*
X56213Y220529D01*
X57122Y220906D01*
X57904Y221506D01*
X58503Y222287D01*
X58880Y223197D01*
X59009Y224173D01*
X58880Y225150D01*
X58503Y226059D01*
X57904Y226841D01*
X57122Y227440D01*
X56213Y227817D01*
X55236Y227946D01*
D02*
G37*
G36*
X45236D02*
X44260Y227817D01*
X43350Y227440D01*
X42569Y226841D01*
X41969Y226059D01*
X41592Y225150D01*
X41464Y224173D01*
X41592Y223197D01*
X41969Y222287D01*
X42569Y221506D01*
X43350Y220906D01*
X44260Y220529D01*
X45236Y220401D01*
X46213Y220529D01*
X47122Y220906D01*
X47904Y221506D01*
X48503Y222287D01*
X48880Y223197D01*
X49009Y224173D01*
X48880Y225150D01*
X48503Y226059D01*
X47904Y226841D01*
X47122Y227440D01*
X46213Y227817D01*
X45236Y227946D01*
D02*
G37*
G36*
X39157Y223673D02*
X35736D01*
Y220252D01*
X36268Y220322D01*
X37230Y220721D01*
X38055Y221354D01*
X38689Y222180D01*
X39087Y223141D01*
X39157Y223673D01*
D02*
G37*
G36*
X284227Y222649D02*
X279830D01*
Y220155D01*
X281299D01*
X282074Y220257D01*
X282796Y220556D01*
X283416Y221032D01*
X283892Y221652D01*
X284191Y222374D01*
X284227Y222649D01*
D02*
G37*
G36*
X278830D02*
X274434D01*
X274470Y222374D01*
X274769Y221652D01*
X275245Y221032D01*
X275865Y220556D01*
X276587Y220257D01*
X277362Y220155D01*
X278830D01*
Y222649D01*
D02*
G37*
G36*
X379724Y229661D02*
X378671Y229522D01*
X377689Y229116D01*
X376846Y228469D01*
X376200Y227626D01*
X375793Y226644D01*
X375654Y225591D01*
X375793Y224537D01*
X376200Y223555D01*
X376846Y222712D01*
X377689Y222066D01*
X378671Y221659D01*
X379238Y221584D01*
X382203Y218620D01*
X382861Y218115D01*
X383627Y217797D01*
X384449Y217689D01*
X400851D01*
X400914Y217663D01*
X401772Y217550D01*
X402630Y217663D01*
X403430Y217994D01*
X404116Y218521D01*
X404643Y219208D01*
X404975Y220008D01*
X405088Y220866D01*
X404975Y221724D01*
X404643Y222524D01*
X404116Y223211D01*
X403430Y223738D01*
X402630Y224069D01*
X401772Y224182D01*
X400914Y224069D01*
X400851Y224043D01*
X385765D01*
X383731Y226077D01*
X383656Y226644D01*
X383249Y227626D01*
X382603Y228469D01*
X381760Y229116D01*
X380778Y229522D01*
X379724Y229661D01*
D02*
G37*
G36*
X159016Y221765D02*
X158039Y221636D01*
X157130Y221259D01*
X156348Y220660D01*
X155749Y219878D01*
X155372Y218969D01*
X155243Y217992D01*
X155372Y217016D01*
X155749Y216106D01*
X156348Y215325D01*
X157130Y214725D01*
X158039Y214348D01*
X159016Y214220D01*
X159992Y214348D01*
X160902Y214725D01*
X161683Y215325D01*
X162283Y216106D01*
X162660Y217016D01*
X162788Y217992D01*
X162660Y218969D01*
X162283Y219878D01*
X161683Y220660D01*
X160902Y221259D01*
X159992Y221636D01*
X159016Y221765D01*
D02*
G37*
G36*
X526516Y229161D02*
X486614D01*
X485792Y229053D01*
X485026Y228735D01*
X484368Y228231D01*
X472770Y216633D01*
X472526Y216400D01*
X472007Y215961D01*
X471796Y215805D01*
X471610Y215682D01*
X471459Y215598D01*
X471351Y215552D01*
X471342Y215549D01*
X471260Y215560D01*
X469984Y215392D01*
X468795Y214899D01*
X467774Y214116D01*
X466991Y213095D01*
X466498Y211906D01*
X466330Y210630D01*
X466498Y209354D01*
X466991Y208165D01*
X467774Y207144D01*
X468795Y206361D01*
X469984Y205868D01*
X471260Y205700D01*
X472536Y205868D01*
X473725Y206361D01*
X474746Y207144D01*
X475529Y208165D01*
X476021Y209354D01*
X476189Y210630D01*
X476179Y210712D01*
X476181Y210722D01*
X476228Y210829D01*
X476312Y210980D01*
X476435Y211166D01*
X476586Y211371D01*
X477239Y212117D01*
X487930Y222808D01*
X525200D01*
X527423Y220584D01*
Y212679D01*
X526923Y212580D01*
X526710Y213095D01*
X525926Y214116D01*
X524906Y214899D01*
X523717Y215392D01*
X522441Y215560D01*
X521165Y215392D01*
X519976Y214899D01*
X518955Y214116D01*
X518172Y213095D01*
X517679Y211906D01*
X517511Y210630D01*
X517522Y210548D01*
X517519Y210538D01*
X517472Y210431D01*
X517388Y210280D01*
X517266Y210094D01*
X517114Y209889D01*
X516462Y209144D01*
X487857Y180539D01*
X417520D01*
X416698Y180431D01*
X415931Y180113D01*
X415273Y179609D01*
X380025Y144360D01*
X379458Y144286D01*
X378477Y143879D01*
X377634Y143232D01*
X376987Y142390D01*
X376580Y141408D01*
X376442Y140354D01*
X376580Y139301D01*
X376987Y138319D01*
X377634Y137476D01*
X378477Y136829D01*
X379458Y136423D01*
X380512Y136284D01*
X381565Y136423D01*
X382547Y136829D01*
X383390Y137476D01*
X384037Y138319D01*
X384443Y139301D01*
X384518Y139868D01*
X418835Y174185D01*
X489173D01*
X489995Y174294D01*
X490761Y174611D01*
X491419Y175116D01*
X520931Y204627D01*
X521175Y204860D01*
X521694Y205299D01*
X521905Y205455D01*
X522091Y205578D01*
X522242Y205662D01*
X522349Y205708D01*
X522359Y205711D01*
X522441Y205700D01*
X523717Y205868D01*
X524906Y206361D01*
X525926Y207144D01*
X526710Y208165D01*
X526923Y208680D01*
X527423Y208581D01*
Y192825D01*
X527531Y192003D01*
X527849Y191237D01*
X528354Y190579D01*
X546731Y172202D01*
X546750Y172055D01*
X547127Y171145D01*
X547726Y170364D01*
X548508Y169765D01*
X549417Y169388D01*
X550394Y169259D01*
X551370Y169388D01*
X552280Y169765D01*
X553061Y170364D01*
X553661Y171145D01*
X554038Y172055D01*
X554166Y173032D01*
X554038Y174008D01*
X553661Y174918D01*
X553061Y175699D01*
X552280Y176299D01*
X551370Y176675D01*
X551223Y176695D01*
X533777Y194141D01*
Y221900D01*
X533669Y222722D01*
X533351Y223488D01*
X532846Y224146D01*
X528762Y228231D01*
X528104Y228735D01*
X527338Y229053D01*
X526516Y229161D01*
D02*
G37*
G36*
X415630Y218701D02*
X406181D01*
Y209252D01*
X415630D01*
Y218701D01*
D02*
G37*
G36*
X452087Y218742D02*
X450853Y218579D01*
X449704Y218103D01*
X448717Y217346D01*
X447960Y216359D01*
X447484Y215210D01*
X447322Y213976D01*
X447484Y212743D01*
X447960Y211594D01*
X448717Y210607D01*
X449704Y209850D01*
X450853Y209374D01*
X452087Y209211D01*
X453320Y209374D01*
X454469Y209850D01*
X455456Y210607D01*
X456214Y211594D01*
X456690Y212743D01*
X456852Y213976D01*
X456690Y215210D01*
X456214Y216359D01*
X455456Y217346D01*
X454469Y218103D01*
X453320Y218579D01*
X452087Y218742D01*
D02*
G37*
G36*
X159016Y211765D02*
X158039Y211636D01*
X157130Y211259D01*
X156348Y210660D01*
X155749Y209878D01*
X155372Y208969D01*
X155243Y207992D01*
X155372Y207016D01*
X155749Y206106D01*
X156348Y205325D01*
X157130Y204725D01*
X158039Y204348D01*
X159016Y204220D01*
X159992Y204348D01*
X160902Y204725D01*
X161683Y205325D01*
X162283Y206106D01*
X162660Y207016D01*
X162788Y207992D01*
X162660Y208969D01*
X162283Y209878D01*
X161683Y210660D01*
X160902Y211259D01*
X159992Y211636D01*
X159016Y211765D01*
D02*
G37*
G36*
Y201765D02*
X158039Y201636D01*
X157130Y201259D01*
X156348Y200660D01*
X155749Y199878D01*
X155372Y198969D01*
X155243Y197992D01*
X155372Y197016D01*
X155749Y196106D01*
X156348Y195325D01*
X157130Y194725D01*
X158039Y194348D01*
X159016Y194220D01*
X159992Y194348D01*
X160902Y194725D01*
X161683Y195325D01*
X162283Y196106D01*
X162660Y197016D01*
X162788Y197992D01*
X162660Y198969D01*
X162283Y199878D01*
X161683Y200660D01*
X160902Y201259D01*
X159992Y201636D01*
X159016Y201765D01*
D02*
G37*
G36*
X99016D02*
X98039Y201636D01*
X97130Y201259D01*
X96348Y200660D01*
X95749Y199878D01*
X95372Y198969D01*
X95243Y197992D01*
X95372Y197016D01*
X95749Y196106D01*
X96348Y195325D01*
X97130Y194725D01*
X98039Y194348D01*
X99016Y194220D01*
X99992Y194348D01*
X100902Y194725D01*
X101683Y195325D01*
X102283Y196106D01*
X102660Y197016D01*
X102788Y197992D01*
X102660Y198969D01*
X102283Y199878D01*
X101683Y200660D01*
X100902Y201259D01*
X99992Y201636D01*
X99016Y201765D01*
D02*
G37*
G36*
X241142Y199182D02*
X240284Y199069D01*
X239484Y198738D01*
X238797Y198211D01*
X238270Y197524D01*
X237939Y196724D01*
X237826Y195866D01*
X237939Y195008D01*
X238270Y194208D01*
X238797Y193522D01*
X239484Y192995D01*
X240284Y192663D01*
X241142Y192550D01*
X242000Y192663D01*
X242800Y192995D01*
X243486Y193522D01*
X244013Y194208D01*
X244345Y195008D01*
X244458Y195866D01*
X244345Y196724D01*
X244013Y197524D01*
X243486Y198211D01*
X242800Y198738D01*
X242000Y199069D01*
X241142Y199182D01*
D02*
G37*
G36*
X201142D02*
X200284Y199069D01*
X199484Y198738D01*
X198797Y198211D01*
X198270Y197524D01*
X197939Y196724D01*
X197826Y195866D01*
X197939Y195008D01*
X198270Y194208D01*
X198797Y193522D01*
X199484Y192995D01*
X200284Y192663D01*
X201142Y192550D01*
X202000Y192663D01*
X202800Y192995D01*
X203486Y193522D01*
X204013Y194208D01*
X204345Y195008D01*
X204458Y195866D01*
X204345Y196724D01*
X204013Y197524D01*
X203486Y198211D01*
X202800Y198738D01*
X202000Y199069D01*
X201142Y199182D01*
D02*
G37*
G36*
X78740Y198591D02*
X77882Y198478D01*
X77082Y198147D01*
X76395Y197620D01*
X75868Y196933D01*
X75537Y196134D01*
X75424Y195276D01*
X75537Y194417D01*
X75868Y193618D01*
X76395Y192931D01*
X77082Y192404D01*
X77882Y192073D01*
X78740Y191960D01*
X79598Y192073D01*
X80398Y192404D01*
X81085Y192931D01*
X81612Y193618D01*
X81943Y194417D01*
X82056Y195276D01*
X81943Y196134D01*
X81612Y196933D01*
X81085Y197620D01*
X80398Y198147D01*
X79598Y198478D01*
X78740Y198591D01*
D02*
G37*
G36*
X38740D02*
X37882Y198478D01*
X37082Y198147D01*
X36395Y197620D01*
X35868Y196933D01*
X35537Y196134D01*
X35424Y195276D01*
X35537Y194417D01*
X35868Y193618D01*
X36395Y192931D01*
X37082Y192404D01*
X37882Y192073D01*
X38740Y191960D01*
X39598Y192073D01*
X40398Y192404D01*
X41085Y192931D01*
X41611Y193618D01*
X41943Y194417D01*
X42056Y195276D01*
X41943Y196134D01*
X41611Y196933D01*
X41085Y197620D01*
X40398Y198147D01*
X39598Y198478D01*
X38740Y198591D01*
D02*
G37*
G36*
X550394Y196804D02*
X549417Y196676D01*
X548508Y196299D01*
X547726Y195699D01*
X547127Y194918D01*
X546750Y194008D01*
X546621Y193032D01*
X546750Y192055D01*
X547127Y191145D01*
X547726Y190364D01*
X548508Y189765D01*
X549417Y189388D01*
X550394Y189259D01*
X551370Y189388D01*
X552280Y189765D01*
X553061Y190364D01*
X553661Y191145D01*
X554038Y192055D01*
X554166Y193032D01*
X554038Y194008D01*
X553661Y194918D01*
X553061Y195699D01*
X552280Y196299D01*
X551370Y196676D01*
X550394Y196804D01*
D02*
G37*
G36*
X159016Y191765D02*
X158039Y191636D01*
X157130Y191259D01*
X156348Y190660D01*
X155749Y189878D01*
X155372Y188969D01*
X155243Y187992D01*
X155372Y187016D01*
X155749Y186106D01*
X156348Y185325D01*
X157130Y184725D01*
X158039Y184348D01*
X159016Y184220D01*
X159992Y184348D01*
X160902Y184725D01*
X161683Y185325D01*
X162283Y186106D01*
X162660Y187016D01*
X162788Y187992D01*
X162660Y188969D01*
X162283Y189878D01*
X161683Y190660D01*
X160902Y191259D01*
X159992Y191636D01*
X159016Y191765D01*
D02*
G37*
G36*
X332480Y191669D02*
X331427Y191530D01*
X330445Y191123D01*
X329602Y190477D01*
X328955Y189634D01*
X328549Y188652D01*
X328413Y187622D01*
X328352Y187524D01*
X328269Y187408D01*
X327609Y186659D01*
X325148Y184197D01*
X318774D01*
X318380Y184207D01*
X317766Y184261D01*
X317244Y184348D01*
X316819Y184461D01*
X316492Y184595D01*
X316261Y184735D01*
X316114Y184870D01*
X316026Y185002D01*
X315973Y185150D01*
X315945Y185417D01*
Y186142D01*
X315163D01*
X315146Y186145D01*
X315128Y186142D01*
X306496D01*
Y185278D01*
X306479Y185121D01*
X306426Y184970D01*
X306336Y184836D01*
X306188Y184699D01*
X305956Y184558D01*
X305628Y184424D01*
X305201Y184309D01*
X304678Y184222D01*
X304062Y184168D01*
X303666Y184158D01*
X288014D01*
X287348Y184173D01*
X287168Y184187D01*
X286571Y184645D01*
X285661Y185022D01*
X284685Y185150D01*
X283709Y185022D01*
X282799Y184645D01*
X282017Y184046D01*
X281418Y183264D01*
X281041Y182354D01*
X280913Y181378D01*
X281041Y180402D01*
X281418Y179492D01*
X282017Y178710D01*
X282799Y178111D01*
X283709Y177734D01*
X284685Y177606D01*
X285661Y177734D01*
X286571Y178111D01*
X287109Y178524D01*
X288521Y178598D01*
X303674D01*
X304062Y178588D01*
X304677Y178535D01*
X305200Y178451D01*
X305627Y178339D01*
X305955Y178208D01*
X306186Y178070D01*
X306332Y177938D01*
X306418Y177813D01*
X306468Y177674D01*
X306496Y177417D01*
Y176693D01*
X307277D01*
X307294Y176690D01*
X307312Y176693D01*
X315128D01*
X315146Y176690D01*
X315163Y176693D01*
X315945D01*
Y177418D01*
X315973Y177685D01*
X316026Y177833D01*
X316114Y177964D01*
X316261Y178100D01*
X316492Y178240D01*
X316819Y178373D01*
X317244Y178487D01*
X317766Y178574D01*
X318380Y178627D01*
X318774Y178638D01*
X326299D01*
X327019Y178732D01*
X327689Y179010D01*
X328265Y179452D01*
X331587Y182774D01*
X331925Y183087D01*
X332279Y183379D01*
X332406Y183470D01*
X332504Y183531D01*
X333534Y183667D01*
X334515Y184073D01*
X335358Y184720D01*
X336005Y185563D01*
X336412Y186545D01*
X336551Y187598D01*
X336412Y188652D01*
X336005Y189634D01*
X335358Y190477D01*
X334515Y191123D01*
X333534Y191530D01*
X332480Y191669D01*
D02*
G37*
G36*
X380512D02*
X379458Y191530D01*
X378477Y191123D01*
X377634Y190477D01*
X376987Y189634D01*
X376580Y188652D01*
X376442Y187598D01*
X376580Y186545D01*
X376987Y185563D01*
X377634Y184720D01*
X378477Y184073D01*
X379458Y183667D01*
X380512Y183528D01*
X381565Y183667D01*
X382547Y184073D01*
X383390Y184720D01*
X384037Y185563D01*
X384443Y186545D01*
X384582Y187598D01*
X384443Y188652D01*
X384037Y189634D01*
X383390Y190477D01*
X382547Y191123D01*
X381565Y191530D01*
X380512Y191669D01*
D02*
G37*
G36*
X258425Y185118D02*
X250945D01*
Y177638D01*
X258425D01*
Y185118D01*
D02*
G37*
G36*
X159016Y181765D02*
X158039Y181636D01*
X157130Y181259D01*
X156348Y180660D01*
X155749Y179878D01*
X155372Y178969D01*
X155243Y177992D01*
X155372Y177016D01*
X155749Y176106D01*
X156348Y175325D01*
X157130Y174725D01*
X158039Y174348D01*
X159016Y174220D01*
X159992Y174348D01*
X160902Y174725D01*
X161683Y175325D01*
X162283Y176106D01*
X162660Y177016D01*
X162788Y177992D01*
X162660Y178969D01*
X162283Y179878D01*
X161683Y180660D01*
X160902Y181259D01*
X159992Y181636D01*
X159016Y181765D01*
D02*
G37*
G36*
X99016D02*
X98039Y181636D01*
X97130Y181259D01*
X96348Y180660D01*
X95749Y179878D01*
X95372Y178969D01*
X95243Y177992D01*
X95372Y177016D01*
X95749Y176106D01*
X96348Y175325D01*
X97130Y174725D01*
X98039Y174348D01*
X99016Y174220D01*
X99992Y174348D01*
X100902Y174725D01*
X101683Y175325D01*
X102283Y176106D01*
X102660Y177016D01*
X102788Y177992D01*
X102660Y178969D01*
X102283Y179878D01*
X101683Y180660D01*
X100902Y181259D01*
X99992Y181636D01*
X99016Y181765D01*
D02*
G37*
G36*
X300197Y176190D02*
X299339Y176077D01*
X298539Y175746D01*
X297852Y175219D01*
X297325Y174532D01*
X296994Y173732D01*
X296979Y173615D01*
X296853Y173594D01*
X296740Y173586D01*
X288520D01*
X288317Y173611D01*
X288113Y173650D01*
X287934Y173697D01*
X287778Y173751D01*
X287646Y173810D01*
X287535Y173873D01*
X287444Y173939D01*
X287412Y173968D01*
X287352Y174046D01*
X286571Y174645D01*
X285661Y175022D01*
X284685Y175150D01*
X283709Y175022D01*
X282799Y174645D01*
X282017Y174046D01*
X281418Y173264D01*
X281041Y172354D01*
X280913Y171378D01*
X281041Y170402D01*
X281418Y169492D01*
X282017Y168710D01*
X282799Y168111D01*
X283709Y167734D01*
X284685Y167606D01*
X285661Y167734D01*
X286571Y168111D01*
X287352Y168710D01*
X287412Y168788D01*
X287444Y168817D01*
X287535Y168883D01*
X287646Y168946D01*
X287778Y169005D01*
X287934Y169059D01*
X288113Y169106D01*
X288305Y169142D01*
X288590Y169170D01*
X298701D01*
X299546Y169338D01*
X299928Y169594D01*
X300197Y169558D01*
X301055Y169671D01*
X301855Y170002D01*
X302541Y170529D01*
X303068Y171216D01*
X303400Y172016D01*
X303513Y172874D01*
X303400Y173732D01*
X303068Y174532D01*
X302541Y175219D01*
X301855Y175746D01*
X301055Y176077D01*
X300197Y176190D01*
D02*
G37*
G36*
X254685Y175150D02*
X253709Y175022D01*
X252799Y174645D01*
X252017Y174046D01*
X251922Y173921D01*
X251827Y173829D01*
X251741Y173762D01*
X251636Y173698D01*
X251510Y173638D01*
X251360Y173583D01*
X251186Y173535D01*
X250998Y173497D01*
X250706Y173468D01*
X238935D01*
X238743Y173481D01*
X238387Y173529D01*
X238101Y173591D01*
X237891Y173660D01*
X237760Y173725D01*
X237705Y173766D01*
X237697Y173826D01*
Y174547D01*
X236915D01*
X236897Y174550D01*
X236880Y174547D01*
X231122D01*
Y167972D01*
X236880D01*
X236897Y167969D01*
X236915Y167972D01*
X237697D01*
Y168693D01*
X237705Y168754D01*
X237760Y168795D01*
X237891Y168859D01*
X238101Y168929D01*
X238373Y168988D01*
X239012Y169052D01*
X250931D01*
X251128Y169028D01*
X251335Y168991D01*
X251519Y168946D01*
X251680Y168894D01*
X251818Y168836D01*
X251934Y168774D01*
X252006Y168726D01*
X252017Y168710D01*
X252799Y168111D01*
X253709Y167734D01*
X254685Y167606D01*
X255661Y167734D01*
X256571Y168111D01*
X257352Y168710D01*
X257952Y169492D01*
X258329Y170402D01*
X258457Y171378D01*
X258329Y172354D01*
X257952Y173264D01*
X257352Y174046D01*
X256571Y174645D01*
X255661Y175022D01*
X254685Y175150D01*
D02*
G37*
G36*
X224409Y174575D02*
X223551Y174462D01*
X222751Y174131D01*
X222065Y173604D01*
X221538Y172918D01*
X221207Y172118D01*
X221094Y171260D01*
X221207Y170402D01*
X221538Y169602D01*
X222065Y168915D01*
X222751Y168388D01*
X223551Y168057D01*
X224409Y167944D01*
X225268Y168057D01*
X226067Y168388D01*
X226754Y168915D01*
X227281Y169602D01*
X227612Y170402D01*
X227725Y171260D01*
X227612Y172118D01*
X227281Y172918D01*
X226754Y173604D01*
X226067Y174131D01*
X225268Y174462D01*
X224409Y174575D01*
D02*
G37*
G36*
X159016Y171765D02*
X158039Y171636D01*
X157130Y171259D01*
X156348Y170660D01*
X155749Y169878D01*
X155372Y168969D01*
X155243Y167992D01*
X155372Y167016D01*
X155749Y166106D01*
X156348Y165325D01*
X157130Y164725D01*
X158039Y164348D01*
X159016Y164220D01*
X159992Y164348D01*
X160902Y164725D01*
X161683Y165325D01*
X162283Y166106D01*
X162660Y167016D01*
X162788Y167992D01*
X162660Y168969D01*
X162283Y169878D01*
X161683Y170660D01*
X160902Y171259D01*
X159992Y171636D01*
X159016Y171765D01*
D02*
G37*
G36*
X99016D02*
X98039Y171636D01*
X97130Y171259D01*
X96348Y170660D01*
X95749Y169878D01*
X95372Y168969D01*
X95243Y167992D01*
X95372Y167016D01*
X95749Y166106D01*
X96348Y165325D01*
X97130Y164725D01*
X98039Y164348D01*
X99016Y164220D01*
X99992Y164348D01*
X100902Y164725D01*
X101683Y165325D01*
X102283Y166106D01*
X102660Y167016D01*
X102788Y167992D01*
X102660Y168969D01*
X102283Y169878D01*
X101683Y170660D01*
X100902Y171259D01*
X99992Y171636D01*
X99016Y171765D01*
D02*
G37*
G36*
X445972Y162932D02*
Y160106D01*
X448798D01*
X448748Y160484D01*
X448409Y161302D01*
X447870Y162004D01*
X447168Y162543D01*
X446350Y162882D01*
X445972Y162932D01*
D02*
G37*
G36*
X422941D02*
Y160106D01*
X425766D01*
X425717Y160484D01*
X425378Y161302D01*
X424839Y162004D01*
X424137Y162543D01*
X423319Y162882D01*
X422941Y162932D01*
D02*
G37*
G36*
X444972D02*
X444595Y162882D01*
X443777Y162543D01*
X443074Y162004D01*
X442535Y161302D01*
X442197Y160484D01*
X442147Y160106D01*
X444972D01*
Y162932D01*
D02*
G37*
G36*
X421941D02*
X421563Y162882D01*
X420745Y162543D01*
X420043Y162004D01*
X419504Y161302D01*
X419165Y160484D01*
X419116Y160106D01*
X421941D01*
Y162932D01*
D02*
G37*
G36*
X324606Y168047D02*
X323553Y167908D01*
X322571Y167501D01*
X321728Y166855D01*
X321081Y166012D01*
X320675Y165030D01*
X320536Y163976D01*
X320675Y162923D01*
X321081Y161941D01*
X321728Y161098D01*
X322571Y160451D01*
X323553Y160045D01*
X324606Y159906D01*
X325660Y160045D01*
X326641Y160451D01*
X327484Y161098D01*
X328131Y161941D01*
X328538Y162923D01*
X328677Y163976D01*
X328538Y165030D01*
X328131Y166012D01*
X327484Y166855D01*
X326641Y167501D01*
X325660Y167908D01*
X324606Y168047D01*
D02*
G37*
G36*
X470760Y160590D02*
X469928Y160480D01*
X469327Y160231D01*
X470113Y159448D01*
X467324Y156659D01*
X466540Y157445D01*
X466291Y156843D01*
X466182Y156012D01*
X470760D01*
Y160590D01*
D02*
G37*
G36*
X448798Y159106D02*
X445972D01*
Y156281D01*
X446350Y156331D01*
X447168Y156669D01*
X447870Y157208D01*
X448409Y157911D01*
X448748Y158729D01*
X448798Y159106D01*
D02*
G37*
G36*
X425766D02*
X422941D01*
Y156281D01*
X423319Y156331D01*
X424137Y156669D01*
X424839Y157208D01*
X425378Y157911D01*
X425717Y158729D01*
X425766Y159106D01*
D02*
G37*
G36*
X444972D02*
X442147D01*
X442197Y158729D01*
X442535Y157911D01*
X443074Y157208D01*
X443777Y156669D01*
X444595Y156331D01*
X444972Y156281D01*
Y159106D01*
D02*
G37*
G36*
X421941D02*
X419116D01*
X419165Y158729D01*
X419504Y157911D01*
X420043Y157208D01*
X420745Y156669D01*
X421563Y156331D01*
X421941Y156281D01*
Y159106D01*
D02*
G37*
G36*
X471760Y160590D02*
Y156012D01*
X476338D01*
X476229Y156843D01*
X475715Y158084D01*
X474897Y159149D01*
X473832Y159967D01*
X472591Y160480D01*
X471760Y160590D01*
D02*
G37*
G36*
X159016Y161765D02*
X158039Y161636D01*
X157130Y161259D01*
X156348Y160660D01*
X155749Y159878D01*
X155372Y158969D01*
X155243Y157992D01*
X155372Y157016D01*
X155749Y156106D01*
X156348Y155325D01*
X157130Y154725D01*
X158039Y154348D01*
X159016Y154220D01*
X159992Y154348D01*
X160902Y154725D01*
X161683Y155325D01*
X162283Y156106D01*
X162660Y157016D01*
X162788Y157992D01*
X162660Y158969D01*
X162283Y159878D01*
X161683Y160660D01*
X160902Y161259D01*
X159992Y161636D01*
X159016Y161765D01*
D02*
G37*
G36*
X99016D02*
X98039Y161636D01*
X97130Y161259D01*
X96348Y160660D01*
X95749Y159878D01*
X95372Y158969D01*
X95243Y157992D01*
X95372Y157016D01*
X95749Y156106D01*
X96348Y155325D01*
X97130Y154725D01*
X98039Y154348D01*
X99016Y154220D01*
X99992Y154348D01*
X100902Y154725D01*
X101683Y155325D01*
X102283Y156106D01*
X102660Y157016D01*
X102788Y157992D01*
X102660Y158969D01*
X102283Y159878D01*
X101683Y160660D01*
X100902Y161259D01*
X99992Y161636D01*
X99016Y161765D01*
D02*
G37*
G36*
X403650Y155630D02*
Y152665D01*
X406614D01*
X406560Y153079D01*
X406207Y153930D01*
X405646Y154662D01*
X404915Y155223D01*
X404063Y155575D01*
X403650Y155630D01*
D02*
G37*
G36*
X402650D02*
X402236Y155575D01*
X401384Y155223D01*
X400653Y154662D01*
X400092Y153930D01*
X399740Y153079D01*
X399685Y152665D01*
X402650D01*
Y155630D01*
D02*
G37*
G36*
X522441Y160441D02*
X521165Y160273D01*
X519976Y159781D01*
X518955Y158997D01*
X518172Y157977D01*
X517679Y156788D01*
X517511Y155512D01*
X517679Y154236D01*
X518172Y153047D01*
X518955Y152026D01*
X519976Y151243D01*
X521165Y150750D01*
X522441Y150582D01*
X523717Y150750D01*
X524906Y151243D01*
X525926Y152026D01*
X526710Y153047D01*
X527202Y154236D01*
X527370Y155512D01*
X527202Y156788D01*
X526710Y157977D01*
X525926Y158997D01*
X524906Y159781D01*
X523717Y160273D01*
X522441Y160441D01*
D02*
G37*
G36*
X476338Y155012D02*
X471760D01*
Y150434D01*
X472591Y150543D01*
X473832Y151057D01*
X474897Y151874D01*
X475715Y152940D01*
X476229Y154180D01*
X476338Y155012D01*
D02*
G37*
G36*
X470760D02*
X466182D01*
X466291Y154180D01*
X466805Y152940D01*
X467622Y151874D01*
X468688Y151057D01*
X469928Y150543D01*
X470760Y150434D01*
Y155012D01*
D02*
G37*
G36*
X406614Y151665D02*
X403650D01*
Y148701D01*
X404063Y148756D01*
X404915Y149108D01*
X405646Y149669D01*
X406207Y150400D01*
X406560Y151252D01*
X406614Y151665D01*
D02*
G37*
G36*
X402650D02*
X399685D01*
X399740Y151252D01*
X400092Y150400D01*
X400653Y149669D01*
X401384Y149108D01*
X402236Y148756D01*
X402650Y148701D01*
Y151665D01*
D02*
G37*
G36*
X159016Y151765D02*
X158039Y151636D01*
X157130Y151259D01*
X156348Y150660D01*
X155749Y149878D01*
X155372Y148969D01*
X155243Y147992D01*
X155372Y147016D01*
X155749Y146106D01*
X156348Y145325D01*
X157130Y144725D01*
X158039Y144348D01*
X159016Y144220D01*
X159992Y144348D01*
X160902Y144725D01*
X161683Y145325D01*
X162283Y146106D01*
X162660Y147016D01*
X162788Y147992D01*
X162660Y148969D01*
X162283Y149878D01*
X161683Y150660D01*
X160902Y151259D01*
X159992Y151636D01*
X159016Y151765D01*
D02*
G37*
G36*
X99016D02*
X98039Y151636D01*
X97130Y151259D01*
X96348Y150660D01*
X95749Y149878D01*
X95372Y148969D01*
X95243Y147992D01*
X95372Y147016D01*
X95749Y146106D01*
X96348Y145325D01*
X97130Y144725D01*
X98039Y144348D01*
X99016Y144220D01*
X99992Y144348D01*
X100902Y144725D01*
X101683Y145325D01*
X102283Y146106D01*
X102660Y147016D01*
X102788Y147992D01*
X102660Y148969D01*
X102283Y149878D01*
X101683Y150660D01*
X100902Y151259D01*
X99992Y151636D01*
X99016Y151765D01*
D02*
G37*
G36*
X311221Y145001D02*
X309987Y144839D01*
X308838Y144363D01*
X307851Y143606D01*
X307582Y143255D01*
X307541Y143224D01*
X307320Y142969D01*
X307112Y142766D01*
X306895Y142591D01*
X306670Y142441D01*
X306435Y142315D01*
X306189Y142212D01*
X305928Y142131D01*
X305652Y142072D01*
X305473Y142050D01*
X282422D01*
X281926Y142074D01*
X281340Y142135D01*
X281146Y142169D01*
X281012Y142202D01*
X280963Y142220D01*
X280938Y142234D01*
X280917Y142250D01*
X280836Y142283D01*
X280821Y142293D01*
X280804Y142297D01*
X280247Y142527D01*
X279527Y142622D01*
X275590D01*
X274871Y142527D01*
X274201Y142250D01*
X273625Y141808D01*
X273183Y141232D01*
X272905Y140562D01*
X272811Y139842D01*
X272905Y139123D01*
X273183Y138453D01*
X273625Y137877D01*
X273918Y137652D01*
Y137033D01*
X273625Y136808D01*
X273183Y136232D01*
X272905Y135562D01*
X272811Y134842D01*
X272905Y134123D01*
X273183Y133453D01*
X273625Y132877D01*
X273736Y132791D01*
Y132161D01*
X273473Y131960D01*
X272997Y131340D01*
X272698Y130617D01*
X272662Y130342D01*
X277559D01*
X282456D01*
X282420Y130617D01*
X282120Y131340D01*
X281645Y131960D01*
X281517Y132057D01*
X281674Y132568D01*
X282794Y132635D01*
X296913D01*
X296994Y132016D01*
X297325Y131216D01*
X297852Y130529D01*
X298539Y130002D01*
X299339Y129671D01*
X300197Y129558D01*
X301055Y129671D01*
X301855Y130002D01*
X302541Y130529D01*
X303068Y131216D01*
X303400Y132016D01*
X303513Y132874D01*
X303400Y133732D01*
X303068Y134532D01*
X302541Y135219D01*
X301855Y135746D01*
X301055Y136077D01*
X300197Y136190D01*
X300026Y136167D01*
X299790Y136404D01*
X299073Y136882D01*
X298229Y137050D01*
X282422D01*
X281926Y137074D01*
X281880Y137079D01*
X281891Y137581D01*
X282794Y137635D01*
X305807D01*
X305959Y137619D01*
X306255Y137566D01*
X306545Y137493D01*
X306829Y137399D01*
X307108Y137283D01*
X307382Y137146D01*
X307653Y136986D01*
X307920Y136803D01*
X308204Y136581D01*
X308262Y136551D01*
X308838Y136109D01*
X309987Y135633D01*
X311221Y135471D01*
X312454Y135633D01*
X313603Y136109D01*
X314590Y136867D01*
X314693Y137001D01*
X314839Y137140D01*
X315078Y137335D01*
X315323Y137505D01*
X315574Y137652D01*
X315832Y137774D01*
X316098Y137875D01*
X316374Y137953D01*
X316660Y138009D01*
X316829Y138028D01*
X328170D01*
X328203Y138026D01*
X328451Y137990D01*
X328679Y137941D01*
X328889Y137881D01*
X329081Y137809D01*
X329255Y137726D01*
X329414Y137633D01*
X329559Y137530D01*
X329566Y137524D01*
X329602Y137476D01*
X330445Y136829D01*
X331427Y136423D01*
X332480Y136284D01*
X333534Y136423D01*
X334515Y136829D01*
X335358Y137476D01*
X336005Y138319D01*
X336412Y139301D01*
X336551Y140354D01*
X336412Y141408D01*
X336005Y142390D01*
X335358Y143232D01*
X334515Y143879D01*
X333534Y144286D01*
X332480Y144425D01*
X331427Y144286D01*
X330445Y143879D01*
X329602Y143232D01*
X329496Y143094D01*
X329365Y142964D01*
X329233Y142857D01*
X329087Y142761D01*
X328925Y142675D01*
X328745Y142601D01*
X328546Y142537D01*
X328326Y142486D01*
X328085Y142449D01*
X328032Y142444D01*
X316829D01*
X316660Y142463D01*
X316374Y142519D01*
X316098Y142598D01*
X315832Y142698D01*
X315574Y142821D01*
X315323Y142967D01*
X315078Y143137D01*
X314839Y143333D01*
X314693Y143472D01*
X314590Y143606D01*
X313603Y144363D01*
X312454Y144839D01*
X311221Y145001D01*
D02*
G37*
G36*
X159016Y141765D02*
X158039Y141636D01*
X157130Y141259D01*
X156348Y140660D01*
X155749Y139878D01*
X155372Y138969D01*
X155243Y137992D01*
X155372Y137016D01*
X155749Y136106D01*
X156348Y135325D01*
X157130Y134725D01*
X158039Y134348D01*
X159016Y134220D01*
X159992Y134348D01*
X160902Y134725D01*
X161683Y135325D01*
X162283Y136106D01*
X162660Y137016D01*
X162788Y137992D01*
X162660Y138969D01*
X162283Y139878D01*
X161683Y140660D01*
X160902Y141259D01*
X159992Y141636D01*
X159016Y141765D01*
D02*
G37*
G36*
X99016D02*
X98039Y141636D01*
X97130Y141259D01*
X96348Y140660D01*
X95749Y139878D01*
X95372Y138969D01*
X95243Y137992D01*
X95372Y137016D01*
X95749Y136106D01*
X96348Y135325D01*
X97130Y134725D01*
X98039Y134348D01*
X99016Y134220D01*
X99992Y134348D01*
X100902Y134725D01*
X101683Y135325D01*
X102283Y136106D01*
X102660Y137016D01*
X102788Y137992D01*
X102660Y138969D01*
X102283Y139878D01*
X101683Y140660D01*
X100902Y141259D01*
X99992Y141636D01*
X99016Y141765D01*
D02*
G37*
G36*
X282456Y129342D02*
X278059D01*
Y126848D01*
X279527D01*
X280302Y126950D01*
X281025Y127249D01*
X281645Y127725D01*
X282120Y128345D01*
X282420Y129068D01*
X282456Y129342D01*
D02*
G37*
G36*
X277059D02*
X272662D01*
X272698Y129068D01*
X272997Y128345D01*
X273473Y127725D01*
X274093Y127249D01*
X274816Y126950D01*
X275590Y126848D01*
X277059D01*
Y129342D01*
D02*
G37*
G36*
X159016Y131765D02*
X158039Y131636D01*
X157130Y131259D01*
X156348Y130660D01*
X155749Y129878D01*
X155372Y128969D01*
X155243Y127992D01*
X155372Y127016D01*
X155749Y126106D01*
X156348Y125325D01*
X157130Y124725D01*
X158039Y124348D01*
X159016Y124220D01*
X159992Y124348D01*
X160902Y124725D01*
X161683Y125325D01*
X162283Y126106D01*
X162660Y127016D01*
X162788Y127992D01*
X162660Y128969D01*
X162283Y129878D01*
X161683Y130660D01*
X160902Y131259D01*
X159992Y131636D01*
X159016Y131765D01*
D02*
G37*
G36*
X99016D02*
X98039Y131636D01*
X97130Y131259D01*
X96348Y130660D01*
X95749Y129878D01*
X95372Y128969D01*
X95243Y127992D01*
X95372Y127016D01*
X95749Y126106D01*
X96348Y125325D01*
X97130Y124725D01*
X98039Y124348D01*
X99016Y124220D01*
X99992Y124348D01*
X100902Y124725D01*
X101683Y125325D01*
X102283Y126106D01*
X102660Y127016D01*
X102788Y127992D01*
X102660Y128969D01*
X102283Y129878D01*
X101683Y130660D01*
X100902Y131259D01*
X99992Y131636D01*
X99016Y131765D01*
D02*
G37*
G36*
X159016Y121765D02*
X158039Y121636D01*
X157130Y121259D01*
X156348Y120660D01*
X155749Y119878D01*
X155372Y118969D01*
X155243Y117992D01*
X155372Y117016D01*
X155749Y116106D01*
X156348Y115325D01*
X157130Y114725D01*
X158039Y114348D01*
X159016Y114220D01*
X159992Y114348D01*
X160902Y114725D01*
X161683Y115325D01*
X162283Y116106D01*
X162660Y117016D01*
X162788Y117992D01*
X162660Y118969D01*
X162283Y119878D01*
X161683Y120660D01*
X160902Y121259D01*
X159992Y121636D01*
X159016Y121765D01*
D02*
G37*
G36*
X99016D02*
X98039Y121636D01*
X97130Y121259D01*
X96348Y120660D01*
X95749Y119878D01*
X95372Y118969D01*
X95243Y117992D01*
X95372Y117016D01*
X95749Y116106D01*
X96348Y115325D01*
X97130Y114725D01*
X98039Y114348D01*
X99016Y114220D01*
X99992Y114348D01*
X100902Y114725D01*
X101683Y115325D01*
X102283Y116106D01*
X102660Y117016D01*
X102788Y117992D01*
X102660Y118969D01*
X102283Y119878D01*
X101683Y120660D01*
X100902Y121259D01*
X99992Y121636D01*
X99016Y121765D01*
D02*
G37*
G36*
X159016Y111765D02*
X158039Y111636D01*
X157130Y111259D01*
X156348Y110660D01*
X155749Y109878D01*
X155372Y108969D01*
X155243Y107992D01*
X155372Y107016D01*
X155749Y106106D01*
X156348Y105325D01*
X157130Y104725D01*
X158039Y104348D01*
X159016Y104220D01*
X159992Y104348D01*
X160902Y104725D01*
X161683Y105325D01*
X162283Y106106D01*
X162660Y107016D01*
X162788Y107992D01*
X162660Y108969D01*
X162283Y109878D01*
X161683Y110660D01*
X160902Y111259D01*
X159992Y111636D01*
X159016Y111765D01*
D02*
G37*
G36*
X99016D02*
X98039Y111636D01*
X97130Y111259D01*
X96348Y110660D01*
X95749Y109878D01*
X95372Y108969D01*
X95243Y107992D01*
X95372Y107016D01*
X95749Y106106D01*
X96348Y105325D01*
X97130Y104725D01*
X98039Y104348D01*
X99016Y104220D01*
X99992Y104348D01*
X100902Y104725D01*
X101683Y105325D01*
X102283Y106106D01*
X102660Y107016D01*
X102788Y107992D01*
X102660Y108969D01*
X102283Y109878D01*
X101683Y110660D01*
X100902Y111259D01*
X99992Y111636D01*
X99016Y111765D01*
D02*
G37*
G36*
X239212Y107253D02*
X238354Y107140D01*
X237555Y106809D01*
X236868Y106282D01*
X236341Y105595D01*
X236010Y104795D01*
X235897Y103937D01*
X236010Y103079D01*
X236341Y102279D01*
X236868Y101593D01*
X237555Y101066D01*
X238354Y100734D01*
X239212Y100621D01*
X240071Y100734D01*
X240870Y101066D01*
X241557Y101593D01*
X242084Y102279D01*
X242415Y103079D01*
X242528Y103937D01*
X242415Y104795D01*
X242084Y105595D01*
X241557Y106282D01*
X240870Y106809D01*
X240071Y107140D01*
X239212Y107253D01*
D02*
G37*
G36*
X199213D02*
X198354Y107140D01*
X197555Y106809D01*
X196868Y106282D01*
X196341Y105595D01*
X196010Y104795D01*
X195897Y103937D01*
X196010Y103079D01*
X196341Y102279D01*
X196868Y101593D01*
X197555Y101066D01*
X198354Y100734D01*
X199213Y100621D01*
X200071Y100734D01*
X200870Y101066D01*
X201557Y101593D01*
X202084Y102279D01*
X202415Y103079D01*
X202528Y103937D01*
X202415Y104795D01*
X202084Y105595D01*
X201557Y106282D01*
X200870Y106809D01*
X200071Y107140D01*
X199213Y107253D01*
D02*
G37*
G36*
X99516Y101913D02*
Y98492D01*
X102937D01*
X102867Y99024D01*
X102469Y99986D01*
X101835Y100811D01*
X101009Y101445D01*
X100048Y101843D01*
X99516Y101913D01*
D02*
G37*
G36*
X98516D02*
X97984Y101843D01*
X97022Y101445D01*
X96197Y100811D01*
X95563Y99986D01*
X95165Y99024D01*
X95095Y98492D01*
X98516D01*
Y101913D01*
D02*
G37*
G36*
X102937Y97492D02*
X99516D01*
Y94071D01*
X100048Y94141D01*
X101009Y94539D01*
X101835Y95173D01*
X102469Y95999D01*
X102867Y96960D01*
X102937Y97492D01*
D02*
G37*
G36*
X98516D02*
X95095D01*
X95165Y96960D01*
X95563Y95999D01*
X96197Y95173D01*
X97022Y94539D01*
X97984Y94141D01*
X98516Y94071D01*
Y97492D01*
D02*
G37*
G36*
X99016Y241765D02*
X98039Y241636D01*
X97130Y241259D01*
X96348Y240660D01*
X95749Y239878D01*
X95372Y238969D01*
X95243Y237992D01*
X95372Y237016D01*
X95749Y236106D01*
X96348Y235325D01*
X97130Y234725D01*
X98039Y234348D01*
X99016Y234220D01*
X99113Y234232D01*
X99155Y234230D01*
X99267Y234212D01*
X99390Y234179D01*
X99525Y234127D01*
X99673Y234055D01*
X99833Y233962D01*
X99995Y233851D01*
X100216Y233670D01*
X111592Y222293D01*
Y71300D01*
X111760Y70455D01*
X112239Y69739D01*
X112955Y69260D01*
X113800Y69092D01*
X146497D01*
X147342Y69260D01*
X148058Y69739D01*
X172371Y94052D01*
X328038D01*
X328168Y93552D01*
X327577Y92783D01*
X327171Y91802D01*
X327035Y90771D01*
X326974Y90674D01*
X326890Y90557D01*
X326232Y89808D01*
X324951Y88528D01*
X317396D01*
X317002Y88538D01*
X316388Y88592D01*
X315866Y88678D01*
X315441Y88792D01*
X315114Y88925D01*
X314883Y89065D01*
X314736Y89201D01*
X314648Y89332D01*
X314595Y89481D01*
X314567Y89748D01*
Y90473D01*
X313785D01*
X313768Y90476D01*
X313750Y90473D01*
X305935D01*
X305918Y90476D01*
X305900Y90473D01*
X305118D01*
Y89748D01*
X305090Y89481D01*
X305037Y89332D01*
X304949Y89201D01*
X304802Y89065D01*
X304572Y88925D01*
X304244Y88792D01*
X303819Y88678D01*
X303297Y88592D01*
X302683Y88538D01*
X302289Y88528D01*
X290128D01*
X290008Y88647D01*
X289904Y89441D01*
X289527Y90351D01*
X288928Y91132D01*
X288146Y91731D01*
X287236Y92108D01*
X286260Y92237D01*
X285284Y92108D01*
X284374Y91731D01*
X283593Y91132D01*
X282993Y90351D01*
X282616Y89441D01*
X282488Y88464D01*
X282616Y87488D01*
X282993Y86578D01*
X283593Y85797D01*
X284374Y85197D01*
X285284Y84820D01*
X286077Y84716D01*
X287011Y83783D01*
X287586Y83341D01*
X288257Y83063D01*
X288976Y82968D01*
X302289D01*
X302683Y82958D01*
X303297Y82904D01*
X303819Y82818D01*
X304244Y82704D01*
X304572Y82571D01*
X304802Y82431D01*
X304949Y82295D01*
X305037Y82164D01*
X305090Y82016D01*
X305118Y81748D01*
Y81024D01*
X305900D01*
X305918Y81020D01*
X305935Y81024D01*
X313750D01*
X313768Y81020D01*
X313785Y81024D01*
X314567D01*
Y81748D01*
X314595Y82016D01*
X314648Y82164D01*
X314736Y82295D01*
X314883Y82431D01*
X315114Y82571D01*
X315441Y82704D01*
X315866Y82818D01*
X316388Y82904D01*
X317002Y82958D01*
X317396Y82968D01*
X326102D01*
X326822Y83063D01*
X327492Y83341D01*
X328068Y83783D01*
X330209Y85924D01*
X330546Y86236D01*
X330901Y86529D01*
X331028Y86620D01*
X331125Y86681D01*
X332156Y86817D01*
X333137Y87223D01*
X333980Y87870D01*
X334627Y88713D01*
X335034Y89695D01*
X335173Y90748D01*
X335034Y91802D01*
X334627Y92783D01*
X334037Y93552D01*
X334166Y94052D01*
X376070D01*
X376199Y93552D01*
X375609Y92783D01*
X375202Y91802D01*
X375064Y90748D01*
X375202Y89695D01*
X375609Y88713D01*
X376256Y87870D01*
X377099Y87223D01*
X378080Y86817D01*
X379134Y86678D01*
X380187Y86817D01*
X381169Y87223D01*
X382012Y87870D01*
X382659Y88713D01*
X383065Y89695D01*
X383204Y90748D01*
X383065Y91802D01*
X382659Y92783D01*
X382069Y93552D01*
X382198Y94052D01*
X405063D01*
X405317Y94030D01*
X405663Y93972D01*
X405937Y93899D01*
X406135Y93818D01*
X406261Y93742D01*
X406326Y93682D01*
X406356Y93637D01*
X406373Y93587D01*
X406378Y93543D01*
Y91339D01*
X415827D01*
Y100788D01*
X406378D01*
Y98977D01*
X406373Y98933D01*
X406356Y98883D01*
X406326Y98838D01*
X406261Y98778D01*
X406135Y98702D01*
X405937Y98621D01*
X405663Y98548D01*
X405317Y98490D01*
X405063Y98468D01*
X171457D01*
X170612Y98300D01*
X169896Y97821D01*
X145582Y73508D01*
X132125D01*
X132115Y73533D01*
X132042Y74008D01*
X132664Y74423D01*
X154025Y95784D01*
X155181D01*
X155384Y95759D01*
X155588Y95720D01*
X155767Y95673D01*
X155923Y95619D01*
X156055Y95560D01*
X156166Y95497D01*
X156257Y95431D01*
X156289Y95402D01*
X156348Y95325D01*
X157130Y94725D01*
X158039Y94348D01*
X159016Y94220D01*
X159992Y94348D01*
X160902Y94725D01*
X161683Y95325D01*
X162283Y96106D01*
X162660Y97016D01*
X162788Y97992D01*
X162660Y98969D01*
X162283Y99878D01*
X161683Y100660D01*
X160902Y101259D01*
X159992Y101636D01*
X159016Y101765D01*
X158039Y101636D01*
X157130Y101259D01*
X156348Y100660D01*
X156289Y100582D01*
X156257Y100553D01*
X156166Y100488D01*
X156055Y100424D01*
X155923Y100365D01*
X155767Y100311D01*
X155588Y100264D01*
X155395Y100228D01*
X155111Y100200D01*
X153110D01*
X152265Y100032D01*
X151549Y99553D01*
X130188Y78192D01*
X121478D01*
X121222Y78218D01*
X121086Y78242D01*
X120972Y78269D01*
X120892Y78295D01*
X120865Y78307D01*
X120849Y78329D01*
X120162Y78856D01*
X119362Y79187D01*
X118504Y79300D01*
X117646Y79187D01*
X116846Y78856D01*
X116508Y78596D01*
X116008Y78843D01*
Y223208D01*
X115840Y224053D01*
X115361Y224769D01*
X103289Y236841D01*
X103163Y237003D01*
X103046Y237175D01*
X102953Y237335D01*
X102881Y237483D01*
X102829Y237618D01*
X102796Y237741D01*
X102778Y237853D01*
X102776Y237895D01*
X102788Y237992D01*
X102660Y238969D01*
X102283Y239878D01*
X101683Y240660D01*
X100902Y241259D01*
X99992Y241636D01*
X99016Y241765D01*
D02*
G37*
G36*
X452284Y100828D02*
X451050Y100666D01*
X449901Y100190D01*
X448914Y99433D01*
X448157Y98446D01*
X447681Y97297D01*
X447518Y96063D01*
X447681Y94830D01*
X448157Y93681D01*
X448914Y92694D01*
X449901Y91936D01*
X451050Y91460D01*
X452284Y91298D01*
X453517Y91460D01*
X454666Y91936D01*
X455653Y92694D01*
X456410Y93681D01*
X456886Y94830D01*
X457049Y96063D01*
X456886Y97297D01*
X456410Y98446D01*
X455653Y99433D01*
X454666Y100190D01*
X453517Y100666D01*
X452284Y100828D01*
D02*
G37*
G36*
X519882Y97449D02*
X518606Y97281D01*
X517417Y96789D01*
X516396Y96005D01*
X515613Y94985D01*
X515120Y93796D01*
X514952Y92520D01*
X514963Y92438D01*
X514960Y92428D01*
X514913Y92321D01*
X514829Y92170D01*
X514707Y91983D01*
X514555Y91779D01*
X513903Y91033D01*
X481755Y58885D01*
X391535D01*
X390713Y58777D01*
X389947Y58460D01*
X389289Y57955D01*
X378874Y47540D01*
X378080Y47436D01*
X377099Y47029D01*
X376256Y46382D01*
X375609Y45539D01*
X375202Y44557D01*
X375064Y43504D01*
X375202Y42450D01*
X375609Y41469D01*
X376256Y40626D01*
X377099Y39979D01*
X378080Y39572D01*
X379134Y39434D01*
X380187Y39572D01*
X381169Y39979D01*
X382012Y40626D01*
X382659Y41469D01*
X383065Y42450D01*
X383110Y42791D01*
X392851Y52532D01*
X483071D01*
X483893Y52640D01*
X484659Y52957D01*
X485317Y53462D01*
X518372Y86517D01*
X518616Y86750D01*
X519135Y87189D01*
X519346Y87345D01*
X519532Y87467D01*
X519683Y87551D01*
X519790Y87598D01*
X519800Y87601D01*
X519882Y87590D01*
X521158Y87758D01*
X522347Y88251D01*
X523368Y89034D01*
X524151Y90055D01*
X524643Y91244D01*
X524811Y92520D01*
X524643Y93796D01*
X524151Y94985D01*
X523368Y96005D01*
X522347Y96789D01*
X521158Y97281D01*
X519882Y97449D01*
D02*
G37*
G36*
X468701D02*
X467425Y97281D01*
X466236Y96789D01*
X465215Y96005D01*
X464432Y94985D01*
X463939Y93796D01*
X463771Y92520D01*
X463939Y91244D01*
X464432Y90055D01*
X465215Y89034D01*
X466236Y88251D01*
X467425Y87758D01*
X468701Y87590D01*
X469977Y87758D01*
X471166Y88251D01*
X472187Y89034D01*
X472970Y90055D01*
X473462Y91244D01*
X473630Y92520D01*
X473462Y93796D01*
X472970Y94985D01*
X472187Y96005D01*
X471166Y96789D01*
X469977Y97281D01*
X468701Y97449D01*
D02*
G37*
G36*
X253319Y92208D02*
X253302Y92204D01*
X252520D01*
Y91588D01*
X252405Y91536D01*
X252139Y91455D01*
X251789Y91385D01*
X250092Y91245D01*
X250019Y91244D01*
X184464D01*
X183745Y91149D01*
X183075Y90872D01*
X182499Y90430D01*
X160449Y68380D01*
X97473D01*
X82647Y83206D01*
X82071Y83648D01*
X81400Y83925D01*
X80681Y84020D01*
X67600D01*
X67150Y83961D01*
X59645D01*
X58926Y83866D01*
X58256Y83588D01*
X57680Y83147D01*
X57238Y82571D01*
X56960Y81901D01*
X56866Y81181D01*
X56960Y80462D01*
X57238Y79791D01*
X57680Y79216D01*
X57973Y78991D01*
Y78372D01*
X57680Y78147D01*
X57238Y77571D01*
X56960Y76901D01*
X56866Y76181D01*
X56960Y75462D01*
X57238Y74791D01*
X57680Y74216D01*
X57973Y73991D01*
Y73371D01*
X57680Y73147D01*
X57238Y72571D01*
X56960Y71901D01*
X56866Y71181D01*
X56960Y70462D01*
X57238Y69791D01*
X57680Y69216D01*
X58256Y68774D01*
X58926Y68496D01*
X59645Y68401D01*
X63582D01*
X64302Y68496D01*
X64972Y68774D01*
X65548Y69216D01*
X65990Y69791D01*
X66268Y70462D01*
X66362Y71181D01*
X66268Y71901D01*
X65990Y72571D01*
X65548Y73147D01*
X65273Y73358D01*
X65267Y73401D01*
X65367Y73839D01*
X65405Y73887D01*
X66849Y73973D01*
X75376D01*
X75479Y73966D01*
X75639Y73944D01*
X75776Y73916D01*
X75882Y73887D01*
X75953Y73860D01*
X75988Y73842D01*
X75990Y73841D01*
X76023Y73809D01*
X76037Y73799D01*
X76159Y73640D01*
X76846Y73113D01*
X77646Y72782D01*
X78504Y72669D01*
X79362Y72782D01*
X80162Y73113D01*
X80849Y73640D01*
X81375Y74326D01*
X81707Y75126D01*
X81759Y75524D01*
X82287Y75703D01*
X94356Y63635D01*
X94932Y63193D01*
X95602Y62915D01*
X96321Y62820D01*
X161600D01*
X162319Y62915D01*
X162990Y63193D01*
X163566Y63635D01*
X185616Y85685D01*
X250019D01*
X250100Y85684D01*
X251312Y85609D01*
X251769Y85548D01*
X252139Y85473D01*
X252405Y85393D01*
X252520Y85340D01*
Y84724D01*
X253302D01*
X253319Y84721D01*
X253337Y84724D01*
X260000D01*
Y92204D01*
X253337D01*
X253319Y92208D01*
D02*
G37*
G36*
X256260Y82237D02*
X255284Y82108D01*
X254374Y81731D01*
X253592Y81132D01*
X253533Y81054D01*
X253501Y81026D01*
X253410Y80960D01*
X253299Y80897D01*
X253167Y80837D01*
X253011Y80783D01*
X252832Y80736D01*
X252640Y80700D01*
X252355Y80672D01*
X239553D01*
X239340Y80688D01*
X238987Y80739D01*
X238705Y80805D01*
X238500Y80877D01*
X238371Y80945D01*
X238313Y80992D01*
X238300Y81008D01*
X238299Y81010D01*
X238287Y81108D01*
Y81831D01*
X237505D01*
X237488Y81834D01*
X237471Y81831D01*
X231713D01*
Y75256D01*
X237471D01*
X237488Y75252D01*
X237505Y75256D01*
X238287D01*
Y75975D01*
X238289Y75988D01*
X238328Y76015D01*
X238463Y76077D01*
X238678Y76142D01*
X238955Y76198D01*
X239580Y76257D01*
X252425D01*
X252628Y76231D01*
X252832Y76192D01*
X253011Y76145D01*
X253167Y76091D01*
X253299Y76032D01*
X253410Y75969D01*
X253501Y75903D01*
X253533Y75874D01*
X253592Y75797D01*
X254374Y75197D01*
X255284Y74821D01*
X256260Y74692D01*
X257236Y74821D01*
X258146Y75197D01*
X258927Y75797D01*
X259527Y76578D01*
X259904Y77488D01*
X260032Y78464D01*
X259904Y79441D01*
X259527Y80351D01*
X258927Y81132D01*
X258146Y81731D01*
X257236Y82108D01*
X256260Y82237D01*
D02*
G37*
G36*
X225000Y81859D02*
X224142Y81746D01*
X223342Y81415D01*
X222656Y80888D01*
X222129Y80201D01*
X221797Y79401D01*
X221684Y78543D01*
X221797Y77685D01*
X222129Y76885D01*
X222656Y76199D01*
X223342Y75672D01*
X224142Y75340D01*
X225000Y75227D01*
X225858Y75340D01*
X226658Y75672D01*
X227345Y76199D01*
X227872Y76885D01*
X228203Y77685D01*
X228316Y78543D01*
X228203Y79401D01*
X227872Y80201D01*
X227345Y80888D01*
X226658Y81415D01*
X225858Y81746D01*
X225000Y81859D01*
D02*
G37*
G36*
X286260Y82237D02*
X285284Y82108D01*
X284374Y81731D01*
X283593Y81132D01*
X282993Y80351D01*
X282616Y79441D01*
X282488Y78464D01*
X282616Y77488D01*
X282993Y76578D01*
X283593Y75797D01*
X284374Y75197D01*
X285284Y74821D01*
X286260Y74692D01*
X287236Y74821D01*
X288146Y75197D01*
X288928Y75797D01*
X288987Y75874D01*
X289019Y75903D01*
X289110Y75969D01*
X289221Y76032D01*
X289353Y76091D01*
X289509Y76145D01*
X289688Y76192D01*
X289880Y76229D01*
X290165Y76257D01*
X296063D01*
X296106Y76265D01*
X296277Y76041D01*
X296964Y75515D01*
X297764Y75183D01*
X298622Y75070D01*
X299480Y75183D01*
X300280Y75515D01*
X300967Y76041D01*
X301494Y76728D01*
X301825Y77528D01*
X301938Y78386D01*
X301825Y79244D01*
X301494Y80044D01*
X300967Y80731D01*
X300280Y81258D01*
X299480Y81589D01*
X298622Y81702D01*
X297764Y81589D01*
X296964Y81258D01*
X296277Y80731D01*
X296210Y80643D01*
X296063Y80672D01*
X290095D01*
X289892Y80698D01*
X289688Y80736D01*
X289509Y80783D01*
X289353Y80837D01*
X289221Y80897D01*
X289110Y80960D01*
X289019Y81025D01*
X288987Y81054D01*
X288928Y81132D01*
X288146Y81731D01*
X287236Y82108D01*
X286260Y82237D01*
D02*
G37*
G36*
X401378Y78355D02*
X400520Y78242D01*
X399720Y77911D01*
X399034Y77384D01*
X398507Y76697D01*
X398175Y75898D01*
X398062Y75039D01*
X398175Y74181D01*
X398507Y73382D01*
X399034Y72695D01*
X399720Y72168D01*
X400520Y71837D01*
X401378Y71724D01*
X402236Y71837D01*
X403036Y72168D01*
X403723Y72695D01*
X403740Y72717D01*
X403766Y72729D01*
X403846Y72755D01*
X403960Y72782D01*
X404088Y72805D01*
X404427Y72832D01*
X415227D01*
X418213Y69846D01*
X418317Y69724D01*
X418396Y69619D01*
X418455Y69531D01*
X418482Y69483D01*
X418585Y68705D01*
X418902Y67939D01*
X419407Y67281D01*
X420065Y66776D01*
X420831Y66459D01*
X421653Y66351D01*
X422476Y66459D01*
X423242Y66776D01*
X423864Y67254D01*
X423917Y67268D01*
X423997Y67284D01*
X424450Y67320D01*
X444004Y67320D01*
X444206Y67301D01*
X444328Y67281D01*
X444424Y67258D01*
X444482Y67239D01*
X444484Y67239D01*
X444488Y67236D01*
X444604Y67084D01*
X445262Y66580D01*
X446028Y66262D01*
X446851Y66154D01*
X447673Y66262D01*
X448439Y66580D01*
X449097Y67084D01*
X449602Y67742D01*
X449919Y68509D01*
X450027Y69331D01*
X449919Y70153D01*
X449602Y70919D01*
X449097Y71577D01*
X448439Y72082D01*
X447673Y72399D01*
X446851Y72508D01*
X446028Y72399D01*
X445262Y72082D01*
X444898Y71803D01*
X444886Y71798D01*
X444856Y71789D01*
X444781Y71772D01*
X444689Y71758D01*
X444320Y71736D01*
X424312Y71735D01*
X424151Y71748D01*
X424021Y71766D01*
X423917Y71787D01*
X423864Y71801D01*
X423242Y72279D01*
X422476Y72596D01*
X421698Y72698D01*
X421650Y72726D01*
X421582Y72771D01*
X421237Y73066D01*
X417703Y76600D01*
X416987Y77079D01*
X416142Y77247D01*
X404352D01*
X404096Y77273D01*
X403960Y77297D01*
X403846Y77324D01*
X403766Y77350D01*
X403740Y77362D01*
X403723Y77384D01*
X403036Y77911D01*
X402236Y78242D01*
X401378Y78355D01*
D02*
G37*
G36*
X182086Y72834D02*
X174606D01*
Y65354D01*
X182086D01*
Y72834D01*
D02*
G37*
G36*
X550394Y72788D02*
X549417Y72660D01*
X548508Y72283D01*
X547726Y71683D01*
X547127Y70902D01*
X546750Y69992D01*
X546621Y69016D01*
X546750Y68039D01*
X547127Y67130D01*
X547726Y66348D01*
X548508Y65749D01*
X549417Y65372D01*
X550394Y65243D01*
X551370Y65372D01*
X552280Y65749D01*
X553061Y66348D01*
X553661Y67130D01*
X554038Y68039D01*
X554166Y69016D01*
X554038Y69992D01*
X553661Y70902D01*
X553061Y71683D01*
X552280Y72283D01*
X551370Y72660D01*
X550394Y72788D01*
D02*
G37*
G36*
X323228Y71196D02*
X322175Y71057D01*
X321193Y70651D01*
X320350Y70004D01*
X319703Y69161D01*
X319297Y68179D01*
X319158Y67126D01*
X319297Y66072D01*
X319703Y65091D01*
X320350Y64248D01*
X321193Y63601D01*
X322175Y63194D01*
X323228Y63056D01*
X324282Y63194D01*
X325264Y63601D01*
X326106Y64248D01*
X326753Y65091D01*
X327160Y66072D01*
X327299Y67126D01*
X327160Y68179D01*
X326753Y69161D01*
X326106Y70004D01*
X325264Y70651D01*
X324282Y71057D01*
X323228Y71196D01*
D02*
G37*
G36*
X178346Y62867D02*
X177370Y62738D01*
X176460Y62361D01*
X175679Y61762D01*
X175079Y60980D01*
X174702Y60071D01*
X174574Y59094D01*
X174702Y58118D01*
X175079Y57208D01*
X175679Y56427D01*
X176460Y55827D01*
X177370Y55450D01*
X178346Y55322D01*
X179323Y55450D01*
X180232Y55827D01*
X181014Y56427D01*
X181613Y57208D01*
X181990Y58118D01*
X182119Y59094D01*
X181990Y60071D01*
X181613Y60980D01*
X181014Y61762D01*
X180232Y62361D01*
X179323Y62738D01*
X178346Y62867D01*
D02*
G37*
G36*
X99280Y53724D02*
Y50303D01*
X100893D01*
X100907Y51851D01*
X100943Y51832D01*
X101012Y51815D01*
X101114Y51799D01*
X101420Y51773D01*
X102253Y51746D01*
X102232Y51797D01*
X101599Y52622D01*
X100773Y53256D01*
X99812Y53654D01*
X99280Y53724D01*
D02*
G37*
G36*
X98280D02*
X97748Y53654D01*
X96786Y53256D01*
X95960Y52622D01*
X95327Y51797D01*
X94929Y50835D01*
X94859Y50303D01*
X98280D01*
Y53724D01*
D02*
G37*
G36*
X178846Y53015D02*
Y49594D01*
X182267D01*
X182197Y50126D01*
X181799Y51088D01*
X181165Y51913D01*
X180340Y52547D01*
X179378Y52945D01*
X178846Y53015D01*
D02*
G37*
G36*
X177846D02*
X177314Y52945D01*
X176353Y52547D01*
X175527Y51913D01*
X174919Y51121D01*
X176256Y51180D01*
X176242Y49594D01*
D01*
X177846D01*
Y53015D01*
D02*
G37*
G36*
X182267Y48594D02*
X182098D01*
X182250Y48465D01*
X182267Y48594D01*
D02*
G37*
G36*
X177846D02*
X176233D01*
X176219Y47046D01*
X176183Y47065D01*
X176114Y47082D01*
X176011Y47098D01*
X175706Y47124D01*
X174873Y47151D01*
X174893Y47101D01*
X175527Y46275D01*
X176353Y45641D01*
X177314Y45243D01*
X177846Y45173D01*
Y48594D01*
D02*
G37*
G36*
X309843Y49332D02*
X308609Y49170D01*
X307460Y48694D01*
X306473Y47936D01*
X306319Y47735D01*
X306317Y47734D01*
X306079Y47485D01*
X305855Y47285D01*
X305624Y47112D01*
X305386Y46963D01*
X305139Y46838D01*
X304882Y46736D01*
X304614Y46656D01*
X304332Y46599D01*
X304158Y46578D01*
X282422D01*
X281927Y46602D01*
X281340Y46663D01*
X281146Y46697D01*
X281012Y46729D01*
X280963Y46747D01*
X280938Y46762D01*
X280918Y46777D01*
X280836Y46811D01*
X280822Y46821D01*
X280804Y46824D01*
X280247Y47055D01*
X279528Y47150D01*
X275591D01*
X274871Y47055D01*
X274201Y46777D01*
X273625Y46336D01*
X273183Y45760D01*
X272906Y45090D01*
X272811Y44370D01*
X272906Y43651D01*
X273183Y42980D01*
X273625Y42405D01*
X273918Y42180D01*
Y41560D01*
X273625Y41336D01*
X273183Y40760D01*
X272906Y40089D01*
X272811Y39370D01*
X272906Y38651D01*
X273183Y37980D01*
X273625Y37405D01*
X273736Y37319D01*
Y36689D01*
X273474Y36487D01*
X272998Y35867D01*
X272699Y35145D01*
X272662Y34870D01*
X277559D01*
X282456D01*
X282420Y35145D01*
X282121Y35867D01*
X281645Y36487D01*
X281518Y36585D01*
X281674Y37095D01*
X282795Y37162D01*
X295192D01*
X295289Y37151D01*
X295434Y37125D01*
X295541Y37098D01*
X295606Y37073D01*
X295607Y37073D01*
X295608Y37072D01*
X295750Y36728D01*
X296277Y36041D01*
X296964Y35515D01*
X297764Y35183D01*
X298622Y35070D01*
X299480Y35183D01*
X300280Y35515D01*
X300967Y36041D01*
X301494Y36728D01*
X301825Y37528D01*
X301938Y38386D01*
X301825Y39244D01*
X301494Y40044D01*
X300967Y40731D01*
X300280Y41258D01*
X299480Y41589D01*
X298922Y41662D01*
X298954Y42162D01*
X304324D01*
X304486Y42145D01*
X304777Y42090D01*
X305060Y42014D01*
X305335Y41916D01*
X305604Y41797D01*
X305867Y41654D01*
X306125Y41489D01*
X306379Y41299D01*
X306429Y41255D01*
X306473Y41197D01*
X307460Y40440D01*
X308609Y39964D01*
X309843Y39802D01*
X311076Y39964D01*
X312225Y40440D01*
X312353Y40538D01*
X312512Y40625D01*
X312809Y40768D01*
X313440Y41018D01*
X313738Y41109D01*
X314046Y41186D01*
X314355Y41246D01*
X314666Y41289D01*
X314757Y41296D01*
X326719D01*
X326763Y41292D01*
X327007Y41256D01*
X327232Y41206D01*
X327436Y41144D01*
X327622Y41070D01*
X327790Y40986D01*
X327943Y40891D01*
X328082Y40785D01*
X328151Y40721D01*
X328224Y40626D01*
X329067Y39979D01*
X330049Y39572D01*
X331102Y39434D01*
X332156Y39572D01*
X333137Y39979D01*
X333980Y40626D01*
X334627Y41469D01*
X335034Y42450D01*
X335173Y43504D01*
X335034Y44557D01*
X334627Y45539D01*
X333980Y46382D01*
X333137Y47029D01*
X332156Y47436D01*
X331102Y47574D01*
X330049Y47436D01*
X329067Y47029D01*
X328224Y46382D01*
X328151Y46287D01*
X328082Y46223D01*
X327943Y46117D01*
X327790Y46022D01*
X327622Y45938D01*
X327436Y45864D01*
X327232Y45802D01*
X327007Y45752D01*
X326763Y45715D01*
X326719Y45712D01*
X315714D01*
X315530Y45736D01*
X315271Y45796D01*
X315038Y45878D01*
X314828Y45979D01*
X314636Y46102D01*
X314458Y46247D01*
X314294Y46418D01*
X314140Y46617D01*
X314038Y46784D01*
X313969Y46950D01*
X313212Y47936D01*
X312225Y48694D01*
X311076Y49170D01*
X309843Y49332D01*
D02*
G37*
G36*
X180657Y48594D02*
X178846D01*
Y46366D01*
X178923Y46461D01*
X179945Y47718D01*
X180657Y48594D01*
D01*
D02*
G37*
G36*
X92520Y53543D02*
X85039D01*
Y46063D01*
X92520D01*
Y53543D01*
D02*
G37*
G36*
X100884Y49303D02*
X99280D01*
Y45882D01*
X99812Y45952D01*
X100773Y46350D01*
X101599Y46984D01*
X102207Y47776D01*
X100870Y47718D01*
X100884Y49303D01*
D02*
G37*
G36*
X98280D02*
X94859D01*
X94929Y48771D01*
X95327Y47810D01*
X95960Y46984D01*
X96786Y46350D01*
X97748Y45952D01*
X98280Y45882D01*
Y49303D01*
D02*
G37*
G36*
X550394Y52788D02*
X549417Y52660D01*
X548508Y52283D01*
X547726Y51683D01*
X547127Y50902D01*
X546750Y49992D01*
X546621Y49016D01*
X546750Y48039D01*
X547127Y47130D01*
X547726Y46348D01*
X548508Y45749D01*
X549417Y45372D01*
X550394Y45243D01*
X551370Y45372D01*
X552280Y45749D01*
X553061Y46348D01*
X553661Y47130D01*
X554038Y48039D01*
X554166Y49016D01*
X554038Y49992D01*
X553661Y50902D01*
X553061Y51683D01*
X552280Y52283D01*
X551370Y52660D01*
X550394Y52788D01*
D02*
G37*
G36*
X178846Y46038D02*
Y45173D01*
X179378Y45243D01*
X179734Y45391D01*
X179437Y45607D01*
X178846Y46038D01*
D02*
G37*
G36*
X422153Y42853D02*
Y40028D01*
X424979D01*
X424929Y40405D01*
X424590Y41223D01*
X424051Y41925D01*
X423349Y42465D01*
X422531Y42803D01*
X422153Y42853D01*
D02*
G37*
G36*
X421153D02*
X420776Y42803D01*
X419958Y42465D01*
X419255Y41925D01*
X418716Y41223D01*
X418378Y40405D01*
X418328Y40028D01*
X421153D01*
Y42853D01*
D02*
G37*
G36*
X447351Y42656D02*
Y39831D01*
X450176D01*
X450126Y40209D01*
X449788Y41026D01*
X449249Y41729D01*
X448546Y42268D01*
X447728Y42606D01*
X447351Y42656D01*
D02*
G37*
G36*
X446351D02*
X445973Y42606D01*
X445155Y42268D01*
X444453Y41729D01*
X443914Y41026D01*
X443575Y40209D01*
X443525Y39831D01*
X446351D01*
Y42656D01*
D02*
G37*
G36*
X469201Y42480D02*
Y37902D01*
X473779D01*
X473669Y38733D01*
X473156Y39974D01*
X472338Y41039D01*
X471273Y41856D01*
X470032Y42370D01*
X469201Y42480D01*
D02*
G37*
G36*
X468201D02*
X467369Y42370D01*
X466129Y41856D01*
X465380Y41282D01*
X467342Y41270D01*
X465655Y37980D01*
X465615Y37902D01*
X468201D01*
Y42480D01*
D02*
G37*
G36*
Y36902D02*
X465102D01*
X464767Y36247D01*
X464682Y36459D01*
X464557Y36648D01*
X464393Y36816D01*
X464272Y36902D01*
D01*
X463623D01*
X463732Y36070D01*
X464246Y34830D01*
X465063Y33764D01*
X466129Y32947D01*
X467369Y32433D01*
X468201Y32323D01*
Y36902D01*
D02*
G37*
G36*
X424979Y39028D02*
X422153D01*
Y36202D01*
X422531Y36252D01*
X423349Y36591D01*
X424051Y37130D01*
X424590Y37832D01*
X424929Y38650D01*
X424979Y39028D01*
D02*
G37*
G36*
X421153D02*
X418328D01*
X418378Y38650D01*
X418716Y37832D01*
X419255Y37130D01*
X419958Y36591D01*
X420776Y36252D01*
X421153Y36202D01*
Y39028D01*
D02*
G37*
G36*
X450176Y38831D02*
X447351D01*
Y36005D01*
X447728Y36055D01*
X448546Y36394D01*
X449249Y36933D01*
X449788Y37635D01*
X450126Y38453D01*
X450176Y38831D01*
D02*
G37*
G36*
X446351D02*
X443525D01*
X443575Y38453D01*
X443914Y37635D01*
X444453Y36933D01*
X445155Y36394D01*
X445973Y36055D01*
X446351Y36005D01*
Y38831D01*
D02*
G37*
G36*
X401878Y38504D02*
Y35539D01*
X404843D01*
X404788Y35953D01*
X404435Y36805D01*
X403874Y37536D01*
X403143Y38097D01*
X402292Y38449D01*
X401878Y38504D01*
D02*
G37*
G36*
X400878D02*
X400464Y38449D01*
X399613Y38097D01*
X398882Y37536D01*
X398321Y36805D01*
X397968Y35953D01*
X397914Y35539D01*
X400878D01*
Y38504D01*
D02*
G37*
G36*
X519882Y42331D02*
X518606Y42163D01*
X517417Y41671D01*
X516396Y40887D01*
X515613Y39866D01*
X515120Y38677D01*
X514952Y37402D01*
X515120Y36126D01*
X515613Y34937D01*
X516396Y33916D01*
X517417Y33132D01*
X518606Y32640D01*
X519882Y32472D01*
X521158Y32640D01*
X522347Y33132D01*
X523368Y33916D01*
X524151Y34937D01*
X524643Y36126D01*
X524811Y37402D01*
X524643Y38677D01*
X524151Y39866D01*
X523368Y40887D01*
X522347Y41671D01*
X521158Y42163D01*
X519882Y42331D01*
D02*
G37*
G36*
X473779Y36902D02*
X469201D01*
Y32323D01*
X470032Y32433D01*
X471273Y32947D01*
X472338Y33764D01*
X473156Y34830D01*
X473669Y36070D01*
X473779Y36902D01*
D02*
G37*
G36*
X404843Y34539D02*
X401878D01*
Y31575D01*
X402292Y31629D01*
X403143Y31982D01*
X403874Y32543D01*
X404435Y33274D01*
X404788Y34126D01*
X404843Y34539D01*
D02*
G37*
G36*
X400878D02*
X397914D01*
X397968Y34126D01*
X398321Y33274D01*
X398882Y32543D01*
X399613Y31982D01*
X400464Y31629D01*
X400878Y31575D01*
Y34539D01*
D02*
G37*
G36*
X282456Y33870D02*
X278059D01*
Y33383D01*
X281237D01*
X280912Y32933D01*
X280622Y32474D01*
X280365Y32005D01*
X280143Y31527D01*
X280115Y31453D01*
X280303Y31478D01*
X281025Y31777D01*
X281645Y32253D01*
X282121Y32873D01*
X282420Y33595D01*
X282456Y33870D01*
D02*
G37*
G36*
X277059D02*
X272662D01*
X272699Y33595D01*
X272998Y32873D01*
X273474Y32253D01*
X274094Y31777D01*
X274816Y31478D01*
X275004Y31453D01*
X274975Y31527D01*
X274753Y32005D01*
X274497Y32474D01*
X274206Y32933D01*
X273882Y33383D01*
X277059D01*
Y33870D01*
D02*
G37*
G36*
X574815Y22683D02*
X573464Y22550D01*
X572166Y22156D01*
X570969Y21516D01*
X569920Y20655D01*
X569059Y19606D01*
X568419Y18409D01*
X568025Y17110D01*
X567892Y15760D01*
X568025Y14409D01*
X568419Y13110D01*
X569059Y11913D01*
X569920Y10864D01*
X570969Y10003D01*
X572166Y9364D01*
X573464Y8970D01*
X574815Y8837D01*
X576166Y8970D01*
X577464Y9364D01*
X578661Y10003D01*
X579710Y10864D01*
X580571Y11913D01*
X581211Y13110D01*
X581605Y14409D01*
X581738Y15760D01*
X581605Y17110D01*
X581211Y18409D01*
X580571Y19606D01*
X579710Y20655D01*
X578661Y21516D01*
X577464Y22156D01*
X576166Y22550D01*
X574815Y22683D01*
D02*
G37*
G36*
X15760D02*
X14409Y22550D01*
X13110Y22156D01*
X11913Y21516D01*
X10864Y20655D01*
X10003Y19606D01*
X9364Y18409D01*
X8970Y17110D01*
X8837Y15760D01*
X8970Y14409D01*
X9364Y13110D01*
X10003Y11913D01*
X10864Y10864D01*
X11913Y10003D01*
X13110Y9364D01*
X14409Y8970D01*
X15760Y8837D01*
X17110Y8970D01*
X18409Y9364D01*
X19606Y10003D01*
X20655Y10864D01*
X21516Y11913D01*
X22156Y13110D01*
X22550Y14409D01*
X22683Y15760D01*
X22550Y17110D01*
X22156Y18409D01*
X21516Y19606D01*
X20655Y20655D01*
X19606Y21516D01*
X18409Y22156D01*
X17110Y22550D01*
X15760Y22683D01*
D02*
G37*
%LPD*%
G36*
X382551Y369959D02*
X382231Y369631D01*
X381473Y368765D01*
X381288Y368516D01*
X381137Y368286D01*
X381020Y368075D01*
X380936Y367884D01*
X380887Y367713D01*
X380871Y367561D01*
X376813Y371620D01*
X376965Y371635D01*
X377136Y371685D01*
X377327Y371768D01*
X377537Y371885D01*
X377767Y372036D01*
X378017Y372221D01*
X378575Y372692D01*
X379210Y373299D01*
X382551Y369959D01*
D02*
G37*
G36*
X266419Y327788D02*
X266354Y327841D01*
X266266Y327888D01*
X266157Y327929D01*
X266025Y327965D01*
X265871Y327995D01*
X265695Y328020D01*
X265277Y328053D01*
X264770Y328064D01*
Y330820D01*
X265034Y330822D01*
X265871Y330889D01*
X266025Y330919D01*
X266157Y330955D01*
X266266Y330996D01*
X266354Y331043D01*
X266419Y331095D01*
Y327788D01*
D02*
G37*
G36*
X249058Y331043D02*
X249145Y330996D01*
X249254Y330955D01*
X249386Y330919D01*
X249540Y330889D01*
X249716Y330864D01*
X250134Y330831D01*
X250642Y330820D01*
Y328064D01*
X250377Y328061D01*
X249540Y327995D01*
X249386Y327965D01*
X249254Y327929D01*
X249145Y327888D01*
X249058Y327841D01*
X248992Y327788D01*
Y331095D01*
X249058Y331043D01*
D02*
G37*
G36*
X245619Y327788D02*
X245553Y327841D01*
X245466Y327888D01*
X245357Y327929D01*
X245225Y327965D01*
X245071Y327995D01*
X244895Y328020D01*
X244477Y328053D01*
X243970Y328064D01*
Y330820D01*
X244234Y330822D01*
X245071Y330889D01*
X245225Y330919D01*
X245357Y330955D01*
X245466Y330996D01*
X245553Y331043D01*
X245619Y331095D01*
Y327788D01*
D02*
G37*
G36*
X234416Y326003D02*
X234223Y325805D01*
X233767Y325270D01*
X233655Y325111D01*
X233565Y324963D01*
X233494Y324824D01*
X233444Y324695D01*
X233415Y324576D01*
X233405Y324467D01*
X230931Y326942D01*
X231040Y326951D01*
X231159Y326980D01*
X231288Y327030D01*
X231427Y327101D01*
X231575Y327192D01*
X231734Y327303D01*
X232081Y327587D01*
X232269Y327759D01*
X232467Y327952D01*
X234416Y326003D01*
D02*
G37*
G36*
X229120Y322692D02*
X229037Y322762D01*
X228931Y322826D01*
X228805Y322882D01*
X228657Y322930D01*
X228488Y322971D01*
X228297Y323004D01*
X227851Y323049D01*
X227596Y323060D01*
X227320Y323064D01*
Y325820D01*
X227596Y325823D01*
X228297Y325879D01*
X228488Y325913D01*
X228657Y325954D01*
X228805Y326002D01*
X228931Y326058D01*
X229037Y326121D01*
X229120Y326192D01*
Y322692D01*
D02*
G37*
G36*
X228187Y322208D02*
X228324Y322184D01*
X228438Y322157D01*
X228518Y322131D01*
X228544Y322119D01*
X228561Y322097D01*
X229248Y321570D01*
X230047Y321239D01*
X230285Y321208D01*
X230252Y320708D01*
X108683D01*
X108492Y321170D01*
X109556Y322234D01*
X227932D01*
X228187Y322208D01*
D02*
G37*
G36*
X403493Y318212D02*
X403523Y318093D01*
X403573Y317964D01*
X403643Y317826D01*
X403734Y317677D01*
X403845Y317518D01*
X404129Y317172D01*
X404301Y316983D01*
X404494Y316785D01*
X402545Y314836D01*
X402347Y315029D01*
X401812Y315485D01*
X401654Y315597D01*
X401505Y315687D01*
X401366Y315758D01*
X401237Y315808D01*
X401118Y315837D01*
X401009Y315846D01*
X403484Y318321D01*
X403493Y318212D01*
D02*
G37*
G36*
X400959Y315846D02*
X400850Y315837D01*
X400731Y315808D01*
X400602Y315758D01*
X400463Y315687D01*
X400315Y315597D01*
X400156Y315485D01*
X399809Y315202D01*
X399621Y315029D01*
X399423Y314836D01*
X397474Y316785D01*
X397667Y316983D01*
X398123Y317518D01*
X398234Y317677D01*
X398325Y317826D01*
X398396Y317964D01*
X398446Y318093D01*
X398475Y318212D01*
X398484Y318321D01*
X400959Y315846D01*
D02*
G37*
G36*
X321613Y312239D02*
X321202Y312229D01*
X320806Y312192D01*
X320424Y312127D01*
X320057Y312034D01*
X319704Y311913D01*
X319366Y311765D01*
X319042Y311589D01*
X318733Y311385D01*
X318438Y311154D01*
X318158Y310894D01*
X316209Y312843D01*
X316469Y313123D01*
X316700Y313418D01*
X316904Y313727D01*
X317080Y314051D01*
X317228Y314389D01*
X317349Y314742D01*
X317442Y315109D01*
X317507Y315491D01*
X317544Y315887D01*
X317554Y316298D01*
X321613Y312239D01*
D02*
G37*
G36*
X422618Y310105D02*
X422706Y310058D01*
X422815Y310017D01*
X422947Y309981D01*
X423101Y309951D01*
X423277Y309926D01*
X423695Y309893D01*
X424202Y309882D01*
Y307126D01*
X423938Y307123D01*
X423101Y307057D01*
X422947Y307027D01*
X422815Y306991D01*
X422706Y306949D01*
X422618Y306903D01*
X422553Y306850D01*
Y310157D01*
X422618Y310105D01*
D02*
G37*
G36*
X419179Y306850D02*
X419114Y306903D01*
X419027Y306949D01*
X418917Y306991D01*
X418786Y307027D01*
X418632Y307057D01*
X418456Y307082D01*
X418037Y307115D01*
X417530Y307126D01*
Y309882D01*
X417795Y309885D01*
X418632Y309951D01*
X418786Y309981D01*
X418917Y310017D01*
X419027Y310058D01*
X419114Y310105D01*
X419179Y310157D01*
Y306850D01*
D02*
G37*
G36*
X443140Y306761D02*
X443078Y306830D01*
X442993Y306892D01*
X442887Y306947D01*
X442758Y306994D01*
X442606Y307035D01*
X442433Y307067D01*
X442237Y307093D01*
X441777Y307122D01*
X441514Y307126D01*
X442099Y309882D01*
X442367Y309883D01*
X443467Y309950D01*
X443566Y309971D01*
X443641Y309995D01*
X443691Y310022D01*
X443140Y306761D01*
D02*
G37*
G36*
X275056Y309187D02*
X275342Y308953D01*
X275639Y308746D01*
X275947Y308567D01*
X276265Y308416D01*
X276595Y308292D01*
X276935Y308195D01*
X277285Y308126D01*
X277647Y308085D01*
X278019Y308071D01*
Y305315D01*
X277647Y305301D01*
X277285Y305260D01*
X276935Y305191D01*
X276595Y305095D01*
X276265Y304971D01*
X275947Y304819D01*
X275639Y304640D01*
X275342Y304433D01*
X275056Y304199D01*
X274780Y303937D01*
Y309449D01*
X275056Y309187D01*
D02*
G37*
G36*
X203125Y291506D02*
X203660Y291050D01*
X203819Y290939D01*
X203967Y290848D01*
X204106Y290778D01*
X204235Y290728D01*
X204354Y290698D01*
X204463Y290689D01*
X201989Y288214D01*
X201979Y288323D01*
X201950Y288442D01*
X201900Y288571D01*
X201829Y288710D01*
X201739Y288859D01*
X201627Y289017D01*
X201344Y289364D01*
X201171Y289552D01*
X200978Y289751D01*
X202927Y291699D01*
X203125Y291506D01*
D02*
G37*
G36*
X103089Y250117D02*
X102875Y249893D01*
X102514Y249454D01*
X102367Y249239D01*
X102244Y249028D01*
X102143Y248820D01*
X102065Y248616D01*
X102010Y248414D01*
X101978Y248216D01*
X101968Y248022D01*
X99045Y250945D01*
X99240Y250954D01*
X99438Y250987D01*
X99639Y251042D01*
X99844Y251120D01*
X100051Y251220D01*
X100263Y251344D01*
X100477Y251490D01*
X100695Y251659D01*
X100916Y251851D01*
X101141Y252066D01*
X103089Y250117D01*
D02*
G37*
G36*
X157115Y231851D02*
X157554Y231490D01*
X157769Y231344D01*
X157980Y231220D01*
X158188Y231120D01*
X158393Y231042D01*
X158594Y230987D01*
X158792Y230954D01*
X158986Y230945D01*
X156063Y228022D01*
X156054Y228216D01*
X156021Y228414D01*
X155966Y228615D01*
X155888Y228820D01*
X155788Y229028D01*
X155664Y229239D01*
X155518Y229454D01*
X155349Y229672D01*
X155157Y229893D01*
X154942Y230117D01*
X156891Y232066D01*
X157115Y231851D01*
D02*
G37*
G36*
X98986Y215040D02*
X98792Y215030D01*
X98594Y214998D01*
X98392Y214943D01*
X98188Y214865D01*
X97980Y214764D01*
X97769Y214641D01*
X97554Y214494D01*
X97337Y214325D01*
X97115Y214133D01*
X96891Y213918D01*
X94942Y215867D01*
X95157Y216092D01*
X95518Y216531D01*
X95664Y216745D01*
X95788Y216956D01*
X95888Y217164D01*
X95966Y217369D01*
X96021Y217570D01*
X96054Y217768D01*
X96063Y217963D01*
X98986Y215040D01*
D02*
G37*
G36*
X38198Y213949D02*
X38231Y213751D01*
X38286Y213550D01*
X38364Y213345D01*
X38464Y213137D01*
X38588Y212926D01*
X38734Y212712D01*
X38903Y212494D01*
X39095Y212273D01*
X39310Y212048D01*
X37361Y210100D01*
X37137Y210314D01*
X36698Y210675D01*
X36483Y210822D01*
X36272Y210945D01*
X36064Y211046D01*
X35860Y211124D01*
X35658Y211179D01*
X35460Y211211D01*
X35266Y211221D01*
X38189Y214144D01*
X38198Y213949D01*
D02*
G37*
G36*
X98986Y205040D02*
X98792Y205030D01*
X98594Y204998D01*
X98392Y204943D01*
X98188Y204865D01*
X97980Y204764D01*
X97769Y204641D01*
X97554Y204494D01*
X97337Y204325D01*
X97115Y204133D01*
X96891Y203919D01*
X94942Y205867D01*
X95157Y206092D01*
X95518Y206531D01*
X95664Y206745D01*
X95788Y206956D01*
X95888Y207164D01*
X95966Y207369D01*
X96021Y207570D01*
X96054Y207768D01*
X96063Y207963D01*
X98986Y205040D01*
D02*
G37*
G36*
X448806Y190991D02*
X448620Y190802D01*
X448075Y190163D01*
X447988Y190033D01*
X447920Y189914D01*
X447872Y189808D01*
X447844Y189713D01*
X447834Y189630D01*
X445496Y191968D01*
X445579Y191977D01*
X445674Y192006D01*
X445781Y192054D01*
X445899Y192122D01*
X446029Y192209D01*
X446171Y192316D01*
X446490Y192589D01*
X446857Y192939D01*
X448806Y190991D01*
D02*
G37*
G36*
X443785Y187953D02*
X443720Y188005D01*
X443633Y188052D01*
X443524Y188093D01*
X443392Y188129D01*
X443238Y188159D01*
X443062Y188184D01*
X442644Y188217D01*
X442136Y188228D01*
Y190984D01*
X442401Y190987D01*
X443238Y191053D01*
X443392Y191083D01*
X443524Y191119D01*
X443633Y191161D01*
X443720Y191207D01*
X443785Y191260D01*
Y187953D01*
D02*
G37*
G36*
X424193Y191207D02*
X424280Y191161D01*
X424390Y191119D01*
X424521Y191083D01*
X424675Y191053D01*
X424851Y191028D01*
X425270Y190995D01*
X425777Y190984D01*
Y188228D01*
X425512Y188225D01*
X424675Y188159D01*
X424521Y188129D01*
X424390Y188093D01*
X424280Y188052D01*
X424193Y188005D01*
X424128Y187953D01*
Y191260D01*
X424193Y191207D01*
D02*
G37*
G36*
X420754Y187953D02*
X420689Y188005D01*
X420602Y188052D01*
X420492Y188093D01*
X420361Y188129D01*
X420207Y188159D01*
X420031Y188184D01*
X419612Y188217D01*
X419105Y188228D01*
Y190984D01*
X419370Y190987D01*
X420207Y191053D01*
X420361Y191083D01*
X420492Y191119D01*
X420602Y191161D01*
X420689Y191207D01*
X420754Y191260D01*
Y187953D01*
D02*
G37*
G36*
X96907Y185925D02*
X96763Y186056D01*
X96600Y186173D01*
X96419Y186277D01*
X96219Y186366D01*
X96001Y186442D01*
X95764Y186504D01*
X95509Y186552D01*
X95235Y186587D01*
X94943Y186607D01*
X94633Y186614D01*
Y189370D01*
X94943Y189377D01*
X95509Y189432D01*
X95764Y189480D01*
X96001Y189542D01*
X96219Y189618D01*
X96419Y189708D01*
X96600Y189811D01*
X96763Y189928D01*
X96907Y190059D01*
Y185925D01*
D02*
G37*
G36*
X88945Y319953D02*
X88500Y319925D01*
X88044Y319841D01*
X87576Y319702D01*
X87096Y319507D01*
X86604Y319257D01*
X86101Y318951D01*
X85586Y318589D01*
X85058Y318171D01*
X83969Y317169D01*
X81185Y319953D01*
X81714Y320504D01*
X82604Y321570D01*
X82966Y322085D01*
X83273Y322589D01*
X83523Y323080D01*
X83718Y323560D01*
X83857Y324028D01*
X83941Y324484D01*
X83969Y324929D01*
X88945Y319953D01*
D02*
G37*
G36*
X476359Y333665D02*
X476409Y333494D01*
X476492Y333303D01*
X476609Y333092D01*
X476760Y332862D01*
X476945Y332613D01*
X477417Y332055D01*
X478023Y331419D01*
X474683Y328079D01*
X474355Y328399D01*
X473490Y329157D01*
X473240Y329342D01*
X473010Y329493D01*
X472799Y329610D01*
X472608Y329694D01*
X472437Y329743D01*
X472285Y329758D01*
X476344Y333817D01*
X476359Y333665D01*
D02*
G37*
G36*
X456820Y335604D02*
X456857Y335236D01*
X456921Y334880D01*
X457012Y334536D01*
X457130Y334203D01*
X457275Y333883D01*
X457447Y333574D01*
X457647Y333278D01*
X457873Y332993D01*
X458126Y332720D01*
X456178Y330771D01*
X455905Y331025D01*
X455620Y331251D01*
X455323Y331450D01*
X455015Y331622D01*
X454694Y331768D01*
X454362Y331886D01*
X454017Y331977D01*
X453661Y332040D01*
X453293Y332077D01*
X452913Y332087D01*
X456811Y335984D01*
X456820Y335604D01*
D02*
G37*
G36*
X520497Y275870D02*
X520200Y276154D01*
X519894Y276407D01*
X519578Y276631D01*
X519252Y276825D01*
X518918Y276989D01*
X518574Y277123D01*
X518220Y277228D01*
X517857Y277303D01*
X517485Y277347D01*
X517104Y277362D01*
Y280118D01*
X517485Y280133D01*
X517857Y280178D01*
X518220Y280252D01*
X518574Y280357D01*
X518918Y280491D01*
X519252Y280655D01*
X519578Y280849D01*
X519894Y281073D01*
X520200Y281327D01*
X520497Y281610D01*
Y275870D01*
D02*
G37*
G36*
X284852Y277441D02*
X281929Y274518D01*
X281917Y274556D01*
X281880Y274617D01*
X281818Y274700D01*
X281618Y274933D01*
X280918Y275666D01*
X280681Y275905D01*
X283465Y278689D01*
X284852Y277441D01*
D02*
G37*
G36*
X287027Y276536D02*
X287096Y276520D01*
X287199Y276505D01*
X287505Y276481D01*
X288518Y276458D01*
X288854Y276457D01*
Y272520D01*
X286991Y272421D01*
Y276555D01*
X287027Y276536D01*
D02*
G37*
G36*
X330729Y275936D02*
X328528Y272103D01*
X328489Y272190D01*
X328414Y272267D01*
X328302Y272336D01*
X328154Y272395D01*
X327971Y272445D01*
X327750Y272486D01*
X327494Y272518D01*
X326873Y272554D01*
X326508Y272559D01*
X326972Y276496D01*
X330729Y275936D01*
D02*
G37*
G36*
X313807Y278081D02*
X313925Y277748D01*
X314122Y277455D01*
X314398Y277200D01*
X314752Y276985D01*
X315185Y276809D01*
X315697Y276672D01*
X316287Y276574D01*
X316957Y276516D01*
X317705Y276496D01*
Y272559D01*
X316957Y272539D01*
X316287Y272481D01*
X315697Y272383D01*
X315185Y272246D01*
X314752Y272070D01*
X314398Y271855D01*
X314122Y271600D01*
X313925Y271307D01*
X313807Y270974D01*
X313768Y270602D01*
Y278452D01*
X313807Y278081D01*
D02*
G37*
G36*
X305918Y270602D02*
X305878Y270967D01*
X305760Y271293D01*
X305563Y271580D01*
X305288Y271829D01*
X304934Y272040D01*
X304501Y272213D01*
X303989Y272347D01*
X303398Y272443D01*
X302729Y272500D01*
X301981Y272520D01*
Y276457D01*
X302730Y276476D01*
X303401Y276535D01*
X303994Y276634D01*
X304507Y276771D01*
X304941Y276949D01*
X305296Y277165D01*
X305573Y277421D01*
X305771Y277716D01*
X305890Y278051D01*
X305930Y278425D01*
X305918Y270602D01*
D02*
G37*
G36*
X163217Y269409D02*
X161968Y268022D01*
X159045Y270945D01*
X159084Y270957D01*
X159145Y270994D01*
X159228Y271057D01*
X159461Y271256D01*
X160194Y271956D01*
X160433Y272193D01*
X163217Y269409D01*
D02*
G37*
G36*
X297161Y263688D02*
X294263Y263110D01*
X293653Y265866D01*
X293932Y265870D01*
X294403Y265903D01*
X294596Y265931D01*
X294759Y265968D01*
X294893Y266013D01*
X294999Y266066D01*
X295075Y266127D01*
X295123Y266196D01*
X295142Y266273D01*
X297161Y263688D01*
D02*
G37*
G36*
X287135Y266424D02*
X287298Y266307D01*
X287479Y266204D01*
X287679Y266114D01*
X287897Y266038D01*
X288134Y265976D01*
X288389Y265928D01*
X288662Y265894D01*
X288954Y265873D01*
X289265Y265866D01*
Y263110D01*
X288954Y263103D01*
X288389Y263048D01*
X288134Y263000D01*
X287897Y262938D01*
X287679Y262862D01*
X287479Y262772D01*
X287298Y262669D01*
X287135Y262552D01*
X286991Y262421D01*
Y266555D01*
X287135Y266424D01*
D02*
G37*
G36*
X252773Y262421D02*
X252629Y262552D01*
X252466Y262669D01*
X252285Y262772D01*
X252085Y262862D01*
X251867Y262938D01*
X251630Y263000D01*
X251375Y263048D01*
X251101Y263083D01*
X250809Y263103D01*
X250499Y263110D01*
Y265866D01*
X250809Y265873D01*
X251375Y265928D01*
X251630Y265976D01*
X251867Y266038D01*
X252085Y266114D01*
X252285Y266204D01*
X252466Y266307D01*
X252629Y266424D01*
X252773Y266555D01*
Y262421D01*
D02*
G37*
G36*
X237909Y266829D02*
X237992Y266627D01*
X238130Y266448D01*
X238322Y266294D01*
X238570Y266163D01*
X238874Y266056D01*
X239232Y265973D01*
X239645Y265914D01*
X240114Y265878D01*
X240637Y265866D01*
Y263110D01*
X240114Y263100D01*
X239232Y263017D01*
X238874Y262945D01*
X238570Y262852D01*
X238322Y262739D01*
X238130Y262605D01*
X237992Y262450D01*
X237909Y262275D01*
X237881Y262079D01*
Y267055D01*
X237909Y266829D01*
D02*
G37*
G36*
X282395Y234795D02*
X282551Y234739D01*
X282753Y234690D01*
X283001Y234647D01*
X283637Y234580D01*
X284458Y234541D01*
X285464Y234527D01*
Y231771D01*
X284938Y231768D01*
X283001Y231652D01*
X282753Y231609D01*
X282551Y231560D01*
X282395Y231503D01*
X282286Y231440D01*
Y234858D01*
X282395Y234795D01*
D02*
G37*
G36*
X312930Y235840D02*
X313216Y235606D01*
X313513Y235399D01*
X313821Y235220D01*
X314139Y235069D01*
X314469Y234945D01*
X314809Y234848D01*
X315159Y234779D01*
X315521Y234738D01*
X315893Y234724D01*
Y231968D01*
X315521Y231955D01*
X315159Y231913D01*
X314809Y231844D01*
X314469Y231748D01*
X314139Y231624D01*
X313821Y231472D01*
X313513Y231293D01*
X313216Y231086D01*
X312930Y230852D01*
X312654Y230590D01*
Y236102D01*
X312930Y235840D01*
D02*
G37*
G36*
X307172Y230453D02*
X306882Y230704D01*
X306583Y230928D01*
X306276Y231125D01*
X305959Y231297D01*
X305633Y231442D01*
X305299Y231560D01*
X304956Y231653D01*
X304603Y231719D01*
X304242Y231758D01*
X303872Y231771D01*
X303725Y234527D01*
X304099Y234542D01*
X304461Y234585D01*
X304810Y234656D01*
X305146Y234756D01*
X305470Y234885D01*
X305781Y235042D01*
X306079Y235228D01*
X306364Y235443D01*
X306637Y235686D01*
X306897Y235958D01*
X307172Y230453D01*
D02*
G37*
G36*
X282395Y229796D02*
X282551Y229739D01*
X282753Y229690D01*
X283001Y229646D01*
X283637Y229580D01*
X284458Y229541D01*
X285464Y229527D01*
Y226771D01*
X284938Y226768D01*
X283001Y226652D01*
X282753Y226609D01*
X282551Y226560D01*
X282395Y226503D01*
X282286Y226440D01*
Y229858D01*
X282395Y229796D01*
D02*
G37*
G36*
X329449Y229795D02*
X329691Y229592D01*
X329933Y229414D01*
X330176Y229259D01*
X330421Y229128D01*
X330666Y229022D01*
X330913Y228940D01*
X331161Y228882D01*
X331410Y228848D01*
X331660Y228838D01*
X328445Y225623D01*
X328435Y225873D01*
X328402Y226122D01*
X328344Y226370D01*
X328262Y226617D01*
X328155Y226863D01*
X328025Y227107D01*
X327870Y227351D01*
X327691Y227593D01*
X327488Y227834D01*
X327261Y228074D01*
X329209Y230023D01*
X329449Y229795D01*
D02*
G37*
G36*
X96907Y225925D02*
X96763Y226056D01*
X96600Y226173D01*
X96419Y226277D01*
X96219Y226366D01*
X96001Y226442D01*
X95764Y226504D01*
X95509Y226552D01*
X95235Y226587D01*
X94943Y226607D01*
X94633Y226614D01*
Y229370D01*
X94943Y229377D01*
X95509Y229432D01*
X95764Y229480D01*
X96001Y229542D01*
X96219Y229618D01*
X96419Y229708D01*
X96600Y229811D01*
X96763Y229928D01*
X96907Y230059D01*
Y225925D01*
D02*
G37*
G36*
X69310Y226298D02*
X69095Y226074D01*
X68734Y225635D01*
X68588Y225420D01*
X68464Y225209D01*
X68364Y225001D01*
X68286Y224797D01*
X68231Y224595D01*
X68198Y224397D01*
X68189Y224203D01*
X65266Y227126D01*
X65460Y227135D01*
X65658Y227168D01*
X65860Y227223D01*
X66064Y227301D01*
X66272Y227401D01*
X66483Y227525D01*
X66698Y227671D01*
X66916Y227840D01*
X67137Y228032D01*
X67361Y228247D01*
X69310Y226298D01*
D02*
G37*
G36*
X477039Y213069D02*
X476719Y212741D01*
X475961Y211876D01*
X475776Y211626D01*
X475625Y211396D01*
X475508Y211185D01*
X475424Y210994D01*
X475375Y210823D01*
X475360Y210671D01*
X471301Y214730D01*
X471453Y214745D01*
X471624Y214795D01*
X471815Y214878D01*
X472026Y214995D01*
X472256Y215146D01*
X472505Y215331D01*
X473063Y215803D01*
X473699Y216409D01*
X477039Y213069D01*
D02*
G37*
G36*
X522400Y206530D02*
X522248Y206515D01*
X522076Y206465D01*
X521885Y206382D01*
X521675Y206265D01*
X521445Y206114D01*
X521195Y205929D01*
X520638Y205457D01*
X520002Y204851D01*
X516661Y208191D01*
X516982Y208519D01*
X517740Y209384D01*
X517925Y209634D01*
X518076Y209864D01*
X518193Y210075D01*
X518276Y210266D01*
X518326Y210437D01*
X518341Y210589D01*
X522400Y206530D01*
D02*
G37*
G36*
X332448Y184351D02*
X332353Y184338D01*
X332240Y184298D01*
X332108Y184231D01*
X331958Y184137D01*
X331789Y184016D01*
X331396Y183691D01*
X330929Y183259D01*
X330667Y183002D01*
X327884Y185785D01*
X328141Y186047D01*
X328897Y186907D01*
X329019Y187076D01*
X329113Y187226D01*
X329180Y187358D01*
X329220Y187471D01*
X329232Y187566D01*
X332448Y184351D01*
D02*
G37*
G36*
X286830Y183426D02*
X286899Y183410D01*
X287002Y183395D01*
X287308Y183371D01*
X288321Y183347D01*
X288657Y183346D01*
Y179410D01*
X286794Y179311D01*
Y183445D01*
X286830Y183426D01*
D02*
G37*
G36*
X315185Y184971D02*
X315303Y184638D01*
X315500Y184345D01*
X315775Y184090D01*
X316130Y183875D01*
X316563Y183699D01*
X317075Y183562D01*
X317665Y183464D01*
X318335Y183405D01*
X319083Y183386D01*
Y179449D01*
X318335Y179429D01*
X317665Y179371D01*
X317075Y179273D01*
X316563Y179136D01*
X316130Y178960D01*
X315775Y178745D01*
X315500Y178490D01*
X315303Y178197D01*
X315185Y177864D01*
X315146Y177492D01*
Y185342D01*
X315185Y184971D01*
D02*
G37*
G36*
X307295Y177492D02*
X307256Y177857D01*
X307138Y178182D01*
X306941Y178470D01*
X306666Y178719D01*
X306311Y178930D01*
X305878Y179103D01*
X305366Y179237D01*
X304776Y179333D01*
X304107Y179390D01*
X303359Y179410D01*
Y183346D01*
X304108Y183366D01*
X304779Y183425D01*
X305371Y183524D01*
X305885Y183661D01*
X306319Y183839D01*
X306674Y184055D01*
X306951Y184311D01*
X307149Y184606D01*
X307267Y184941D01*
X307308Y185315D01*
X307295Y177492D01*
D02*
G37*
G36*
X299596Y170447D02*
X296694Y170000D01*
X296200Y172756D01*
X296477Y172760D01*
X296949Y172797D01*
X297143Y172828D01*
X297309Y172869D01*
X297447Y172919D01*
X297557Y172977D01*
X297639Y173045D01*
X297693Y173122D01*
X297719Y173208D01*
X299596Y170447D01*
D02*
G37*
G36*
X286938Y173314D02*
X287101Y173197D01*
X287282Y173094D01*
X287482Y173004D01*
X287700Y172928D01*
X287937Y172866D01*
X288192Y172818D01*
X288465Y172784D01*
X288758Y172763D01*
X289068Y172756D01*
Y170000D01*
X288758Y169993D01*
X288192Y169938D01*
X287937Y169890D01*
X287700Y169828D01*
X287482Y169752D01*
X287282Y169662D01*
X287101Y169559D01*
X286938Y169442D01*
X286794Y169311D01*
Y173445D01*
X286938Y173314D01*
D02*
G37*
G36*
X252661Y169228D02*
X252513Y169352D01*
X252347Y169464D01*
X252163Y169562D01*
X251961Y169647D01*
X251741Y169718D01*
X251502Y169777D01*
X251246Y169823D01*
X250971Y169856D01*
X250368Y169882D01*
X250243Y172638D01*
X250553Y172645D01*
X251117Y172703D01*
X251371Y172753D01*
X251606Y172818D01*
X251822Y172897D01*
X252018Y172991D01*
X252196Y173099D01*
X252355Y173222D01*
X252495Y173359D01*
X252661Y169228D01*
D02*
G37*
G36*
X236925Y173537D02*
X237008Y173348D01*
X237145Y173182D01*
X237338Y173037D01*
X237586Y172915D01*
X237890Y172815D01*
X238248Y172738D01*
X238661Y172682D01*
X239130Y172649D01*
X239653Y172638D01*
Y169882D01*
X239130Y169871D01*
X238248Y169782D01*
X237890Y169704D01*
X237586Y169604D01*
X237338Y169482D01*
X237145Y169338D01*
X237008Y169171D01*
X236925Y168983D01*
X236897Y168772D01*
Y173748D01*
X236925Y173537D01*
D02*
G37*
G36*
X280624Y141489D02*
X280779Y141432D01*
X280981Y141383D01*
X281230Y141340D01*
X281865Y141273D01*
X282686Y141234D01*
X283692Y141220D01*
Y138464D01*
X283166Y138461D01*
X281230Y138345D01*
X280981Y138302D01*
X280779Y138253D01*
X280624Y138196D01*
X280514Y138133D01*
Y141551D01*
X280624Y141489D01*
D02*
G37*
G36*
X330245Y137998D02*
X330056Y138161D01*
X329851Y138308D01*
X329630Y138437D01*
X329394Y138549D01*
X329142Y138643D01*
X328875Y138721D01*
X328592Y138781D01*
X328293Y138824D01*
X327979Y138850D01*
X327648Y138858D01*
X327538Y141614D01*
X327869Y141623D01*
X328182Y141651D01*
X328479Y141698D01*
X328759Y141763D01*
X329021Y141846D01*
X329267Y141948D01*
X329496Y142069D01*
X329707Y142208D01*
X329902Y142366D01*
X330080Y142542D01*
X330245Y137998D01*
D02*
G37*
G36*
X314308Y142730D02*
X314594Y142496D01*
X314891Y142289D01*
X315199Y142110D01*
X315517Y141959D01*
X315846Y141835D01*
X316186Y141738D01*
X316537Y141669D01*
X316898Y141628D01*
X317271Y141614D01*
Y138858D01*
X316898Y138845D01*
X316537Y138803D01*
X316186Y138734D01*
X315846Y138638D01*
X315517Y138514D01*
X315199Y138362D01*
X314891Y138183D01*
X314594Y137976D01*
X314308Y137742D01*
X314032Y137480D01*
Y142992D01*
X314308Y142730D01*
D02*
G37*
G36*
X308699Y137213D02*
X308395Y137451D01*
X308084Y137663D01*
X307767Y137851D01*
X307441Y138014D01*
X307109Y138152D01*
X306770Y138264D01*
X306424Y138352D01*
X306071Y138414D01*
X305710Y138452D01*
X305343Y138464D01*
X305046Y141220D01*
X305423Y141235D01*
X305784Y141279D01*
X306131Y141353D01*
X306463Y141457D01*
X306781Y141589D01*
X307084Y141752D01*
X307372Y141944D01*
X307645Y142165D01*
X307904Y142417D01*
X308147Y142697D01*
X308699Y137213D01*
D02*
G37*
G36*
X280624Y136488D02*
X280779Y136432D01*
X280981Y136383D01*
X281230Y136339D01*
X281865Y136273D01*
X282686Y136234D01*
X283692Y136220D01*
Y133464D01*
X283166Y133461D01*
X281230Y133345D01*
X280981Y133302D01*
X280779Y133253D01*
X280624Y133196D01*
X280514Y133133D01*
Y136551D01*
X280624Y136488D01*
D02*
G37*
G36*
X101978Y237768D02*
X102010Y237570D01*
X102065Y237369D01*
X102143Y237164D01*
X102244Y236956D01*
X102367Y236745D01*
X102514Y236531D01*
X102683Y236313D01*
X102875Y236092D01*
X103089Y235867D01*
X101141Y233918D01*
X100916Y234133D01*
X100477Y234494D01*
X100263Y234641D01*
X100051Y234764D01*
X99844Y234865D01*
X99639Y234943D01*
X99438Y234998D01*
X99240Y235030D01*
X99045Y235040D01*
X101968Y237963D01*
X101978Y237768D01*
D02*
G37*
G36*
X156907Y95925D02*
X156763Y96056D01*
X156600Y96173D01*
X156419Y96277D01*
X156219Y96366D01*
X156001Y96442D01*
X155764Y96504D01*
X155509Y96552D01*
X155235Y96587D01*
X154943Y96607D01*
X154633Y96614D01*
Y99370D01*
X154943Y99377D01*
X155509Y99432D01*
X155764Y99480D01*
X156001Y99542D01*
X156219Y99618D01*
X156419Y99708D01*
X156600Y99811D01*
X156763Y99928D01*
X156907Y100059D01*
Y95925D01*
D02*
G37*
G36*
X407189Y93504D02*
X407162Y93766D01*
X407079Y94000D01*
X406940Y94207D01*
X406747Y94386D01*
X406497Y94538D01*
X406193Y94662D01*
X405833Y94758D01*
X405418Y94827D01*
X404947Y94868D01*
X404422Y94882D01*
Y97638D01*
X404947Y97652D01*
X405418Y97693D01*
X405833Y97762D01*
X406193Y97858D01*
X406497Y97982D01*
X406747Y98134D01*
X406940Y98313D01*
X407079Y98520D01*
X407162Y98754D01*
X407189Y99016D01*
Y93504D01*
D02*
G37*
G36*
X331070Y87500D02*
X330975Y87487D01*
X330862Y87448D01*
X330730Y87381D01*
X330580Y87286D01*
X330411Y87165D01*
X330018Y86841D01*
X329551Y86408D01*
X329289Y86151D01*
X326505Y88935D01*
X326763Y89196D01*
X327519Y90057D01*
X327641Y90226D01*
X327735Y90376D01*
X327802Y90508D01*
X327842Y90621D01*
X327854Y90715D01*
X331070Y87500D01*
D02*
G37*
G36*
X313807Y89302D02*
X313925Y88969D01*
X314122Y88675D01*
X314398Y88421D01*
X314752Y88206D01*
X315185Y88030D01*
X315697Y87893D01*
X316287Y87795D01*
X316957Y87736D01*
X317705Y87717D01*
Y83780D01*
X316957Y83760D01*
X316287Y83701D01*
X315697Y83604D01*
X315185Y83467D01*
X314752Y83291D01*
X314398Y83075D01*
X314122Y82821D01*
X313925Y82528D01*
X313807Y82195D01*
X313768Y81823D01*
Y89673D01*
X313807Y89302D01*
D02*
G37*
G36*
X305918Y81823D02*
X305878Y82195D01*
X305760Y82528D01*
X305563Y82821D01*
X305288Y83075D01*
X304933Y83291D01*
X304500Y83467D01*
X303989Y83604D01*
X303398Y83701D01*
X302729Y83760D01*
X301981Y83780D01*
Y87717D01*
X302729Y87736D01*
X303398Y87795D01*
X303989Y87893D01*
X304500Y88030D01*
X304933Y88206D01*
X305288Y88421D01*
X305563Y88675D01*
X305760Y88969D01*
X305878Y89302D01*
X305918Y89673D01*
Y81823D01*
D02*
G37*
G36*
X120373Y77664D02*
X120478Y77601D01*
X120605Y77545D01*
X120753Y77496D01*
X120922Y77455D01*
X121113Y77422D01*
X121558Y77377D01*
X121813Y77366D01*
X122090Y77362D01*
Y74606D01*
X121813Y74603D01*
X121113Y74547D01*
X120922Y74513D01*
X120753Y74472D01*
X120605Y74424D01*
X120478Y74368D01*
X120373Y74305D01*
X120289Y74234D01*
Y77734D01*
X120373Y77664D01*
D02*
G37*
G36*
X519841Y88420D02*
X519689Y88405D01*
X519517Y88355D01*
X519326Y88272D01*
X519116Y88155D01*
X518886Y88004D01*
X518636Y87819D01*
X518079Y87347D01*
X517443Y86740D01*
X514102Y90081D01*
X514423Y90409D01*
X515181Y91274D01*
X515366Y91524D01*
X515517Y91754D01*
X515634Y91964D01*
X515717Y92155D01*
X515766Y92327D01*
X515782Y92479D01*
X519841Y88420D01*
D02*
G37*
G36*
X253319Y85524D02*
X253280Y85708D01*
X253162Y85874D01*
X252965Y86019D01*
X252689Y86146D01*
X252335Y86253D01*
X251902Y86340D01*
X251390Y86408D01*
X250130Y86486D01*
X249382Y86496D01*
Y90433D01*
X250130Y90443D01*
X251902Y90588D01*
X252335Y90676D01*
X252689Y90783D01*
X252965Y90909D01*
X253162Y91055D01*
X253280Y91220D01*
X253319Y91405D01*
Y85524D01*
D02*
G37*
G36*
X64679Y77827D02*
X64834Y77771D01*
X65036Y77721D01*
X65285Y77678D01*
X65920Y77612D01*
X66741Y77572D01*
X67747Y77559D01*
Y74803D01*
X67221Y74800D01*
X65285Y74684D01*
X65036Y74641D01*
X64834Y74591D01*
X64679Y74535D01*
X64569Y74472D01*
Y77890D01*
X64679Y77827D01*
D02*
G37*
G36*
X76586Y74380D02*
X76505Y74461D01*
X76402Y74533D01*
X76277Y74596D01*
X76131Y74651D01*
X75963Y74698D01*
X75774Y74736D01*
X75563Y74765D01*
X75076Y74799D01*
X74801Y74803D01*
X75062Y77559D01*
X75340Y77562D01*
X76043Y77609D01*
X76234Y77637D01*
X76403Y77671D01*
X76550Y77711D01*
X76676Y77758D01*
X76780Y77811D01*
X76862Y77869D01*
X76586Y74380D01*
D02*
G37*
G36*
X254151Y76398D02*
X254007Y76528D01*
X253844Y76645D01*
X253663Y76749D01*
X253463Y76838D01*
X253245Y76914D01*
X253008Y76976D01*
X252753Y77024D01*
X252480Y77059D01*
X252187Y77080D01*
X251877Y77086D01*
Y79842D01*
X252187Y79849D01*
X252753Y79904D01*
X253008Y79953D01*
X253245Y80015D01*
X253463Y80090D01*
X253663Y80180D01*
X253844Y80283D01*
X254007Y80400D01*
X254151Y80531D01*
Y76398D01*
D02*
G37*
G36*
X237516Y80805D02*
X237598Y80603D01*
X237736Y80425D01*
X237929Y80270D01*
X238177Y80140D01*
X238480Y80033D01*
X238839Y79949D01*
X239252Y79890D01*
X239720Y79854D01*
X240244Y79842D01*
Y77086D01*
X239720Y77076D01*
X238839Y76994D01*
X238480Y76921D01*
X238177Y76829D01*
X237929Y76715D01*
X237736Y76581D01*
X237598Y76426D01*
X237516Y76251D01*
X237488Y76055D01*
Y81031D01*
X237516Y80805D01*
D02*
G37*
G36*
X288513Y80400D02*
X288676Y80283D01*
X288857Y80180D01*
X289057Y80090D01*
X289275Y80015D01*
X289512Y79953D01*
X289767Y79904D01*
X290040Y79870D01*
X290333Y79849D01*
X290643Y79842D01*
Y77086D01*
X290333Y77080D01*
X289767Y77024D01*
X289512Y76976D01*
X289275Y76914D01*
X289057Y76838D01*
X288857Y76749D01*
X288676Y76645D01*
X288513Y76528D01*
X288369Y76398D01*
Y80531D01*
X288513Y80400D01*
D02*
G37*
G36*
X403247Y76719D02*
X403352Y76656D01*
X403479Y76600D01*
X403627Y76551D01*
X403796Y76510D01*
X403987Y76477D01*
X404433Y76432D01*
X404688Y76421D01*
X404964Y76417D01*
Y73661D01*
X404688Y73658D01*
X403987Y73602D01*
X403796Y73568D01*
X403627Y73527D01*
X403479Y73479D01*
X403352Y73423D01*
X403247Y73360D01*
X403164Y73289D01*
Y76789D01*
X403247Y76719D01*
D02*
G37*
G36*
X420458Y72676D02*
X421097Y72131D01*
X421227Y72043D01*
X421345Y71975D01*
X421452Y71927D01*
X421547Y71899D01*
X421630Y71890D01*
X419291Y69551D01*
X419282Y69634D01*
X419254Y69729D01*
X419206Y69836D01*
X419138Y69954D01*
X419051Y70084D01*
X418944Y70226D01*
X418671Y70546D01*
X418320Y70912D01*
X420269Y72861D01*
X420458Y72676D01*
D02*
G37*
G36*
X423406Y71129D02*
X423493Y71082D01*
X423602Y71041D01*
X423734Y71005D01*
X423888Y70974D01*
X424064Y70950D01*
X424482Y70917D01*
X424989Y70906D01*
X424989Y68150D01*
X424725Y68147D01*
X423888Y68081D01*
X423734Y68050D01*
X423602Y68015D01*
X423493Y67973D01*
X423406Y67926D01*
X423340Y67874D01*
X423340Y71181D01*
X423406Y71129D01*
D02*
G37*
G36*
X445032Y67824D02*
X444967Y67886D01*
X444879Y67941D01*
X444770Y67990D01*
X444639Y68032D01*
X444486Y68068D01*
X444310Y68098D01*
X443893Y68137D01*
X443651Y68147D01*
X443388Y68150D01*
X443673Y70906D01*
X443939Y70908D01*
X444775Y70959D01*
X444927Y70983D01*
X445056Y71010D01*
X445163Y71042D01*
X445247Y71079D01*
X445307Y71119D01*
X445032Y67824D01*
D02*
G37*
G36*
X280624Y46016D02*
X280780Y45960D01*
X280982Y45910D01*
X281230Y45867D01*
X281866Y45801D01*
X282686Y45761D01*
X283692Y45748D01*
Y42992D01*
X283166Y42989D01*
X281230Y42873D01*
X280982Y42830D01*
X280780Y42780D01*
X280624Y42724D01*
X280514Y42661D01*
Y46079D01*
X280624Y46016D01*
D02*
G37*
G36*
X307172Y41674D02*
X306882Y41924D01*
X306583Y42149D01*
X306276Y42346D01*
X305959Y42518D01*
X305633Y42663D01*
X305299Y42781D01*
X304955Y42873D01*
X304603Y42939D01*
X304242Y42979D01*
X303872Y42992D01*
X303725Y45748D01*
X304099Y45762D01*
X304461Y45805D01*
X304810Y45877D01*
X305146Y45977D01*
X305469Y46106D01*
X305780Y46263D01*
X306078Y46449D01*
X306364Y46664D01*
X306637Y46907D01*
X306897Y47179D01*
X307172Y41674D01*
D02*
G37*
G36*
X328783Y41230D02*
X328599Y41401D01*
X328399Y41553D01*
X328183Y41687D01*
X327950Y41804D01*
X327701Y41902D01*
X327436Y41983D01*
X327154Y42045D01*
X326857Y42090D01*
X326543Y42117D01*
X326212Y42126D01*
Y44882D01*
X326543Y44891D01*
X326857Y44918D01*
X327154Y44962D01*
X327436Y45025D01*
X327701Y45106D01*
X327950Y45204D01*
X328183Y45321D01*
X328399Y45455D01*
X328599Y45607D01*
X328783Y45778D01*
Y41230D01*
D02*
G37*
G36*
X313478Y46161D02*
X313685Y45893D01*
X313913Y45656D01*
X314164Y45450D01*
X314436Y45277D01*
X314731Y45135D01*
X315047Y45024D01*
X315386Y44945D01*
X315746Y44898D01*
X316129Y44882D01*
X315294Y42126D01*
X314935Y42116D01*
X314579Y42087D01*
X314224Y42039D01*
X313872Y41971D01*
X313522Y41883D01*
X313175Y41776D01*
X312486Y41504D01*
X312145Y41339D01*
X311806Y41154D01*
X313294Y46461D01*
X313478Y46161D01*
D02*
G37*
G36*
X280624Y41016D02*
X280780Y40960D01*
X280982Y40910D01*
X281230Y40867D01*
X281866Y40801D01*
X282686Y40761D01*
X283692Y40748D01*
Y37992D01*
X283166Y37989D01*
X281230Y37873D01*
X280982Y37830D01*
X280780Y37780D01*
X280624Y37724D01*
X280514Y37661D01*
Y41079D01*
X280624Y41016D01*
D02*
G37*
G36*
X297669Y40697D02*
X296292Y37480D01*
X296240Y37577D01*
X296163Y37664D01*
X296061Y37741D01*
X295934Y37808D01*
X295783Y37864D01*
X295606Y37910D01*
X295405Y37946D01*
X295180Y37972D01*
X294653Y37992D01*
X294824Y40748D01*
X297669Y40697D01*
D02*
G37*
D10*
X47717Y324016D02*
X56969Y314764D01*
X78780D01*
X86457Y322441D01*
X159016Y267992D02*
X171988Y280965D01*
X288976Y85748D02*
X309843D01*
X286260Y88464D02*
X288976Y85748D01*
X424213Y39488D02*
X446654Y39489D01*
X385339Y19000D02*
X401378Y35039D01*
X285400Y19000D02*
X385339D01*
X277559Y26841D02*
X285400Y19000D01*
X276184Y367520D02*
X321654D01*
X268106Y359442D02*
X276184Y367520D01*
X247306Y359442D02*
X268106D01*
X235906D02*
X247306D01*
X230906Y364442D02*
X235906Y359442D01*
X108590Y364442D02*
X230906D01*
X96457Y376575D02*
X108590Y364442D01*
X81299Y361417D02*
X96457Y376575D01*
X57677Y361417D02*
X81299D01*
X467165Y159606D02*
X471260Y155512D01*
X445472Y159606D02*
X467165D01*
X422441D02*
X445472D01*
X410590D02*
X422441D01*
X403150Y152165D02*
X410590Y159606D01*
X98780Y49803D02*
X178346Y49094D01*
X184464Y88464D02*
X256260D01*
X161600Y65600D02*
X184464Y88464D01*
X96321Y65600D02*
X161600D01*
X80681Y81240D02*
X96321Y65600D01*
X67600Y81240D02*
X80681D01*
X67541Y81181D02*
X67600Y81240D01*
X61614Y81181D02*
X67541D01*
X178346Y49094D02*
X198879Y32402D01*
X400984Y278346D02*
X420866Y278504D01*
X401378Y35039D02*
X405866Y39528D01*
X424213Y39488D01*
X420866Y278740D02*
X472244D01*
X466772Y39331D02*
X468701Y37402D01*
X446851Y39331D02*
X466772D01*
X284685Y181378D02*
X309803D01*
X309843Y181417D01*
X198879Y32402D02*
X275591D01*
X277559Y34370D01*
Y26841D02*
Y34370D01*
X284882Y274488D02*
X309804D01*
X309843Y274527D01*
X171988Y280965D02*
X278405D01*
X284882Y274488D01*
X309843Y274527D02*
X330000D01*
X331693Y272835D01*
X311221Y181417D02*
X326299D01*
X332480Y187598D01*
X309843Y85748D02*
X326102D01*
X331102Y90748D01*
D11*
X247306Y329442D02*
X268106D01*
X235906D02*
X247306D01*
X230906Y324442D02*
X235906Y329442D01*
X199478Y293200D02*
X204488Y288189D01*
X154800Y293200D02*
X199478D01*
X143400Y281800D02*
X154800Y293200D01*
X143400Y243608D02*
Y281800D01*
Y243608D02*
X159016Y227992D01*
X69055D02*
X99016D01*
X65236Y224173D02*
X69055Y227992D01*
X510157Y278740D02*
X523425D01*
X452874Y336024D02*
X510157Y278740D01*
X312008Y306693D02*
X321654Y316339D01*
X271969Y306693D02*
X312008D01*
X422441Y189606D02*
X445472D01*
X405709D02*
X422441D01*
X403150Y192165D02*
X405709Y189606D01*
X416142Y75039D02*
X421653Y69528D01*
X401378Y75039D02*
X416142D01*
X446851Y69331D02*
Y69528D01*
X113800Y71300D02*
Y223208D01*
X99016Y237992D02*
X113800Y223208D01*
X444685Y308504D02*
X445079Y308110D01*
X420866Y308504D02*
X444685D01*
X410827D02*
X420866D01*
X400984Y318346D02*
X410827Y308504D01*
X380438Y297800D02*
X400984Y318346D01*
X148824Y297800D02*
X380438D01*
X99016Y247992D02*
X148824Y297800D01*
X89124Y208100D02*
X99016Y217992D01*
X41309Y208100D02*
X89124D01*
X35236Y214173D02*
X41309Y208100D01*
X108642Y324442D02*
X230906D01*
X22047Y237847D02*
X108642Y324442D01*
X22047Y200553D02*
Y237847D01*
Y200553D02*
X34608Y187992D01*
X99016D01*
X78307Y76181D02*
X78504Y75984D01*
X61614Y76181D02*
X78307D01*
X93624Y202600D02*
X99016Y207992D01*
X36900Y202600D02*
X93624D01*
X30100Y209400D02*
X36900Y202600D01*
X30100Y209400D02*
Y240889D01*
X107711Y318500D01*
X269600D01*
X274200Y323100D01*
X458100D01*
X478600Y302600D01*
Y236400D02*
Y302600D01*
X461500Y219300D02*
X478600Y236400D01*
X461500Y205634D02*
Y219300D01*
X445472Y189606D02*
X461500Y205634D01*
X421653Y69528D02*
X446851Y69528D01*
X277559Y134842D02*
X298229D01*
X300197Y132874D01*
X277559Y44370D02*
X309646D01*
X309843Y44567D01*
X277559Y39370D02*
X297638D01*
X298622Y38386D01*
X279330Y233149D02*
X309646D01*
X309843Y233346D01*
X279330Y228149D02*
X295630D01*
X297638Y226142D01*
X284685Y171378D02*
X298701D01*
X300197Y172874D01*
X284882Y264488D02*
X295984D01*
X297638Y266142D01*
X235472Y264488D02*
X254882D01*
X235394Y264567D02*
X235472Y264488D01*
X234409Y171260D02*
X254567D01*
X235079Y78464D02*
X256260D01*
X235000Y78543D02*
X235079Y78464D01*
X286260D02*
X296063D01*
X118504Y75984D02*
X131103D01*
X153110Y97992D01*
X159016D01*
X113800Y71300D02*
X146497D01*
X171457Y96260D01*
X411102D01*
X311221Y140236D02*
X332362D01*
X332480Y140354D01*
X277559Y139842D02*
X311614D01*
X310906Y43504D02*
X331102D01*
X309843Y44567D02*
X310906Y43504D01*
X309843Y233346D02*
X323937D01*
X331693Y225591D01*
D12*
X384449Y220866D02*
X401772D01*
X379724Y225591D02*
X384449Y220866D01*
X530600Y192825D02*
X550394Y173032D01*
X530600Y192825D02*
Y221900D01*
X509055Y297047D02*
X550394D01*
X472244Y333858D02*
X509055Y297047D01*
X483071Y55709D02*
X519882Y92520D01*
X489173Y177362D02*
X522441Y210630D01*
X376772Y367520D02*
X388779Y379528D01*
X498150D01*
X510551Y367126D01*
X471260Y210630D02*
X486614Y225984D01*
X526516D01*
X530600Y221900D01*
X379134Y43504D02*
X379331D01*
X391535Y55709D01*
X483071D01*
X380512Y140354D02*
X417520Y177362D01*
X489173D01*
D13*
X15760Y15760D02*
D03*
Y377965D02*
D03*
X574815D02*
D03*
Y15760D02*
D03*
D14*
X445472Y189606D02*
D03*
Y159606D02*
D03*
X445079Y308110D02*
D03*
Y278110D02*
D03*
X420866Y308504D02*
D03*
Y278504D02*
D03*
X268106Y329442D02*
D03*
Y359442D02*
D03*
X247306Y329442D02*
D03*
Y359442D02*
D03*
X422441Y189606D02*
D03*
Y159606D02*
D03*
X421653Y69528D02*
D03*
Y39528D02*
D03*
X446851Y69331D02*
D03*
Y39331D02*
D03*
D15*
X522441Y155512D02*
D03*
X471260D02*
D03*
Y210630D02*
D03*
X522441D02*
D03*
X523425Y278740D02*
D03*
X472244D02*
D03*
Y333858D02*
D03*
X523425D02*
D03*
X321654Y316339D02*
D03*
Y367520D02*
D03*
X376772D02*
D03*
Y316339D02*
D03*
X519882Y37402D02*
D03*
X468701D02*
D03*
Y92520D02*
D03*
X519882D02*
D03*
D16*
X61614Y81181D02*
D03*
Y76181D02*
D03*
X277559Y129842D02*
D03*
Y134842D02*
D03*
X279330Y223149D02*
D03*
Y228149D02*
D03*
X277559Y34370D02*
D03*
Y39370D02*
D03*
D17*
X61614Y71181D02*
D03*
X277559Y139842D02*
D03*
X279330Y233149D02*
D03*
X277559Y44370D02*
D03*
D18*
X241142Y195866D02*
D03*
X201142D02*
D03*
X244488Y288189D02*
D03*
X204488D02*
D03*
X199213Y103937D02*
D03*
X239212D02*
D03*
X96457Y322441D02*
D03*
X230906Y364442D02*
D03*
Y324442D02*
D03*
X78740Y195276D02*
D03*
X38740D02*
D03*
X118504Y75984D02*
D03*
X78504D02*
D03*
X225394Y264567D02*
D03*
X225000Y78543D02*
D03*
X47717Y304016D02*
D03*
Y324016D02*
D03*
X57717Y304016D02*
D03*
X67717D02*
D03*
Y324016D02*
D03*
X96457Y376575D02*
D03*
Y336575D02*
D03*
X403150Y152165D02*
D03*
Y192165D02*
D03*
X401378Y35039D02*
D03*
Y75039D02*
D03*
X300197Y132874D02*
D03*
Y172874D02*
D03*
X401772Y220866D02*
D03*
Y260866D02*
D03*
X400984Y278346D02*
D03*
Y318346D02*
D03*
X298622Y38386D02*
D03*
Y78386D02*
D03*
X297638Y266142D02*
D03*
Y226142D02*
D03*
X224409Y171260D02*
D03*
D19*
X254685Y181378D02*
D03*
X256260Y88464D02*
D03*
X88780Y49803D02*
D03*
X254882Y274488D02*
D03*
D20*
X254685Y171378D02*
D03*
X284685Y181378D02*
D03*
Y171378D02*
D03*
X256260Y78464D02*
D03*
X286260Y88464D02*
D03*
Y78464D02*
D03*
X550394Y173032D02*
D03*
Y193032D02*
D03*
Y297047D02*
D03*
Y317047D02*
D03*
Y49016D02*
D03*
Y69016D02*
D03*
X490551Y367126D02*
D03*
X510551D02*
D03*
X35236Y224173D02*
D03*
X45236D02*
D03*
X55236D02*
D03*
X65236D02*
D03*
Y214173D02*
D03*
X55236D02*
D03*
X45236D02*
D03*
X35236D02*
D03*
X98780Y49803D02*
D03*
X159016Y287992D02*
D03*
Y277992D02*
D03*
Y267992D02*
D03*
Y257992D02*
D03*
Y247992D02*
D03*
Y237992D02*
D03*
Y227992D02*
D03*
Y217992D02*
D03*
Y207992D02*
D03*
Y197992D02*
D03*
Y187992D02*
D03*
Y177992D02*
D03*
Y167992D02*
D03*
Y157992D02*
D03*
Y147992D02*
D03*
Y137992D02*
D03*
Y127992D02*
D03*
Y117992D02*
D03*
Y107992D02*
D03*
Y97992D02*
D03*
X99016D02*
D03*
Y107992D02*
D03*
Y117992D02*
D03*
Y127992D02*
D03*
Y137992D02*
D03*
Y147992D02*
D03*
Y157992D02*
D03*
Y167992D02*
D03*
Y177992D02*
D03*
Y187992D02*
D03*
Y197992D02*
D03*
Y207992D02*
D03*
Y217992D02*
D03*
Y227992D02*
D03*
Y237992D02*
D03*
Y247992D02*
D03*
Y287992D02*
D03*
Y277992D02*
D03*
Y267992D02*
D03*
Y257992D02*
D03*
X254882Y264488D02*
D03*
X284882Y274488D02*
D03*
Y264488D02*
D03*
X178346Y49094D02*
D03*
Y59094D02*
D03*
D21*
X311221Y181417D02*
D03*
X309843Y274527D02*
D03*
X309843Y85748D02*
D03*
D22*
X311221Y140236D02*
D03*
X452874Y336024D02*
D03*
X452284Y96063D02*
D03*
X309843Y233346D02*
D03*
X271969Y306693D02*
D03*
X309843Y44567D02*
D03*
X452087Y213976D02*
D03*
D23*
X411693Y336024D02*
D03*
X411102Y96063D02*
D03*
X230788Y306693D02*
D03*
X410906Y213976D02*
D03*
D24*
X86457Y322441D02*
D03*
X235394Y264567D02*
D03*
X235000Y78543D02*
D03*
X234409Y171260D02*
D03*
D25*
X57717Y324016D02*
D03*
D26*
X47677Y347638D02*
D03*
D27*
X57677Y337917D02*
D03*
Y361417D02*
D03*
D28*
X178346Y69094D02*
D03*
D29*
X380512Y187598D02*
D03*
Y140354D02*
D03*
X332480Y187598D02*
D03*
X324606Y163976D02*
D03*
X332480Y140354D02*
D03*
X379724Y272835D02*
D03*
Y225591D02*
D03*
X331693Y272835D02*
D03*
X323819Y249213D02*
D03*
X331693Y225591D02*
D03*
X379134Y90748D02*
D03*
Y43504D02*
D03*
X331102Y90748D02*
D03*
X323228Y67126D02*
D03*
X331102Y43504D02*
D03*
M02*
