G04 Layer_Color=8388736*
%FSLAX25Y25*%
%MOIN*%
G70*
G01*
G75*
%ADD14C,0.04724*%
%ADD20C,0.05906*%
%ADD42C,0.14173*%
%ADD43C,0.06169*%
%ADD44C,0.05512*%
%ADD45C,0.05118*%
%ADD46C,0.06693*%
%ADD47C,0.05169*%
%ADD48C,0.06102*%
D14*
X445472Y189606D02*
D03*
Y159606D02*
D03*
X445079Y308110D02*
D03*
Y278110D02*
D03*
X420866Y308504D02*
D03*
Y278504D02*
D03*
X268106Y329442D02*
D03*
Y359442D02*
D03*
X247306Y329442D02*
D03*
Y359442D02*
D03*
X422441Y189606D02*
D03*
Y159606D02*
D03*
X421653Y69528D02*
D03*
Y39528D02*
D03*
X446851Y69331D02*
D03*
Y39331D02*
D03*
D20*
X380512Y187598D02*
D03*
Y140354D02*
D03*
X332480Y187598D02*
D03*
X324606Y163976D02*
D03*
X332480Y140354D02*
D03*
X379724Y272835D02*
D03*
Y225591D02*
D03*
X331693Y272835D02*
D03*
X323819Y249213D02*
D03*
X331693Y225591D02*
D03*
X379134Y90748D02*
D03*
Y43504D02*
D03*
X331102Y90748D02*
D03*
X323228Y67126D02*
D03*
X331102Y43504D02*
D03*
D42*
X15760Y15760D02*
D03*
Y377965D02*
D03*
X574815D02*
D03*
Y15760D02*
D03*
D43*
X522441Y155512D02*
D03*
X471260D02*
D03*
Y210630D02*
D03*
X522441D02*
D03*
X523425Y278740D02*
D03*
X472244D02*
D03*
Y333858D02*
D03*
X523425D02*
D03*
X321654Y316339D02*
D03*
Y367520D02*
D03*
X376772D02*
D03*
Y316339D02*
D03*
X519882Y37402D02*
D03*
X468701D02*
D03*
Y92520D02*
D03*
X519882D02*
D03*
D44*
X61614Y81181D02*
D03*
Y76181D02*
D03*
Y71181D02*
D03*
X254685Y181378D02*
D03*
Y171378D02*
D03*
X284685Y181378D02*
D03*
Y171378D02*
D03*
X256260Y88464D02*
D03*
Y78464D02*
D03*
X286260Y88464D02*
D03*
Y78464D02*
D03*
X550394Y173032D02*
D03*
Y193032D02*
D03*
Y297047D02*
D03*
Y317047D02*
D03*
Y49016D02*
D03*
Y69016D02*
D03*
X490551Y367126D02*
D03*
X510551D02*
D03*
X35236Y224173D02*
D03*
X45236D02*
D03*
X55236D02*
D03*
X65236D02*
D03*
Y214173D02*
D03*
X55236D02*
D03*
X45236D02*
D03*
X35236D02*
D03*
X88780Y49803D02*
D03*
X98780D02*
D03*
X277559Y129842D02*
D03*
Y134842D02*
D03*
Y139842D02*
D03*
X279330Y223149D02*
D03*
Y228149D02*
D03*
Y233149D02*
D03*
X277559Y34370D02*
D03*
Y39370D02*
D03*
Y44370D02*
D03*
X159016Y287992D02*
D03*
Y277992D02*
D03*
Y267992D02*
D03*
Y257992D02*
D03*
Y247992D02*
D03*
Y237992D02*
D03*
Y227992D02*
D03*
Y217992D02*
D03*
Y207992D02*
D03*
Y197992D02*
D03*
Y187992D02*
D03*
Y177992D02*
D03*
Y167992D02*
D03*
Y157992D02*
D03*
Y147992D02*
D03*
Y137992D02*
D03*
Y127992D02*
D03*
Y117992D02*
D03*
Y107992D02*
D03*
Y97992D02*
D03*
X99016D02*
D03*
Y107992D02*
D03*
Y117992D02*
D03*
Y127992D02*
D03*
Y137992D02*
D03*
Y147992D02*
D03*
Y157992D02*
D03*
Y167992D02*
D03*
Y177992D02*
D03*
Y187992D02*
D03*
Y197992D02*
D03*
Y207992D02*
D03*
Y217992D02*
D03*
Y227992D02*
D03*
Y237992D02*
D03*
Y247992D02*
D03*
Y287992D02*
D03*
Y277992D02*
D03*
Y267992D02*
D03*
Y257992D02*
D03*
X254882Y274488D02*
D03*
Y264488D02*
D03*
X284882Y274488D02*
D03*
Y264488D02*
D03*
X178346Y49094D02*
D03*
Y59094D02*
D03*
Y69094D02*
D03*
D45*
X241142Y195866D02*
D03*
X201142D02*
D03*
X244488Y288189D02*
D03*
X204488D02*
D03*
X199213Y103937D02*
D03*
X239212D02*
D03*
X230906Y364442D02*
D03*
Y324442D02*
D03*
X78740Y195276D02*
D03*
X38740D02*
D03*
X118504Y75984D02*
D03*
X78504D02*
D03*
X47717Y304016D02*
D03*
Y324016D02*
D03*
X57717Y304016D02*
D03*
Y324016D02*
D03*
X67717Y304016D02*
D03*
Y324016D02*
D03*
X96457Y376575D02*
D03*
Y336575D02*
D03*
X403150Y152165D02*
D03*
Y192165D02*
D03*
X401378Y35039D02*
D03*
Y75039D02*
D03*
X300197Y132874D02*
D03*
Y172874D02*
D03*
X401772Y220866D02*
D03*
Y260866D02*
D03*
X400984Y278346D02*
D03*
Y318346D02*
D03*
X298622Y38386D02*
D03*
Y78386D02*
D03*
X297638Y266142D02*
D03*
Y226142D02*
D03*
D46*
X311221Y181417D02*
D03*
Y140236D02*
D03*
X411693Y336024D02*
D03*
X452874D02*
D03*
X411102Y96063D02*
D03*
X452284D02*
D03*
X309843Y274527D02*
D03*
Y233346D02*
D03*
X230788Y306693D02*
D03*
X271969D02*
D03*
X309843Y85748D02*
D03*
Y44567D02*
D03*
X410906Y213976D02*
D03*
X452087D02*
D03*
D47*
X86457Y322441D02*
D03*
X96457D02*
D03*
X235394Y264567D02*
D03*
X225394D02*
D03*
X235000Y78543D02*
D03*
X225000D02*
D03*
X234409Y171260D02*
D03*
X224409D02*
D03*
D48*
X47677Y347638D02*
D03*
X57677Y337917D02*
D03*
Y361417D02*
D03*
M02*
