G04 Layer_Color=65535*
%FSLAX25Y25*%
%MOIN*%
G70*
G01*
G75*
%ADD30C,0.00787*%
%ADD31C,0.00984*%
%ADD32C,0.02362*%
%ADD33C,0.01000*%
%ADD34C,0.00600*%
%ADD35C,0.02000*%
%ADD36C,0.00500*%
%ADD37C,0.00800*%
%ADD38C,0.00598*%
%ADD39C,0.00591*%
%ADD40R,0.11024X0.03150*%
%ADD41R,0.03150X0.11024*%
G36*
X129665Y192040D02*
X129735Y192035D01*
X129818Y192027D01*
X129906Y192018D01*
X130002Y192009D01*
X130102Y191992D01*
X130207Y191970D01*
X130308Y191948D01*
X130408Y191918D01*
X130509Y191887D01*
X130601Y191843D01*
X130688Y191799D01*
X130762Y191747D01*
X130767Y191743D01*
X130775Y191734D01*
X130793Y191721D01*
X130810Y191703D01*
X130832Y191677D01*
X130858Y191647D01*
X130889Y191607D01*
X130915Y191568D01*
X130946Y191520D01*
X130976Y191472D01*
X131003Y191415D01*
X131025Y191354D01*
X131042Y191288D01*
X131059Y191214D01*
X131068Y191140D01*
X131073Y191061D01*
Y191057D01*
Y191043D01*
X131068Y191017D01*
Y190987D01*
X131064Y190952D01*
X131055Y190908D01*
X131046Y190860D01*
X131029Y190807D01*
X131011Y190751D01*
X130990Y190694D01*
X130963Y190633D01*
X130928Y190576D01*
X130893Y190515D01*
X130845Y190458D01*
X130797Y190401D01*
X130736Y190349D01*
X130732Y190344D01*
X130719Y190336D01*
X130697Y190322D01*
X130670Y190309D01*
X130631Y190287D01*
X130583Y190266D01*
X130522Y190239D01*
X130456Y190218D01*
X130378Y190191D01*
X130290Y190165D01*
X130190Y190143D01*
X130081Y190126D01*
X129958Y190108D01*
X129823Y190095D01*
X129678Y190086D01*
X129521Y190082D01*
X129438D01*
X129381Y190086D01*
X129311Y190091D01*
X129228Y190100D01*
X129141Y190108D01*
X129045Y190117D01*
X128944Y190135D01*
X128844Y190152D01*
X128739Y190178D01*
X128639Y190205D01*
X128542Y190239D01*
X128451Y190279D01*
X128363Y190322D01*
X128289Y190375D01*
X128285Y190379D01*
X128276Y190388D01*
X128258Y190401D01*
X128241Y190423D01*
X128215Y190445D01*
X128188Y190475D01*
X128162Y190515D01*
X128131Y190554D01*
X128101Y190602D01*
X128075Y190650D01*
X128049Y190707D01*
X128022Y190768D01*
X128005Y190834D01*
X127987Y190908D01*
X127979Y190982D01*
X127974Y191061D01*
Y191065D01*
Y191078D01*
Y191105D01*
X127979Y191135D01*
X127983Y191170D01*
X127992Y191214D01*
X128000Y191258D01*
X128014Y191310D01*
X128031Y191367D01*
X128053Y191419D01*
X128075Y191476D01*
X128105Y191533D01*
X128145Y191590D01*
X128184Y191647D01*
X128232Y191699D01*
X128289Y191747D01*
X128293Y191751D01*
X128306Y191760D01*
X128328Y191773D01*
X128359Y191795D01*
X128402Y191817D01*
X128455Y191843D01*
X128512Y191869D01*
X128586Y191896D01*
X128665Y191922D01*
X128756Y191953D01*
X128857Y191974D01*
X128971Y191996D01*
X129093Y192018D01*
X129224Y192031D01*
X129368Y192040D01*
X129526Y192044D01*
X129609D01*
X129665Y192040D01*
D02*
G37*
G36*
X130177Y182430D02*
X130212Y182426D01*
X130251Y182417D01*
X130299Y182408D01*
X130347Y182400D01*
X130452Y182365D01*
X130509Y182339D01*
X130570Y182312D01*
X130627Y182277D01*
X130684Y182238D01*
X130740Y182194D01*
X130793Y182142D01*
X130797Y182137D01*
X130806Y182129D01*
X130819Y182111D01*
X130837Y182089D01*
X130858Y182059D01*
X130880Y182028D01*
X130906Y181984D01*
X130933Y181941D01*
X130959Y181893D01*
X130985Y181836D01*
X131007Y181775D01*
X131029Y181714D01*
X131046Y181644D01*
X131059Y181574D01*
X131068Y181495D01*
X131073Y181416D01*
Y181412D01*
Y181399D01*
Y181377D01*
X131068Y181346D01*
X131064Y181312D01*
X131059Y181272D01*
X131051Y181228D01*
X131042Y181176D01*
X131016Y181071D01*
X130972Y180957D01*
X130946Y180896D01*
X130915Y180844D01*
X130876Y180787D01*
X130837Y180735D01*
X130832Y180730D01*
X130824Y180722D01*
X130810Y180709D01*
X130793Y180691D01*
X130771Y180669D01*
X130740Y180647D01*
X130710Y180621D01*
X130670Y180595D01*
X130627Y180569D01*
X130583Y180538D01*
X130478Y180490D01*
X130356Y180451D01*
X130290Y180433D01*
X130220Y180424D01*
X130150Y180984D01*
X130159D01*
X130185Y180988D01*
X130225Y180997D01*
X130273Y181010D01*
X130325Y181032D01*
X130382Y181054D01*
X130435Y181089D01*
X130483Y181128D01*
X130487Y181132D01*
X130500Y181150D01*
X130518Y181176D01*
X130535Y181207D01*
X130557Y181250D01*
X130574Y181298D01*
X130587Y181351D01*
X130592Y181412D01*
Y181421D01*
X130587Y181443D01*
X130583Y181473D01*
X130574Y181517D01*
X130557Y181565D01*
X130535Y181613D01*
X130500Y181666D01*
X130456Y181714D01*
X130452Y181718D01*
X130430Y181735D01*
X130400Y181753D01*
X130360Y181779D01*
X130308Y181801D01*
X130242Y181823D01*
X130168Y181836D01*
X130085Y181840D01*
X130050D01*
X130011Y181836D01*
X129958Y181827D01*
X129901Y181810D01*
X129845Y181788D01*
X129788Y181757D01*
X129735Y181718D01*
X129731Y181714D01*
X129713Y181696D01*
X129692Y181670D01*
X129670Y181639D01*
X129644Y181596D01*
X129626Y181547D01*
X129609Y181495D01*
X129604Y181434D01*
Y181430D01*
Y181412D01*
Y181390D01*
X129609Y181360D01*
X129613Y181320D01*
X129622Y181272D01*
X129635Y181224D01*
X129648Y181167D01*
X129180Y181228D01*
Y181233D01*
Y181237D01*
Y181250D01*
Y181268D01*
X129176Y181312D01*
X129172Y181364D01*
X129158Y181421D01*
X129141Y181482D01*
X129115Y181539D01*
X129080Y181591D01*
X129076Y181596D01*
X129058Y181613D01*
X129036Y181631D01*
X129001Y181657D01*
X128962Y181679D01*
X128914Y181701D01*
X128857Y181714D01*
X128791Y181718D01*
X128765D01*
X128739Y181714D01*
X128704Y181705D01*
X128665Y181696D01*
X128625Y181679D01*
X128582Y181657D01*
X128547Y181626D01*
X128542Y181622D01*
X128534Y181609D01*
X128516Y181591D01*
X128499Y181561D01*
X128486Y181526D01*
X128468Y181486D01*
X128459Y181434D01*
X128455Y181381D01*
Y181377D01*
Y181355D01*
X128459Y181329D01*
X128468Y181294D01*
X128481Y181255D01*
X128499Y181211D01*
X128525Y181167D01*
X128560Y181128D01*
X128564Y181124D01*
X128577Y181111D01*
X128603Y181093D01*
X128639Y181071D01*
X128678Y181049D01*
X128730Y181032D01*
X128791Y181014D01*
X128861Y181001D01*
X128774Y180468D01*
X128770D01*
X128761Y180473D01*
X128748D01*
X128726Y180477D01*
X128678Y180490D01*
X128612Y180507D01*
X128542Y180534D01*
X128468Y180560D01*
X128398Y180595D01*
X128333Y180634D01*
X128324Y180639D01*
X128306Y180656D01*
X128276Y180682D01*
X128236Y180717D01*
X128197Y180761D01*
X128153Y180813D01*
X128110Y180879D01*
X128070Y180949D01*
Y180953D01*
X128066Y180957D01*
X128057Y180984D01*
X128040Y181027D01*
X128022Y181080D01*
X128005Y181146D01*
X127987Y181224D01*
X127979Y181307D01*
X127974Y181399D01*
Y181403D01*
Y181416D01*
Y181438D01*
X127979Y181469D01*
X127983Y181508D01*
X127987Y181547D01*
X127996Y181596D01*
X128009Y181644D01*
X128040Y181753D01*
X128062Y181810D01*
X128092Y181871D01*
X128123Y181928D01*
X128158Y181980D01*
X128201Y182037D01*
X128250Y182085D01*
X128254Y182089D01*
X128258Y182094D01*
X128271Y182107D01*
X128289Y182120D01*
X128333Y182155D01*
X128394Y182194D01*
X128468Y182234D01*
X128555Y182264D01*
X128652Y182290D01*
X128700Y182295D01*
X128752Y182299D01*
X128770D01*
X128791Y182295D01*
X128818Y182290D01*
X128853Y182286D01*
X128892Y182277D01*
X128936Y182264D01*
X128984Y182247D01*
X129032Y182220D01*
X129084Y182194D01*
X129137Y182159D01*
X129189Y182116D01*
X129242Y182063D01*
X129294Y182006D01*
X129342Y181941D01*
X129390Y181862D01*
Y181867D01*
X129394Y181875D01*
Y181888D01*
X129403Y181906D01*
X129416Y181954D01*
X129443Y182011D01*
X129478Y182076D01*
X129521Y182146D01*
X129578Y182216D01*
X129644Y182277D01*
X129652Y182286D01*
X129678Y182304D01*
X129718Y182325D01*
X129775Y182356D01*
X129840Y182387D01*
X129923Y182408D01*
X130011Y182426D01*
X130111Y182435D01*
X130150D01*
X130177Y182430D01*
D02*
G37*
G36*
Y194417D02*
X130212Y194413D01*
X130251Y194404D01*
X130299Y194395D01*
X130347Y194387D01*
X130452Y194352D01*
X130509Y194325D01*
X130570Y194299D01*
X130627Y194264D01*
X130684Y194225D01*
X130740Y194181D01*
X130793Y194129D01*
X130797Y194124D01*
X130806Y194116D01*
X130819Y194098D01*
X130837Y194076D01*
X130858Y194046D01*
X130880Y194015D01*
X130906Y193971D01*
X130933Y193928D01*
X130959Y193880D01*
X130985Y193823D01*
X131007Y193762D01*
X131029Y193701D01*
X131046Y193631D01*
X131059Y193561D01*
X131068Y193482D01*
X131073Y193403D01*
Y193399D01*
Y193386D01*
Y193364D01*
X131068Y193333D01*
X131064Y193298D01*
X131059Y193259D01*
X131051Y193215D01*
X131042Y193163D01*
X131016Y193058D01*
X130972Y192945D01*
X130946Y192883D01*
X130915Y192831D01*
X130876Y192774D01*
X130837Y192722D01*
X130832Y192717D01*
X130824Y192709D01*
X130810Y192695D01*
X130793Y192678D01*
X130771Y192656D01*
X130740Y192634D01*
X130710Y192608D01*
X130670Y192582D01*
X130627Y192555D01*
X130583Y192525D01*
X130478Y192477D01*
X130356Y192438D01*
X130290Y192420D01*
X130220Y192411D01*
X130150Y192971D01*
X130159D01*
X130185Y192975D01*
X130225Y192984D01*
X130273Y192997D01*
X130325Y193019D01*
X130382Y193041D01*
X130435Y193076D01*
X130483Y193115D01*
X130487Y193119D01*
X130500Y193137D01*
X130518Y193163D01*
X130535Y193194D01*
X130557Y193237D01*
X130574Y193285D01*
X130587Y193338D01*
X130592Y193399D01*
Y193408D01*
X130587Y193430D01*
X130583Y193460D01*
X130574Y193504D01*
X130557Y193552D01*
X130535Y193600D01*
X130500Y193652D01*
X130456Y193701D01*
X130452Y193705D01*
X130430Y193722D01*
X130400Y193740D01*
X130360Y193766D01*
X130308Y193788D01*
X130242Y193810D01*
X130168Y193823D01*
X130085Y193827D01*
X130050D01*
X130011Y193823D01*
X129958Y193814D01*
X129901Y193797D01*
X129845Y193775D01*
X129788Y193744D01*
X129735Y193705D01*
X129731Y193701D01*
X129713Y193683D01*
X129692Y193657D01*
X129670Y193626D01*
X129644Y193582D01*
X129626Y193534D01*
X129609Y193482D01*
X129604Y193421D01*
Y193416D01*
Y193399D01*
Y193377D01*
X129609Y193347D01*
X129613Y193307D01*
X129622Y193259D01*
X129635Y193211D01*
X129648Y193154D01*
X129180Y193215D01*
Y193220D01*
Y193224D01*
Y193237D01*
Y193255D01*
X129176Y193298D01*
X129172Y193351D01*
X129158Y193408D01*
X129141Y193469D01*
X129115Y193526D01*
X129080Y193578D01*
X129076Y193582D01*
X129058Y193600D01*
X129036Y193617D01*
X129001Y193644D01*
X128962Y193666D01*
X128914Y193687D01*
X128857Y193701D01*
X128791Y193705D01*
X128765D01*
X128739Y193701D01*
X128704Y193692D01*
X128665Y193683D01*
X128625Y193666D01*
X128582Y193644D01*
X128547Y193613D01*
X128542Y193609D01*
X128534Y193596D01*
X128516Y193578D01*
X128499Y193547D01*
X128486Y193513D01*
X128468Y193473D01*
X128459Y193421D01*
X128455Y193368D01*
Y193364D01*
Y193342D01*
X128459Y193316D01*
X128468Y193281D01*
X128481Y193242D01*
X128499Y193198D01*
X128525Y193154D01*
X128560Y193115D01*
X128564Y193111D01*
X128577Y193097D01*
X128603Y193080D01*
X128639Y193058D01*
X128678Y193036D01*
X128730Y193019D01*
X128791Y193001D01*
X128861Y192988D01*
X128774Y192455D01*
X128770D01*
X128761Y192459D01*
X128748D01*
X128726Y192464D01*
X128678Y192477D01*
X128612Y192494D01*
X128542Y192521D01*
X128468Y192547D01*
X128398Y192582D01*
X128333Y192621D01*
X128324Y192625D01*
X128306Y192643D01*
X128276Y192669D01*
X128236Y192704D01*
X128197Y192748D01*
X128153Y192800D01*
X128110Y192866D01*
X128070Y192936D01*
Y192940D01*
X128066Y192945D01*
X128057Y192971D01*
X128040Y193014D01*
X128022Y193067D01*
X128005Y193132D01*
X127987Y193211D01*
X127979Y193294D01*
X127974Y193386D01*
Y193390D01*
Y193403D01*
Y193425D01*
X127979Y193456D01*
X127983Y193495D01*
X127987Y193534D01*
X127996Y193582D01*
X128009Y193631D01*
X128040Y193740D01*
X128062Y193797D01*
X128092Y193858D01*
X128123Y193915D01*
X128158Y193967D01*
X128201Y194024D01*
X128250Y194072D01*
X128254Y194076D01*
X128258Y194081D01*
X128271Y194094D01*
X128289Y194107D01*
X128333Y194142D01*
X128394Y194181D01*
X128468Y194220D01*
X128555Y194251D01*
X128652Y194277D01*
X128700Y194282D01*
X128752Y194286D01*
X128770D01*
X128791Y194282D01*
X128818Y194277D01*
X128853Y194273D01*
X128892Y194264D01*
X128936Y194251D01*
X128984Y194234D01*
X129032Y194207D01*
X129084Y194181D01*
X129137Y194146D01*
X129189Y194103D01*
X129242Y194050D01*
X129294Y193993D01*
X129342Y193928D01*
X129390Y193849D01*
Y193853D01*
X129394Y193862D01*
Y193875D01*
X129403Y193893D01*
X129416Y193941D01*
X129443Y193998D01*
X129478Y194063D01*
X129521Y194133D01*
X129578Y194203D01*
X129644Y194264D01*
X129652Y194273D01*
X129678Y194290D01*
X129718Y194312D01*
X129775Y194343D01*
X129840Y194374D01*
X129923Y194395D01*
X130011Y194413D01*
X130111Y194422D01*
X130150D01*
X130177Y194417D01*
D02*
G37*
G36*
X131016Y182723D02*
X131003D01*
X130985Y182727D01*
X130963Y182732D01*
X130937Y182736D01*
X130906Y182740D01*
X130828Y182758D01*
X130740Y182784D01*
X130644Y182819D01*
X130539Y182863D01*
X130439Y182920D01*
X130435D01*
X130426Y182928D01*
X130408Y182937D01*
X130391Y182955D01*
X130360Y182972D01*
X130330Y182998D01*
X130290Y183029D01*
X130247Y183064D01*
X130194Y183103D01*
X130142Y183151D01*
X130081Y183204D01*
X130015Y183265D01*
X129949Y183331D01*
X129875Y183405D01*
X129797Y183483D01*
X129713Y183571D01*
X129709Y183575D01*
X129696Y183588D01*
X129678Y183606D01*
X129652Y183632D01*
X129626Y183667D01*
X129591Y183702D01*
X129513Y183781D01*
X129429Y183859D01*
X129346Y183938D01*
X129311Y183973D01*
X129272Y184008D01*
X129242Y184034D01*
X129215Y184052D01*
X129207Y184056D01*
X129185Y184069D01*
X129150Y184091D01*
X129102Y184113D01*
X129049Y184134D01*
X128988Y184156D01*
X128927Y184169D01*
X128861Y184174D01*
X128831D01*
X128791Y184169D01*
X128748Y184161D01*
X128700Y184148D01*
X128652Y184130D01*
X128603Y184104D01*
X128560Y184069D01*
X128555Y184065D01*
X128542Y184052D01*
X128525Y184025D01*
X128507Y183995D01*
X128490Y183951D01*
X128472Y183903D01*
X128459Y183846D01*
X128455Y183781D01*
Y183772D01*
Y183750D01*
X128459Y183715D01*
X128468Y183676D01*
X128481Y183628D01*
X128503Y183580D01*
X128529Y183531D01*
X128564Y183488D01*
X128569Y183483D01*
X128586Y183470D01*
X128612Y183453D01*
X128652Y183435D01*
X128700Y183414D01*
X128765Y183396D01*
X128840Y183379D01*
X128927Y183370D01*
X128870Y182793D01*
X128866D01*
X128848Y182797D01*
X128826D01*
X128791Y182806D01*
X128752Y182810D01*
X128708Y182824D01*
X128660Y182837D01*
X128603Y182850D01*
X128494Y182894D01*
X128381Y182946D01*
X128324Y182981D01*
X128271Y183020D01*
X128228Y183064D01*
X128184Y183112D01*
X128180Y183116D01*
X128175Y183125D01*
X128166Y183138D01*
X128149Y183160D01*
X128136Y183186D01*
X128118Y183221D01*
X128097Y183256D01*
X128079Y183300D01*
X128057Y183348D01*
X128040Y183400D01*
X128005Y183514D01*
X127983Y183650D01*
X127979Y183719D01*
X127974Y183794D01*
Y183798D01*
Y183816D01*
Y183837D01*
X127979Y183868D01*
X127983Y183907D01*
X127987Y183951D01*
X127996Y183999D01*
X128005Y184052D01*
X128035Y184165D01*
X128079Y184279D01*
X128105Y184340D01*
X128136Y184392D01*
X128175Y184449D01*
X128219Y184497D01*
X128223Y184502D01*
X128228Y184510D01*
X128245Y184519D01*
X128263Y184537D01*
X128285Y184558D01*
X128315Y184580D01*
X128346Y184602D01*
X128385Y184628D01*
X128472Y184672D01*
X128573Y184716D01*
X128630Y184733D01*
X128691Y184742D01*
X128756Y184751D01*
X128822Y184755D01*
X128857D01*
X128896Y184751D01*
X128944Y184746D01*
X129006Y184738D01*
X129071Y184724D01*
X129141Y184707D01*
X129211Y184681D01*
X129220Y184676D01*
X129242Y184668D01*
X129281Y184650D01*
X129329Y184624D01*
X129386Y184593D01*
X129451Y184554D01*
X129521Y184506D01*
X129595Y184449D01*
X129600Y184445D01*
X129622Y184427D01*
X129652Y184401D01*
X129696Y184362D01*
X129748Y184309D01*
X129818Y184244D01*
X129893Y184165D01*
X129984Y184069D01*
X129989Y184065D01*
X129993Y184056D01*
X130006Y184043D01*
X130024Y184025D01*
X130068Y183977D01*
X130120Y183920D01*
X130177Y183864D01*
X130234Y183807D01*
X130282Y183754D01*
X130303Y183737D01*
X130321Y183719D01*
X130325Y183715D01*
X130334Y183706D01*
X130351Y183693D01*
X130373Y183676D01*
X130421Y183636D01*
X130478Y183601D01*
Y184755D01*
X131016D01*
Y182723D01*
D02*
G37*
G36*
X128503Y185891D02*
X129220D01*
Y187154D01*
X129731D01*
Y185891D01*
X131016D01*
Y185280D01*
X127992D01*
Y187355D01*
X128503D01*
Y185891D01*
D02*
G37*
G36*
X131016Y188631D02*
X128826D01*
X128831Y188627D01*
X128840Y188618D01*
X128853Y188601D01*
X128875Y188575D01*
X128901Y188544D01*
X128927Y188509D01*
X128957Y188465D01*
X128992Y188417D01*
X129027Y188365D01*
X129062Y188308D01*
X129102Y188247D01*
X129137Y188181D01*
X129202Y188041D01*
X129263Y187884D01*
X128739D01*
Y187888D01*
X128735Y187893D01*
X128730Y187906D01*
X128726Y187923D01*
X128704Y187967D01*
X128678Y188028D01*
X128643Y188102D01*
X128595Y188186D01*
X128534Y188277D01*
X128464Y188373D01*
X128459Y188378D01*
X128455Y188387D01*
X128442Y188400D01*
X128424Y188417D01*
X128381Y188465D01*
X128324Y188518D01*
X128254Y188579D01*
X128166Y188640D01*
X128075Y188697D01*
X127974Y188741D01*
Y189213D01*
X131016D01*
Y188631D01*
D02*
G37*
G36*
X130111Y197432D02*
X130137Y197424D01*
X130172Y197411D01*
X130212Y197393D01*
X130260Y197376D01*
X130312Y197354D01*
X130369Y197328D01*
X130487Y197266D01*
X130609Y197188D01*
X130727Y197092D01*
X130780Y197039D01*
X130828Y196982D01*
X130832Y196978D01*
X130837Y196969D01*
X130850Y196952D01*
X130867Y196925D01*
X130885Y196895D01*
X130902Y196856D01*
X130924Y196812D01*
X130946Y196764D01*
X130972Y196707D01*
X130994Y196646D01*
X131011Y196580D01*
X131029Y196510D01*
X131046Y196436D01*
X131059Y196353D01*
X131064Y196270D01*
X131068Y196178D01*
Y196169D01*
Y196152D01*
X131064Y196122D01*
X131059Y196078D01*
X131055Y196030D01*
X131046Y195968D01*
X131033Y195903D01*
X131016Y195829D01*
X130994Y195754D01*
X130968Y195676D01*
X130933Y195593D01*
X130893Y195510D01*
X130850Y195427D01*
X130793Y195344D01*
X130732Y195265D01*
X130657Y195191D01*
X130653Y195186D01*
X130640Y195173D01*
X130614Y195156D01*
X130583Y195130D01*
X130539Y195103D01*
X130491Y195068D01*
X130430Y195033D01*
X130360Y194998D01*
X130286Y194963D01*
X130203Y194928D01*
X130107Y194894D01*
X130006Y194867D01*
X129901Y194841D01*
X129783Y194824D01*
X129661Y194810D01*
X129530Y194806D01*
X129495D01*
X129456Y194810D01*
X129403D01*
X129342Y194819D01*
X129268Y194828D01*
X129189Y194837D01*
X129097Y194854D01*
X129006Y194876D01*
X128909Y194902D01*
X128813Y194933D01*
X128713Y194972D01*
X128617Y195016D01*
X128525Y195068D01*
X128437Y195125D01*
X128354Y195195D01*
X128350Y195199D01*
X128337Y195212D01*
X128315Y195234D01*
X128289Y195265D01*
X128258Y195304D01*
X128223Y195352D01*
X128184Y195405D01*
X128145Y195470D01*
X128105Y195540D01*
X128066Y195615D01*
X128031Y195702D01*
X128000Y195789D01*
X127974Y195890D01*
X127952Y195990D01*
X127939Y196104D01*
X127935Y196218D01*
Y196222D01*
Y196244D01*
Y196270D01*
X127939Y196309D01*
X127944Y196357D01*
X127952Y196410D01*
X127961Y196471D01*
X127974Y196537D01*
X127992Y196607D01*
X128014Y196681D01*
X128040Y196755D01*
X128075Y196834D01*
X128110Y196908D01*
X128153Y196978D01*
X128206Y197052D01*
X128263Y197118D01*
Y197122D01*
X128271Y197126D01*
X128285Y197140D01*
X128298Y197153D01*
X128320Y197170D01*
X128346Y197188D01*
X128407Y197236D01*
X128486Y197284D01*
X128582Y197336D01*
X128691Y197384D01*
X128818Y197428D01*
X128962Y196825D01*
X128957D01*
X128953Y196821D01*
X128940D01*
X128922Y196812D01*
X128883Y196799D01*
X128831Y196777D01*
X128770Y196746D01*
X128708Y196707D01*
X128647Y196655D01*
X128595Y196598D01*
X128590Y196589D01*
X128573Y196567D01*
X128551Y196532D01*
X128525Y196484D01*
X128499Y196423D01*
X128477Y196353D01*
X128459Y196274D01*
X128455Y196187D01*
Y196183D01*
Y196174D01*
Y196156D01*
X128459Y196130D01*
X128464Y196104D01*
X128468Y196069D01*
X128486Y195995D01*
X128516Y195907D01*
X128560Y195816D01*
X128586Y195767D01*
X128617Y195724D01*
X128656Y195680D01*
X128700Y195641D01*
X128704D01*
X128713Y195632D01*
X128726Y195623D01*
X128748Y195610D01*
X128774Y195593D01*
X128805Y195575D01*
X128844Y195558D01*
X128888Y195540D01*
X128940Y195518D01*
X128997Y195501D01*
X129062Y195483D01*
X129132Y195466D01*
X129211Y195453D01*
X129294Y195444D01*
X129386Y195440D01*
X129486Y195435D01*
X129543D01*
X129578Y195440D01*
X129626D01*
X129683Y195449D01*
X129740Y195453D01*
X129805Y195462D01*
X129941Y195488D01*
X130076Y195523D01*
X130142Y195545D01*
X130203Y195575D01*
X130260Y195606D01*
X130308Y195641D01*
X130312Y195645D01*
X130317Y195650D01*
X130330Y195663D01*
X130347Y195680D01*
X130382Y195724D01*
X130426Y195785D01*
X130474Y195859D01*
X130509Y195951D01*
X130539Y196056D01*
X130544Y196113D01*
X130548Y196174D01*
Y196178D01*
Y196183D01*
Y196196D01*
X130544Y196213D01*
X130539Y196261D01*
X130531Y196318D01*
X130509Y196379D01*
X130483Y196449D01*
X130448Y196519D01*
X130395Y196589D01*
X130386Y196598D01*
X130365Y196620D01*
X130330Y196650D01*
X130277Y196685D01*
X130207Y196729D01*
X130124Y196768D01*
X130024Y196808D01*
X129906Y196843D01*
X130089Y197437D01*
X130094D01*
X130111Y197432D01*
D02*
G37*
G36*
X128503Y201610D02*
X131016D01*
Y200998D01*
X128503D01*
Y200102D01*
X127992D01*
Y202502D01*
X128503D01*
Y201610D01*
D02*
G37*
G36*
X130124Y204787D02*
X130164Y204783D01*
X130207Y204778D01*
X130260Y204770D01*
X130312Y204757D01*
X130435Y204726D01*
X130496Y204704D01*
X130557Y204674D01*
X130618Y204643D01*
X130679Y204608D01*
X130740Y204564D01*
X130793Y204516D01*
X130797Y204512D01*
X130806Y204503D01*
X130819Y204490D01*
X130837Y204468D01*
X130858Y204442D01*
X130880Y204407D01*
X130906Y204372D01*
X130933Y204328D01*
X130959Y204280D01*
X130985Y204228D01*
X131007Y204171D01*
X131029Y204105D01*
X131046Y204040D01*
X131059Y203970D01*
X131068Y203896D01*
X131073Y203817D01*
Y203813D01*
Y203795D01*
X131068Y203773D01*
Y203743D01*
X131059Y203703D01*
X131055Y203655D01*
X131042Y203607D01*
X131029Y203551D01*
X131011Y203494D01*
X130985Y203432D01*
X130959Y203367D01*
X130924Y203306D01*
X130885Y203240D01*
X130837Y203179D01*
X130780Y203118D01*
X130719Y203061D01*
X130714Y203057D01*
X130701Y203048D01*
X130679Y203035D01*
X130649Y203017D01*
X130609Y202991D01*
X130561Y202969D01*
X130505Y202943D01*
X130439Y202917D01*
X130360Y202886D01*
X130277Y202860D01*
X130181Y202838D01*
X130072Y202816D01*
X129958Y202794D01*
X129832Y202781D01*
X129696Y202773D01*
X129547Y202768D01*
X129469D01*
X129412Y202773D01*
X129342Y202777D01*
X129263Y202786D01*
X129176Y202794D01*
X129084Y202807D01*
X128988Y202821D01*
X128888Y202842D01*
X128787Y202869D01*
X128686Y202899D01*
X128595Y202934D01*
X128503Y202974D01*
X128420Y203022D01*
X128346Y203074D01*
X128341Y203079D01*
X128328Y203087D01*
X128311Y203105D01*
X128289Y203131D01*
X128258Y203162D01*
X128228Y203197D01*
X128193Y203240D01*
X128158Y203288D01*
X128127Y203345D01*
X128092Y203402D01*
X128062Y203472D01*
X128031Y203542D01*
X128009Y203616D01*
X127992Y203699D01*
X127979Y203782D01*
X127974Y203874D01*
Y203878D01*
Y203891D01*
Y203909D01*
X127979Y203931D01*
Y203961D01*
X127983Y203996D01*
X128000Y204075D01*
X128022Y204162D01*
X128057Y204258D01*
X128105Y204355D01*
X128136Y204398D01*
X128171Y204442D01*
Y204446D01*
X128180Y204451D01*
X128193Y204464D01*
X128206Y204477D01*
X128228Y204499D01*
X128250Y204516D01*
X128311Y204564D01*
X128394Y204612D01*
X128490Y204660D01*
X128599Y204704D01*
X128730Y204735D01*
X128791Y204175D01*
X128783D01*
X128765Y204171D01*
X128735Y204162D01*
X128695Y204153D01*
X128656Y204140D01*
X128612Y204119D01*
X128573Y204097D01*
X128538Y204066D01*
X128534Y204062D01*
X128525Y204049D01*
X128512Y204031D01*
X128494Y204005D01*
X128481Y203974D01*
X128468Y203935D01*
X128459Y203887D01*
X128455Y203839D01*
Y203830D01*
X128459Y203808D01*
X128464Y203773D01*
X128477Y203730D01*
X128494Y203681D01*
X128525Y203629D01*
X128564Y203577D01*
X128621Y203529D01*
X128630Y203524D01*
X128639Y203516D01*
X128656Y203507D01*
X128673Y203498D01*
X128700Y203485D01*
X128730Y203476D01*
X128770Y203463D01*
X128813Y203446D01*
X128861Y203432D01*
X128918Y203419D01*
X128979Y203406D01*
X129049Y203393D01*
X129128Y203384D01*
X129215Y203376D01*
X129307Y203367D01*
X129303Y203371D01*
X129294Y203376D01*
X129285Y203389D01*
X129268Y203406D01*
X129246Y203428D01*
X129224Y203454D01*
X129176Y203516D01*
X129132Y203594D01*
X129089Y203686D01*
X129071Y203738D01*
X129062Y203791D01*
X129054Y203848D01*
X129049Y203909D01*
Y203913D01*
Y203926D01*
Y203944D01*
X129054Y203970D01*
X129058Y204001D01*
X129062Y204035D01*
X129071Y204079D01*
X129084Y204123D01*
X129119Y204219D01*
X129141Y204272D01*
X129167Y204324D01*
X129198Y204376D01*
X129237Y204429D01*
X129281Y204481D01*
X129329Y204529D01*
X129333Y204534D01*
X129342Y204542D01*
X129355Y204556D01*
X129377Y204569D01*
X129408Y204591D01*
X129438Y204612D01*
X129478Y204634D01*
X129521Y204660D01*
X129569Y204687D01*
X129626Y204709D01*
X129683Y204730D01*
X129748Y204752D01*
X129814Y204765D01*
X129888Y204778D01*
X129963Y204787D01*
X130046Y204791D01*
X130089D01*
X130124Y204787D01*
D02*
G37*
G36*
X130203Y173948D02*
X130234Y173944D01*
X130295Y173935D01*
X130373Y173917D01*
X130456Y173891D01*
X130539Y173852D01*
X130627Y173804D01*
X130631D01*
X130636Y173795D01*
X130662Y173778D01*
X130705Y173743D01*
X130754Y173699D01*
X130810Y173642D01*
X130863Y173568D01*
X130915Y173489D01*
X130963Y173393D01*
Y173389D01*
X130968Y173380D01*
X130972Y173367D01*
X130981Y173345D01*
X130990Y173319D01*
X130998Y173288D01*
X131007Y173253D01*
X131016Y173214D01*
X131029Y173166D01*
X131038Y173118D01*
X131055Y173004D01*
X131068Y172877D01*
X131073Y172738D01*
Y172733D01*
Y172711D01*
Y172681D01*
X131068Y172641D01*
X131064Y172593D01*
X131059Y172541D01*
X131051Y172480D01*
X131038Y172414D01*
X131007Y172270D01*
X130985Y172196D01*
X130963Y172126D01*
X130933Y172052D01*
X130898Y171982D01*
X130858Y171916D01*
X130810Y171855D01*
X130806Y171851D01*
X130797Y171842D01*
X130784Y171824D01*
X130762Y171807D01*
X130732Y171781D01*
X130697Y171754D01*
X130657Y171724D01*
X130614Y171693D01*
X130561Y171663D01*
X130505Y171632D01*
X130439Y171601D01*
X130369Y171571D01*
X130295Y171549D01*
X130212Y171523D01*
X130124Y171505D01*
X130033Y171492D01*
X129976Y172086D01*
X129980D01*
X129989Y172091D01*
X130006D01*
X130024Y172095D01*
X130076Y172113D01*
X130142Y172134D01*
X130216Y172161D01*
X130290Y172200D01*
X130356Y172244D01*
X130417Y172301D01*
X130421Y172309D01*
X130439Y172331D01*
X130461Y172366D01*
X130487Y172419D01*
X130513Y172484D01*
X130535Y172558D01*
X130552Y172646D01*
X130557Y172746D01*
Y172751D01*
Y172759D01*
Y172773D01*
Y172794D01*
X130548Y172847D01*
X130539Y172912D01*
X130526Y172982D01*
X130505Y173057D01*
X130474Y173126D01*
X130435Y173188D01*
X130430Y173196D01*
X130413Y173214D01*
X130386Y173236D01*
X130351Y173266D01*
X130308Y173293D01*
X130255Y173319D01*
X130203Y173336D01*
X130142Y173341D01*
X130124D01*
X130102Y173336D01*
X130076Y173332D01*
X130050Y173323D01*
X130019Y173314D01*
X129989Y173297D01*
X129958Y173275D01*
X129954Y173271D01*
X129945Y173262D01*
X129932Y173249D01*
X129914Y173227D01*
X129893Y173196D01*
X129871Y173157D01*
X129849Y173113D01*
X129827Y173057D01*
Y173052D01*
X129818Y173035D01*
X129810Y173004D01*
X129801Y172982D01*
X129797Y172956D01*
X129788Y172925D01*
X129775Y172890D01*
X129766Y172851D01*
X129753Y172808D01*
X129740Y172755D01*
X129727Y172698D01*
X129709Y172637D01*
X129692Y172567D01*
Y172563D01*
X129687Y172545D01*
X129678Y172519D01*
X129670Y172488D01*
X129657Y172449D01*
X129644Y172401D01*
X129626Y172353D01*
X129609Y172296D01*
X129565Y172183D01*
X129513Y172073D01*
X129486Y172017D01*
X129456Y171968D01*
X129425Y171920D01*
X129394Y171881D01*
X129390Y171877D01*
X129381Y171868D01*
X129368Y171855D01*
X129351Y171837D01*
X129325Y171816D01*
X129294Y171794D01*
X129263Y171767D01*
X129224Y171746D01*
X129132Y171693D01*
X129027Y171650D01*
X128971Y171632D01*
X128914Y171619D01*
X128848Y171610D01*
X128783Y171606D01*
X128743D01*
X128700Y171615D01*
X128643Y171623D01*
X128577Y171636D01*
X128503Y171658D01*
X128424Y171689D01*
X128350Y171732D01*
X128346D01*
X128341Y171737D01*
X128315Y171759D01*
X128280Y171785D01*
X128236Y171829D01*
X128188Y171881D01*
X128136Y171947D01*
X128088Y172021D01*
X128044Y172108D01*
Y172113D01*
X128040Y172121D01*
X128035Y172134D01*
X128027Y172152D01*
X128018Y172178D01*
X128009Y172204D01*
X128000Y172239D01*
X127987Y172279D01*
X127970Y172366D01*
X127952Y172467D01*
X127939Y172580D01*
X127935Y172707D01*
Y172716D01*
Y172733D01*
Y172759D01*
X127939Y172799D01*
X127944Y172847D01*
X127948Y172904D01*
X127957Y172960D01*
X127965Y173026D01*
X127996Y173166D01*
X128018Y173236D01*
X128040Y173306D01*
X128070Y173376D01*
X128105Y173441D01*
X128145Y173502D01*
X128188Y173559D01*
X128193Y173564D01*
X128201Y173572D01*
X128215Y173585D01*
X128232Y173603D01*
X128258Y173625D01*
X128289Y173651D01*
X128324Y173677D01*
X128363Y173708D01*
X128411Y173734D01*
X128459Y173760D01*
X128516Y173786D01*
X128577Y173808D01*
X128639Y173830D01*
X128708Y173848D01*
X128778Y173861D01*
X128857Y173865D01*
X128879Y173253D01*
X128870D01*
X128840Y173245D01*
X128800Y173236D01*
X128752Y173218D01*
X128695Y173196D01*
X128643Y173166D01*
X128590Y173126D01*
X128547Y173083D01*
X128542Y173078D01*
X128529Y173061D01*
X128512Y173030D01*
X128494Y172987D01*
X128477Y172934D01*
X128459Y172869D01*
X128446Y172790D01*
X128442Y172698D01*
Y172694D01*
Y172685D01*
Y172672D01*
Y172654D01*
X128446Y172607D01*
X128455Y172550D01*
X128468Y172484D01*
X128490Y172414D01*
X128516Y172349D01*
X128555Y172287D01*
X128560Y172283D01*
X128569Y172274D01*
X128582Y172257D01*
X128603Y172239D01*
X128630Y172222D01*
X128665Y172204D01*
X128700Y172196D01*
X128743Y172191D01*
X128761D01*
X128783Y172196D01*
X128805Y172204D01*
X128835Y172213D01*
X128866Y172226D01*
X128896Y172248D01*
X128927Y172279D01*
X128931Y172283D01*
X128944Y172305D01*
X128953Y172318D01*
X128962Y172340D01*
X128975Y172362D01*
X128988Y172392D01*
X129001Y172427D01*
X129019Y172467D01*
X129036Y172515D01*
X129054Y172563D01*
X129071Y172624D01*
X129089Y172689D01*
X129106Y172759D01*
X129128Y172838D01*
Y172843D01*
X129132Y172860D01*
X129137Y172882D01*
X129145Y172912D01*
X129154Y172947D01*
X129167Y172991D01*
X129180Y173039D01*
X129193Y173087D01*
X129228Y173192D01*
X129263Y173301D01*
X129303Y173406D01*
X129325Y173450D01*
X129346Y173494D01*
Y173498D01*
X129351Y173502D01*
X129368Y173529D01*
X129394Y173568D01*
X129429Y173616D01*
X129473Y173668D01*
X129526Y173725D01*
X129587Y173782D01*
X129657Y173830D01*
X129665Y173834D01*
X129692Y173848D01*
X129731Y173869D01*
X129788Y173891D01*
X129858Y173913D01*
X129941Y173935D01*
X130033Y173948D01*
X130137Y173952D01*
X130181D01*
X130203Y173948D01*
D02*
G37*
G36*
X131016Y179393D02*
X128639Y179389D01*
X131016Y178794D01*
Y178204D01*
X128639Y177610D01*
X131016D01*
Y177046D01*
X127992D01*
Y177960D01*
X130059Y178502D01*
X127992Y179039D01*
Y179957D01*
X131016D01*
Y179393D01*
D02*
G37*
G36*
X128503Y175766D02*
X131016D01*
Y175154D01*
X128503D01*
Y174258D01*
X127992D01*
Y176657D01*
X128503D01*
Y175766D01*
D02*
G37*
G36*
X130199Y199814D02*
X130234Y199810D01*
X130277Y199805D01*
X130321Y199797D01*
X130369Y199784D01*
X130478Y199753D01*
X130535Y199731D01*
X130592Y199705D01*
X130649Y199674D01*
X130705Y199635D01*
X130758Y199596D01*
X130810Y199548D01*
X130815Y199543D01*
X130824Y199534D01*
X130837Y199521D01*
X130850Y199499D01*
X130871Y199473D01*
X130893Y199438D01*
X130915Y199403D01*
X130941Y199360D01*
X130968Y199312D01*
X130990Y199255D01*
X131011Y199198D01*
X131033Y199137D01*
X131046Y199067D01*
X131059Y198993D01*
X131068Y198918D01*
X131073Y198835D01*
Y198831D01*
Y198818D01*
Y198796D01*
X131068Y198765D01*
X131064Y198730D01*
X131059Y198691D01*
X131055Y198647D01*
X131046Y198595D01*
X131020Y198486D01*
X130981Y198372D01*
X130959Y198315D01*
X130928Y198258D01*
X130898Y198202D01*
X130858Y198149D01*
X130854Y198145D01*
X130845Y198136D01*
X130832Y198118D01*
X130810Y198097D01*
X130784Y198075D01*
X130754Y198049D01*
X130714Y198018D01*
X130675Y197987D01*
X130627Y197957D01*
X130574Y197926D01*
X130518Y197900D01*
X130452Y197878D01*
X130386Y197856D01*
X130312Y197839D01*
X130238Y197830D01*
X130155Y197826D01*
X130111D01*
X130063Y197830D01*
X130006Y197839D01*
X129936Y197856D01*
X129858Y197874D01*
X129779Y197904D01*
X129700Y197944D01*
X129696D01*
X129692Y197948D01*
X129665Y197966D01*
X129630Y197996D01*
X129582Y198040D01*
X129530Y198092D01*
X129478Y198158D01*
X129429Y198237D01*
X129381Y198328D01*
Y198324D01*
X129377Y198320D01*
X129364Y198293D01*
X129342Y198254D01*
X129316Y198206D01*
X129277Y198149D01*
X129233Y198097D01*
X129180Y198044D01*
X129123Y198001D01*
X129115Y197996D01*
X129093Y197983D01*
X129062Y197970D01*
X129014Y197952D01*
X128962Y197931D01*
X128896Y197917D01*
X128831Y197904D01*
X128756Y197900D01*
X128726D01*
X128700Y197904D01*
X128673Y197909D01*
X128639Y197913D01*
X128560Y197931D01*
X128472Y197957D01*
X128376Y198001D01*
X128333Y198027D01*
X128285Y198057D01*
X128241Y198097D01*
X128197Y198136D01*
X128193Y198140D01*
X128188Y198149D01*
X128175Y198162D01*
X128162Y198180D01*
X128145Y198206D01*
X128127Y198232D01*
X128105Y198267D01*
X128084Y198311D01*
X128066Y198354D01*
X128044Y198403D01*
X128027Y198459D01*
X128009Y198521D01*
X127996Y198586D01*
X127983Y198656D01*
X127979Y198730D01*
X127974Y198809D01*
Y198813D01*
Y198827D01*
Y198853D01*
X127979Y198879D01*
X127983Y198918D01*
X127987Y198958D01*
X127992Y199006D01*
X128000Y199054D01*
X128027Y199163D01*
X128066Y199277D01*
X128092Y199329D01*
X128123Y199386D01*
X128158Y199434D01*
X128197Y199482D01*
X128201Y199486D01*
X128206Y199491D01*
X128219Y199504D01*
X128236Y199521D01*
X128258Y199539D01*
X128285Y199556D01*
X128350Y199604D01*
X128433Y199648D01*
X128525Y199683D01*
X128634Y199714D01*
X128695Y199718D01*
X128756Y199722D01*
X128791D01*
X128831Y199718D01*
X128883Y199709D01*
X128940Y199696D01*
X129001Y199674D01*
X129067Y199648D01*
X129132Y199609D01*
X129141Y199604D01*
X129158Y199587D01*
X129189Y199565D01*
X129224Y199530D01*
X129268Y199486D01*
X129307Y199434D01*
X129346Y199373D01*
X129381Y199303D01*
Y199307D01*
X129386Y199316D01*
X129390Y199329D01*
X129399Y199346D01*
X129425Y199390D01*
X129460Y199447D01*
X129499Y199508D01*
X129552Y199574D01*
X129613Y199635D01*
X129683Y199687D01*
X129692Y199692D01*
X129718Y199709D01*
X129757Y199731D01*
X129810Y199753D01*
X129875Y199779D01*
X129954Y199797D01*
X130037Y199814D01*
X130129Y199819D01*
X130168D01*
X130199Y199814D01*
D02*
G37*
%LPC*%
G36*
X129622Y191432D02*
X129394D01*
X129346Y191428D01*
X129290D01*
X129233Y191424D01*
X129110Y191419D01*
X128992Y191411D01*
X128936Y191402D01*
X128879Y191393D01*
X128831Y191384D01*
X128791Y191376D01*
X128787D01*
X128783Y191371D01*
X128761Y191367D01*
X128726Y191354D01*
X128682Y191341D01*
X128639Y191319D01*
X128595Y191297D01*
X128555Y191271D01*
X128525Y191244D01*
X128521Y191240D01*
X128512Y191231D01*
X128503Y191214D01*
X128490Y191192D01*
X128477Y191166D01*
X128464Y191135D01*
X128459Y191100D01*
X128455Y191061D01*
Y191057D01*
Y191043D01*
X128459Y191022D01*
X128464Y191000D01*
X128472Y190969D01*
X128486Y190939D01*
X128503Y190904D01*
X128525Y190873D01*
X128529Y190869D01*
X128538Y190860D01*
X128555Y190847D01*
X128577Y190829D01*
X128612Y190807D01*
X128652Y190790D01*
X128704Y190768D01*
X128765Y190751D01*
X128770D01*
X128774Y190746D01*
X128791D01*
X128809Y190742D01*
X128835Y190738D01*
X128866Y190733D01*
X128901Y190729D01*
X128944Y190725D01*
X128997Y190716D01*
X129049Y190711D01*
X129115Y190707D01*
X129180Y190703D01*
X129259Y190698D01*
X129338D01*
X129429Y190694D01*
X129657D01*
X129705Y190698D01*
X129762D01*
X129818Y190703D01*
X129941Y190707D01*
X130063Y190716D01*
X130120Y190720D01*
X130172Y190729D01*
X130220Y190738D01*
X130264Y190746D01*
X130273Y190751D01*
X130295Y190755D01*
X130330Y190768D01*
X130369Y190781D01*
X130413Y190803D01*
X130456Y190825D01*
X130496Y190851D01*
X130526Y190877D01*
X130531Y190882D01*
X130535Y190891D01*
X130548Y190908D01*
X130557Y190930D01*
X130570Y190956D01*
X130583Y190987D01*
X130587Y191022D01*
X130592Y191061D01*
Y191065D01*
Y191078D01*
X130587Y191100D01*
X130583Y191122D01*
X130574Y191153D01*
X130566Y191183D01*
X130548Y191214D01*
X130526Y191244D01*
X130522Y191249D01*
X130513Y191258D01*
X130496Y191275D01*
X130470Y191293D01*
X130439Y191310D01*
X130395Y191332D01*
X130347Y191354D01*
X130286Y191371D01*
X130282D01*
X130277Y191376D01*
X130260D01*
X130242Y191380D01*
X130216Y191384D01*
X130185Y191389D01*
X130150Y191398D01*
X130107Y191402D01*
X130059Y191406D01*
X130002Y191415D01*
X129941Y191419D01*
X129871Y191424D01*
X129797Y191428D01*
X129713D01*
X129622Y191432D01*
D02*
G37*
G36*
X130054Y204223D02*
X130006D01*
X129954Y204219D01*
X129888Y204210D01*
X129818Y204193D01*
X129744Y204175D01*
X129674Y204145D01*
X129617Y204105D01*
X129613Y204101D01*
X129595Y204084D01*
X129574Y204062D01*
X129547Y204027D01*
X129521Y203983D01*
X129499Y203935D01*
X129482Y203878D01*
X129478Y203817D01*
Y203808D01*
Y203791D01*
X129486Y203756D01*
X129495Y203716D01*
X129513Y203673D01*
X129534Y203625D01*
X129569Y203577D01*
X129613Y203533D01*
X129617Y203529D01*
X129639Y203516D01*
X129670Y203498D01*
X129709Y203476D01*
X129766Y203454D01*
X129832Y203437D01*
X129910Y203424D01*
X130002Y203419D01*
X130050D01*
X130098Y203428D01*
X130164Y203437D01*
X130234Y203450D01*
X130308Y203472D01*
X130378Y203502D01*
X130439Y203546D01*
X130443Y203551D01*
X130461Y203568D01*
X130487Y203598D01*
X130513Y203633D01*
X130544Y203677D01*
X130566Y203725D01*
X130583Y203782D01*
X130592Y203843D01*
Y203852D01*
Y203870D01*
X130583Y203900D01*
X130574Y203939D01*
X130561Y203979D01*
X130539Y204027D01*
X130509Y204070D01*
X130470Y204114D01*
X130465Y204119D01*
X130443Y204132D01*
X130413Y204149D01*
X130369Y204171D01*
X130312Y204188D01*
X130242Y204206D01*
X130155Y204219D01*
X130054Y204223D01*
D02*
G37*
G36*
X128796Y199176D02*
X128770D01*
X128739Y199172D01*
X128704Y199163D01*
X128660Y199150D01*
X128617Y199132D01*
X128573Y199110D01*
X128534Y199076D01*
X128529Y199071D01*
X128516Y199058D01*
X128503Y199036D01*
X128481Y199006D01*
X128464Y198966D01*
X128451Y198923D01*
X128437Y198870D01*
X128433Y198813D01*
Y198805D01*
Y198787D01*
X128437Y198757D01*
X128446Y198717D01*
X128459Y198673D01*
X128477Y198630D01*
X128499Y198586D01*
X128534Y198547D01*
X128538Y198542D01*
X128551Y198534D01*
X128573Y198516D01*
X128603Y198499D01*
X128643Y198481D01*
X128686Y198464D01*
X128739Y198455D01*
X128800Y198451D01*
X128831D01*
X128861Y198455D01*
X128901Y198464D01*
X128944Y198472D01*
X128988Y198490D01*
X129032Y198516D01*
X129071Y198547D01*
X129076Y198551D01*
X129084Y198564D01*
X129102Y198586D01*
X129119Y198617D01*
X129137Y198656D01*
X129154Y198700D01*
X129163Y198752D01*
X129167Y198809D01*
Y198818D01*
Y198835D01*
X129163Y198866D01*
X129154Y198905D01*
X129145Y198949D01*
X129128Y198993D01*
X129102Y199036D01*
X129071Y199076D01*
X129067Y199080D01*
X129054Y199093D01*
X129032Y199106D01*
X128997Y199128D01*
X128957Y199145D01*
X128914Y199159D01*
X128857Y199172D01*
X128796Y199176D01*
D02*
G37*
G36*
X130102Y199246D02*
X130068D01*
X130028Y199242D01*
X129980Y199233D01*
X129923Y199215D01*
X129866Y199194D01*
X129810Y199163D01*
X129757Y199124D01*
X129753Y199119D01*
X129735Y199102D01*
X129713Y199076D01*
X129692Y199041D01*
X129665Y198997D01*
X129648Y198944D01*
X129630Y198883D01*
X129626Y198818D01*
Y198813D01*
Y198809D01*
Y198783D01*
X129635Y198743D01*
X129644Y198700D01*
X129661Y198647D01*
X129687Y198595D01*
X129727Y198542D01*
X129775Y198499D01*
X129783Y198494D01*
X129801Y198481D01*
X129832Y198468D01*
X129871Y198451D01*
X129919Y198429D01*
X129971Y198416D01*
X130033Y198403D01*
X130094Y198398D01*
X130133D01*
X130177Y198407D01*
X130234Y198416D01*
X130295Y198429D01*
X130356Y198451D01*
X130417Y198481D01*
X130474Y198521D01*
X130478Y198525D01*
X130496Y198542D01*
X130513Y198569D01*
X130539Y198604D01*
X130561Y198647D01*
X130583Y198700D01*
X130601Y198761D01*
X130605Y198827D01*
Y198835D01*
Y198857D01*
X130596Y198888D01*
X130587Y198931D01*
X130574Y198979D01*
X130552Y199028D01*
X130522Y199076D01*
X130478Y199124D01*
X130474Y199128D01*
X130452Y199141D01*
X130426Y199163D01*
X130382Y199185D01*
X130330Y199207D01*
X130264Y199229D01*
X130190Y199242D01*
X130102Y199246D01*
D02*
G37*
%LPD*%
D30*
X55630Y67635D02*
G03*
X55630Y84727I5984J8546D01*
G01*
X267185Y186417D02*
G03*
X272185Y186417I2500J0D01*
G01*
X268760Y93504D02*
G03*
X273760Y93504I2500J0D01*
G01*
X283543Y143389D02*
G03*
X283543Y126296I-5984J-8546D01*
G01*
X285315Y236696D02*
G03*
X285315Y219603I-5984J-8546D01*
G01*
X283543Y47916D02*
G03*
X283543Y30824I-5984J-8546D01*
G01*
X267382Y279528D02*
G03*
X272382Y279528I2500J0D01*
G01*
X437972Y197106D02*
X452972D01*
Y152106D02*
Y197106D01*
X437972Y152106D02*
X452972D01*
X437972D02*
Y197106D01*
X55630Y67635D02*
Y84727D01*
X259252Y166339D02*
Y186417D01*
X280118Y166339D02*
Y186417D01*
X259252D02*
X267185D01*
X272185D02*
X280118D01*
X259252Y166339D02*
X280118D01*
X316732Y150394D02*
Y171260D01*
X305709Y150394D02*
Y171260D01*
Y150394D02*
X316732D01*
X437579Y315610D02*
X452579D01*
Y270610D02*
Y315610D01*
X437579Y270610D02*
X452579D01*
X437579D02*
Y315610D01*
X413366Y316004D02*
X428366D01*
Y271004D02*
Y316004D01*
X413366Y271004D02*
X428366D01*
X413366D02*
Y316004D01*
X421850Y341535D02*
X442716D01*
X421850Y330512D02*
X442716D01*
Y341535D01*
X260606Y321942D02*
X275606D01*
X260606D02*
Y366942D01*
X275606D01*
Y321942D02*
Y366942D01*
X239806Y321942D02*
X254806D01*
X239806D02*
Y366942D01*
X254806D01*
Y321942D02*
Y366942D01*
X421260Y101575D02*
X442126D01*
X421260Y90551D02*
X442126D01*
Y101575D01*
X260827Y73425D02*
Y93504D01*
X281693Y73425D02*
Y93504D01*
X260827D02*
X268760D01*
X273760D02*
X281693D01*
X260827Y73425D02*
X281693D01*
X315355Y243504D02*
Y264370D01*
X304331Y243504D02*
Y264370D01*
Y243504D02*
X315355D01*
X555394Y168032D02*
Y198032D01*
X545394D02*
X555394D01*
X545394Y168032D02*
Y198032D01*
Y168032D02*
X555394D01*
Y292047D02*
Y322047D01*
X545394D02*
X555394D01*
X545394Y292047D02*
Y322047D01*
Y292047D02*
X555394D01*
Y44016D02*
Y74016D01*
X545394D02*
X555394D01*
X545394Y44016D02*
Y74016D01*
Y44016D02*
X555394D01*
X485551Y362126D02*
X515551D01*
Y372126D01*
X485551D02*
X515551D01*
X485551Y362126D02*
Y372126D01*
X83268Y44291D02*
X104291D01*
X83268Y55315D02*
X104291D01*
Y44291D02*
Y55315D01*
X83268Y44291D02*
Y55315D01*
X240945Y312205D02*
X261811D01*
X240945Y301181D02*
X261811D01*
Y312205D01*
X414941Y197106D02*
X429941D01*
Y152106D02*
Y197106D01*
X414941Y152106D02*
X429941D01*
X414941D02*
Y197106D01*
X283543Y126296D02*
Y143389D01*
X285315Y219603D02*
Y236696D01*
X283543Y30824D02*
Y47916D01*
X315354Y54725D02*
Y75591D01*
X304331Y54725D02*
Y75591D01*
Y54725D02*
X315354D01*
X259449Y259449D02*
Y279527D01*
X280315Y259449D02*
Y279527D01*
X259449D02*
X267382D01*
X272382D02*
X280315D01*
X259449Y259449D02*
X280315D01*
X421063Y219488D02*
X441929D01*
X421063Y208465D02*
X441929D01*
Y219488D01*
X173346Y74094D02*
X183346D01*
Y44094D02*
Y74094D01*
X173346Y44094D02*
X183346D01*
X173346D02*
Y74094D01*
X414153Y77028D02*
X429153D01*
X414153Y32028D02*
Y77028D01*
Y32028D02*
X429153D01*
Y77028D01*
X439351Y76831D02*
X454351D01*
X439351Y31831D02*
Y76831D01*
Y31831D02*
X454351D01*
Y76831D01*
X319094Y132480D02*
Y195473D01*
X397047D01*
Y132480D02*
Y195473D01*
X319094Y132480D02*
X397047D01*
X318307Y217717D02*
Y280709D01*
X396260D01*
Y217717D02*
Y280709D01*
X318307Y217717D02*
X396260D01*
X317717Y35630D02*
Y98622D01*
X395669D01*
Y35630D02*
Y98622D01*
X317717Y35630D02*
X395669D01*
D31*
X56709Y88004D02*
G03*
X56709Y88004I-492J0D01*
G01*
X255177Y186496D02*
G03*
X255177Y186496I-492J0D01*
G01*
X256752Y93583D02*
G03*
X256752Y93583I-492J0D01*
G01*
X89272Y57874D02*
G03*
X89272Y57874I-492J0D01*
G01*
X283449Y123020D02*
G03*
X283449Y123020I-492J0D01*
G01*
X285221Y216327D02*
G03*
X285221Y216327I-492J0D01*
G01*
X283449Y27547D02*
G03*
X283449Y27547I-492J0D01*
G01*
X255374Y279606D02*
G03*
X255374Y279606I-492J0D01*
G01*
D32*
X264370Y182480D02*
G03*
X264370Y182480I-1181J0D01*
G01*
X265945Y89567D02*
G03*
X265945Y89567I-1181J0D01*
G01*
X264567Y275590D02*
G03*
X264567Y275590I-1181J0D01*
G01*
D33*
X101468Y322441D02*
G03*
X101468Y322441I-10011J0D01*
G01*
X240405Y264567D02*
G03*
X240405Y264567I-10011J0D01*
G01*
X240011Y78543D02*
G03*
X240011Y78543I-10011J0D01*
G01*
X239421Y171260D02*
G03*
X239421Y171260I-10011J0D01*
G01*
X236642Y195866D02*
X237642D01*
X204642D02*
X205642D01*
X236642Y192866D02*
Y198866D01*
X205642D02*
X236642D01*
X205642Y192866D02*
Y198866D01*
Y192866D02*
X236642D01*
X239988Y288189D02*
X240988D01*
X207988D02*
X208988D01*
X239988Y285189D02*
Y291189D01*
X208988D02*
X239988D01*
X208988Y285189D02*
Y291189D01*
Y285189D02*
X239988D01*
X202712Y103937D02*
X203713D01*
X234713D02*
X235713D01*
X203713Y100937D02*
Y106937D01*
Y100937D02*
X234713D01*
Y106937D01*
X203713D02*
X234713D01*
X89957Y318941D02*
Y324441D01*
Y318941D02*
X93457Y322441D01*
X89957Y325941D02*
X93457Y322441D01*
X89957Y324441D02*
Y325941D01*
X87957Y322441D02*
X94457D01*
X230906Y359942D02*
Y360942D01*
Y327942D02*
Y328942D01*
X227906Y359942D02*
X233906D01*
X227906Y328942D02*
Y359942D01*
Y328942D02*
X233906D01*
Y359942D01*
X74240Y195276D02*
X75240D01*
X42240D02*
X43240D01*
X74240Y192276D02*
Y198276D01*
X43240D02*
X74240D01*
X43240Y192276D02*
Y198276D01*
Y192276D02*
X74240D01*
X114004Y75984D02*
X115004D01*
X82004D02*
X83004D01*
X114004Y72984D02*
Y78984D01*
X83004D02*
X114004D01*
X83004Y72984D02*
Y78984D01*
Y72984D02*
X114004D01*
X231893Y262567D02*
Y268067D01*
X228394Y264567D02*
X231893Y268067D01*
X228394Y264567D02*
X231893Y261067D01*
Y262567D01*
X227394Y264567D02*
X233893D01*
X231500Y76543D02*
Y82043D01*
X228000Y78543D02*
X231500Y82043D01*
X228000Y78543D02*
X231500Y75043D01*
Y76543D01*
X227000Y78543D02*
X233500D01*
X67717Y311016D02*
X72517D01*
X67717D02*
Y317016D01*
X72617D01*
X42717Y299016D02*
X72717D01*
X42717D02*
Y329016D01*
X72717D01*
Y299016D02*
Y329016D01*
X96457Y372075D02*
Y373075D01*
Y340075D02*
Y341075D01*
X93457Y372075D02*
X99457D01*
X93457Y341075D02*
Y372075D01*
Y341075D02*
X99457D01*
Y372075D01*
X403150Y155665D02*
Y156665D01*
Y187665D02*
Y188665D01*
X400150Y156665D02*
X406150D01*
Y187665D01*
X400150D02*
X406150D01*
X400150Y156665D02*
Y187665D01*
X401378Y38539D02*
Y39539D01*
Y70539D02*
Y71539D01*
X398378Y39539D02*
X404378D01*
X398378D02*
Y70539D01*
X404378D01*
Y39539D02*
Y70539D01*
X300197Y136374D02*
Y137374D01*
Y168374D02*
Y169374D01*
X297197Y137374D02*
X303197D01*
Y168374D01*
X297197D02*
X303197D01*
X297197Y137374D02*
Y168374D01*
X401772Y224366D02*
Y225366D01*
Y256366D02*
Y257366D01*
X398772Y225366D02*
X404772D01*
Y256366D01*
X398772D02*
X404772D01*
X398772Y225366D02*
Y256366D01*
X400984Y281846D02*
Y282846D01*
Y313846D02*
Y314846D01*
X397984Y282846D02*
X403984D01*
Y313846D01*
X397984D02*
X403984D01*
X397984Y282846D02*
Y313846D01*
X298622Y41886D02*
Y42886D01*
Y73886D02*
Y74886D01*
X295622Y42886D02*
X301622D01*
Y73886D01*
X295622D02*
X301622D01*
X295622Y42886D02*
Y73886D01*
X297638Y261642D02*
Y262642D01*
Y229642D02*
Y230642D01*
X294638Y261642D02*
X300638D01*
X294638Y230642D02*
Y261642D01*
Y230642D02*
X300638D01*
Y261642D01*
X230909Y169260D02*
Y174760D01*
X227409Y171260D02*
X230909Y174760D01*
X227409Y171260D02*
X230909Y167760D01*
Y169260D01*
X226409Y171260D02*
X232909D01*
X83858Y41628D02*
Y35630D01*
X86857D01*
X87857Y36630D01*
Y37629D01*
X86857Y38629D01*
X83858D01*
X86857D01*
X87857Y39629D01*
Y40628D01*
X86857Y41628D01*
X83858D01*
X92855Y35630D02*
X90856D01*
X89856Y36630D01*
Y38629D01*
X90856Y39629D01*
X92855D01*
X93855Y38629D01*
Y37629D01*
X89856D01*
X98853Y35630D02*
X96854D01*
X95854Y36630D01*
Y38629D01*
X96854Y39629D01*
X98853D01*
X99853Y38629D01*
Y37629D01*
X95854D01*
X101852Y33631D02*
Y39629D01*
X104851D01*
X105851Y38629D01*
Y36630D01*
X104851Y35630D01*
X101852D01*
X107851D02*
X109850D01*
X108850D01*
Y41628D01*
X107851Y40628D01*
X444353Y85510D02*
X443353Y86510D01*
X441354D01*
X440354Y85510D01*
Y81511D01*
X441354Y80512D01*
X443353D01*
X444353Y81511D01*
X446352Y80512D02*
X448352D01*
X447352D01*
Y86510D01*
X446352Y85510D01*
X418762D02*
X417763Y86510D01*
X415764D01*
X414764Y85510D01*
Y81511D01*
X415764Y80512D01*
X417763D01*
X418762Y81511D01*
X424760Y80512D02*
X420762D01*
X424760Y84510D01*
Y85510D01*
X423761Y86510D01*
X421762D01*
X420762Y85510D01*
X265199Y375298D02*
X264199Y376298D01*
X262200D01*
X261200Y375298D01*
Y371300D01*
X262200Y370300D01*
X264199D01*
X265199Y371300D01*
X267198Y375298D02*
X268198Y376298D01*
X270197D01*
X271197Y375298D01*
Y374299D01*
X270197Y373299D01*
X269197D01*
X270197D01*
X271197Y372299D01*
Y371300D01*
X270197Y370300D01*
X268198D01*
X267198Y371300D01*
X244399Y375298D02*
X243399Y376298D01*
X241400D01*
X240400Y375298D01*
Y371300D01*
X241400Y370300D01*
X243399D01*
X244399Y371300D01*
X249397Y370300D02*
Y376298D01*
X246398Y373299D01*
X250397D01*
X442199Y323998D02*
X441199Y324998D01*
X439200D01*
X438200Y323998D01*
Y320000D01*
X439200Y319000D01*
X441199D01*
X442199Y320000D01*
X448197Y324998D02*
X444198D01*
Y321999D01*
X446197Y322999D01*
X447197D01*
X448197Y321999D01*
Y320000D01*
X447197Y319000D01*
X445198D01*
X444198Y320000D01*
X417999Y324398D02*
X416999Y325398D01*
X415000D01*
X414000Y324398D01*
Y320400D01*
X415000Y319400D01*
X416999D01*
X417999Y320400D01*
X423997Y325398D02*
X421997Y324398D01*
X419998Y322399D01*
Y320400D01*
X420998Y319400D01*
X422997D01*
X423997Y320400D01*
Y321399D01*
X422997Y322399D01*
X419998D01*
X418281Y205786D02*
X417282Y206785D01*
X415282D01*
X414283Y205786D01*
Y201787D01*
X415282Y200787D01*
X417282D01*
X418281Y201787D01*
X420281Y206785D02*
X424279D01*
Y205786D01*
X420281Y201787D01*
Y200787D01*
X442599Y205498D02*
X441599Y206498D01*
X439600D01*
X438600Y205498D01*
Y201500D01*
X439600Y200500D01*
X441599D01*
X442599Y201500D01*
X444598Y205498D02*
X445598Y206498D01*
X447597D01*
X448597Y205498D01*
Y204499D01*
X447597Y203499D01*
X448597Y202499D01*
Y201500D01*
X447597Y200500D01*
X445598D01*
X444598Y201500D01*
Y202499D01*
X445598Y203499D01*
X444598Y204499D01*
Y205498D01*
X445598Y203499D02*
X447597D01*
X306299Y98911D02*
Y92913D01*
X309298D01*
X310298Y93913D01*
Y97912D01*
X309298Y98911D01*
X306299D01*
X312297Y92913D02*
X314297D01*
X313297D01*
Y98911D01*
X312297Y97912D01*
X304900Y287498D02*
Y281500D01*
X307899D01*
X308899Y282500D01*
Y286498D01*
X307899Y287498D01*
X304900D01*
X314897Y281500D02*
X310898D01*
X314897Y285499D01*
Y286498D01*
X313897Y287498D01*
X311898D01*
X310898Y286498D01*
X80905Y340447D02*
Y334449D01*
X83904D01*
X84904Y335449D01*
Y339447D01*
X83904Y340447D01*
X80905D01*
X86904Y339447D02*
X87903Y340447D01*
X89903D01*
X90902Y339447D01*
Y338447D01*
X89903Y337448D01*
X88903D01*
X89903D01*
X90902Y336448D01*
Y335449D01*
X89903Y334449D01*
X87903D01*
X86904Y335449D01*
X221260Y283557D02*
Y277559D01*
X224259D01*
X225259Y278559D01*
Y282557D01*
X224259Y283557D01*
X221260D01*
X230257Y277559D02*
Y283557D01*
X227258Y280558D01*
X231257D01*
X216929Y97730D02*
Y91732D01*
X219928D01*
X220928Y92732D01*
Y96731D01*
X219928Y97730D01*
X216929D01*
X226926D02*
X222927D01*
Y94731D01*
X224926Y95731D01*
X225926D01*
X226926Y94731D01*
Y92732D01*
X225926Y91732D01*
X223927D01*
X222927Y92732D01*
X408200Y110998D02*
Y105000D01*
X411199D01*
X412199Y106000D01*
Y109998D01*
X411199Y110998D01*
X408200D01*
X418197D02*
X416197Y109998D01*
X414198Y107999D01*
Y106000D01*
X415198Y105000D01*
X417197D01*
X418197Y106000D01*
Y106999D01*
X417197Y107999D01*
X414198D01*
X225984Y319384D02*
Y313386D01*
X228983D01*
X229983Y314386D01*
Y318384D01*
X228983Y319384D01*
X225984D01*
X231982D02*
X235981D01*
Y318384D01*
X231982Y314386D01*
Y313386D01*
X408800Y350898D02*
Y344900D01*
X411799D01*
X412799Y345900D01*
Y349898D01*
X411799Y350898D01*
X408800D01*
X414798Y349898D02*
X415798Y350898D01*
X417797D01*
X418797Y349898D01*
Y348899D01*
X417797Y347899D01*
X418797Y346899D01*
Y345900D01*
X417797Y344900D01*
X415798D01*
X414798Y345900D01*
Y346899D01*
X415798Y347899D01*
X414798Y348899D01*
Y349898D01*
X415798Y347899D02*
X417797D01*
X306300Y194398D02*
Y188400D01*
X309299D01*
X310299Y189400D01*
Y193398D01*
X309299Y194398D01*
X306300D01*
X312298Y189400D02*
X313298Y188400D01*
X315297D01*
X316297Y189400D01*
Y193398D01*
X315297Y194398D01*
X313298D01*
X312298Y193398D01*
Y192399D01*
X313298Y191399D01*
X316297D01*
X215748Y189266D02*
Y183268D01*
X218747D01*
X219747Y184267D01*
Y188266D01*
X218747Y189266D01*
X215748D01*
X221746Y183268D02*
X223745D01*
X222746D01*
Y189266D01*
X221746Y188266D01*
X226745D02*
X227744Y189266D01*
X229744D01*
X230743Y188266D01*
Y184267D01*
X229744Y183268D01*
X227744D01*
X226745Y184267D01*
Y188266D01*
X408465Y227258D02*
Y221260D01*
X411464D01*
X412463Y222259D01*
Y226258D01*
X411464Y227258D01*
X408465D01*
X414463Y221260D02*
X416462D01*
X415462D01*
Y227258D01*
X414463Y226258D01*
X419461Y221260D02*
X421460D01*
X420461D01*
Y227258D01*
X419461Y226258D01*
X42913Y289764D02*
Y295762D01*
X45912D01*
X46912Y294762D01*
Y292763D01*
X45912Y291763D01*
X42913D01*
X51911Y289764D02*
Y295762D01*
X48911Y292763D01*
X52910D01*
X173622Y80118D02*
Y86116D01*
X176621D01*
X177621Y85116D01*
Y83117D01*
X176621Y82117D01*
X173622D01*
X179620Y86116D02*
X183619D01*
Y85116D01*
X179620Y81118D01*
Y80118D01*
X30906Y233661D02*
Y239660D01*
X33904D01*
X34904Y238660D01*
Y236660D01*
X33904Y235661D01*
X30906D01*
X36904Y233661D02*
X38903D01*
X37903D01*
Y239660D01*
X36904Y238660D01*
X41902Y233661D02*
X43901D01*
X42902D01*
Y239660D01*
X41902Y238660D01*
X269353Y51590D02*
Y55589D01*
X268353Y56589D01*
X266354D01*
X265354Y55589D01*
Y51590D01*
X266354Y50591D01*
X268353D01*
X267354Y52590D02*
X269353Y50591D01*
X268353D02*
X269353Y51590D01*
X271352Y50591D02*
X273352D01*
X272352D01*
Y56589D01*
X271352Y55589D01*
X271715Y241157D02*
Y245156D01*
X270716Y246156D01*
X268716D01*
X267717Y245156D01*
Y241157D01*
X268716Y240158D01*
X270716D01*
X269716Y242157D02*
X271715Y240158D01*
X270716D02*
X271715Y241157D01*
X277713Y240158D02*
X273715D01*
X277713Y244156D01*
Y245156D01*
X276714Y246156D01*
X274714D01*
X273715Y245156D01*
X60199Y93000D02*
Y96998D01*
X59199Y97998D01*
X57200D01*
X56200Y96998D01*
Y93000D01*
X57200Y92000D01*
X59199D01*
X58199Y93999D02*
X60199Y92000D01*
X59199D02*
X60199Y93000D01*
X62198Y96998D02*
X63198Y97998D01*
X65197D01*
X66197Y96998D01*
Y95999D01*
X65197Y94999D01*
X64197D01*
X65197D01*
X66197Y93999D01*
Y93000D01*
X65197Y92000D01*
X63198D01*
X62198Y93000D01*
X268369Y148244D02*
Y152243D01*
X267369Y153242D01*
X265370D01*
X264370Y152243D01*
Y148244D01*
X265370Y147244D01*
X267369D01*
X266369Y149243D02*
X268369Y147244D01*
X267369D02*
X268369Y148244D01*
X273367Y147244D02*
Y153242D01*
X270368Y150243D01*
X274367D01*
X103937Y351575D02*
Y357573D01*
X106936D01*
X107936Y356573D01*
Y354574D01*
X106936Y353574D01*
X103937D01*
X105936D02*
X107936Y351575D01*
X109935D02*
X111934D01*
X110935D01*
Y357573D01*
X109935Y356573D01*
X197700Y110400D02*
Y116398D01*
X200699D01*
X201699Y115398D01*
Y113399D01*
X200699Y112399D01*
X197700D01*
X199699D02*
X201699Y110400D01*
X207697D02*
X203698D01*
X207697Y114399D01*
Y115398D01*
X206697Y116398D01*
X204698D01*
X203698Y115398D01*
X293307Y82677D02*
Y88675D01*
X296306D01*
X297306Y87675D01*
Y85676D01*
X296306Y84676D01*
X293307D01*
X295306D02*
X297306Y82677D01*
X299305Y87675D02*
X300305Y88675D01*
X302304D01*
X303304Y87675D01*
Y86676D01*
X302304Y85676D01*
X301305D01*
X302304D01*
X303304Y84676D01*
Y83677D01*
X302304Y82677D01*
X300305D01*
X299305Y83677D01*
X202900Y294700D02*
Y300698D01*
X205899D01*
X206899Y299698D01*
Y297699D01*
X205899Y296699D01*
X202900D01*
X204899D02*
X206899Y294700D01*
X211897D02*
Y300698D01*
X208898Y297699D01*
X212897D01*
X292520Y273622D02*
Y279620D01*
X295519D01*
X296518Y278620D01*
Y276621D01*
X295519Y275621D01*
X292520D01*
X294519D02*
X296518Y273622D01*
X302517Y279620D02*
X298518D01*
Y276621D01*
X300517Y277621D01*
X301517D01*
X302517Y276621D01*
Y274622D01*
X301517Y273622D01*
X299517D01*
X298518Y274622D01*
X397047Y265591D02*
Y271589D01*
X400046D01*
X401046Y270589D01*
Y268590D01*
X400046Y267590D01*
X397047D01*
X399046D02*
X401046Y265591D01*
X407044Y271589D02*
X405045Y270589D01*
X403045Y268590D01*
Y266590D01*
X404045Y265591D01*
X406044D01*
X407044Y266590D01*
Y267590D01*
X406044Y268590D01*
X403045D01*
X397244Y80512D02*
Y86510D01*
X400243D01*
X401243Y85510D01*
Y83511D01*
X400243Y82511D01*
X397244D01*
X399243D02*
X401243Y80512D01*
X403242Y86510D02*
X407241D01*
Y85510D01*
X403242Y81511D01*
Y80512D01*
X224803Y369685D02*
Y375683D01*
X227802D01*
X228802Y374683D01*
Y372684D01*
X227802Y371684D01*
X224803D01*
X226802D02*
X228802Y369685D01*
X230801Y374683D02*
X231801Y375683D01*
X233800D01*
X234800Y374683D01*
Y373684D01*
X233800Y372684D01*
X234800Y371684D01*
Y370685D01*
X233800Y369685D01*
X231801D01*
X230801Y370685D01*
Y371684D01*
X231801Y372684D01*
X230801Y373684D01*
Y374683D01*
X231801Y372684D02*
X233800D01*
X396850Y324213D02*
Y330211D01*
X399849D01*
X400849Y329211D01*
Y327212D01*
X399849Y326212D01*
X396850D01*
X398850D02*
X400849Y324213D01*
X402848Y325212D02*
X403848Y324213D01*
X405848D01*
X406847Y325212D01*
Y329211D01*
X405848Y330211D01*
X403848D01*
X402848Y329211D01*
Y328211D01*
X403848Y327212D01*
X406847D01*
X199600Y202400D02*
Y208398D01*
X202599D01*
X203599Y207398D01*
Y205399D01*
X202599Y204399D01*
X199600D01*
X201599D02*
X203599Y202400D01*
X205598D02*
X207597D01*
X206598D01*
Y208398D01*
X205598Y207398D01*
X210596D02*
X211596Y208398D01*
X213596D01*
X214595Y207398D01*
Y203400D01*
X213596Y202400D01*
X211596D01*
X210596Y203400D01*
Y207398D01*
X291339Y177559D02*
Y183557D01*
X294338D01*
X295337Y182557D01*
Y180558D01*
X294338Y179558D01*
X291339D01*
X293338D02*
X295337Y177559D01*
X297337D02*
X299336D01*
X298336D01*
Y183557D01*
X297337Y182557D01*
X302335Y177559D02*
X304334D01*
X303335D01*
Y183557D01*
X302335Y182557D01*
X84055Y80315D02*
Y86313D01*
X87054D01*
X88054Y85313D01*
Y83314D01*
X87054Y82314D01*
X84055D01*
X86054D02*
X88054Y80315D01*
X90053D02*
X92053D01*
X91053D01*
Y86313D01*
X90053Y85313D01*
X99050Y80315D02*
X95052D01*
X99050Y84314D01*
Y85313D01*
X98051Y86313D01*
X96051D01*
X95052Y85313D01*
X44094Y200787D02*
Y206785D01*
X47093D01*
X48093Y205786D01*
Y203786D01*
X47093Y202787D01*
X44094D01*
X46094D02*
X48093Y200787D01*
X50093D02*
X52092D01*
X51092D01*
Y206785D01*
X50093Y205786D01*
X55091D02*
X56091Y206785D01*
X58090D01*
X59090Y205786D01*
Y204786D01*
X58090Y203786D01*
X57090D01*
X58090D01*
X59090Y202787D01*
Y201787D01*
X58090Y200787D01*
X56091D01*
X55091Y201787D01*
X394882Y196457D02*
Y202455D01*
X397881D01*
X398881Y201455D01*
Y199456D01*
X397881Y198456D01*
X394882D01*
X396881D02*
X398881Y196457D01*
X400880D02*
X402879D01*
X401880D01*
Y202455D01*
X400880Y201455D01*
X408877Y196457D02*
Y202455D01*
X405878Y199456D01*
X409877D01*
X461400Y113698D02*
X465399D01*
X463399D01*
Y107700D01*
X467398D02*
X469397D01*
X468398D01*
Y113698D01*
X467398Y112698D01*
X310400Y384798D02*
X314399D01*
X312399D01*
Y378800D01*
X320397D02*
X316398D01*
X320397Y382799D01*
Y383798D01*
X319397Y384798D01*
X317398D01*
X316398Y383798D01*
X465000Y355098D02*
X468999D01*
X466999D01*
Y349100D01*
X470998Y354098D02*
X471998Y355098D01*
X473997D01*
X474997Y354098D01*
Y353099D01*
X473997Y352099D01*
X472997D01*
X473997D01*
X474997Y351099D01*
Y350100D01*
X473997Y349100D01*
X471998D01*
X470998Y350100D01*
X464000Y231798D02*
X467999D01*
X465999D01*
Y225800D01*
X472997D02*
Y231798D01*
X469998Y228799D01*
X473997D01*
X254300Y103598D02*
Y98600D01*
X255300Y97600D01*
X257299D01*
X258299Y98600D01*
Y103598D01*
X260298Y97600D02*
X262297D01*
X261298D01*
Y103598D01*
X260298Y102598D01*
X254331Y291628D02*
Y286630D01*
X255330Y285630D01*
X257330D01*
X258329Y286630D01*
Y291628D01*
X264328Y285630D02*
X260329D01*
X264328Y289629D01*
Y290628D01*
X263328Y291628D01*
X261328D01*
X260329Y290628D01*
X252700Y196498D02*
Y191500D01*
X253700Y190500D01*
X255699D01*
X256699Y191500D01*
Y196498D01*
X261697Y190500D02*
Y196498D01*
X258698Y193499D01*
X262697D01*
X486200Y375500D02*
Y381498D01*
X489199D01*
X490199Y380498D01*
Y378499D01*
X489199Y377499D01*
X486200D01*
X492198Y380498D02*
X493198Y381498D01*
X495197D01*
X496197Y380498D01*
Y379499D01*
X495197Y378499D01*
X494197D01*
X495197D01*
X496197Y377499D01*
Y376500D01*
X495197Y375500D01*
X493198D01*
X492198Y376500D01*
X546000Y77400D02*
Y83398D01*
X548999D01*
X549999Y82398D01*
Y80399D01*
X548999Y79399D01*
X546000D01*
X551998Y82398D02*
X552998Y83398D01*
X554997D01*
X555997Y82398D01*
Y81399D01*
X554997Y80399D01*
X555997Y79399D01*
Y78400D01*
X554997Y77400D01*
X552998D01*
X551998Y78400D01*
Y79399D01*
X552998Y80399D01*
X551998Y81399D01*
Y82398D01*
X552998Y80399D02*
X554997D01*
X546000Y325400D02*
Y331398D01*
X548999D01*
X549999Y330398D01*
Y328399D01*
X548999Y327399D01*
X546000D01*
X551998Y325400D02*
X553997D01*
X552998D01*
Y331398D01*
X551998Y330398D01*
X556996D02*
X557996Y331398D01*
X559996D01*
X560995Y330398D01*
Y326400D01*
X559996Y325400D01*
X557996D01*
X556996Y326400D01*
Y330398D01*
X546000Y201400D02*
Y207398D01*
X548999D01*
X549999Y206398D01*
Y204399D01*
X548999Y203399D01*
X546000D01*
X551998Y201400D02*
X553997D01*
X552998D01*
Y207398D01*
X551998Y206398D01*
X560995Y201400D02*
X556996D01*
X560995Y205399D01*
Y206398D01*
X559996Y207398D01*
X557996D01*
X556996Y206398D01*
X47835Y385433D02*
Y391431D01*
X50834D01*
X51833Y390431D01*
Y388432D01*
X50834Y387432D01*
X47835D01*
X57831Y391431D02*
X53833D01*
Y388432D01*
X55832Y389432D01*
X56832D01*
X57831Y388432D01*
Y386433D01*
X56832Y385433D01*
X54832D01*
X53833Y386433D01*
X89764Y309345D02*
Y304346D01*
X90763Y303346D01*
X92763D01*
X93762Y304346D01*
Y309345D01*
X95762Y308345D02*
X96762Y309345D01*
X98761D01*
X99761Y308345D01*
Y307345D01*
X98761Y306346D01*
X97761D01*
X98761D01*
X99761Y305346D01*
Y304346D01*
X98761Y303346D01*
X96762D01*
X95762Y304346D01*
X318300Y102000D02*
Y107998D01*
X321299D01*
X322299Y106998D01*
Y104999D01*
X321299Y103999D01*
X318300D01*
X324298Y102000D02*
X326297D01*
X325298D01*
Y107998D01*
X324298Y106998D01*
X318900Y284100D02*
Y290098D01*
X321899D01*
X322899Y289098D01*
Y287099D01*
X321899Y286099D01*
X318900D01*
X328897Y284100D02*
X324898D01*
X328897Y288099D01*
Y289098D01*
X327897Y290098D01*
X325898D01*
X324898Y289098D01*
X319700Y198900D02*
Y204898D01*
X322699D01*
X323699Y203898D01*
Y201899D01*
X322699Y200899D01*
X319700D01*
X325698Y199900D02*
X326698Y198900D01*
X328697D01*
X329697Y199900D01*
Y203898D01*
X328697Y204898D01*
X326698D01*
X325698Y203898D01*
Y202899D01*
X326698Y201899D01*
X329697D01*
D34*
X54177Y341437D02*
G03*
X54569Y334617I1858J-3314D01*
G01*
X61277D02*
G03*
X60885Y341437I-1858J3314D01*
G01*
X56177Y365417D02*
G03*
X56177Y357417I0J-4000D01*
G01*
X59677D02*
G03*
X59677Y365417I0J4000D01*
G01*
X51177Y351417D02*
G03*
X47821Y353657I-4699J-3406D01*
G01*
X47691Y341605D02*
G03*
X51177Y343917I-1250J5667D01*
G01*
X54077Y341437D02*
X60885D01*
X47677Y373117D02*
X63677D01*
X56177Y357417D02*
X59677D01*
X56177Y365417D02*
X59677D01*
X64377Y334617D02*
Y358105D01*
X47677Y353657D02*
Y373117D01*
X47678Y334617D02*
Y341605D01*
X65677Y334617D02*
Y373117D01*
X63677D02*
X65677D01*
X64377Y358105D02*
Y373117D01*
X47677Y383417D02*
X64056D01*
X47677Y373117D02*
Y383417D01*
X65677Y373117D02*
Y383317D01*
X65577Y383417D02*
X65677Y383317D01*
X64056Y383417D02*
X65577D01*
X51177Y367398D02*
Y373117D01*
X64377Y334617D02*
X65677D01*
X51177D02*
Y367398D01*
D35*
X124152Y297466D02*
G03*
X138882Y297501I7364J526D01*
G01*
X27736Y209173D02*
Y211673D01*
Y209173D02*
X70236D01*
Y229173D01*
X27736D02*
X70236D01*
X27736Y211673D02*
Y229173D01*
Y228173D02*
Y234173D01*
X70236Y229173D02*
Y234173D01*
X89016Y87992D02*
Y289492D01*
Y87992D02*
X169016D01*
Y89492D01*
Y297992D01*
X89016D02*
X169016D01*
X89016Y289492D02*
Y297992D01*
D36*
X31976Y65756D02*
X33976D01*
X31976Y65256D02*
X34976D01*
X31976Y64756D02*
X35976D01*
X31976Y64256D02*
X36476D01*
X31976Y63756D02*
X36476D01*
X31476Y63256D02*
X36476D01*
X31476Y62756D02*
X35476D01*
X30976Y62256D02*
X34476D01*
X30976Y61756D02*
X33976D01*
X23476Y61256D02*
X25476D01*
X30476D02*
X33476D01*
X14976Y60756D02*
X17476D01*
X22476D02*
X26476D01*
X29976D02*
X32976D01*
X34976D02*
X38476D01*
X10976Y60256D02*
X18476D01*
X18976D02*
X26976D01*
X29976D02*
X32476D01*
X33976D02*
X38976D01*
X10976Y59756D02*
X18476D01*
X18976D02*
X39976D01*
X11476Y59256D02*
X18476D01*
X18976D02*
X22976D01*
X23476D02*
X39976D01*
X11476Y58756D02*
X14476D01*
X15476D02*
X18476D01*
X19476D02*
X22476D01*
X23476D02*
X34476D01*
X35476D02*
X39976D01*
X11476Y58256D02*
X14476D01*
X15476D02*
X18476D01*
X19476D02*
X22476D01*
X23476D02*
X26476D01*
X27476D02*
X31976D01*
X35976D02*
X39976D01*
X11976Y57756D02*
X14476D01*
X15476D02*
X17976D01*
X19476D02*
X22476D01*
X23476D02*
X26476D01*
X27476D02*
X30476D01*
X35976D02*
X39476D01*
X11976Y57256D02*
X14476D01*
X15476D02*
X17976D01*
X19476D02*
X22476D01*
X23476D02*
X26476D01*
X27976D02*
X30476D01*
X35976D02*
X39476D01*
X11976Y56756D02*
X14476D01*
X15476D02*
X17976D01*
X19976D02*
X22476D01*
X23476D02*
X26476D01*
X27976D02*
X30476D01*
X35976D02*
X39476D01*
X11976Y56256D02*
X14476D01*
X15476D02*
X17976D01*
X19976D02*
X22476D01*
X23476D02*
X26476D01*
X27976D02*
X30476D01*
X35976D02*
X38976D01*
X11976Y55756D02*
X14476D01*
X15476D02*
X17976D01*
X19976D02*
X22476D01*
X23476D02*
X26476D01*
X27976D02*
X30476D01*
X35976D02*
X38976D01*
X11976Y55256D02*
X14476D01*
X15476D02*
X17976D01*
X19976D02*
X22476D01*
X23476D02*
X26476D01*
X27976D02*
X34476D01*
X35976D02*
X38976D01*
X11976Y54756D02*
X14476D01*
X15476D02*
X17976D01*
X19976D02*
X22476D01*
X23476D02*
X26476D01*
X27976D02*
X34976D01*
X35976D02*
X38976D01*
X11976Y54256D02*
X14476D01*
X15476D02*
X17976D01*
X19976D02*
X22476D01*
X23476D02*
X26476D01*
X27976D02*
X30476D01*
X30976D02*
X35476D01*
X35976D02*
X38976D01*
X11976Y53756D02*
X14476D01*
X15476D02*
X17976D01*
X19976D02*
X26476D01*
X27976D02*
X30476D01*
X31476D02*
X35476D01*
X35976D02*
X38976D01*
X11976Y53256D02*
X14476D01*
X15476D02*
X17976D01*
X19976D02*
X25976D01*
X28476D02*
X30476D01*
X32476D02*
X35476D01*
X35976D02*
X38976D01*
X11976Y52756D02*
X17976D01*
X19976D02*
X25976D01*
X28476D02*
X30476D01*
X32976D02*
X35476D01*
X35976D02*
X38976D01*
X11976Y52256D02*
X17976D01*
X19476D02*
X25976D01*
X28476D02*
X30476D01*
X35476D02*
X38976D01*
X11976Y51756D02*
X14976D01*
X15476D02*
X17976D01*
X19476D02*
X22476D01*
X23476D02*
X25976D01*
X28476D02*
X30476D01*
X35476D02*
X38976D01*
X11976Y51256D02*
X13976D01*
X15476D02*
X17976D01*
X19476D02*
X22476D01*
X23476D02*
X25976D01*
X28476D02*
X30476D01*
X35476D02*
X38976D01*
X11976Y50756D02*
X13976D01*
X15476D02*
X17976D01*
X19476D02*
X21976D01*
X23476D02*
X25976D01*
X28476D02*
X30476D01*
X31976D02*
X33476D01*
X34976D02*
X38476D01*
X11476Y50256D02*
X13976D01*
X15476D02*
X17976D01*
X19476D02*
X21976D01*
X23476D02*
X25976D01*
X28476D02*
X30476D01*
X31976D02*
X38476D01*
X11476Y49756D02*
X13976D01*
X15476D02*
X17976D01*
X19476D02*
X21976D01*
X23476D02*
X25976D01*
X28476D02*
X30476D01*
X32476D02*
X38476D01*
X11476Y49256D02*
X13976D01*
X15476D02*
X17976D01*
X19476D02*
X21976D01*
X23476D02*
X25976D01*
X28476D02*
X30476D01*
X32976D02*
X38476D01*
X11476Y48756D02*
X13976D01*
X15476D02*
X17976D01*
X19476D02*
X25976D01*
X28476D02*
X30476D01*
X33476D02*
X37976D01*
X11476Y48256D02*
X17976D01*
X19476D02*
X25976D01*
X27976D02*
X30476D01*
X33976D02*
X37976D01*
X11476Y47756D02*
X17976D01*
X19476D02*
X25976D01*
X27976D02*
X30476D01*
X34476D02*
X37476D01*
X11476Y47256D02*
X17976D01*
X19476D02*
X21976D01*
X23476D02*
X25976D01*
X27976D02*
X30476D01*
X34476D02*
X36976D01*
X38976D02*
X41976D01*
X11476Y46756D02*
X17976D01*
X19476D02*
X21976D01*
X23476D02*
X25976D01*
X27976D02*
X30476D01*
X37476D02*
X42976D01*
X11476Y46256D02*
X13476D01*
X15476D02*
X17976D01*
X19476D02*
X21976D01*
X23476D02*
X25976D01*
X27976D02*
X30476D01*
X34976D02*
X43976D01*
X10976Y45756D02*
X13476D01*
X15476D02*
X17976D01*
X19476D02*
X21976D01*
X23476D02*
X25976D01*
X27476D02*
X30476D01*
X30976D02*
X43976D01*
X10976Y45256D02*
X13476D01*
X15476D02*
X17976D01*
X18976D02*
X21976D01*
X23476D02*
X26476D01*
X27476D02*
X43976D01*
X10976Y44756D02*
X13476D01*
X15476D02*
X17976D01*
X18976D02*
X21976D01*
X23476D02*
X26476D01*
X27476D02*
X35976D01*
X39476D02*
X43976D01*
X10976Y44256D02*
X13476D01*
X15476D02*
X17976D01*
X18976D02*
X21476D01*
X23476D02*
X26476D01*
X27976D02*
X32476D01*
X39476D02*
X43476D01*
X10976Y43756D02*
X13476D01*
X15476D02*
X17976D01*
X18976D02*
X21476D01*
X23476D02*
X26476D01*
X27976D02*
X30476D01*
X39976D02*
X43476D01*
X10476Y43256D02*
X12976D01*
X15476D02*
X17976D01*
X18976D02*
X21476D01*
X23476D02*
X26476D01*
X39976D02*
X42976D01*
X10476Y42756D02*
X12976D01*
X15476D02*
X17976D01*
X18976D02*
X21476D01*
X23476D02*
X26476D01*
X39976D02*
X42976D01*
X10476Y42256D02*
X12976D01*
X15476D02*
X17976D01*
X18476D02*
X20976D01*
X23476D02*
X26476D01*
X35476D02*
X38476D01*
X39976D02*
X42976D01*
X10476Y41756D02*
X12976D01*
X15476D02*
X17976D01*
X18476D02*
X20976D01*
X23476D02*
X26476D01*
X33476D02*
X38976D01*
X39976D02*
X42976D01*
X9976Y41256D02*
X12476D01*
X15476D02*
X17976D01*
X18476D02*
X20976D01*
X23476D02*
X26476D01*
X30476D02*
X42976D01*
X9976Y40756D02*
X12476D01*
X14976D02*
X20476D01*
X23476D02*
X26476D01*
X26976D02*
X42976D01*
X9976Y40256D02*
X13976D01*
X14976D02*
X20476D01*
X20976D02*
X22476D01*
X22976D02*
X25976D01*
X26476D02*
X42976D01*
X9476Y39756D02*
X11976D01*
X12476D02*
X19976D01*
X20976D02*
X25976D01*
X26476D02*
X33976D01*
X39476D02*
X42476D01*
X9476Y39256D02*
X11976D01*
X12976D02*
X19976D01*
X20976D02*
X25976D01*
X26976D02*
X30476D01*
X39476D02*
X42476D01*
X9476Y38756D02*
X11476D01*
X13476D02*
X19476D01*
X21476D02*
X25976D01*
X39476D02*
X42476D01*
X8976Y38256D02*
X11476D01*
X13476D02*
X18976D01*
X21976D02*
X25976D01*
X38976D02*
X42476D01*
X8976Y37756D02*
X10976D01*
X13976D02*
X18976D01*
X21976D02*
X25476D01*
X38976D02*
X42476D01*
X8476Y37256D02*
X10976D01*
X13976D02*
X18476D01*
X22476D02*
X25476D01*
X38976D02*
X42476D01*
X8476Y36756D02*
X10476D01*
X14476D02*
X16976D01*
X22476D02*
X24976D01*
X38976D02*
X42476D01*
X14476Y36256D02*
X16476D01*
X22476D02*
X24476D01*
X38476D02*
X41976D01*
X34476Y35756D02*
X36476D01*
X38476D02*
X41976D01*
X34476Y35256D02*
X41976D01*
X34976Y34756D02*
X41476D01*
X35476Y34256D02*
X41476D01*
X35976Y33756D02*
X41476D01*
X35976Y33256D02*
X40976D01*
X36476Y32756D02*
X40476D01*
X36476Y32256D02*
X39976D01*
X36476Y31756D02*
X39476D01*
X36476Y31256D02*
X38976D01*
D37*
X463386Y222441D02*
X530315D01*
X463386Y143701D02*
Y222441D01*
Y143701D02*
X530315D01*
Y222441D01*
X464370Y345669D02*
X531299D01*
X464370Y266929D02*
Y345669D01*
Y266929D02*
X531299D01*
Y345669D01*
X388583Y308465D02*
Y375394D01*
X309842D02*
X388583D01*
X309842Y308465D02*
Y375394D01*
Y308465D02*
X388583D01*
X460827Y104331D02*
X527756D01*
X460827Y25591D02*
Y104331D01*
Y25591D02*
X527756D01*
Y104331D01*
D38*
X47877Y334617D02*
X51377D01*
X51177D02*
X54569D01*
X61277D02*
X64377D01*
D39*
X470276Y166337D02*
X471259Y167321D01*
X473227D01*
X474211Y166337D01*
Y165353D01*
X473227Y164369D01*
X472243D01*
X473227D01*
X474211Y163385D01*
Y162401D01*
X473227Y161417D01*
X471259D01*
X470276Y162401D01*
X524015Y160827D02*
Y166730D01*
X521063Y163779D01*
X524999D01*
X473621Y215551D02*
X469685D01*
X473621Y219487D01*
Y220471D01*
X472637Y221455D01*
X470669D01*
X469685Y220471D01*
X521457Y215354D02*
X523425D01*
X522441D01*
Y221258D01*
X521457Y220274D01*
X470276Y289172D02*
X471259Y290156D01*
X473227D01*
X474211Y289172D01*
Y288188D01*
X473227Y287204D01*
X472243D01*
X473227D01*
X474211Y286220D01*
Y285236D01*
X473227Y284252D01*
X471259D01*
X470276Y285236D01*
X524212Y284646D02*
Y290549D01*
X521260Y287597D01*
X525196D01*
X474211Y338386D02*
X470276D01*
X474211Y342322D01*
Y343305D01*
X473227Y344289D01*
X471259D01*
X470276Y343305D01*
X523032Y338976D02*
X524999D01*
X524015D01*
Y344880D01*
X523032Y343896D01*
X329528Y368896D02*
X330511Y369880D01*
X332479D01*
X333463Y368896D01*
Y367912D01*
X332479Y366928D01*
X331495D01*
X332479D01*
X333463Y365944D01*
Y364960D01*
X332479Y363976D01*
X330511D01*
X329528Y364960D01*
X332282Y313386D02*
Y319289D01*
X329331Y316338D01*
X333266D01*
X369684Y364173D02*
X365748D01*
X369684Y368109D01*
Y369093D01*
X368700Y370077D01*
X366732D01*
X365748Y369093D01*
X368307Y313386D02*
X370275D01*
X369291D01*
Y319289D01*
X368307Y318305D01*
X466339Y47833D02*
X467322Y48817D01*
X469290D01*
X470274Y47833D01*
Y46849D01*
X469290Y45865D01*
X468306D01*
X469290D01*
X470274Y44881D01*
Y43897D01*
X469290Y42913D01*
X467322D01*
X466339Y43897D01*
X520668Y42520D02*
Y48423D01*
X517717Y45472D01*
X521652D01*
X470274Y97244D02*
X466339D01*
X470274Y101180D01*
Y102164D01*
X469290Y103148D01*
X467322D01*
X466339Y102164D01*
X518504Y97441D02*
X520472D01*
X519488D01*
Y103345D01*
X518504Y102361D01*
D40*
X311222Y170078D02*
D03*
X309845Y263189D02*
D03*
X309845Y74409D02*
D03*
D41*
X423031Y336024D02*
D03*
X422440Y96063D02*
D03*
X242126Y306694D02*
D03*
X422244Y213977D02*
D03*
M02*
