M48
;Layer_Color=9474304
;FILE_FORMAT=2:5
INCH,LZ
;TYPE=PLATED
T1F00S00C0.02756
T2F00S00C0.03150
T3F00S00C0.03200
T4F00S00C0.03543
T5F00S00C0.03937
T6F00S00C0.04134
T7F00S00C0.04200
T8F00S00C0.04724
T9F00S00C0.12205
%
T01
X0421653Y0039528
X0446851Y0039331
Y0069331
X0421653Y0069528
X0422441Y0159606
X0445472
Y0189606
X0422441
X0268106Y0329442
X0247306
X0420866Y0308504
X0445079Y030811
Y027811
X0420866Y0278504
X0268106Y0359442
X0247306
T02
X0401378Y0035039
Y0075039
X040315Y0152165
Y0192165
X0300197Y0172874
Y0132874
X0298622Y0078386
Y0038386
X0239212Y0103937
X0199213
X0118504Y0075984
X0078504
X007874Y0195276
X003874
X0047717Y0304016
X0057717
X0067717
Y0324016
X0057717
X0047717
X0096457Y0336575
X0230906Y0324442
X0244488Y0288189
X0204488
X0201142Y0195866
X0241142
X0297638Y0226142
Y0266142
X0401772Y0260866
X0400984Y0278346
Y0318346
X0401772Y0220866
X0230906Y0364442
X0096457Y0376575
T03
X0225Y0078543
X0235
X0234409Y017126
X0224409
X0096457Y0322441
X0086457
X0225394Y0264567
X0235394
T04
X0277559Y003437
X0550394Y0049016
Y0069016
Y0173032
Y0193032
X0284685Y0181378
Y0171378
X0254685
Y0181378
X0277559Y0139842
Y0134842
Y0129842
X028626Y0088464
Y0078464
X025626
Y0088464
X0277559Y004437
Y003937
X0178346Y0049094
Y0059094
Y0069094
X0159016Y0097992
Y0107992
Y0117992
Y0127992
Y0137992
Y0147992
Y0157992
Y0167992
Y0177992
Y0187992
X0099016
Y0177992
Y0167992
Y0157992
Y0147992
Y0137992
Y0127992
Y0117992
Y0107992
Y0097992
X009878Y0049803
X008878
X0061614Y0071181
Y0076181
Y0081181
X0035236Y0214173
Y0224173
X0045236
X0055236
X0065236
Y0214173
X0055236
X0045236
X0099016Y0217992
Y0207992
Y0197992
Y0227992
Y0237992
Y0247992
Y0257992
Y0267992
Y0277992
Y0287992
X0159016
Y0277992
Y0267992
Y0257992
Y0247992
Y0237992
Y0227992
Y0217992
Y0207992
Y0197992
X027933Y0223149
Y0228149
Y0233149
X0284882Y0264488
Y0274488
X0254882
Y0264488
X0550394Y0297047
Y0317047
X0510551Y0367126
X0490551
T05
X0379134Y0043504
Y0090748
X0380512Y0140354
Y0187598
X033248
X0324606Y0163976
X033248Y0140354
X0331102Y0090748
X0323228Y0067126
X0331102Y0043504
X0331693Y0225591
X0323819Y0249213
X0331693Y0272835
X0379724
Y0225591
T06
X0047677Y0347638
X0057677Y0337917
Y0361417
T07
X0468701Y0037402
X0519882
Y009252
X0522441Y0155512
X047126
X0468701Y009252
X0321654Y0316339
X0376772
X0472244Y0333858
Y027874
X047126Y021063
X0522441
X0523425Y027874
Y0333858
X0376772Y036752
X0321654
T08
X0411102Y0096063
X0452284
X0309843Y0085748
Y0044567
X0311221Y0140236
Y0181417
X0309843Y0233346
Y0274527
X0271969Y0306693
X0230788
X0411693Y0336024
X0452874
X0452087Y0213976
X0410906
T09
X001576Y001576
X0574815
Y0377965
X001576
M30
