G04 Layer_Physical_Order=1*
G04 Layer_Color=255*
%FSLAX25Y25*%
%MOIN*%
G70*
G01*
G75*
%ADD10C,0.03937*%
%ADD11C,0.02756*%
%ADD12C,0.04724*%
%ADD13C,0.12205*%
%ADD14C,0.04724*%
%ADD15C,0.08200*%
%ADD16O,0.07874X0.03937*%
%ADD17O,0.07874X0.03937*%
%ADD18C,0.05000*%
%ADD19R,0.05906X0.05906*%
%ADD20C,0.05906*%
%ADD21R,0.07874X0.07874*%
%ADD22C,0.07874*%
%ADD23R,0.07874X0.07874*%
%ADD24R,0.05000X0.05000*%
%ADD25R,0.05000X0.05000*%
%ADD26O,0.05000X0.09000*%
%ADD27O,0.09000X0.05000*%
%ADD28R,0.05906X0.05906*%
%ADD29C,0.06496*%
G36*
X583969Y392205D02*
X585202Y391831D01*
X586337Y391224D01*
X587332Y390408D01*
X588149Y389412D01*
X588756Y388277D01*
X589129Y387045D01*
X589246Y385858D01*
X589246Y385858D01*
X589249Y385360D01*
Y8502D01*
X589247Y8004D01*
X589247Y8004D01*
X589247Y8004D01*
X589127Y6782D01*
X588742Y5514D01*
X588118Y4346D01*
X587278Y3323D01*
X586254Y2482D01*
X585086Y1858D01*
X583818Y1474D01*
X582597Y1353D01*
X582597Y1353D01*
Y1353D01*
X582105Y1323D01*
X7886D01*
X7843Y1314D01*
X6693Y1428D01*
X5436Y1809D01*
X4277Y2428D01*
X3262Y3262D01*
X2428Y4277D01*
X1809Y5436D01*
X1428Y6693D01*
X1321Y7777D01*
X1323Y7787D01*
Y385365D01*
X1354Y385857D01*
X1354D01*
X1354Y385857D01*
X1471Y387040D01*
X1843Y388267D01*
X2447Y389398D01*
X3261Y390389D01*
X4252Y391202D01*
X5383Y391807D01*
X6610Y392179D01*
X7792Y392296D01*
X7792Y392296D01*
X8290Y392298D01*
X582688D01*
X582801Y392320D01*
X583969Y392205D01*
D02*
G37*
%LPC*%
G36*
X96957Y380039D02*
Y377075D01*
X99921D01*
X99867Y377488D01*
X99514Y378340D01*
X98953Y379071D01*
X98222Y379632D01*
X97370Y379985D01*
X96957Y380039D01*
D02*
G37*
G36*
X95957D02*
X95543Y379985D01*
X94692Y379632D01*
X93961Y379071D01*
X93400Y378340D01*
X93047Y377488D01*
X92992Y377075D01*
X95957D01*
Y380039D01*
D02*
G37*
G36*
X99921Y376075D02*
X96957D01*
Y373110D01*
X97370Y373165D01*
X98222Y373518D01*
X98953Y374079D01*
X99514Y374810D01*
X99867Y375661D01*
X99921Y376075D01*
D02*
G37*
G36*
X95957D02*
X92992D01*
X93047Y375661D01*
X93400Y374810D01*
X93961Y374079D01*
X94692Y373518D01*
X95543Y373165D01*
X95957Y373110D01*
Y376075D01*
D02*
G37*
G36*
X574815Y384888D02*
X573464Y384755D01*
X572166Y384361D01*
X570969Y383721D01*
X569920Y382860D01*
X569059Y381811D01*
X568419Y380614D01*
X568025Y379315D01*
X567892Y377965D01*
X568025Y376614D01*
X568419Y375315D01*
X569059Y374118D01*
X569920Y373069D01*
X570969Y372208D01*
X572166Y371568D01*
X573464Y371175D01*
X574815Y371041D01*
X576166Y371175D01*
X577464Y371568D01*
X578661Y372208D01*
X579710Y373069D01*
X580571Y374118D01*
X581211Y375315D01*
X581605Y376614D01*
X581738Y377965D01*
X581605Y379315D01*
X581211Y380614D01*
X580571Y381811D01*
X579710Y382860D01*
X578661Y383721D01*
X577464Y384361D01*
X576166Y384755D01*
X574815Y384888D01*
D02*
G37*
G36*
X15760D02*
X14409Y384755D01*
X13110Y384361D01*
X11913Y383721D01*
X10864Y382860D01*
X10003Y381811D01*
X9364Y380614D01*
X8970Y379315D01*
X8837Y377965D01*
X8970Y376614D01*
X9364Y375315D01*
X10003Y374118D01*
X10864Y373069D01*
X11913Y372208D01*
X13110Y371568D01*
X14409Y371175D01*
X15760Y371041D01*
X17110Y371175D01*
X18409Y371568D01*
X19606Y372208D01*
X20655Y373069D01*
X21516Y374118D01*
X22156Y375315D01*
X22550Y376614D01*
X22683Y377965D01*
X22550Y379315D01*
X22156Y380614D01*
X21516Y381811D01*
X20655Y382860D01*
X19606Y383721D01*
X18409Y384361D01*
X17110Y384755D01*
X15760Y384888D01*
D02*
G37*
G36*
X322154Y372598D02*
Y368020D01*
X326732D01*
X326622Y368851D01*
X326108Y370092D01*
X325291Y371157D01*
X324226Y371975D01*
X322985Y372488D01*
X322154Y372598D01*
D02*
G37*
G36*
X321154D02*
X320322Y372488D01*
X319082Y371975D01*
X318016Y371157D01*
X317199Y370092D01*
X316685Y368851D01*
X316575Y368020D01*
X321154D01*
Y372598D01*
D02*
G37*
G36*
X231406Y367906D02*
Y364942D01*
X234370D01*
X234315Y365355D01*
X233963Y366207D01*
X233402Y366938D01*
X232671Y367499D01*
X231819Y367852D01*
X231406Y367906D01*
D02*
G37*
G36*
X230406D02*
X229992Y367852D01*
X229140Y367499D01*
X228409Y366938D01*
X227848Y366207D01*
X227496Y365355D01*
X227441Y364942D01*
X230406D01*
Y367906D01*
D02*
G37*
G36*
X490551Y370898D02*
X489575Y370770D01*
X488665Y370393D01*
X488547Y370303D01*
X413026D01*
X412204Y370195D01*
X411438Y369877D01*
X410780Y369372D01*
X355628Y314220D01*
X355123Y313562D01*
X354805Y312796D01*
X354697Y311974D01*
Y284584D01*
X323333Y253219D01*
X322765Y253144D01*
X321784Y252737D01*
X320941Y252091D01*
X320294Y251248D01*
X319887Y250266D01*
X319749Y249213D01*
X319887Y248159D01*
X320294Y247178D01*
X320941Y246335D01*
X321784Y245688D01*
X322765Y245281D01*
X323333Y245206D01*
X355091Y213448D01*
Y198954D01*
X324120Y167983D01*
X323553Y167908D01*
X322571Y167501D01*
X321728Y166855D01*
X321081Y166012D01*
X320675Y165030D01*
X320536Y163976D01*
X320675Y162923D01*
X321081Y161941D01*
X321728Y161098D01*
X322571Y160451D01*
X323553Y160045D01*
X324120Y159970D01*
X353122Y130968D01*
Y101513D01*
X322742Y71132D01*
X322175Y71057D01*
X321193Y70651D01*
X320350Y70004D01*
X319703Y69161D01*
X319297Y68179D01*
X319158Y67126D01*
X319297Y66072D01*
X319703Y65091D01*
X320350Y64248D01*
X321193Y63601D01*
X322175Y63194D01*
X323228Y63056D01*
X324282Y63194D01*
X325264Y63601D01*
X326106Y64248D01*
X326753Y65091D01*
X327160Y66072D01*
X327235Y66640D01*
X358545Y97951D01*
X359050Y98608D01*
X359368Y99375D01*
X359476Y100197D01*
Y132283D01*
X359368Y133106D01*
X359050Y133872D01*
X358545Y134530D01*
X329099Y163976D01*
X360514Y195391D01*
X361019Y196049D01*
X361336Y196816D01*
X361444Y197638D01*
Y214764D01*
X361336Y215586D01*
X361019Y216352D01*
X360514Y217010D01*
X328311Y249213D01*
X360120Y281021D01*
X360625Y281679D01*
X360943Y282446D01*
X361051Y283268D01*
Y310658D01*
X414342Y363949D01*
X488547D01*
X488665Y363859D01*
X489575Y363482D01*
X490551Y363354D01*
X491528Y363482D01*
X492437Y363859D01*
X493219Y364458D01*
X493818Y365240D01*
X494195Y366150D01*
X494324Y367126D01*
X494195Y368102D01*
X493818Y369012D01*
X493219Y369794D01*
X492437Y370393D01*
X491528Y370770D01*
X490551Y370898D01*
D02*
G37*
G36*
X376772Y372449D02*
X375496Y372281D01*
X374307Y371789D01*
X373286Y371006D01*
X372502Y369985D01*
X372010Y368796D01*
X371842Y367520D01*
X372010Y366244D01*
X372502Y365055D01*
X373286Y364034D01*
X374307Y363251D01*
X375496Y362758D01*
X376772Y362590D01*
X378047Y362758D01*
X379236Y363251D01*
X380257Y364034D01*
X381041Y365055D01*
X381533Y366244D01*
X381701Y367520D01*
X381533Y368796D01*
X381041Y369985D01*
X380257Y371006D01*
X379236Y371789D01*
X378047Y372281D01*
X376772Y372449D01*
D02*
G37*
G36*
X326732Y367020D02*
X322154D01*
Y362442D01*
X322985Y362551D01*
X324226Y363065D01*
X325291Y363882D01*
X326108Y364948D01*
X326622Y366188D01*
X326732Y367020D01*
D02*
G37*
G36*
X321154D02*
X316575D01*
X316685Y366188D01*
X317199Y364948D01*
X318016Y363882D01*
X319082Y363065D01*
X320322Y362551D01*
X321154Y362442D01*
Y367020D01*
D02*
G37*
G36*
X59677Y364948D02*
X58177D01*
Y361917D01*
X63142D01*
X63087Y362331D01*
X62734Y363182D01*
X62173Y363914D01*
X61442Y364475D01*
X60591Y364827D01*
X59677Y364948D01*
D02*
G37*
G36*
X57177D02*
X55677D01*
X54764Y364827D01*
X53912Y364475D01*
X53181Y363914D01*
X52620Y363182D01*
X52267Y362331D01*
X52213Y361917D01*
X57177D01*
Y364948D01*
D02*
G37*
G36*
X234370Y363942D02*
X231406D01*
Y360977D01*
X231819Y361032D01*
X232671Y361385D01*
X233402Y361946D01*
X233963Y362677D01*
X234315Y363528D01*
X234370Y363942D01*
D02*
G37*
G36*
X230406D02*
X227441D01*
X227496Y363528D01*
X227848Y362677D01*
X228409Y361946D01*
X229140Y361385D01*
X229992Y361032D01*
X230406Y360977D01*
Y363942D01*
D02*
G37*
G36*
X268606Y362767D02*
Y359942D01*
X271431D01*
X271381Y360319D01*
X271042Y361137D01*
X270503Y361840D01*
X269801Y362379D01*
X268983Y362718D01*
X268606Y362767D01*
D02*
G37*
G36*
X247806D02*
Y359942D01*
X250631D01*
X250581Y360319D01*
X250242Y361137D01*
X249704Y361840D01*
X249001Y362379D01*
X248183Y362718D01*
X247806Y362767D01*
D02*
G37*
G36*
X267606D02*
X267228Y362718D01*
X266410Y362379D01*
X265708Y361840D01*
X265169Y361137D01*
X264830Y360319D01*
X264780Y359942D01*
X267606D01*
Y362767D01*
D02*
G37*
G36*
X246806D02*
X246428Y362718D01*
X245610Y362379D01*
X244908Y361840D01*
X244369Y361137D01*
X244030Y360319D01*
X243980Y359942D01*
X246806D01*
Y362767D01*
D02*
G37*
G36*
X63142Y360917D02*
X58177D01*
Y357887D01*
X59677D01*
X60591Y358008D01*
X61442Y358360D01*
X62173Y358921D01*
X62734Y359652D01*
X63087Y360504D01*
X63142Y360917D01*
D02*
G37*
G36*
X57177D02*
X52213D01*
X52267Y360504D01*
X52620Y359652D01*
X53181Y358921D01*
X53912Y358360D01*
X54764Y358008D01*
X55677Y357887D01*
X57177D01*
Y360917D01*
D02*
G37*
G36*
X271431Y358942D02*
X268606D01*
Y356116D01*
X268983Y356166D01*
X269801Y356505D01*
X270503Y357044D01*
X271042Y357746D01*
X271381Y358564D01*
X271431Y358942D01*
D02*
G37*
G36*
X250631D02*
X247806D01*
Y356116D01*
X248183Y356166D01*
X249001Y356505D01*
X249704Y357044D01*
X250242Y357746D01*
X250581Y358564D01*
X250631Y358942D01*
D02*
G37*
G36*
X267606D02*
X264780D01*
X264830Y358564D01*
X265169Y357746D01*
X265708Y357044D01*
X266410Y356505D01*
X267228Y356166D01*
X267606Y356116D01*
Y358942D01*
D02*
G37*
G36*
X246806D02*
X243980D01*
X244030Y358564D01*
X244369Y357746D01*
X244908Y357044D01*
X245610Y356505D01*
X246428Y356166D01*
X246806Y356116D01*
Y358942D01*
D02*
G37*
G36*
X48177Y353102D02*
Y352275D01*
X48608Y352409D01*
X49073Y352594D01*
X49355Y352731D01*
X48591Y353048D01*
X48177Y353102D01*
D02*
G37*
G36*
Y349474D02*
Y348138D01*
X48682D01*
X48177Y349474D01*
D02*
G37*
G36*
X47177Y353102D02*
X46764Y353048D01*
X45912Y352695D01*
X45181Y352134D01*
X44620Y351403D01*
X44267Y350552D01*
X44147Y349638D01*
Y348138D01*
X45386D01*
X45357Y348309D01*
X45189Y348668D01*
X45531Y348138D01*
X47177D01*
Y353102D01*
D02*
G37*
G36*
Y347138D02*
X46176D01*
X47177Y345586D01*
Y347138D01*
D02*
G37*
G36*
X45309D02*
X44147D01*
Y345638D01*
X44211Y345154D01*
X44276Y345232D01*
X44704Y345855D01*
X45034Y346433D01*
X45264Y346968D01*
X45309Y347138D01*
D02*
G37*
G36*
X51207D02*
X50924D01*
X50709Y346669D01*
X50211Y345377D01*
X49987Y344681D01*
X49059Y347138D01*
X48177D01*
Y344036D01*
X48634Y343328D01*
X48485Y343264D01*
X48294Y343148D01*
X48177Y343065D01*
Y342173D01*
X48591Y342228D01*
X49442Y342581D01*
X50173Y343142D01*
X50734Y343873D01*
X51087Y344724D01*
X51207Y345638D01*
Y347138D01*
D02*
G37*
G36*
X47177Y342228D02*
X47143Y342196D01*
X47126Y342180D01*
X47177Y342173D01*
Y342228D01*
D02*
G37*
G36*
X452874Y340789D02*
X451641Y340626D01*
X450491Y340150D01*
X449505Y339393D01*
X448747Y338406D01*
X448271Y337257D01*
X448109Y336024D01*
X448271Y334790D01*
X448747Y333641D01*
X449505Y332654D01*
X450491Y331897D01*
X451641Y331421D01*
X452874Y331258D01*
X454107Y331421D01*
X455257Y331897D01*
X456244Y332654D01*
X457001Y333641D01*
X457477Y334790D01*
X457639Y336024D01*
X457477Y337257D01*
X457001Y338406D01*
X456244Y339393D01*
X455257Y340150D01*
X454107Y340626D01*
X452874Y340789D01*
D02*
G37*
G36*
X523425Y338788D02*
X522149Y338620D01*
X520960Y338127D01*
X519940Y337344D01*
X519889Y337278D01*
X519880Y337274D01*
X519771Y337231D01*
X519605Y337183D01*
X519387Y337138D01*
X519135Y337101D01*
X518146Y337035D01*
X486258D01*
X485436Y336927D01*
X484670Y336609D01*
X484012Y336104D01*
X399525Y251618D01*
X399021Y250960D01*
X398703Y250194D01*
X398595Y249372D01*
Y221787D01*
X398569Y221724D01*
X398456Y220866D01*
X398569Y220008D01*
X398900Y219208D01*
X399427Y218521D01*
X400114Y217994D01*
X400914Y217663D01*
X401772Y217550D01*
X402630Y217663D01*
X403430Y217994D01*
X404116Y218521D01*
X404643Y219208D01*
X404975Y220008D01*
X405088Y220866D01*
X404975Y221724D01*
X404948Y221787D01*
Y248056D01*
X487574Y330681D01*
X518113D01*
X518450Y330674D01*
X519128Y330617D01*
X519387Y330578D01*
X519605Y330533D01*
X519771Y330486D01*
X519880Y330443D01*
X519889Y330438D01*
X519940Y330373D01*
X520960Y329589D01*
X522149Y329097D01*
X523425Y328929D01*
X524701Y329097D01*
X525890Y329589D01*
X526911Y330373D01*
X527694Y331393D01*
X528187Y332582D01*
X528355Y333858D01*
X528187Y335134D01*
X527694Y336323D01*
X526911Y337344D01*
X525890Y338127D01*
X524701Y338620D01*
X523425Y338788D01*
D02*
G37*
G36*
X472244D02*
X470968Y338620D01*
X469779Y338127D01*
X468758Y337344D01*
X467975Y336323D01*
X467482Y335134D01*
X467314Y333858D01*
X467482Y332582D01*
X467975Y331393D01*
X468758Y330373D01*
X469779Y329589D01*
X470968Y329097D01*
X472244Y328929D01*
X473520Y329097D01*
X474709Y329589D01*
X475730Y330373D01*
X476513Y331393D01*
X477006Y332582D01*
X477174Y333858D01*
X477006Y335134D01*
X476513Y336323D01*
X475730Y337344D01*
X474709Y338127D01*
X473520Y338620D01*
X472244Y338788D01*
D02*
G37*
G36*
X268106Y332619D02*
X267283Y332510D01*
X266517Y332193D01*
X265859Y331688D01*
X265354Y331030D01*
X265037Y330264D01*
X264929Y329442D01*
X265037Y328620D01*
X265354Y327853D01*
X265859Y327196D01*
X266517Y326691D01*
X267283Y326373D01*
X268106Y326265D01*
X268928Y326373D01*
X269694Y326691D01*
X270352Y327196D01*
X270857Y327853D01*
X271174Y328620D01*
X271282Y329442D01*
X271174Y330264D01*
X270857Y331030D01*
X270352Y331688D01*
X269694Y332193D01*
X268928Y332510D01*
X268106Y332619D01*
D02*
G37*
G36*
X247306D02*
X246483Y332510D01*
X245717Y332193D01*
X245059Y331688D01*
X244554Y331030D01*
X244237Y330264D01*
X244129Y329442D01*
X244237Y328620D01*
X244554Y327853D01*
X245059Y327196D01*
X245717Y326691D01*
X246483Y326373D01*
X247306Y326265D01*
X248128Y326373D01*
X248894Y326691D01*
X249552Y327196D01*
X250057Y327853D01*
X250374Y328620D01*
X250482Y329442D01*
X250374Y330264D01*
X250057Y331030D01*
X249552Y331688D01*
X248894Y332193D01*
X248128Y332510D01*
X247306Y332619D01*
D02*
G37*
G36*
X88945Y325732D02*
X88927Y325728D01*
X88908D01*
X88894Y325730D01*
X88887Y325728D01*
X83169D01*
Y320010D01*
X83167Y320003D01*
X83169Y319989D01*
Y319970D01*
X83166Y319953D01*
X83169Y319936D01*
Y319153D01*
X83911D01*
X83918Y319151D01*
X84315Y319127D01*
X84682Y319060D01*
X85071Y318944D01*
X85483Y318776D01*
X85917Y318555D01*
X86373Y318278D01*
X86839Y317951D01*
X87858Y317099D01*
X88086Y316880D01*
X138940Y266027D01*
X139515Y265585D01*
X140186Y265307D01*
X140905Y265212D01*
X155686D01*
X156353Y265197D01*
X156533Y265183D01*
X157130Y264725D01*
X158039Y264348D01*
X159016Y264220D01*
X159992Y264348D01*
X160902Y264725D01*
X161683Y265325D01*
X162283Y266106D01*
X162660Y267016D01*
X162788Y267992D01*
X162660Y268969D01*
X162283Y269878D01*
X161683Y270660D01*
X160902Y271259D01*
X159992Y271636D01*
X159016Y271765D01*
X158039Y271636D01*
X157130Y271259D01*
X156592Y270846D01*
X155180Y270772D01*
X142057D01*
X92173Y320655D01*
X91337Y321564D01*
X90952Y322050D01*
X90619Y322525D01*
X90342Y322980D01*
X90121Y323414D01*
X89954Y323826D01*
X89838Y324216D01*
X89771Y324582D01*
X89746Y324979D01*
X89744Y324986D01*
Y325728D01*
X88962D01*
X88945Y325732D01*
D02*
G37*
G36*
X416417Y340748D02*
X406968D01*
Y331299D01*
X408862D01*
X409021Y331282D01*
X409071Y331265D01*
X409116Y331235D01*
X409176Y331170D01*
X409252Y331046D01*
X409332Y330849D01*
X409405Y330577D01*
X409463Y330233D01*
X409485Y329981D01*
Y329970D01*
X401526Y322010D01*
X401327Y321848D01*
X401214Y321768D01*
X401114Y321707D01*
X401039Y321669D01*
X401012Y321659D01*
X400984Y321662D01*
X400126Y321549D01*
X399326Y321218D01*
X398640Y320691D01*
X398113Y320004D01*
X397781Y319205D01*
X397668Y318346D01*
X397781Y317488D01*
X398113Y316688D01*
X398640Y316002D01*
X399326Y315475D01*
X400126Y315144D01*
X400984Y315031D01*
X401842Y315144D01*
X402642Y315475D01*
X403329Y316002D01*
X403856Y316688D01*
X404187Y317488D01*
X404300Y318346D01*
X404296Y318374D01*
X404307Y318401D01*
X404345Y318476D01*
X404406Y318576D01*
X404481Y318683D01*
X404701Y318941D01*
X413254Y327494D01*
X413732Y328210D01*
X413901Y329055D01*
Y329981D01*
X413923Y330233D01*
X413980Y330577D01*
X414053Y330849D01*
X414134Y331046D01*
X414210Y331170D01*
X414270Y331235D01*
X414315Y331265D01*
X414365Y331282D01*
X414523Y331299D01*
X416417D01*
Y340748D01*
D02*
G37*
G36*
X59677Y341233D02*
X55677D01*
X54819Y341120D01*
X54019Y340789D01*
X53333Y340262D01*
X52806Y339575D01*
X52474Y338776D01*
X52361Y337917D01*
X52474Y337059D01*
X52806Y336260D01*
X53333Y335573D01*
X54019Y335046D01*
X54819Y334715D01*
X55102Y334677D01*
X55150Y334624D01*
X55230Y334485D01*
X55313Y334270D01*
X55388Y333976D01*
X55447Y333608D01*
X55469Y333336D01*
Y328526D01*
X55457Y328347D01*
X55411Y327988D01*
X55351Y327700D01*
X55283Y327488D01*
X55220Y327355D01*
X55186Y327308D01*
X55149Y327303D01*
X54429D01*
Y326521D01*
X54426Y326504D01*
X54429Y326487D01*
Y320728D01*
X61004D01*
Y326487D01*
X61007Y326504D01*
X61004Y326521D01*
Y327303D01*
X60282D01*
X60202Y327313D01*
X60194Y327319D01*
X60150Y327377D01*
X60084Y327506D01*
X60013Y327714D01*
X59952Y327984D01*
X59885Y328629D01*
Y333336D01*
X59908Y333608D01*
X59966Y333976D01*
X60041Y334270D01*
X60125Y334485D01*
X60205Y334624D01*
X60252Y334677D01*
X60535Y334715D01*
X61335Y335046D01*
X62022Y335573D01*
X62549Y336260D01*
X62880Y337059D01*
X62993Y337917D01*
X62880Y338776D01*
X62549Y339575D01*
X62022Y340262D01*
X61335Y340789D01*
X60535Y341120D01*
X59677Y341233D01*
D02*
G37*
G36*
X67717Y327332D02*
X66858Y327219D01*
X66059Y326887D01*
X65372Y326360D01*
X64845Y325674D01*
X64514Y324874D01*
X64401Y324016D01*
X64514Y323158D01*
X64845Y322358D01*
X65372Y321671D01*
X66059Y321144D01*
X66858Y320813D01*
X67717Y320700D01*
X68575Y320813D01*
X69375Y321144D01*
X70061Y321671D01*
X70588Y322358D01*
X70919Y323158D01*
X71032Y324016D01*
X70919Y324874D01*
X70588Y325674D01*
X70061Y326360D01*
X69375Y326887D01*
X68575Y327219D01*
X67717Y327332D01*
D02*
G37*
G36*
X47717D02*
X46858Y327219D01*
X46059Y326887D01*
X45372Y326360D01*
X44845Y325674D01*
X44514Y324874D01*
X44401Y324016D01*
X44514Y323158D01*
X44845Y322358D01*
X45372Y321671D01*
X46059Y321144D01*
X46858Y320813D01*
X47717Y320700D01*
X48575Y320813D01*
X49374Y321144D01*
X50061Y321671D01*
X50588Y322358D01*
X50919Y323158D01*
X51032Y324016D01*
X50919Y324874D01*
X50588Y325674D01*
X50061Y326360D01*
X49374Y326887D01*
X48575Y327219D01*
X47717Y327332D01*
D02*
G37*
G36*
X96457Y339891D02*
X95599Y339778D01*
X94799Y339446D01*
X94112Y338919D01*
X93585Y338233D01*
X93254Y337433D01*
X93141Y336575D01*
X93254Y335717D01*
X93585Y334917D01*
X94112Y334230D01*
X94134Y334213D01*
X94146Y334187D01*
X94172Y334107D01*
X94199Y333993D01*
X94222Y333865D01*
X94249Y333526D01*
X94249Y325414D01*
X94223Y325159D01*
X94199Y325023D01*
X94172Y324909D01*
X94146Y324829D01*
X94134Y324802D01*
X94112Y324785D01*
X93585Y324099D01*
X93254Y323299D01*
X93141Y322441D01*
X93254Y321583D01*
X93585Y320783D01*
X94112Y320096D01*
X94799Y319569D01*
X95598Y319238D01*
X96457Y319125D01*
X97315Y319238D01*
X98115Y319569D01*
X98801Y320096D01*
X99328Y320783D01*
X99659Y321583D01*
X99772Y322441D01*
X99659Y323299D01*
X99328Y324099D01*
X98801Y324785D01*
X98779Y324802D01*
X98768Y324829D01*
X98742Y324909D01*
X98714Y325022D01*
X98691Y325151D01*
X98664Y325490D01*
X98665Y333601D01*
X98690Y333857D01*
X98714Y333993D01*
X98742Y334107D01*
X98768Y334187D01*
X98780Y334213D01*
X98801Y334230D01*
X99328Y334917D01*
X99660Y335717D01*
X99773Y336575D01*
X99660Y337433D01*
X99328Y338233D01*
X98801Y338919D01*
X98115Y339446D01*
X97315Y339778D01*
X96457Y339891D01*
D02*
G37*
G36*
X321654Y321268D02*
X320378Y321100D01*
X319189Y320608D01*
X318168Y319824D01*
X317385Y318803D01*
X316892Y317615D01*
X316724Y316339D01*
X316892Y315063D01*
X317385Y313874D01*
X318168Y312853D01*
X319189Y312070D01*
X320378Y311577D01*
X321654Y311409D01*
X322930Y311577D01*
X324118Y312070D01*
X325139Y312853D01*
X325923Y313874D01*
X326415Y315063D01*
X326583Y316339D01*
X326415Y317615D01*
X325923Y318803D01*
X325139Y319824D01*
X324118Y320608D01*
X322930Y321100D01*
X321654Y321268D01*
D02*
G37*
G36*
X420866Y311681D02*
X420044Y311572D01*
X419278Y311255D01*
X418620Y310750D01*
X418115Y310092D01*
X417798Y309326D01*
X417689Y308504D01*
X417798Y307682D01*
X418115Y306915D01*
X418620Y306258D01*
X419278Y305753D01*
X420044Y305435D01*
X420866Y305327D01*
X421688Y305435D01*
X422455Y305753D01*
X423112Y306258D01*
X423617Y306915D01*
X423935Y307682D01*
X424043Y308504D01*
X423935Y309326D01*
X423617Y310092D01*
X423112Y310750D01*
X422455Y311255D01*
X421688Y311572D01*
X420866Y311681D01*
D02*
G37*
G36*
X445079Y311287D02*
X444257Y311178D01*
X443490Y310861D01*
X442833Y310356D01*
X442328Y309698D01*
X442010Y308932D01*
X441902Y308110D01*
X442010Y307288D01*
X442328Y306522D01*
X442833Y305864D01*
X443490Y305359D01*
X444257Y305042D01*
X445079Y304933D01*
X445901Y305042D01*
X446667Y305359D01*
X447325Y305864D01*
X447830Y306522D01*
X448147Y307288D01*
X448256Y308110D01*
X448147Y308932D01*
X447830Y309698D01*
X447325Y310356D01*
X446667Y310861D01*
X445901Y311178D01*
X445079Y311287D01*
D02*
G37*
G36*
X230906Y327758D02*
X230047Y327645D01*
X229248Y327313D01*
X228561Y326786D01*
X228034Y326100D01*
X227703Y325300D01*
X227590Y324442D01*
X227703Y323584D01*
X228034Y322784D01*
X228561Y322097D01*
X228583Y322080D01*
X228595Y322054D01*
X228621Y321974D01*
X228648Y321860D01*
X228671Y321732D01*
X228698Y321392D01*
Y312733D01*
X228676Y312479D01*
X228618Y312133D01*
X228545Y311859D01*
X228464Y311661D01*
X228387Y311535D01*
X228327Y311470D01*
X228283Y311440D01*
X228233Y311422D01*
X228188Y311418D01*
X226063D01*
Y301969D01*
X235512D01*
Y311418D01*
X233623D01*
X233578Y311422D01*
X233528Y311440D01*
X233484Y311470D01*
X233424Y311535D01*
X233347Y311661D01*
X233266Y311859D01*
X233193Y312133D01*
X233136Y312479D01*
X233113Y312733D01*
Y321468D01*
X233139Y321724D01*
X233163Y321860D01*
X233190Y321974D01*
X233217Y322054D01*
X233228Y322080D01*
X233250Y322097D01*
X233777Y322784D01*
X234108Y323584D01*
X234221Y324442D01*
X234108Y325300D01*
X233777Y326100D01*
X233250Y326786D01*
X232563Y327313D01*
X231764Y327645D01*
X230906Y327758D01*
D02*
G37*
G36*
X271969Y311458D02*
X270735Y311296D01*
X269586Y310820D01*
X268599Y310063D01*
X267842Y309076D01*
X267366Y307927D01*
X267204Y306693D01*
X267366Y305460D01*
X267842Y304311D01*
X268599Y303324D01*
X269586Y302566D01*
X270735Y302090D01*
X271969Y301928D01*
X273202Y302090D01*
X274351Y302566D01*
X275338Y303324D01*
X276096Y304311D01*
X276572Y305460D01*
X276734Y306693D01*
X276572Y307927D01*
X276096Y309076D01*
X275338Y310063D01*
X274351Y310820D01*
X273202Y311296D01*
X271969Y311458D01*
D02*
G37*
G36*
X67717Y307332D02*
X66858Y307219D01*
X66059Y306887D01*
X65372Y306360D01*
X64845Y305674D01*
X64514Y304874D01*
X64401Y304016D01*
X64514Y303158D01*
X64845Y302358D01*
X65372Y301671D01*
X66059Y301144D01*
X66858Y300813D01*
X67717Y300700D01*
X68575Y300813D01*
X69375Y301144D01*
X70061Y301671D01*
X70588Y302358D01*
X70919Y303158D01*
X71032Y304016D01*
X70919Y304874D01*
X70588Y305674D01*
X70061Y306360D01*
X69375Y306887D01*
X68575Y307219D01*
X67717Y307332D01*
D02*
G37*
G36*
X57717D02*
X56858Y307219D01*
X56059Y306887D01*
X55372Y306360D01*
X54845Y305674D01*
X54514Y304874D01*
X54401Y304016D01*
X54514Y303158D01*
X54845Y302358D01*
X55372Y301671D01*
X56059Y301144D01*
X56858Y300813D01*
X57717Y300700D01*
X58575Y300813D01*
X59374Y301144D01*
X60061Y301671D01*
X60588Y302358D01*
X60919Y303158D01*
X61032Y304016D01*
X60919Y304874D01*
X60588Y305674D01*
X60061Y306360D01*
X59374Y306887D01*
X58575Y307219D01*
X57717Y307332D01*
D02*
G37*
G36*
X47717D02*
X46858Y307219D01*
X46059Y306887D01*
X45372Y306360D01*
X44845Y305674D01*
X44514Y304874D01*
X44401Y304016D01*
X44514Y303158D01*
X44845Y302358D01*
X45372Y301671D01*
X46059Y301144D01*
X46858Y300813D01*
X47717Y300700D01*
X48575Y300813D01*
X49374Y301144D01*
X50061Y301671D01*
X50588Y302358D01*
X50919Y303158D01*
X51032Y304016D01*
X50919Y304874D01*
X50588Y305674D01*
X50061Y306360D01*
X49374Y306887D01*
X48575Y307219D01*
X47717Y307332D01*
D02*
G37*
G36*
X510551Y370898D02*
X509575Y370770D01*
X508665Y370393D01*
X507884Y369794D01*
X507284Y369012D01*
X506907Y368102D01*
X506779Y367126D01*
X506907Y366150D01*
X507284Y365240D01*
X507884Y364458D01*
X508665Y363859D01*
X509575Y363482D01*
X509722Y363463D01*
X541115Y332070D01*
Y323150D01*
X541223Y322327D01*
X541540Y321561D01*
X542045Y320903D01*
X545901Y317047D01*
X541954Y313100D01*
X541449Y312442D01*
X541131Y311676D01*
X541023Y310853D01*
Y199225D01*
X541131Y198403D01*
X541449Y197637D01*
X541954Y196979D01*
X545901Y193032D01*
X541954Y189084D01*
X541449Y188426D01*
X541131Y187660D01*
X541023Y186838D01*
Y75210D01*
X541131Y74387D01*
X541449Y73621D01*
X541954Y72963D01*
X546731Y68186D01*
X546750Y68039D01*
X547127Y67130D01*
X547726Y66348D01*
X548508Y65749D01*
X549417Y65372D01*
X550394Y65243D01*
X551370Y65372D01*
X552280Y65749D01*
X553061Y66348D01*
X553661Y67130D01*
X554038Y68039D01*
X554166Y69016D01*
X554038Y69992D01*
X553661Y70902D01*
X553061Y71683D01*
X552280Y72283D01*
X551370Y72660D01*
X551223Y72679D01*
X547377Y76525D01*
Y170046D01*
X547877Y170249D01*
X548508Y169765D01*
X549417Y169388D01*
X550394Y169259D01*
X551370Y169388D01*
X552280Y169765D01*
X553061Y170364D01*
X553661Y171145D01*
X554038Y172055D01*
X554166Y173032D01*
X554038Y174008D01*
X553661Y174918D01*
X553061Y175699D01*
X552280Y176299D01*
X551370Y176675D01*
X550394Y176804D01*
X549417Y176675D01*
X548508Y176299D01*
X547877Y175815D01*
X547377Y176018D01*
Y185522D01*
X551223Y189368D01*
X551370Y189388D01*
X552280Y189765D01*
X553061Y190364D01*
X553661Y191145D01*
X554038Y192055D01*
X554166Y193032D01*
X554038Y194008D01*
X553661Y194918D01*
X553061Y195699D01*
X552280Y196299D01*
X551370Y196676D01*
X551223Y196695D01*
X547377Y200541D01*
Y294061D01*
X547877Y294264D01*
X548508Y293780D01*
X549417Y293403D01*
X550394Y293275D01*
X551370Y293403D01*
X552280Y293780D01*
X553061Y294380D01*
X553661Y295161D01*
X554038Y296071D01*
X554166Y297047D01*
X554038Y298024D01*
X553661Y298933D01*
X553061Y299715D01*
X552280Y300314D01*
X551370Y300691D01*
X550394Y300820D01*
X549417Y300691D01*
X548508Y300314D01*
X547877Y299830D01*
X547377Y300033D01*
Y309538D01*
X551223Y313384D01*
X551370Y313403D01*
X552280Y313780D01*
X553061Y314380D01*
X553661Y315161D01*
X554038Y316071D01*
X554166Y317047D01*
X554038Y318024D01*
X553661Y318933D01*
X553061Y319715D01*
X552280Y320314D01*
X551370Y320691D01*
X551223Y320710D01*
X547468Y324465D01*
Y333386D01*
X547360Y334208D01*
X547043Y334974D01*
X546538Y335632D01*
X514214Y367955D01*
X514195Y368102D01*
X513818Y369012D01*
X513219Y369794D01*
X512437Y370393D01*
X511528Y370770D01*
X510551Y370898D01*
D02*
G37*
G36*
X244488Y291505D02*
X243630Y291392D01*
X242830Y291061D01*
X242144Y290534D01*
X241617Y289847D01*
X241286Y289047D01*
X241173Y288189D01*
X241176Y288162D01*
X241166Y288135D01*
X241128Y288060D01*
X241067Y287960D01*
X240992Y287853D01*
X240771Y287594D01*
X223832Y270655D01*
X223354Y269939D01*
X223186Y269094D01*
Y267541D01*
X223160Y267285D01*
X223136Y267148D01*
X223109Y267035D01*
X223083Y266955D01*
X223071Y266928D01*
X223049Y266911D01*
X222522Y266225D01*
X222191Y265425D01*
X222078Y264567D01*
X222191Y263709D01*
X222522Y262909D01*
X223049Y262222D01*
X223736Y261695D01*
X224535Y261364D01*
X225394Y261251D01*
X226252Y261364D01*
X227051Y261695D01*
X227738Y262222D01*
X228265Y262909D01*
X228596Y263709D01*
X228709Y264567D01*
X228596Y265425D01*
X228265Y266225D01*
X227738Y266911D01*
X227716Y266928D01*
X227705Y266955D01*
X227678Y267035D01*
X227651Y267148D01*
X227628Y267277D01*
X227601Y267616D01*
Y268180D01*
X243947Y284525D01*
X244146Y284688D01*
X244259Y284768D01*
X244359Y284828D01*
X244434Y284866D01*
X244461Y284877D01*
X244488Y284873D01*
X245347Y284986D01*
X246146Y285318D01*
X246833Y285845D01*
X247360Y286531D01*
X247691Y287331D01*
X247804Y288189D01*
X247691Y289047D01*
X247360Y289847D01*
X246833Y290534D01*
X246146Y291061D01*
X245347Y291392D01*
X244488Y291505D01*
D02*
G37*
G36*
X204488D02*
X203630Y291392D01*
X202831Y291061D01*
X202144Y290534D01*
X201617Y289847D01*
X201286Y289047D01*
X201173Y288189D01*
X201286Y287331D01*
X201617Y286531D01*
X202144Y285845D01*
X202831Y285318D01*
X203630Y284986D01*
X204488Y284873D01*
X205347Y284986D01*
X206146Y285318D01*
X206833Y285845D01*
X207360Y286531D01*
X207691Y287331D01*
X207804Y288189D01*
X207691Y289047D01*
X207360Y289847D01*
X206833Y290534D01*
X206146Y291061D01*
X205347Y291392D01*
X204488Y291505D01*
D02*
G37*
G36*
X99708Y350080D02*
X91900D01*
X91181Y349985D01*
X90510Y349707D01*
X89934Y349266D01*
X76578Y335909D01*
X76136Y335333D01*
X75858Y334663D01*
X75763Y333943D01*
Y227480D01*
Y206914D01*
X75746Y206467D01*
X75696Y206113D01*
X75438Y205921D01*
X75120Y205875D01*
X74835Y206089D01*
X74506Y206393D01*
X69027Y211872D01*
X68710Y212202D01*
X68547Y212392D01*
X68880Y213197D01*
X69009Y214173D01*
X68880Y215150D01*
X68503Y216059D01*
X67904Y216841D01*
X67122Y217440D01*
X66213Y217817D01*
X65236Y217946D01*
X64260Y217817D01*
X63350Y217440D01*
X62569Y216841D01*
X61969Y216059D01*
X61592Y215150D01*
X61464Y214173D01*
X61592Y213197D01*
X61969Y212287D01*
X62469Y211635D01*
X62551Y211013D01*
X62829Y210342D01*
X63271Y209767D01*
X73371Y199666D01*
X73712Y199300D01*
X74147Y198757D01*
X74528Y198195D01*
X74858Y197614D01*
X75136Y197014D01*
X75364Y196393D01*
X75504Y195884D01*
X75424Y195276D01*
X75537Y194417D01*
X75763Y193871D01*
Y138465D01*
X75858Y137745D01*
X76136Y137075D01*
X76578Y136499D01*
X94696Y118381D01*
X95038Y118023D01*
X94338Y117245D01*
X63488Y86395D01*
X62652Y85632D01*
X62189Y85270D01*
X61724Y84946D01*
X61263Y84666D01*
X60807Y84428D01*
X60356Y84232D01*
X59910Y84076D01*
X59469Y83961D01*
X58996Y83878D01*
X58986Y83874D01*
X58926Y83866D01*
X58824Y83824D01*
X58806Y83820D01*
X58795Y83812D01*
X58256Y83588D01*
X57680Y83147D01*
X57238Y82571D01*
X56960Y81901D01*
X56866Y81181D01*
X56960Y80462D01*
X57238Y79791D01*
X57680Y79216D01*
X57973Y78991D01*
Y78372D01*
X57680Y78147D01*
X57238Y77571D01*
X56960Y76901D01*
X56866Y76181D01*
X56960Y75462D01*
X57238Y74791D01*
X57680Y74216D01*
X57973Y73991D01*
Y73371D01*
X57680Y73147D01*
X57238Y72571D01*
X56960Y71901D01*
X56866Y71181D01*
X56960Y70462D01*
X57238Y69791D01*
X57680Y69216D01*
X58256Y68774D01*
X58926Y68496D01*
X59645Y68401D01*
X60668D01*
X60735Y68382D01*
X61034Y68250D01*
X61370Y68061D01*
X61730Y67817D01*
X62459Y67213D01*
X81431Y48242D01*
X81431Y48242D01*
X82147Y47763D01*
X82992Y47595D01*
X83724D01*
X83978Y47573D01*
X84325Y47516D01*
X84598Y47442D01*
X84797Y47361D01*
X84922Y47285D01*
X84987Y47225D01*
X85017Y47180D01*
X85035Y47130D01*
X85039Y47086D01*
Y46063D01*
X92520D01*
Y53543D01*
X85039D01*
Y52520D01*
X85035Y52476D01*
X85017Y52426D01*
X84987Y52382D01*
X84922Y52321D01*
X84797Y52245D01*
X84598Y52164D01*
X84325Y52091D01*
X83978Y52033D01*
X83892Y52026D01*
X66835Y69082D01*
X66570Y69382D01*
X66252Y69788D01*
X66090Y70033D01*
X66268Y70462D01*
X66362Y71181D01*
X66268Y71901D01*
X65990Y72571D01*
X65548Y73147D01*
X65255Y73371D01*
Y73991D01*
X65548Y74216D01*
X65990Y74791D01*
X66268Y75462D01*
X66362Y76181D01*
X66268Y76901D01*
X65990Y77571D01*
X65548Y78147D01*
X65255Y78372D01*
Y78991D01*
X65548Y79216D01*
X65990Y79791D01*
X66229Y80369D01*
X66239Y80385D01*
X66241Y80399D01*
X66268Y80462D01*
X66272Y80494D01*
X66272Y80495D01*
X66315Y80687D01*
X66385Y80871D01*
X66506Y81111D01*
X66681Y81398D01*
X66897Y81709D01*
X68350Y83396D01*
X98627Y113672D01*
X99109Y114132D01*
X99247Y114250D01*
X99992Y114348D01*
X100902Y114725D01*
X101683Y115325D01*
X102283Y116106D01*
X102660Y117016D01*
X102788Y117992D01*
X102660Y118969D01*
X102283Y119878D01*
X101683Y120660D01*
X100902Y121259D01*
X99992Y121636D01*
X99320Y121725D01*
X98269Y122670D01*
X81323Y139616D01*
Y193242D01*
X81612Y193618D01*
X81943Y194417D01*
X82056Y195276D01*
X81943Y196134D01*
X81612Y196933D01*
X81323Y197310D01*
Y198425D01*
Y227480D01*
Y332792D01*
X93051Y344520D01*
X98557D01*
X154696Y288381D01*
X155156Y287899D01*
X155274Y287761D01*
X155372Y287016D01*
X155749Y286106D01*
X156348Y285325D01*
X157130Y284725D01*
X158039Y284348D01*
X159016Y284220D01*
X159992Y284348D01*
X160902Y284725D01*
X161683Y285325D01*
X162283Y286106D01*
X162660Y287016D01*
X162788Y287992D01*
X162660Y288969D01*
X162283Y289878D01*
X161683Y290660D01*
X160902Y291259D01*
X159992Y291636D01*
X159320Y291725D01*
X158269Y292670D01*
X101673Y349266D01*
X101098Y349707D01*
X100427Y349985D01*
X99708Y350080D01*
D02*
G37*
G36*
X99016Y291765D02*
X98039Y291636D01*
X97130Y291259D01*
X96348Y290660D01*
X95749Y289878D01*
X95372Y288969D01*
X95243Y287992D01*
X95372Y287016D01*
X95749Y286106D01*
X96348Y285325D01*
X97130Y284725D01*
X98039Y284348D01*
X99016Y284220D01*
X99992Y284348D01*
X100902Y284725D01*
X101683Y285325D01*
X102283Y286106D01*
X102660Y287016D01*
X102788Y287992D01*
X102660Y288969D01*
X102283Y289878D01*
X101683Y290660D01*
X100902Y291259D01*
X99992Y291636D01*
X99016Y291765D01*
D02*
G37*
G36*
X159516Y281913D02*
Y281308D01*
X159759Y281540D01*
X160067Y281835D01*
X160048Y281843D01*
X159516Y281913D01*
D02*
G37*
G36*
X161748Y280878D02*
X161902Y280724D01*
X161835Y280811D01*
X161748Y280878D01*
D02*
G37*
G36*
X472744Y283818D02*
Y279240D01*
X477322D01*
X477213Y280072D01*
X476699Y281312D01*
X475881Y282378D01*
X474816Y283195D01*
X473575Y283709D01*
X472744Y283818D01*
D02*
G37*
G36*
X471744D02*
X470913Y283709D01*
X469672Y283195D01*
X468607Y282378D01*
X467789Y281312D01*
X467275Y280072D01*
X467166Y279240D01*
X471744D01*
Y283818D01*
D02*
G37*
G36*
X421366Y281829D02*
Y279004D01*
X424192D01*
X424142Y279381D01*
X423803Y280199D01*
X423264Y280902D01*
X422562Y281441D01*
X421744Y281780D01*
X421366Y281829D01*
D02*
G37*
G36*
X420366D02*
X419988Y281780D01*
X419171Y281441D01*
X418468Y280902D01*
X417929Y280199D01*
X417591Y279381D01*
X417541Y279004D01*
X420366D01*
Y281829D01*
D02*
G37*
G36*
X401484Y281811D02*
Y278846D01*
X404449D01*
X404394Y279260D01*
X404041Y280112D01*
X403480Y280843D01*
X402749Y281404D01*
X401898Y281756D01*
X401484Y281811D01*
D02*
G37*
G36*
X400484D02*
X400070Y281756D01*
X399219Y281404D01*
X398488Y280843D01*
X397927Y280112D01*
X397574Y279260D01*
X397520Y278846D01*
X400484D01*
Y281811D01*
D02*
G37*
G36*
X445579Y281435D02*
Y278610D01*
X448404D01*
X448354Y278988D01*
X448016Y279806D01*
X447477Y280508D01*
X446774Y281047D01*
X445957Y281386D01*
X445579Y281435D01*
D02*
G37*
G36*
X444579D02*
X444201Y281386D01*
X443383Y281047D01*
X442681Y280508D01*
X442142Y279806D01*
X441803Y278988D01*
X441753Y278610D01*
X444579D01*
Y281435D01*
D02*
G37*
G36*
X162867Y279021D02*
X162392Y278492D01*
X162937D01*
X162867Y279021D01*
D02*
G37*
G36*
X159516Y280474D02*
Y278492D01*
X161498D01*
X159516Y280474D01*
D02*
G37*
G36*
X158516Y281913D02*
X157984Y281843D01*
X157022Y281445D01*
X156197Y280811D01*
X155563Y279986D01*
X155165Y279024D01*
X155095Y278492D01*
X158516D01*
Y281913D01*
D02*
G37*
G36*
X424192Y278004D02*
X421366D01*
Y275178D01*
X421744Y275228D01*
X422562Y275567D01*
X423264Y276106D01*
X423803Y276808D01*
X424142Y277626D01*
X424192Y278004D01*
D02*
G37*
G36*
X420366D02*
X417541D01*
X417591Y277626D01*
X417929Y276808D01*
X418468Y276106D01*
X419171Y275567D01*
X419988Y275228D01*
X420366Y275178D01*
Y278004D01*
D02*
G37*
G36*
X404449Y277846D02*
X401484D01*
Y274882D01*
X401898Y274937D01*
X402749Y275289D01*
X403480Y275850D01*
X404041Y276581D01*
X404394Y277433D01*
X404449Y277846D01*
D02*
G37*
G36*
X400484D02*
X397520D01*
X397574Y277433D01*
X397927Y276581D01*
X398488Y275850D01*
X399219Y275289D01*
X400070Y274937D01*
X400484Y274882D01*
Y277846D01*
D02*
G37*
G36*
X448404Y277610D02*
X445579D01*
Y274785D01*
X445957Y274834D01*
X446774Y275173D01*
X447477Y275712D01*
X448016Y276414D01*
X448354Y277232D01*
X448404Y277610D01*
D02*
G37*
G36*
X444579D02*
X441753D01*
X441803Y277232D01*
X442142Y276414D01*
X442681Y275712D01*
X443383Y275173D01*
X444201Y274834D01*
X444579Y274785D01*
Y277610D01*
D02*
G37*
G36*
X99016Y281765D02*
X98039Y281636D01*
X97130Y281259D01*
X96348Y280660D01*
X95749Y279878D01*
X95372Y278969D01*
X95243Y277992D01*
X95372Y277016D01*
X95749Y276106D01*
X96348Y275325D01*
X97130Y274725D01*
X98039Y274348D01*
X99016Y274220D01*
X99992Y274348D01*
X100902Y274725D01*
X101683Y275325D01*
X102283Y276106D01*
X102660Y277016D01*
X102788Y277992D01*
X102660Y278969D01*
X102283Y279878D01*
X101683Y280660D01*
X100902Y281259D01*
X99992Y281636D01*
X99016Y281765D01*
D02*
G37*
G36*
X162937Y277492D02*
X159516D01*
Y274071D01*
X160048Y274141D01*
X161009Y274539D01*
X161835Y275173D01*
X162469Y275999D01*
X162867Y276960D01*
X162937Y277492D01*
D02*
G37*
G36*
X158516D02*
X155095D01*
X155165Y276960D01*
X155563Y275999D01*
X156197Y275173D01*
X157022Y274539D01*
X157984Y274141D01*
X158516Y274071D01*
Y277492D01*
D02*
G37*
G36*
X523425Y283670D02*
X522149Y283502D01*
X520960Y283009D01*
X519940Y282226D01*
X519156Y281205D01*
X518664Y280016D01*
X518496Y278740D01*
X518664Y277464D01*
X519156Y276275D01*
X519940Y275255D01*
X520960Y274471D01*
X522149Y273979D01*
X523425Y273811D01*
X524701Y273979D01*
X525890Y274471D01*
X526911Y275255D01*
X527694Y276275D01*
X528187Y277464D01*
X528355Y278740D01*
X528187Y280016D01*
X527694Y281205D01*
X526911Y282226D01*
X525890Y283009D01*
X524701Y283502D01*
X523425Y283670D01*
D02*
G37*
G36*
X477322Y278240D02*
X472744D01*
Y273662D01*
X473575Y273772D01*
X474816Y274285D01*
X475881Y275103D01*
X476699Y276168D01*
X477213Y277409D01*
X477322Y278240D01*
D02*
G37*
G36*
X471744D02*
X467166D01*
X467275Y277409D01*
X467789Y276168D01*
X468607Y275103D01*
X469672Y274285D01*
X470913Y273772D01*
X471744Y273662D01*
Y278240D01*
D02*
G37*
G36*
X258622Y278228D02*
X251142D01*
Y277100D01*
X251138Y277083D01*
X251142Y277066D01*
Y275245D01*
X250921Y274860D01*
X250518Y274283D01*
X249338Y272890D01*
X248918Y272455D01*
X247208Y270745D01*
X246766Y270169D01*
X246488Y269499D01*
X246393Y268779D01*
Y257927D01*
X246488Y257207D01*
X246766Y256537D01*
X247208Y255961D01*
X251905Y251264D01*
Y187619D01*
X251904Y187538D01*
X251829Y186326D01*
X251769Y185869D01*
X251694Y185499D01*
X251614Y185233D01*
X251561Y185118D01*
X250945D01*
Y184336D01*
X250941Y184319D01*
X250945Y184301D01*
Y184022D01*
X250941Y184005D01*
X250945Y183988D01*
Y182136D01*
X250731Y181762D01*
X250327Y181182D01*
X249144Y179783D01*
X248718Y179342D01*
X246935Y177559D01*
X246493Y176983D01*
X246215Y176312D01*
X246120Y175593D01*
Y95824D01*
X246215Y95105D01*
X246493Y94435D01*
X246935Y93859D01*
X250111Y90682D01*
X251377Y89319D01*
X251900Y88667D01*
X252311Y88077D01*
X252520Y87713D01*
Y84724D01*
X260000D01*
Y92204D01*
X257012D01*
X256647Y92413D01*
X256067Y92818D01*
X254667Y94004D01*
X254226Y94429D01*
X251680Y96976D01*
Y168372D01*
X252180Y168586D01*
X252799Y168111D01*
X253709Y167734D01*
X254685Y167606D01*
X255661Y167734D01*
X256571Y168111D01*
X257352Y168710D01*
X257952Y169492D01*
X258329Y170402D01*
X258457Y171378D01*
X258329Y172354D01*
X257952Y173264D01*
X257352Y174046D01*
X256571Y174645D01*
X255661Y175022D01*
X254685Y175150D01*
X253709Y175022D01*
X252799Y174645D01*
X252587Y174483D01*
X252038Y174691D01*
X252020Y174782D01*
X252467Y175229D01*
X253828Y176493D01*
X254480Y177014D01*
X255069Y177424D01*
X255443Y177638D01*
X257295D01*
X257312Y177634D01*
X257329Y177638D01*
X258425D01*
Y184301D01*
X258429Y184319D01*
X258425Y184336D01*
Y185118D01*
X257809D01*
X257756Y185233D01*
X257676Y185499D01*
X257605Y185849D01*
X257466Y187546D01*
X257465Y187619D01*
Y252415D01*
X257370Y253134D01*
X257092Y253805D01*
X256650Y254380D01*
X251953Y259078D01*
Y261391D01*
X252453Y261637D01*
X252996Y261221D01*
X253906Y260844D01*
X254882Y260716D01*
X255858Y260844D01*
X256768Y261221D01*
X257549Y261821D01*
X258149Y262602D01*
X258526Y263512D01*
X258654Y264488D01*
X258526Y265464D01*
X258149Y266374D01*
X257549Y267156D01*
X256768Y267755D01*
X255858Y268132D01*
X254882Y268261D01*
X253906Y268132D01*
X252996Y267755D01*
X252858Y267649D01*
X252316Y267863D01*
X252298Y267973D01*
X252665Y268340D01*
X254019Y269598D01*
X254668Y270118D01*
X255254Y270527D01*
X255639Y270748D01*
X257460D01*
X257477Y270744D01*
X257494Y270748D01*
X258622D01*
Y278228D01*
D02*
G37*
G36*
X314567Y279252D02*
X305118D01*
Y269803D01*
X314567D01*
Y279252D01*
D02*
G37*
G36*
X379724Y276905D02*
X378671Y276766D01*
X377689Y276360D01*
X376846Y275713D01*
X376200Y274870D01*
X375793Y273888D01*
X375654Y272835D01*
X375793Y271781D01*
X376200Y270799D01*
X376846Y269957D01*
X377689Y269310D01*
X378671Y268903D01*
X379724Y268764D01*
X380778Y268903D01*
X381760Y269310D01*
X382603Y269957D01*
X383249Y270799D01*
X383656Y271781D01*
X383795Y272835D01*
X383656Y273888D01*
X383249Y274870D01*
X382603Y275713D01*
X381760Y276360D01*
X380778Y276766D01*
X379724Y276905D01*
D02*
G37*
G36*
X331693D02*
X330639Y276766D01*
X329658Y276360D01*
X328815Y275713D01*
X328168Y274870D01*
X327761Y273888D01*
X327623Y272835D01*
X327761Y271781D01*
X328168Y270799D01*
X328815Y269957D01*
X329658Y269310D01*
X330639Y268903D01*
X331693Y268764D01*
X332746Y268903D01*
X333728Y269310D01*
X334571Y269957D01*
X335218Y270799D01*
X335625Y271781D01*
X335763Y272835D01*
X335625Y273888D01*
X335218Y274870D01*
X334571Y275713D01*
X333728Y276360D01*
X332746Y276766D01*
X331693Y276905D01*
D02*
G37*
G36*
X284882Y278260D02*
X283906Y278132D01*
X282996Y277755D01*
X282214Y277156D01*
X281615Y276374D01*
X281238Y275464D01*
X281109Y274488D01*
X281238Y273512D01*
X281615Y272602D01*
X282214Y271821D01*
X282996Y271221D01*
X283906Y270844D01*
X284578Y270756D01*
X285629Y269810D01*
X287845Y267594D01*
X287838Y267564D01*
X287278Y267364D01*
X286768Y267755D01*
X285858Y268132D01*
X284882Y268261D01*
X283906Y268132D01*
X282996Y267755D01*
X282214Y267156D01*
X281615Y266374D01*
X281238Y265464D01*
X281109Y264488D01*
X281238Y263512D01*
X281615Y262602D01*
X282214Y261821D01*
X282996Y261221D01*
X283906Y260844D01*
X284882Y260716D01*
X285858Y260844D01*
X286768Y261221D01*
X287549Y261821D01*
X287665Y261971D01*
X288165Y261802D01*
Y188789D01*
X285074Y185698D01*
X284592Y185238D01*
X284454Y185120D01*
X283709Y185022D01*
X282799Y184645D01*
X282017Y184046D01*
X281418Y183264D01*
X281041Y182354D01*
X280913Y181378D01*
X281041Y180402D01*
X281418Y179492D01*
X282017Y178710D01*
X282799Y178111D01*
X283709Y177734D01*
X284381Y177646D01*
X285432Y176700D01*
X287648Y174484D01*
X287641Y174454D01*
X287081Y174254D01*
X286571Y174645D01*
X285661Y175022D01*
X284685Y175150D01*
X283709Y175022D01*
X282799Y174645D01*
X282017Y174046D01*
X281418Y173264D01*
X281041Y172354D01*
X280913Y171378D01*
X281041Y170402D01*
X281418Y169492D01*
X282017Y168710D01*
X282799Y168111D01*
X283709Y167734D01*
X284685Y167606D01*
X285661Y167734D01*
X286571Y168111D01*
X287352Y168710D01*
X287468Y168861D01*
X287968Y168692D01*
Y94104D01*
X286649Y92784D01*
X286167Y92324D01*
X286029Y92206D01*
X285284Y92108D01*
X284374Y91731D01*
X283593Y91132D01*
X282993Y90351D01*
X282616Y89441D01*
X282488Y88464D01*
X282616Y87488D01*
X282993Y86578D01*
X283593Y85797D01*
X284374Y85197D01*
X285284Y84820D01*
X286260Y84692D01*
X287236Y84820D01*
X288146Y85197D01*
X288928Y85797D01*
X289527Y86578D01*
X289904Y87488D01*
X289992Y88160D01*
X290938Y89211D01*
X292713Y90987D01*
X293155Y91563D01*
X293433Y92233D01*
X293528Y92952D01*
Y175315D01*
X293433Y176034D01*
X293155Y176705D01*
X292713Y177280D01*
X289005Y180989D01*
X288663Y181347D01*
X289363Y182125D01*
X292910Y185672D01*
X293352Y186248D01*
X293630Y186918D01*
X293725Y187638D01*
Y268425D01*
X293630Y269145D01*
X293352Y269815D01*
X292910Y270391D01*
X289202Y274099D01*
X288742Y274581D01*
X288624Y274719D01*
X288526Y275464D01*
X288149Y276374D01*
X287549Y277156D01*
X286768Y277755D01*
X285858Y278132D01*
X284882Y278260D01*
D02*
G37*
G36*
X99016Y271765D02*
X98039Y271636D01*
X97130Y271259D01*
X96348Y270660D01*
X95749Y269878D01*
X95372Y268969D01*
X95243Y267992D01*
X95372Y267016D01*
X95749Y266106D01*
X96348Y265325D01*
X97130Y264725D01*
X98039Y264348D01*
X99016Y264220D01*
X99992Y264348D01*
X100902Y264725D01*
X101683Y265325D01*
X102283Y266106D01*
X102660Y267016D01*
X102788Y267992D01*
X102660Y268969D01*
X102283Y269878D01*
X101683Y270660D01*
X100902Y271259D01*
X99992Y271636D01*
X99016Y271765D01*
D02*
G37*
G36*
X297638Y269458D02*
X296780Y269344D01*
X295980Y269013D01*
X295293Y268486D01*
X294766Y267800D01*
X294435Y267000D01*
X294322Y266142D01*
X294435Y265283D01*
X294766Y264484D01*
X295293Y263797D01*
X295980Y263270D01*
X296780Y262939D01*
X297638Y262826D01*
X298496Y262939D01*
X299296Y263270D01*
X299983Y263797D01*
X300510Y264484D01*
X300841Y265283D01*
X300954Y266142D01*
X300841Y267000D01*
X300510Y267800D01*
X299983Y268486D01*
X299296Y269013D01*
X298496Y269344D01*
X297638Y269458D01*
D02*
G37*
G36*
X238681Y267854D02*
X232106D01*
Y261279D01*
X238681D01*
Y267854D01*
D02*
G37*
G36*
X376772Y321268D02*
X375496Y321100D01*
X374307Y320608D01*
X373286Y319824D01*
X372502Y318803D01*
X372010Y317615D01*
X371842Y316339D01*
X372010Y315063D01*
X372502Y313874D01*
X373286Y312853D01*
X374307Y312070D01*
X375496Y311577D01*
X376772Y311409D01*
X376853Y311420D01*
X376863Y311417D01*
X376971Y311370D01*
X377121Y311286D01*
X377308Y311164D01*
X377513Y311012D01*
X378258Y310360D01*
X388162Y300456D01*
Y268937D01*
X388270Y268115D01*
X388587Y267349D01*
X389092Y266691D01*
X396376Y259407D01*
X397034Y258902D01*
X397800Y258585D01*
X398622Y258477D01*
X399384Y258577D01*
X399427Y258521D01*
X400114Y257995D01*
X400914Y257663D01*
X401772Y257550D01*
X402630Y257663D01*
X403430Y257995D01*
X404116Y258521D01*
X404643Y259208D01*
X404975Y260008D01*
X405088Y260866D01*
X404975Y261724D01*
X404643Y262524D01*
X404116Y263211D01*
X403430Y263738D01*
X402630Y264069D01*
X401772Y264182D01*
X400914Y264069D01*
X400762Y264006D01*
X394515Y270253D01*
Y301772D01*
X394407Y302594D01*
X394090Y303360D01*
X393585Y304018D01*
X382774Y314828D01*
X382541Y315072D01*
X382102Y315592D01*
X381946Y315802D01*
X381824Y315989D01*
X381740Y316140D01*
X381693Y316247D01*
X381690Y316257D01*
X381701Y316339D01*
X381533Y317615D01*
X381041Y318803D01*
X380257Y319824D01*
X379236Y320608D01*
X378047Y321100D01*
X376772Y321268D01*
D02*
G37*
G36*
X159016Y261765D02*
X158039Y261636D01*
X157130Y261259D01*
X156348Y260660D01*
X155749Y259878D01*
X155372Y258969D01*
X155243Y257992D01*
X155372Y257016D01*
X155749Y256106D01*
X156348Y255325D01*
X157130Y254725D01*
X158039Y254348D01*
X159016Y254220D01*
X159992Y254348D01*
X160902Y254725D01*
X161683Y255325D01*
X162283Y256106D01*
X162660Y257016D01*
X162788Y257992D01*
X162660Y258969D01*
X162283Y259878D01*
X161683Y260660D01*
X160902Y261259D01*
X159992Y261636D01*
X159016Y261765D01*
D02*
G37*
G36*
X99016D02*
X98039Y261636D01*
X97130Y261259D01*
X96348Y260660D01*
X95749Y259878D01*
X95372Y258969D01*
X95243Y257992D01*
X95372Y257016D01*
X95749Y256106D01*
X96348Y255325D01*
X97130Y254725D01*
X98039Y254348D01*
X99016Y254220D01*
X99992Y254348D01*
X100902Y254725D01*
X101683Y255325D01*
X102283Y256106D01*
X102660Y257016D01*
X102788Y257992D01*
X102660Y258969D01*
X102283Y259878D01*
X101683Y260660D01*
X100902Y261259D01*
X99992Y261636D01*
X99016Y261765D01*
D02*
G37*
G36*
Y251765D02*
X98039Y251636D01*
X97130Y251259D01*
X96348Y250660D01*
X95749Y249878D01*
X95372Y248969D01*
X95243Y247992D01*
X95372Y247016D01*
X95749Y246106D01*
X96348Y245325D01*
X97130Y244725D01*
X98039Y244348D01*
X99016Y244220D01*
X99992Y244348D01*
X100902Y244725D01*
X101683Y245325D01*
X102283Y246106D01*
X102660Y247016D01*
X102788Y247992D01*
X102660Y248969D01*
X102283Y249878D01*
X101683Y250660D01*
X100902Y251259D01*
X99992Y251636D01*
X99016Y251765D01*
D02*
G37*
G36*
Y241765D02*
X98039Y241636D01*
X97130Y241259D01*
X96348Y240660D01*
X95749Y239878D01*
X95372Y238969D01*
X95243Y237992D01*
X95372Y237016D01*
X95749Y236106D01*
X96348Y235325D01*
X97130Y234725D01*
X98039Y234348D01*
X99016Y234220D01*
X99992Y234348D01*
X100902Y234725D01*
X101683Y235325D01*
X102283Y236106D01*
X102660Y237016D01*
X102788Y237992D01*
X102660Y238969D01*
X102283Y239878D01*
X101683Y240660D01*
X100902Y241259D01*
X99992Y241636D01*
X99016Y241765D01*
D02*
G37*
G36*
X309843Y238111D02*
X308610Y237949D01*
X307460Y237473D01*
X306473Y236716D01*
X305716Y235729D01*
X305240Y234579D01*
X305078Y233346D01*
X305240Y232113D01*
X305716Y230964D01*
X306473Y229977D01*
X307460Y229219D01*
X308610Y228743D01*
X309843Y228581D01*
X311076Y228743D01*
X312225Y229219D01*
X313212Y229977D01*
X313970Y230964D01*
X314446Y232113D01*
X314608Y233346D01*
X314446Y234579D01*
X313970Y235729D01*
X313212Y236716D01*
X312225Y237473D01*
X311076Y237949D01*
X309843Y238111D01*
D02*
G37*
G36*
X37232Y227624D02*
X37303Y226282D01*
X35736D01*
Y224673D01*
X39157D01*
X39087Y225205D01*
X38689Y226167D01*
X38055Y226992D01*
X37232Y227624D01*
D02*
G37*
G36*
X33263Y227634D02*
X33243Y227626D01*
X32417Y226992D01*
X31784Y226167D01*
X31385Y225205D01*
X31315Y224673D01*
X34736D01*
Y226282D01*
X33169D01*
X33188Y226318D01*
X33205Y226387D01*
X33220Y226490D01*
X33243Y226796D01*
X33263Y227634D01*
D02*
G37*
G36*
X159016Y231765D02*
X158039Y231636D01*
X157130Y231259D01*
X156348Y230660D01*
X155749Y229878D01*
X155372Y228969D01*
X155243Y227992D01*
X155372Y227016D01*
X155749Y226106D01*
X156348Y225325D01*
X157130Y224725D01*
X158039Y224348D01*
X159016Y224220D01*
X159992Y224348D01*
X160902Y224725D01*
X161683Y225325D01*
X162283Y226106D01*
X162660Y227016D01*
X162788Y227992D01*
X162660Y228969D01*
X162283Y229878D01*
X161683Y230660D01*
X160902Y231259D01*
X159992Y231636D01*
X159016Y231765D01*
D02*
G37*
G36*
X99016D02*
X98039Y231636D01*
X97130Y231259D01*
X96348Y230660D01*
X95749Y229878D01*
X95372Y228969D01*
X95243Y227992D01*
X95372Y227016D01*
X95749Y226106D01*
X96348Y225325D01*
X97130Y224725D01*
X98039Y224348D01*
X99016Y224220D01*
X99992Y224348D01*
X100902Y224725D01*
X101683Y225325D01*
X102283Y226106D01*
X102660Y227016D01*
X102788Y227992D01*
X102660Y228969D01*
X102283Y229878D01*
X101683Y230660D01*
X100902Y231259D01*
X99992Y231636D01*
X99016Y231765D01*
D02*
G37*
G36*
X281299Y235929D02*
X277362D01*
X276642Y235834D01*
X275972Y235557D01*
X275396Y235115D01*
X274955Y234539D01*
X274677Y233869D01*
X274582Y233149D01*
X274677Y232430D01*
X274955Y231760D01*
X275396Y231184D01*
X275689Y230959D01*
Y230340D01*
X275396Y230115D01*
X274955Y229539D01*
X274677Y228869D01*
X274582Y228149D01*
X274677Y227430D01*
X274955Y226760D01*
X275396Y226184D01*
X275508Y226098D01*
Y225468D01*
X275245Y225267D01*
X274769Y224646D01*
X274470Y223924D01*
X274434Y223649D01*
X279330D01*
X284227D01*
X284191Y223924D01*
X283892Y224646D01*
X283416Y225267D01*
X283153Y225468D01*
Y226098D01*
X283264Y226184D01*
X283706Y226760D01*
X283984Y227430D01*
X284079Y228149D01*
X283984Y228869D01*
X283706Y229539D01*
X283264Y230115D01*
X282972Y230340D01*
Y230959D01*
X283264Y231184D01*
X283706Y231760D01*
X283984Y232430D01*
X284079Y233149D01*
X283984Y233869D01*
X283706Y234539D01*
X283264Y235115D01*
X282689Y235557D01*
X282018Y235834D01*
X281299Y235929D01*
D02*
G37*
G36*
X297638Y229457D02*
X296780Y229345D01*
X295980Y229013D01*
X295293Y228486D01*
X294766Y227800D01*
X294435Y227000D01*
X294322Y226142D01*
X294435Y225284D01*
X294766Y224484D01*
X295293Y223797D01*
X295980Y223270D01*
X296780Y222939D01*
X297638Y222826D01*
X298496Y222939D01*
X299296Y223270D01*
X299983Y223797D01*
X300510Y224484D01*
X300841Y225284D01*
X300954Y226142D01*
X300841Y227000D01*
X300510Y227800D01*
X299983Y228486D01*
X299296Y229013D01*
X298496Y229345D01*
X297638Y229457D01*
D02*
G37*
G36*
X379724Y229661D02*
X378671Y229522D01*
X377689Y229116D01*
X376846Y228469D01*
X376200Y227626D01*
X375793Y226644D01*
X375654Y225591D01*
X375793Y224537D01*
X376200Y223555D01*
X376846Y222712D01*
X377689Y222066D01*
X378671Y221659D01*
X379724Y221520D01*
X380778Y221659D01*
X381760Y222066D01*
X382603Y222712D01*
X383249Y223555D01*
X383656Y224537D01*
X383795Y225591D01*
X383656Y226644D01*
X383249Y227626D01*
X382603Y228469D01*
X381760Y229116D01*
X380778Y229522D01*
X379724Y229661D01*
D02*
G37*
G36*
X331693D02*
X330639Y229522D01*
X329658Y229116D01*
X328815Y228469D01*
X328168Y227626D01*
X327761Y226644D01*
X327623Y225591D01*
X327761Y224537D01*
X328168Y223555D01*
X328815Y222712D01*
X329658Y222066D01*
X330639Y221659D01*
X331693Y221520D01*
X332746Y221659D01*
X333728Y222066D01*
X334571Y222712D01*
X335218Y223555D01*
X335625Y224537D01*
X335763Y225591D01*
X335625Y226644D01*
X335218Y227626D01*
X334571Y228469D01*
X333728Y229116D01*
X332746Y229522D01*
X331693Y229661D01*
D02*
G37*
G36*
X65236Y227946D02*
X64260Y227817D01*
X63350Y227440D01*
X62569Y226841D01*
X61969Y226059D01*
X61592Y225150D01*
X61464Y224173D01*
X61592Y223197D01*
X61969Y222287D01*
X62569Y221506D01*
X63350Y220906D01*
X64260Y220529D01*
X65236Y220401D01*
X66213Y220529D01*
X67122Y220906D01*
X67904Y221506D01*
X68503Y222287D01*
X68880Y223197D01*
X69009Y224173D01*
X68880Y225150D01*
X68503Y226059D01*
X67904Y226841D01*
X67122Y227440D01*
X66213Y227817D01*
X65236Y227946D01*
D02*
G37*
G36*
X55236D02*
X54260Y227817D01*
X53350Y227440D01*
X52569Y226841D01*
X51969Y226059D01*
X51592Y225150D01*
X51464Y224173D01*
X51592Y223197D01*
X51969Y222287D01*
X52569Y221506D01*
X53350Y220906D01*
X54260Y220529D01*
X55236Y220401D01*
X56213Y220529D01*
X57122Y220906D01*
X57904Y221506D01*
X58503Y222287D01*
X58880Y223197D01*
X59009Y224173D01*
X58880Y225150D01*
X58503Y226059D01*
X57904Y226841D01*
X57122Y227440D01*
X56213Y227817D01*
X55236Y227946D01*
D02*
G37*
G36*
X45236D02*
X44260Y227817D01*
X43350Y227440D01*
X42569Y226841D01*
X41969Y226059D01*
X41592Y225150D01*
X41464Y224173D01*
X41592Y223197D01*
X41969Y222287D01*
X42569Y221506D01*
X43350Y220906D01*
X44260Y220529D01*
X45236Y220401D01*
X46213Y220529D01*
X47122Y220906D01*
X47904Y221506D01*
X48503Y222287D01*
X48880Y223197D01*
X49009Y224173D01*
X48880Y225150D01*
X48503Y226059D01*
X47904Y226841D01*
X47122Y227440D01*
X46213Y227817D01*
X45236Y227946D01*
D02*
G37*
G36*
X39157Y223673D02*
X35736D01*
Y220252D01*
X36268Y220322D01*
X37230Y220721D01*
X38055Y221354D01*
X38689Y222180D01*
X39087Y223141D01*
X39157Y223673D01*
D02*
G37*
G36*
X34736D02*
X31315D01*
X31385Y223141D01*
X31784Y222180D01*
X32417Y221354D01*
X33243Y220721D01*
X34204Y220322D01*
X34736Y220252D01*
Y223673D01*
D02*
G37*
G36*
X284227Y222649D02*
X279830D01*
Y220155D01*
X281299D01*
X282074Y220257D01*
X282796Y220556D01*
X283416Y221032D01*
X283892Y221652D01*
X284191Y222374D01*
X284227Y222649D01*
D02*
G37*
G36*
X278830D02*
X274434D01*
X274470Y222374D01*
X274769Y221652D01*
X275245Y221032D01*
X275865Y220556D01*
X276587Y220257D01*
X277362Y220155D01*
X278830D01*
Y222649D01*
D02*
G37*
G36*
X159016Y221765D02*
X158039Y221636D01*
X157130Y221259D01*
X156348Y220660D01*
X155749Y219878D01*
X155372Y218969D01*
X155243Y217992D01*
X155372Y217016D01*
X155749Y216106D01*
X156348Y215325D01*
X157130Y214725D01*
X158039Y214348D01*
X159016Y214220D01*
X159992Y214348D01*
X160902Y214725D01*
X161683Y215325D01*
X162283Y216106D01*
X162660Y217016D01*
X162788Y217992D01*
X162660Y218969D01*
X162283Y219878D01*
X161683Y220660D01*
X160902Y221259D01*
X159992Y221636D01*
X159016Y221765D01*
D02*
G37*
G36*
X99016D02*
X98039Y221636D01*
X97130Y221259D01*
X96348Y220660D01*
X95749Y219878D01*
X95372Y218969D01*
X95243Y217992D01*
X95372Y217016D01*
X95749Y216106D01*
X96348Y215325D01*
X97130Y214725D01*
X98039Y214348D01*
X99016Y214220D01*
X99992Y214348D01*
X100902Y214725D01*
X101683Y215325D01*
X102283Y216106D01*
X102660Y217016D01*
X102788Y217992D01*
X102660Y218969D01*
X102283Y219878D01*
X101683Y220660D01*
X100902Y221259D01*
X99992Y221636D01*
X99016Y221765D01*
D02*
G37*
G36*
X55236Y217946D02*
X54260Y217817D01*
X53350Y217440D01*
X52569Y216841D01*
X51969Y216059D01*
X51592Y215150D01*
X51464Y214173D01*
X51592Y213197D01*
X51969Y212287D01*
X52569Y211506D01*
X53350Y210906D01*
X54260Y210529D01*
X55236Y210401D01*
X56213Y210529D01*
X57122Y210906D01*
X57904Y211506D01*
X58503Y212287D01*
X58880Y213197D01*
X59009Y214173D01*
X58880Y215150D01*
X58503Y216059D01*
X57904Y216841D01*
X57122Y217440D01*
X56213Y217817D01*
X55236Y217946D01*
D02*
G37*
G36*
X35236D02*
X34260Y217817D01*
X33350Y217440D01*
X32569Y216841D01*
X31969Y216059D01*
X31592Y215150D01*
X31464Y214173D01*
X31592Y213197D01*
X31969Y212287D01*
X32569Y211506D01*
X33350Y210906D01*
X34260Y210529D01*
X35236Y210401D01*
X36213Y210529D01*
X37122Y210906D01*
X37904Y211506D01*
X38503Y212287D01*
X38880Y213197D01*
X39009Y214173D01*
X38880Y215150D01*
X38503Y216059D01*
X37904Y216841D01*
X37122Y217440D01*
X36213Y217817D01*
X35236Y217946D01*
D02*
G37*
G36*
X522441Y215560D02*
X521165Y215392D01*
X519976Y214899D01*
X518955Y214116D01*
X518172Y213095D01*
X517679Y211906D01*
X517511Y210630D01*
X517679Y209354D01*
X518172Y208165D01*
X518955Y207144D01*
X519976Y206361D01*
X521165Y205868D01*
X522441Y205700D01*
X523717Y205868D01*
X524906Y206361D01*
X525926Y207144D01*
X526710Y208165D01*
X527202Y209354D01*
X527370Y210630D01*
X527202Y211906D01*
X526710Y213095D01*
X525926Y214116D01*
X524906Y214899D01*
X523717Y215392D01*
X522441Y215560D01*
D02*
G37*
G36*
X471260D02*
X469984Y215392D01*
X468795Y214899D01*
X467774Y214116D01*
X466991Y213095D01*
X466498Y211906D01*
X466330Y210630D01*
X466498Y209354D01*
X466991Y208165D01*
X467774Y207144D01*
X468795Y206361D01*
X469984Y205868D01*
X471260Y205700D01*
X472536Y205868D01*
X473725Y206361D01*
X474746Y207144D01*
X475529Y208165D01*
X476021Y209354D01*
X476189Y210630D01*
X476021Y211906D01*
X475529Y213095D01*
X474746Y214116D01*
X473725Y214899D01*
X472536Y215392D01*
X471260Y215560D01*
D02*
G37*
G36*
X159016Y211765D02*
X158039Y211636D01*
X157130Y211259D01*
X156348Y210660D01*
X155749Y209878D01*
X155372Y208969D01*
X155243Y207992D01*
X155372Y207016D01*
X155749Y206106D01*
X156348Y205325D01*
X157130Y204725D01*
X158039Y204348D01*
X159016Y204220D01*
X159992Y204348D01*
X160902Y204725D01*
X161683Y205325D01*
X162283Y206106D01*
X162660Y207016D01*
X162788Y207992D01*
X162660Y208969D01*
X162283Y209878D01*
X161683Y210660D01*
X160902Y211259D01*
X159992Y211636D01*
X159016Y211765D01*
D02*
G37*
G36*
X99016D02*
X98039Y211636D01*
X97130Y211259D01*
X96348Y210660D01*
X95749Y209878D01*
X95372Y208969D01*
X95243Y207992D01*
X95372Y207016D01*
X95749Y206106D01*
X96348Y205325D01*
X97130Y204725D01*
X98039Y204348D01*
X99016Y204220D01*
X99992Y204348D01*
X100902Y204725D01*
X101683Y205325D01*
X102283Y206106D01*
X102660Y207016D01*
X102788Y207992D01*
X102660Y208969D01*
X102283Y209878D01*
X101683Y210660D01*
X100902Y211259D01*
X99992Y211636D01*
X99016Y211765D01*
D02*
G37*
G36*
X45236Y217946D02*
X44260Y217817D01*
X43350Y217440D01*
X42569Y216841D01*
X41969Y216059D01*
X41592Y215150D01*
X41464Y214173D01*
X41592Y213197D01*
X41969Y212287D01*
X42569Y211506D01*
X42646Y211446D01*
X42675Y211414D01*
X42741Y211323D01*
X42804Y211212D01*
X42863Y211080D01*
X42917Y210924D01*
X42964Y210745D01*
X43001Y210553D01*
X43028Y210268D01*
Y202686D01*
X39441Y199099D01*
X39171Y198869D01*
X39018Y198753D01*
X38885Y198664D01*
X38784Y198607D01*
X38747Y198590D01*
X38740Y198591D01*
X37882Y198478D01*
X37082Y198147D01*
X36395Y197620D01*
X35868Y196933D01*
X35537Y196134D01*
X35424Y195276D01*
X35537Y194417D01*
X35868Y193618D01*
X36395Y192931D01*
X37082Y192404D01*
X37882Y192073D01*
X38740Y191960D01*
X39598Y192073D01*
X40398Y192404D01*
X41085Y192931D01*
X41611Y193618D01*
X41943Y194417D01*
X42056Y195276D01*
X42055Y195283D01*
X42071Y195319D01*
X42129Y195421D01*
X42204Y195533D01*
X42694Y196107D01*
X46797Y200211D01*
X47276Y200927D01*
X47444Y201772D01*
Y210338D01*
X47470Y210542D01*
X47508Y210745D01*
X47555Y210924D01*
X47609Y211080D01*
X47668Y211212D01*
X47732Y211323D01*
X47797Y211414D01*
X47826Y211446D01*
X47904Y211506D01*
X48503Y212287D01*
X48880Y213197D01*
X49009Y214173D01*
X48880Y215150D01*
X48503Y216059D01*
X47904Y216841D01*
X47122Y217440D01*
X46213Y217817D01*
X45236Y217946D01*
D02*
G37*
G36*
X415630Y218701D02*
X406181D01*
Y209252D01*
X408075D01*
X408233Y209235D01*
X408284Y209218D01*
X408328Y209188D01*
X408389Y209123D01*
X408464Y208999D01*
X408545Y208802D01*
X408618Y208530D01*
X408675Y208186D01*
X408698Y207933D01*
Y200836D01*
X403691Y195829D01*
X403492Y195667D01*
X403379Y195587D01*
X403279Y195526D01*
X403204Y195488D01*
X403177Y195478D01*
X403150Y195481D01*
X402291Y195368D01*
X401492Y195037D01*
X400805Y194510D01*
X400278Y193823D01*
X399947Y193024D01*
X399834Y192165D01*
X399947Y191307D01*
X400278Y190507D01*
X400805Y189821D01*
X401492Y189294D01*
X402291Y188963D01*
X403150Y188850D01*
X404008Y188963D01*
X404808Y189294D01*
X405494Y189821D01*
X406021Y190507D01*
X406352Y191307D01*
X406465Y192165D01*
X406462Y192193D01*
X406472Y192220D01*
X406510Y192295D01*
X406571Y192395D01*
X406646Y192501D01*
X406867Y192760D01*
X412467Y198360D01*
X412945Y199076D01*
X413113Y199921D01*
Y207933D01*
X413136Y208186D01*
X413193Y208530D01*
X413266Y208802D01*
X413347Y208999D01*
X413423Y209123D01*
X413483Y209188D01*
X413527Y209218D01*
X413578Y209235D01*
X413736Y209252D01*
X415630D01*
Y218701D01*
D02*
G37*
G36*
X159016Y201765D02*
X158039Y201636D01*
X157130Y201259D01*
X156348Y200660D01*
X155749Y199878D01*
X155372Y198969D01*
X155243Y197992D01*
X155372Y197016D01*
X155749Y196106D01*
X156348Y195325D01*
X157130Y194725D01*
X158039Y194348D01*
X159016Y194220D01*
X159992Y194348D01*
X160902Y194725D01*
X161683Y195325D01*
X162283Y196106D01*
X162660Y197016D01*
X162788Y197992D01*
X162660Y198969D01*
X162283Y199878D01*
X161683Y200660D01*
X160902Y201259D01*
X159992Y201636D01*
X159016Y201765D01*
D02*
G37*
G36*
X99016D02*
X98039Y201636D01*
X97130Y201259D01*
X96348Y200660D01*
X95749Y199878D01*
X95372Y198969D01*
X95243Y197992D01*
X95372Y197016D01*
X95749Y196106D01*
X96348Y195325D01*
X97130Y194725D01*
X98039Y194348D01*
X99016Y194220D01*
X99992Y194348D01*
X100902Y194725D01*
X101683Y195325D01*
X102283Y196106D01*
X102660Y197016D01*
X102788Y197992D01*
X102660Y198969D01*
X102283Y199878D01*
X101683Y200660D01*
X100902Y201259D01*
X99992Y201636D01*
X99016Y201765D01*
D02*
G37*
G36*
X241142Y199182D02*
X240284Y199069D01*
X239484Y198738D01*
X238797Y198211D01*
X238270Y197524D01*
X237939Y196724D01*
X237826Y195866D01*
X237830Y195839D01*
X237819Y195812D01*
X237781Y195737D01*
X237720Y195637D01*
X237645Y195530D01*
X237425Y195271D01*
X222848Y180695D01*
X222370Y179979D01*
X222202Y179134D01*
Y174233D01*
X222176Y173978D01*
X222152Y173841D01*
X222125Y173728D01*
X222098Y173648D01*
X222087Y173621D01*
X222065Y173604D01*
X221538Y172918D01*
X221207Y172118D01*
X221094Y171260D01*
X221207Y170402D01*
X221538Y169602D01*
X222065Y168915D01*
X222751Y168388D01*
X223551Y168057D01*
X224409Y167944D01*
X225268Y168057D01*
X226067Y168388D01*
X226754Y168915D01*
X227281Y169602D01*
X227612Y170402D01*
X227725Y171260D01*
X227612Y172118D01*
X227281Y172918D01*
X226754Y173604D01*
X226732Y173621D01*
X226720Y173648D01*
X226694Y173728D01*
X226667Y173841D01*
X226644Y173970D01*
X226617Y174309D01*
Y178219D01*
X240600Y192202D01*
X240799Y192365D01*
X240912Y192445D01*
X241013Y192506D01*
X241087Y192543D01*
X241114Y192554D01*
X241142Y192550D01*
X242000Y192663D01*
X242800Y192995D01*
X243486Y193522D01*
X244013Y194208D01*
X244345Y195008D01*
X244458Y195866D01*
X244345Y196724D01*
X244013Y197524D01*
X243486Y198211D01*
X242800Y198738D01*
X242000Y199069D01*
X241142Y199182D01*
D02*
G37*
G36*
X159016Y251765D02*
X158039Y251636D01*
X157130Y251259D01*
X156348Y250660D01*
X155749Y249878D01*
X155372Y248969D01*
X155243Y247992D01*
X155372Y247016D01*
X155749Y246106D01*
X156348Y245325D01*
X157130Y244725D01*
X158039Y244348D01*
X159016Y244220D01*
X159113Y244233D01*
X159155Y244231D01*
X159267Y244212D01*
X159390Y244179D01*
X159525Y244127D01*
X159673Y244055D01*
X159833Y243962D01*
X159995Y243851D01*
X160216Y243670D01*
X198737Y205149D01*
Y198632D01*
X198719Y198419D01*
X198698Y198274D01*
X198674Y198153D01*
X198650Y198066D01*
X198632Y198016D01*
X198628Y198009D01*
X198605Y197976D01*
X198586Y197935D01*
X198270Y197524D01*
X197939Y196724D01*
X197826Y195866D01*
X197939Y195008D01*
X198270Y194208D01*
X198797Y193522D01*
X199484Y192995D01*
X200284Y192663D01*
X201142Y192550D01*
X202000Y192663D01*
X202800Y192995D01*
X203486Y193522D01*
X204013Y194208D01*
X204345Y195008D01*
X204458Y195866D01*
X204345Y196724D01*
X204013Y197524D01*
X203486Y198211D01*
X203327Y198333D01*
X203318Y198347D01*
X203285Y198380D01*
X203284Y198382D01*
X203266Y198417D01*
X203239Y198488D01*
X203210Y198594D01*
X203182Y198732D01*
X203160Y198891D01*
X203153Y198995D01*
Y206063D01*
X202985Y206908D01*
X202506Y207624D01*
X163289Y246841D01*
X163163Y247004D01*
X163046Y247175D01*
X162953Y247335D01*
X162881Y247483D01*
X162829Y247618D01*
X162796Y247741D01*
X162777Y247852D01*
X162776Y247895D01*
X162788Y247992D01*
X162660Y248969D01*
X162283Y249878D01*
X161683Y250660D01*
X160902Y251259D01*
X159992Y251636D01*
X159016Y251765D01*
D02*
G37*
G36*
X445472Y192783D02*
X444650Y192675D01*
X443884Y192357D01*
X443226Y191852D01*
X442721Y191195D01*
X442404Y190428D01*
X442296Y189606D01*
X442404Y188784D01*
X442721Y188018D01*
X443226Y187360D01*
X443884Y186855D01*
X444650Y186538D01*
X445472Y186429D01*
X446295Y186538D01*
X447061Y186855D01*
X447719Y187360D01*
X448224Y188018D01*
X448541Y188784D01*
X448649Y189606D01*
X448541Y190428D01*
X448224Y191195D01*
X447719Y191852D01*
X447061Y192357D01*
X446295Y192675D01*
X445472Y192783D01*
D02*
G37*
G36*
X422441D02*
X421619Y192675D01*
X420853Y192357D01*
X420195Y191852D01*
X419690Y191195D01*
X419373Y190428D01*
X419264Y189606D01*
X419373Y188784D01*
X419690Y188018D01*
X420195Y187360D01*
X420853Y186855D01*
X421619Y186538D01*
X422441Y186429D01*
X423263Y186538D01*
X424029Y186855D01*
X424687Y187360D01*
X425192Y188018D01*
X425510Y188784D01*
X425618Y189606D01*
X425510Y190428D01*
X425192Y191195D01*
X424687Y191852D01*
X424029Y192357D01*
X423263Y192675D01*
X422441Y192783D01*
D02*
G37*
G36*
X159016Y191765D02*
X158039Y191636D01*
X157130Y191259D01*
X156348Y190660D01*
X155749Y189878D01*
X155372Y188969D01*
X155243Y187992D01*
X155372Y187016D01*
X155749Y186106D01*
X156348Y185325D01*
X157130Y184725D01*
X158039Y184348D01*
X159016Y184220D01*
X159992Y184348D01*
X160902Y184725D01*
X161683Y185325D01*
X162283Y186106D01*
X162660Y187016D01*
X162788Y187992D01*
X162660Y188969D01*
X162283Y189878D01*
X161683Y190660D01*
X160902Y191259D01*
X159992Y191636D01*
X159016Y191765D01*
D02*
G37*
G36*
X99016D02*
X98039Y191636D01*
X97130Y191259D01*
X96348Y190660D01*
X95749Y189878D01*
X95372Y188969D01*
X95243Y187992D01*
X95372Y187016D01*
X95749Y186106D01*
X96348Y185325D01*
X97130Y184725D01*
X98039Y184348D01*
X99016Y184220D01*
X99992Y184348D01*
X100902Y184725D01*
X101683Y185325D01*
X102283Y186106D01*
X102660Y187016D01*
X102788Y187992D01*
X102660Y188969D01*
X102283Y189878D01*
X101683Y190660D01*
X100902Y191259D01*
X99992Y191636D01*
X99016Y191765D01*
D02*
G37*
G36*
X380512Y191669D02*
X379458Y191530D01*
X378477Y191123D01*
X377634Y190477D01*
X376987Y189634D01*
X376580Y188652D01*
X376442Y187598D01*
X376580Y186545D01*
X376987Y185563D01*
X377634Y184720D01*
X378477Y184073D01*
X379458Y183667D01*
X380512Y183528D01*
X381565Y183667D01*
X382547Y184073D01*
X383390Y184720D01*
X384037Y185563D01*
X384443Y186545D01*
X384582Y187598D01*
X384443Y188652D01*
X384037Y189634D01*
X383390Y190477D01*
X382547Y191123D01*
X381565Y191530D01*
X380512Y191669D01*
D02*
G37*
G36*
X332480D02*
X331427Y191530D01*
X330445Y191123D01*
X329602Y190477D01*
X328955Y189634D01*
X328549Y188652D01*
X328410Y187598D01*
X328549Y186545D01*
X328955Y185563D01*
X329602Y184720D01*
X330445Y184073D01*
X331427Y183667D01*
X332480Y183528D01*
X333534Y183667D01*
X334515Y184073D01*
X335358Y184720D01*
X336005Y185563D01*
X336412Y186545D01*
X336551Y187598D01*
X336412Y188652D01*
X336005Y189634D01*
X335358Y190477D01*
X334515Y191123D01*
X333534Y191530D01*
X332480Y191669D01*
D02*
G37*
G36*
X315945Y186142D02*
X306496D01*
Y176693D01*
X315945D01*
Y186142D01*
D02*
G37*
G36*
X159016Y181765D02*
X158039Y181636D01*
X157130Y181259D01*
X156348Y180660D01*
X155749Y179878D01*
X155372Y178969D01*
X155243Y177992D01*
X155372Y177016D01*
X155749Y176106D01*
X156348Y175325D01*
X157130Y174725D01*
X158039Y174348D01*
X159016Y174220D01*
X159992Y174348D01*
X160902Y174725D01*
X161683Y175325D01*
X162283Y176106D01*
X162660Y177016D01*
X162788Y177992D01*
X162660Y178969D01*
X162283Y179878D01*
X161683Y180660D01*
X160902Y181259D01*
X159992Y181636D01*
X159016Y181765D01*
D02*
G37*
G36*
X99016D02*
X98039Y181636D01*
X97130Y181259D01*
X96348Y180660D01*
X95749Y179878D01*
X95372Y178969D01*
X95243Y177992D01*
X95372Y177016D01*
X95749Y176106D01*
X96348Y175325D01*
X97130Y174725D01*
X98039Y174348D01*
X99016Y174220D01*
X99992Y174348D01*
X100902Y174725D01*
X101683Y175325D01*
X102283Y176106D01*
X102660Y177016D01*
X102788Y177992D01*
X102660Y178969D01*
X102283Y179878D01*
X101683Y180660D01*
X100902Y181259D01*
X99992Y181636D01*
X99016Y181765D01*
D02*
G37*
G36*
X300197Y176190D02*
X299339Y176077D01*
X298539Y175746D01*
X297852Y175219D01*
X297325Y174532D01*
X296994Y173732D01*
X296881Y172874D01*
X296994Y172016D01*
X297325Y171216D01*
X297852Y170529D01*
X298539Y170002D01*
X299339Y169671D01*
X300197Y169558D01*
X301055Y169671D01*
X301855Y170002D01*
X302541Y170529D01*
X303068Y171216D01*
X303400Y172016D01*
X303513Y172874D01*
X303400Y173732D01*
X303068Y174532D01*
X302541Y175219D01*
X301855Y175746D01*
X301055Y176077D01*
X300197Y176190D01*
D02*
G37*
G36*
X237697Y174547D02*
X231122D01*
Y167972D01*
X237697D01*
Y174547D01*
D02*
G37*
G36*
X159016Y171765D02*
X158039Y171636D01*
X157130Y171259D01*
X156348Y170660D01*
X155749Y169878D01*
X155372Y168969D01*
X155243Y167992D01*
X155372Y167016D01*
X155749Y166106D01*
X156348Y165325D01*
X157130Y164725D01*
X158039Y164348D01*
X159016Y164220D01*
X159992Y164348D01*
X160902Y164725D01*
X161683Y165325D01*
X162283Y166106D01*
X162660Y167016D01*
X162788Y167992D01*
X162660Y168969D01*
X162283Y169878D01*
X161683Y170660D01*
X160902Y171259D01*
X159992Y171636D01*
X159016Y171765D01*
D02*
G37*
G36*
X99016D02*
X98039Y171636D01*
X97130Y171259D01*
X96348Y170660D01*
X95749Y169878D01*
X95372Y168969D01*
X95243Y167992D01*
X95372Y167016D01*
X95749Y166106D01*
X96348Y165325D01*
X97130Y164725D01*
X98039Y164348D01*
X99016Y164220D01*
X99992Y164348D01*
X100902Y164725D01*
X101683Y165325D01*
X102283Y166106D01*
X102660Y167016D01*
X102788Y167992D01*
X102660Y168969D01*
X102283Y169878D01*
X101683Y170660D01*
X100902Y171259D01*
X99992Y171636D01*
X99016Y171765D01*
D02*
G37*
G36*
X445972Y162932D02*
Y160106D01*
X448798D01*
X448748Y160484D01*
X448409Y161302D01*
X447870Y162004D01*
X447168Y162543D01*
X446350Y162882D01*
X445972Y162932D01*
D02*
G37*
G36*
X422941D02*
Y160106D01*
X425766D01*
X425717Y160484D01*
X425378Y161302D01*
X424839Y162004D01*
X424137Y162543D01*
X423319Y162882D01*
X422941Y162932D01*
D02*
G37*
G36*
X444972D02*
X444595Y162882D01*
X443777Y162543D01*
X443074Y162004D01*
X442535Y161302D01*
X442197Y160484D01*
X442147Y160106D01*
X444972D01*
Y162932D01*
D02*
G37*
G36*
X421941D02*
X421563Y162882D01*
X420745Y162543D01*
X420043Y162004D01*
X419504Y161302D01*
X419165Y160484D01*
X419116Y160106D01*
X421941D01*
Y162932D01*
D02*
G37*
G36*
X448798Y159106D02*
X445972D01*
Y156281D01*
X446350Y156331D01*
X447168Y156669D01*
X447870Y157208D01*
X448409Y157911D01*
X448748Y158729D01*
X448798Y159106D01*
D02*
G37*
G36*
X425766D02*
X422941D01*
Y156281D01*
X423319Y156331D01*
X424137Y156669D01*
X424839Y157208D01*
X425378Y157911D01*
X425717Y158729D01*
X425766Y159106D01*
D02*
G37*
G36*
X444972D02*
X442147D01*
X442197Y158729D01*
X442535Y157911D01*
X443074Y157208D01*
X443777Y156669D01*
X444595Y156331D01*
X444972Y156281D01*
Y159106D01*
D02*
G37*
G36*
X421941D02*
X419116D01*
X419165Y158729D01*
X419504Y157911D01*
X420043Y157208D01*
X420745Y156669D01*
X421563Y156331D01*
X421941Y156281D01*
Y159106D01*
D02*
G37*
G36*
X471760Y160590D02*
Y156012D01*
X476338D01*
X476229Y156843D01*
X475715Y158084D01*
X474897Y159149D01*
X473832Y159967D01*
X472591Y160480D01*
X471760Y160590D01*
D02*
G37*
G36*
X470760D02*
X469928Y160480D01*
X468688Y159967D01*
X467622Y159149D01*
X466805Y158084D01*
X466291Y156843D01*
X466182Y156012D01*
X470760D01*
Y160590D01*
D02*
G37*
G36*
X99016Y161765D02*
X98039Y161636D01*
X97130Y161259D01*
X96348Y160660D01*
X95749Y159878D01*
X95372Y158969D01*
X95243Y157992D01*
X95372Y157016D01*
X95749Y156106D01*
X96348Y155325D01*
X97130Y154725D01*
X98039Y154348D01*
X99016Y154220D01*
X99992Y154348D01*
X100902Y154725D01*
X101683Y155325D01*
X102283Y156106D01*
X102660Y157016D01*
X102788Y157992D01*
X102660Y158969D01*
X102283Y159878D01*
X101683Y160660D01*
X100902Y161259D01*
X99992Y161636D01*
X99016Y161765D01*
D02*
G37*
G36*
X403650Y155630D02*
Y152665D01*
X406614D01*
X406560Y153079D01*
X406207Y153930D01*
X405646Y154662D01*
X404915Y155223D01*
X404063Y155575D01*
X403650Y155630D01*
D02*
G37*
G36*
X402650D02*
X402236Y155575D01*
X401384Y155223D01*
X400653Y154662D01*
X400092Y153930D01*
X399740Y153079D01*
X399685Y152665D01*
X402650D01*
Y155630D01*
D02*
G37*
G36*
X452087Y218742D02*
X450853Y218579D01*
X449704Y218103D01*
X448717Y217346D01*
X447960Y216359D01*
X447484Y215210D01*
X447322Y213976D01*
X447484Y212743D01*
X447960Y211594D01*
X448717Y210607D01*
X449704Y209850D01*
X450853Y209374D01*
X452087Y209211D01*
X452254Y209233D01*
X452456Y209228D01*
X452763Y209197D01*
X453057Y209145D01*
X453337Y209071D01*
X453607Y208975D01*
X453866Y208858D01*
X454116Y208718D01*
X454358Y208555D01*
X454491Y208450D01*
X508990Y153951D01*
X509706Y153472D01*
X510551Y153304D01*
X516553D01*
X516744Y153281D01*
X517041Y153220D01*
X517329Y153135D01*
X517610Y153025D01*
X517885Y152890D01*
X518155Y152729D01*
X518421Y152541D01*
X518682Y152325D01*
X518846Y152169D01*
X518955Y152026D01*
X519976Y151243D01*
X521165Y150750D01*
X522441Y150582D01*
X523717Y150750D01*
X524906Y151243D01*
X525926Y152026D01*
X526710Y153047D01*
X527202Y154236D01*
X527370Y155512D01*
X527202Y156788D01*
X526710Y157977D01*
X525926Y158997D01*
X524906Y159781D01*
X523717Y160273D01*
X522441Y160441D01*
X521165Y160273D01*
X519976Y159781D01*
X518955Y158997D01*
X518846Y158855D01*
X518682Y158699D01*
X518421Y158482D01*
X518155Y158294D01*
X517885Y158133D01*
X517610Y157998D01*
X517329Y157889D01*
X517041Y157804D01*
X516744Y157743D01*
X516553Y157720D01*
X511466D01*
X457614Y211572D01*
X457508Y211705D01*
X457345Y211947D01*
X457205Y212197D01*
X457088Y212457D01*
X456993Y212726D01*
X456918Y213007D01*
X456866Y213300D01*
X456835Y213607D01*
X456830Y213809D01*
X456852Y213976D01*
X456690Y215210D01*
X456214Y216359D01*
X455456Y217346D01*
X454469Y218103D01*
X453320Y218579D01*
X452087Y218742D01*
D02*
G37*
G36*
X476338Y155012D02*
X471760D01*
Y150434D01*
X472591Y150543D01*
X473832Y151057D01*
X474897Y151874D01*
X475715Y152940D01*
X476229Y154180D01*
X476338Y155012D01*
D02*
G37*
G36*
X470760D02*
X466182D01*
X466291Y154180D01*
X466805Y152940D01*
X467622Y151874D01*
X468688Y151057D01*
X469928Y150543D01*
X470760Y150434D01*
Y155012D01*
D02*
G37*
G36*
X406614Y151665D02*
X403650D01*
Y148701D01*
X404063Y148756D01*
X404915Y149108D01*
X405646Y149669D01*
X406207Y150400D01*
X406560Y151252D01*
X406614Y151665D01*
D02*
G37*
G36*
X402650D02*
X399685D01*
X399740Y151252D01*
X400092Y150400D01*
X400653Y149669D01*
X401384Y149108D01*
X402236Y148756D01*
X402650Y148701D01*
Y151665D01*
D02*
G37*
G36*
X99016Y151765D02*
X98039Y151636D01*
X97130Y151259D01*
X96348Y150660D01*
X95749Y149878D01*
X95372Y148969D01*
X95243Y147992D01*
X95372Y147016D01*
X95749Y146106D01*
X96348Y145325D01*
X97130Y144725D01*
X98039Y144348D01*
X99016Y144220D01*
X99992Y144348D01*
X100902Y144725D01*
X101683Y145325D01*
X102283Y146106D01*
X102660Y147016D01*
X102788Y147992D01*
X102660Y148969D01*
X102283Y149878D01*
X101683Y150660D01*
X100902Y151259D01*
X99992Y151636D01*
X99016Y151765D01*
D02*
G37*
G36*
X380512Y144425D02*
X379458Y144286D01*
X378477Y143879D01*
X377634Y143232D01*
X376987Y142390D01*
X376580Y141408D01*
X376442Y140354D01*
X376580Y139301D01*
X376987Y138319D01*
X377634Y137476D01*
X378477Y136829D01*
X379458Y136423D01*
X380512Y136284D01*
X381565Y136423D01*
X382547Y136829D01*
X383390Y137476D01*
X384037Y138319D01*
X384443Y139301D01*
X384582Y140354D01*
X384443Y141408D01*
X384037Y142390D01*
X383390Y143232D01*
X382547Y143879D01*
X381565Y144286D01*
X380512Y144425D01*
D02*
G37*
G36*
X332480D02*
X331427Y144286D01*
X330445Y143879D01*
X329602Y143232D01*
X328955Y142390D01*
X328549Y141408D01*
X328410Y140354D01*
X328549Y139301D01*
X328955Y138319D01*
X329602Y137476D01*
X330445Y136829D01*
X331427Y136423D01*
X332480Y136284D01*
X333534Y136423D01*
X334515Y136829D01*
X335358Y137476D01*
X336005Y138319D01*
X336412Y139301D01*
X336551Y140354D01*
X336412Y141408D01*
X336005Y142390D01*
X335358Y143232D01*
X334515Y143879D01*
X333534Y144286D01*
X332480Y144425D01*
D02*
G37*
G36*
X311221Y145001D02*
X309987Y144839D01*
X308838Y144363D01*
X307851Y143606D01*
X307094Y142619D01*
X306618Y141470D01*
X306455Y140236D01*
X306618Y139003D01*
X307094Y137854D01*
X307851Y136867D01*
X308838Y136109D01*
X309987Y135633D01*
X311221Y135471D01*
X312454Y135633D01*
X313603Y136109D01*
X314590Y136867D01*
X315347Y137854D01*
X315823Y139003D01*
X315986Y140236D01*
X315823Y141470D01*
X315347Y142619D01*
X314590Y143606D01*
X313603Y144363D01*
X312454Y144839D01*
X311221Y145001D01*
D02*
G37*
G36*
X99016Y141765D02*
X98039Y141636D01*
X97130Y141259D01*
X96348Y140660D01*
X95749Y139878D01*
X95372Y138969D01*
X95243Y137992D01*
X95372Y137016D01*
X95749Y136106D01*
X96348Y135325D01*
X97130Y134725D01*
X98039Y134348D01*
X99016Y134220D01*
X99992Y134348D01*
X100902Y134725D01*
X101683Y135325D01*
X102283Y136106D01*
X102660Y137016D01*
X102788Y137992D01*
X102660Y138969D01*
X102283Y139878D01*
X101683Y140660D01*
X100902Y141259D01*
X99992Y141636D01*
X99016Y141765D01*
D02*
G37*
G36*
X279527Y142622D02*
X275590D01*
X274871Y142527D01*
X274201Y142250D01*
X273625Y141808D01*
X273183Y141232D01*
X272905Y140562D01*
X272811Y139842D01*
X272905Y139123D01*
X273183Y138453D01*
X273625Y137877D01*
X273918Y137652D01*
Y137033D01*
X273625Y136808D01*
X273183Y136232D01*
X272905Y135562D01*
X272811Y134842D01*
X272905Y134123D01*
X273183Y133453D01*
X273625Y132877D01*
X273736Y132791D01*
Y132161D01*
X273473Y131960D01*
X272997Y131340D01*
X272698Y130617D01*
X272662Y130342D01*
X277559D01*
X282456D01*
X282420Y130617D01*
X282120Y131340D01*
X281645Y131960D01*
X281382Y132161D01*
Y132791D01*
X281493Y132877D01*
X281935Y133453D01*
X282212Y134123D01*
X282307Y134842D01*
X282212Y135562D01*
X281935Y136232D01*
X281493Y136808D01*
X281200Y137033D01*
Y137652D01*
X281493Y137877D01*
X281935Y138453D01*
X282212Y139123D01*
X282307Y139842D01*
X282212Y140562D01*
X281935Y141232D01*
X281493Y141808D01*
X280917Y142250D01*
X280247Y142527D01*
X279527Y142622D01*
D02*
G37*
G36*
X300197Y136190D02*
X299339Y136077D01*
X298539Y135746D01*
X297852Y135219D01*
X297325Y134532D01*
X296994Y133732D01*
X296881Y132874D01*
X296994Y132016D01*
X297325Y131216D01*
X297852Y130529D01*
X298539Y130002D01*
X299339Y129671D01*
X300197Y129558D01*
X301055Y129671D01*
X301855Y130002D01*
X302541Y130529D01*
X303068Y131216D01*
X303400Y132016D01*
X303513Y132874D01*
X303400Y133732D01*
X303068Y134532D01*
X302541Y135219D01*
X301855Y135746D01*
X301055Y136077D01*
X300197Y136190D01*
D02*
G37*
G36*
X282456Y129342D02*
X278059D01*
Y126848D01*
X279527D01*
X280302Y126950D01*
X281025Y127249D01*
X281645Y127725D01*
X282120Y128345D01*
X282420Y129068D01*
X282456Y129342D01*
D02*
G37*
G36*
X277059D02*
X272662D01*
X272698Y129068D01*
X272997Y128345D01*
X273473Y127725D01*
X274093Y127249D01*
X274816Y126950D01*
X275590Y126848D01*
X277059D01*
Y129342D01*
D02*
G37*
G36*
X99016Y131765D02*
X98039Y131636D01*
X97130Y131259D01*
X96348Y130660D01*
X95749Y129878D01*
X95372Y128969D01*
X95243Y127992D01*
X95372Y127016D01*
X95749Y126106D01*
X96348Y125325D01*
X97130Y124725D01*
X98039Y124348D01*
X99016Y124220D01*
X99992Y124348D01*
X100902Y124725D01*
X101683Y125325D01*
X102283Y126106D01*
X102660Y127016D01*
X102788Y127992D01*
X102660Y128969D01*
X102283Y129878D01*
X101683Y130660D01*
X100902Y131259D01*
X99992Y131636D01*
X99016Y131765D01*
D02*
G37*
G36*
Y111765D02*
X98039Y111636D01*
X97130Y111259D01*
X96348Y110660D01*
X95749Y109878D01*
X95372Y108969D01*
X95243Y107992D01*
X95372Y107016D01*
X95749Y106106D01*
X96348Y105325D01*
X97130Y104725D01*
X98039Y104348D01*
X99016Y104220D01*
X99992Y104348D01*
X100902Y104725D01*
X101683Y105325D01*
X102283Y106106D01*
X102660Y107016D01*
X102788Y107992D01*
X102660Y108969D01*
X102283Y109878D01*
X101683Y110660D01*
X100902Y111259D01*
X99992Y111636D01*
X99016Y111765D01*
D02*
G37*
G36*
X239212Y107253D02*
X238354Y107140D01*
X237555Y106809D01*
X236868Y106282D01*
X236341Y105595D01*
X236010Y104795D01*
X235897Y103937D01*
X235900Y103910D01*
X235890Y103883D01*
X235852Y103808D01*
X235791Y103708D01*
X235716Y103601D01*
X235495Y103342D01*
X223439Y91286D01*
X222960Y90570D01*
X222792Y89725D01*
Y81517D01*
X222767Y81261D01*
X222743Y81125D01*
X222715Y81011D01*
X222689Y80931D01*
X222677Y80905D01*
X222656Y80888D01*
X222129Y80201D01*
X221797Y79401D01*
X221684Y78543D01*
X221797Y77685D01*
X222129Y76885D01*
X222656Y76199D01*
X223342Y75672D01*
X224142Y75340D01*
X225000Y75227D01*
X225858Y75340D01*
X226658Y75672D01*
X227345Y76199D01*
X227872Y76885D01*
X228203Y77685D01*
X228316Y78543D01*
X228203Y79401D01*
X227872Y80201D01*
X227345Y80888D01*
X227323Y80905D01*
X227311Y80931D01*
X227285Y81011D01*
X227257Y81125D01*
X227235Y81253D01*
X227208Y81593D01*
Y88810D01*
X238671Y100273D01*
X238870Y100436D01*
X238983Y100515D01*
X239083Y100576D01*
X239158Y100614D01*
X239185Y100625D01*
X239212Y100621D01*
X240071Y100734D01*
X240870Y101066D01*
X241557Y101593D01*
X242084Y102279D01*
X242415Y103079D01*
X242528Y103937D01*
X242415Y104795D01*
X242084Y105595D01*
X241557Y106282D01*
X240870Y106809D01*
X240071Y107140D01*
X239212Y107253D01*
D02*
G37*
G36*
X159016Y241765D02*
X158039Y241636D01*
X157130Y241259D01*
X156348Y240660D01*
X155749Y239878D01*
X155372Y238969D01*
X155243Y237992D01*
X155372Y237016D01*
X155749Y236106D01*
X156348Y235325D01*
X157130Y234725D01*
X158039Y234348D01*
X159016Y234220D01*
X159113Y234232D01*
X159155Y234230D01*
X159267Y234212D01*
X159390Y234179D01*
X159525Y234127D01*
X159673Y234055D01*
X159833Y233962D01*
X159995Y233851D01*
X160216Y233670D01*
X188892Y204994D01*
Y112050D01*
X189060Y111205D01*
X189539Y110488D01*
X195549Y104479D01*
X195711Y104280D01*
X195791Y104167D01*
X195852Y104067D01*
X195890Y103992D01*
X195900Y103964D01*
X195897Y103937D01*
X196010Y103079D01*
X196341Y102279D01*
X196868Y101593D01*
X197555Y101066D01*
X198354Y100734D01*
X199213Y100621D01*
X200071Y100734D01*
X200870Y101066D01*
X201557Y101593D01*
X202084Y102279D01*
X202415Y103079D01*
X202528Y103937D01*
X202415Y104795D01*
X202084Y105595D01*
X201557Y106282D01*
X200870Y106809D01*
X200071Y107140D01*
X199213Y107253D01*
X199185Y107249D01*
X199158Y107260D01*
X199083Y107298D01*
X198983Y107359D01*
X198876Y107434D01*
X198617Y107654D01*
X193308Y112964D01*
Y205908D01*
X193140Y206753D01*
X192661Y207469D01*
X163289Y236841D01*
X163163Y237003D01*
X163046Y237175D01*
X162953Y237335D01*
X162881Y237483D01*
X162829Y237618D01*
X162796Y237741D01*
X162777Y237853D01*
X162776Y237895D01*
X162788Y237992D01*
X162660Y238969D01*
X162283Y239878D01*
X161683Y240660D01*
X160902Y241259D01*
X159992Y241636D01*
X159016Y241765D01*
D02*
G37*
G36*
X99516Y101913D02*
Y98492D01*
X102937D01*
X102867Y99024D01*
X102469Y99986D01*
X101835Y100811D01*
X101009Y101445D01*
X100048Y101843D01*
X99516Y101913D01*
D02*
G37*
G36*
X98516D02*
X97984Y101843D01*
X97022Y101445D01*
X96197Y100811D01*
X95563Y99986D01*
X95165Y99024D01*
X95095Y98492D01*
X98516D01*
Y101913D01*
D02*
G37*
G36*
Y97492D02*
X95095D01*
X95165Y96960D01*
X95563Y95999D01*
X96197Y95173D01*
X97020Y94542D01*
X97010Y94725D01*
X96949Y95884D01*
X98516D01*
Y97492D01*
D02*
G37*
G36*
X102937D02*
X99516D01*
Y95884D01*
X101083D01*
X101064Y95847D01*
X101047Y95778D01*
X101032Y95675D01*
X101009Y95369D01*
X100989Y94531D01*
X101009Y94539D01*
X101835Y95173D01*
X102469Y95999D01*
X102867Y96960D01*
X102937Y97492D01*
D02*
G37*
G36*
X519882Y97449D02*
X518606Y97281D01*
X517417Y96789D01*
X516396Y96005D01*
X515613Y94985D01*
X515120Y93796D01*
X514952Y92520D01*
X515120Y91244D01*
X515613Y90055D01*
X516396Y89034D01*
X517417Y88251D01*
X518606Y87758D01*
X519882Y87590D01*
X521158Y87758D01*
X522347Y88251D01*
X523368Y89034D01*
X524151Y90055D01*
X524643Y91244D01*
X524811Y92520D01*
X524643Y93796D01*
X524151Y94985D01*
X523368Y96005D01*
X522347Y96789D01*
X521158Y97281D01*
X519882Y97449D01*
D02*
G37*
G36*
X379134Y94818D02*
X378080Y94680D01*
X377099Y94273D01*
X376256Y93626D01*
X375609Y92783D01*
X375202Y91802D01*
X375064Y90748D01*
X375202Y89695D01*
X375609Y88713D01*
X376256Y87870D01*
X377099Y87223D01*
X378080Y86817D01*
X379134Y86678D01*
X380187Y86817D01*
X381169Y87223D01*
X382012Y87870D01*
X382659Y88713D01*
X383065Y89695D01*
X383204Y90748D01*
X383065Y91802D01*
X382659Y92783D01*
X382012Y93626D01*
X381169Y94273D01*
X380187Y94680D01*
X379134Y94818D01*
D02*
G37*
G36*
X331102D02*
X330049Y94680D01*
X329067Y94273D01*
X328224Y93626D01*
X327577Y92783D01*
X327171Y91802D01*
X327032Y90748D01*
X327171Y89695D01*
X327577Y88713D01*
X328224Y87870D01*
X329067Y87223D01*
X330049Y86817D01*
X331102Y86678D01*
X332156Y86817D01*
X333137Y87223D01*
X333980Y87870D01*
X334627Y88713D01*
X335034Y89695D01*
X335173Y90748D01*
X335034Y91802D01*
X334627Y92783D01*
X333980Y93626D01*
X333137Y94273D01*
X332156Y94680D01*
X331102Y94818D01*
D02*
G37*
G36*
X314567Y90473D02*
X305118D01*
Y81024D01*
X314567D01*
Y90473D01*
D02*
G37*
G36*
X415827Y100788D02*
X406378D01*
Y91339D01*
X408272D01*
X408430Y91322D01*
X408481Y91304D01*
X408525Y91274D01*
X408585Y91210D01*
X408661Y91085D01*
X408742Y90889D01*
X408815Y90617D01*
X408872Y90273D01*
X408895Y90020D01*
Y85678D01*
X401920Y78703D01*
X401721Y78541D01*
X401608Y78461D01*
X401508Y78400D01*
X401433Y78362D01*
X401406Y78352D01*
X401378Y78355D01*
X400520Y78242D01*
X399720Y77911D01*
X399034Y77384D01*
X398507Y76697D01*
X398175Y75898D01*
X398062Y75039D01*
X398175Y74181D01*
X398507Y73382D01*
X399034Y72695D01*
X399720Y72168D01*
X400520Y71837D01*
X401378Y71724D01*
X402236Y71837D01*
X403036Y72168D01*
X403723Y72695D01*
X404250Y73382D01*
X404581Y74181D01*
X404694Y75039D01*
X404690Y75067D01*
X404701Y75094D01*
X404739Y75169D01*
X404800Y75269D01*
X404875Y75375D01*
X405095Y75634D01*
X412664Y83202D01*
X413142Y83919D01*
X413310Y84764D01*
Y90020D01*
X413333Y90273D01*
X413390Y90617D01*
X413463Y90889D01*
X413544Y91085D01*
X413620Y91210D01*
X413680Y91274D01*
X413724Y91304D01*
X413775Y91322D01*
X413933Y91339D01*
X415827D01*
Y100788D01*
D02*
G37*
G36*
X238287Y81831D02*
X231713D01*
Y75256D01*
X238287D01*
Y81831D01*
D02*
G37*
G36*
X298622Y81702D02*
X297764Y81589D01*
X296964Y81258D01*
X296277Y80731D01*
X295750Y80044D01*
X295419Y79244D01*
X295306Y78386D01*
X295419Y77528D01*
X295750Y76728D01*
X296277Y76041D01*
X296964Y75515D01*
X297764Y75183D01*
X298622Y75070D01*
X299480Y75183D01*
X300280Y75515D01*
X300967Y76041D01*
X301494Y76728D01*
X301825Y77528D01*
X301938Y78386D01*
X301825Y79244D01*
X301494Y80044D01*
X300967Y80731D01*
X300280Y81258D01*
X299480Y81589D01*
X298622Y81702D01*
D02*
G37*
G36*
X286260Y82237D02*
X285284Y82108D01*
X284374Y81731D01*
X283593Y81132D01*
X282993Y80351D01*
X282616Y79441D01*
X282488Y78464D01*
X282616Y77488D01*
X282993Y76578D01*
X283593Y75797D01*
X284374Y75197D01*
X285284Y74821D01*
X286260Y74692D01*
X287236Y74821D01*
X288146Y75197D01*
X288928Y75797D01*
X289527Y76578D01*
X289904Y77488D01*
X290032Y78464D01*
X289904Y79441D01*
X289527Y80351D01*
X288928Y81132D01*
X288146Y81731D01*
X287236Y82108D01*
X286260Y82237D01*
D02*
G37*
G36*
X256260D02*
X255284Y82108D01*
X254374Y81731D01*
X253592Y81132D01*
X252993Y80351D01*
X252616Y79441D01*
X252488Y78464D01*
X252616Y77488D01*
X252993Y76578D01*
X253592Y75797D01*
X254374Y75197D01*
X255284Y74821D01*
X256260Y74692D01*
X257236Y74821D01*
X258146Y75197D01*
X258927Y75797D01*
X259527Y76578D01*
X259904Y77488D01*
X260032Y78464D01*
X259904Y79441D01*
X259527Y80351D01*
X258927Y81132D01*
X258146Y81731D01*
X257236Y82108D01*
X256260Y82237D01*
D02*
G37*
G36*
X118504Y79300D02*
X117646Y79187D01*
X116846Y78856D01*
X116159Y78329D01*
X115632Y77642D01*
X115301Y76843D01*
X115188Y75984D01*
X115301Y75126D01*
X115632Y74326D01*
X116159Y73640D01*
X116846Y73113D01*
X117646Y72782D01*
X118504Y72669D01*
X119362Y72782D01*
X120162Y73113D01*
X120849Y73640D01*
X121376Y74326D01*
X121707Y75126D01*
X121820Y75984D01*
X121707Y76843D01*
X121376Y77642D01*
X120849Y78329D01*
X120162Y78856D01*
X119362Y79187D01*
X118504Y79300D01*
D02*
G37*
G36*
X78504D02*
X77646Y79187D01*
X76846Y78856D01*
X76159Y78329D01*
X75633Y77642D01*
X75301Y76843D01*
X75188Y75984D01*
X75301Y75126D01*
X75633Y74326D01*
X76159Y73640D01*
X76846Y73113D01*
X77646Y72782D01*
X78504Y72669D01*
X79362Y72782D01*
X80162Y73113D01*
X80849Y73640D01*
X81375Y74326D01*
X81707Y75126D01*
X81820Y75984D01*
X81707Y76843D01*
X81375Y77642D01*
X80849Y78329D01*
X80162Y78856D01*
X79362Y79187D01*
X78504Y79300D01*
D02*
G37*
G36*
X159016Y161765D02*
X158039Y161636D01*
X157130Y161259D01*
X156348Y160660D01*
X155749Y159878D01*
X155372Y158969D01*
X155243Y157992D01*
X155372Y157016D01*
X155749Y156106D01*
X156348Y155325D01*
X157130Y154725D01*
X158039Y154348D01*
X159016Y154220D01*
X159113Y154233D01*
X159155Y154230D01*
X159267Y154212D01*
X159390Y154179D01*
X159525Y154127D01*
X159673Y154055D01*
X159833Y153962D01*
X159995Y153851D01*
X160216Y153670D01*
X176138Y137747D01*
Y74150D01*
X176116Y73895D01*
X176059Y73549D01*
X175985Y73276D01*
X175905Y73077D01*
X175828Y72952D01*
X175768Y72887D01*
X175723Y72857D01*
X175673Y72839D01*
X175629Y72834D01*
X174606D01*
Y66610D01*
X174144Y66419D01*
X166408Y74155D01*
Y142808D01*
X166240Y143653D01*
X165761Y144369D01*
X163289Y146841D01*
X163163Y147003D01*
X163046Y147175D01*
X162953Y147335D01*
X162881Y147483D01*
X162829Y147618D01*
X162796Y147741D01*
X162777Y147853D01*
X162776Y147895D01*
X162788Y147992D01*
X162660Y148969D01*
X162283Y149878D01*
X161683Y150660D01*
X160902Y151259D01*
X159992Y151636D01*
X159016Y151765D01*
X158039Y151636D01*
X157130Y151259D01*
X156348Y150660D01*
X155749Y149878D01*
X155372Y148969D01*
X155243Y147992D01*
X155372Y147016D01*
X155749Y146106D01*
X156348Y145325D01*
X157130Y144725D01*
X158039Y144348D01*
X159016Y144220D01*
X159113Y144232D01*
X159155Y144230D01*
X159267Y144212D01*
X159390Y144179D01*
X159525Y144127D01*
X159673Y144055D01*
X159833Y143962D01*
X159995Y143851D01*
X160216Y143670D01*
X161992Y141893D01*
Y141049D01*
X161492Y140806D01*
X160902Y141259D01*
X159992Y141636D01*
X159016Y141765D01*
X158039Y141636D01*
X157130Y141259D01*
X156348Y140660D01*
X155749Y139878D01*
X155372Y138969D01*
X155243Y137992D01*
X155372Y137016D01*
X155749Y136106D01*
X156348Y135325D01*
X157130Y134725D01*
X158039Y134348D01*
X159016Y134220D01*
X159992Y134348D01*
X160902Y134725D01*
X161492Y135178D01*
X161992Y134936D01*
Y131049D01*
X161492Y130806D01*
X160902Y131259D01*
X159992Y131636D01*
X159016Y131765D01*
X158039Y131636D01*
X157130Y131259D01*
X156348Y130660D01*
X155749Y129878D01*
X155372Y128969D01*
X155243Y127992D01*
X155372Y127016D01*
X155749Y126106D01*
X156348Y125325D01*
X157130Y124725D01*
X158039Y124348D01*
X159016Y124220D01*
X159992Y124348D01*
X160902Y124725D01*
X161492Y125178D01*
X161992Y124936D01*
Y121048D01*
X161492Y120806D01*
X160902Y121259D01*
X159992Y121636D01*
X159016Y121765D01*
X158039Y121636D01*
X157130Y121259D01*
X156348Y120660D01*
X155749Y119878D01*
X155372Y118969D01*
X155243Y117992D01*
X155372Y117016D01*
X155749Y116106D01*
X156348Y115325D01*
X157130Y114725D01*
X158039Y114348D01*
X159016Y114220D01*
X159992Y114348D01*
X160902Y114725D01*
X161492Y115178D01*
X161992Y114936D01*
Y111048D01*
X161492Y110806D01*
X160902Y111259D01*
X159992Y111636D01*
X159016Y111765D01*
X158039Y111636D01*
X157130Y111259D01*
X156348Y110660D01*
X155749Y109878D01*
X155372Y108969D01*
X155243Y107992D01*
X155372Y107016D01*
X155749Y106106D01*
X156348Y105325D01*
X157130Y104725D01*
X158039Y104348D01*
X159016Y104220D01*
X159992Y104348D01*
X160902Y104725D01*
X161492Y105178D01*
X161992Y104936D01*
Y101049D01*
X161492Y100806D01*
X160902Y101259D01*
X159992Y101636D01*
X159016Y101765D01*
X158039Y101636D01*
X157130Y101259D01*
X156348Y100660D01*
X155749Y99878D01*
X155372Y98969D01*
X155243Y97992D01*
X155372Y97016D01*
X155749Y96106D01*
X156348Y95325D01*
X157130Y94725D01*
X158039Y94348D01*
X159016Y94220D01*
X159992Y94348D01*
X160902Y94725D01*
X161492Y95178D01*
X161992Y94936D01*
Y73240D01*
X162160Y72395D01*
X162639Y71679D01*
X174073Y60245D01*
X174199Y60083D01*
X174316Y59912D01*
X174409Y59752D01*
X174481Y59604D01*
X174533Y59468D01*
X174566Y59345D01*
X174584Y59234D01*
X174586Y59191D01*
X174574Y59094D01*
X174702Y58118D01*
X175079Y57208D01*
X175679Y56427D01*
X176460Y55827D01*
X177370Y55450D01*
X178346Y55322D01*
X179323Y55450D01*
X180232Y55827D01*
X181014Y56427D01*
X181613Y57208D01*
X181990Y58118D01*
X182119Y59094D01*
X181990Y60071D01*
X181613Y60980D01*
X181014Y61762D01*
X180232Y62361D01*
X179323Y62738D01*
X178346Y62867D01*
X178249Y62854D01*
X178207Y62856D01*
X178095Y62874D01*
X177972Y62908D01*
X177837Y62959D01*
X177689Y63031D01*
X177529Y63125D01*
X177367Y63235D01*
X177146Y63417D01*
X175671Y64892D01*
X175862Y65354D01*
X182086D01*
Y72834D01*
X181063D01*
X181019Y72839D01*
X180969Y72857D01*
X180925Y72887D01*
X180864Y72952D01*
X180788Y73077D01*
X180707Y73276D01*
X180634Y73549D01*
X180576Y73895D01*
X180554Y74150D01*
Y138662D01*
X180386Y139507D01*
X179907Y140223D01*
X163289Y156841D01*
X163163Y157003D01*
X163046Y157175D01*
X162953Y157335D01*
X162881Y157483D01*
X162829Y157618D01*
X162796Y157741D01*
X162777Y157852D01*
X162776Y157895D01*
X162788Y157992D01*
X162660Y158969D01*
X162283Y159878D01*
X161683Y160660D01*
X160902Y161259D01*
X159992Y161636D01*
X159016Y161765D01*
D02*
G37*
G36*
X421653Y72704D02*
X420831Y72596D01*
X420065Y72279D01*
X419407Y71774D01*
X418902Y71116D01*
X418585Y70350D01*
X418477Y69528D01*
X418585Y68705D01*
X418902Y67939D01*
X419407Y67281D01*
X420065Y66776D01*
X420831Y66459D01*
X421653Y66351D01*
X422476Y66459D01*
X423242Y66776D01*
X423900Y67281D01*
X424405Y67939D01*
X424722Y68705D01*
X424830Y69528D01*
X424722Y70350D01*
X424405Y71116D01*
X423900Y71774D01*
X423242Y72279D01*
X422476Y72596D01*
X421653Y72704D01*
D02*
G37*
G36*
X446851Y72508D02*
X446028Y72399D01*
X445262Y72082D01*
X444604Y71577D01*
X444099Y70919D01*
X443782Y70153D01*
X443674Y69331D01*
X443782Y68509D01*
X444099Y67742D01*
X444604Y67084D01*
X445262Y66580D01*
X446028Y66262D01*
X446851Y66154D01*
X447673Y66262D01*
X448439Y66580D01*
X449097Y67084D01*
X449602Y67742D01*
X449919Y68509D01*
X450027Y69331D01*
X449919Y70153D01*
X449602Y70919D01*
X449097Y71577D01*
X448439Y72082D01*
X447673Y72399D01*
X446851Y72508D01*
D02*
G37*
G36*
X100954Y53117D02*
X100982Y51769D01*
X99280Y51883D01*
Y50303D01*
X102701D01*
X102631Y50835D01*
X102232Y51797D01*
X101599Y52622D01*
X100954Y53117D01*
D02*
G37*
G36*
X96806Y53264D02*
X96786Y53256D01*
X95960Y52622D01*
X95327Y51797D01*
X94929Y50835D01*
X94859Y50303D01*
X98280D01*
Y51912D01*
X96713D01*
X96731Y51948D01*
X96748Y52017D01*
X96763Y52120D01*
X96786Y52426D01*
X96806Y53264D01*
D02*
G37*
G36*
X178846Y53015D02*
Y49594D01*
X182267D01*
X182197Y50126D01*
X181799Y51088D01*
X181165Y51913D01*
X180340Y52547D01*
X179378Y52945D01*
X178846Y53015D01*
D02*
G37*
G36*
X177846D02*
X177314Y52945D01*
X176353Y52547D01*
X175527Y51913D01*
X174893Y51088D01*
X174495Y50126D01*
X174425Y49594D01*
X177846D01*
Y53015D01*
D02*
G37*
G36*
X102701Y49303D02*
X99280D01*
Y45882D01*
X99812Y45952D01*
X100773Y46350D01*
X101599Y46984D01*
X102232Y47810D01*
X102631Y48771D01*
X102701Y49303D01*
D02*
G37*
G36*
X98280D02*
X94859D01*
X94929Y48771D01*
X95327Y47810D01*
X95960Y46984D01*
X96786Y46350D01*
X97748Y45952D01*
X98280Y45882D01*
Y49303D01*
D02*
G37*
G36*
X468701Y97449D02*
X467425Y97281D01*
X466236Y96789D01*
X465215Y96005D01*
X464432Y94985D01*
X463939Y93796D01*
X463771Y92520D01*
X463939Y91244D01*
X464432Y90055D01*
X465215Y89034D01*
X466236Y88251D01*
X467425Y87758D01*
X468701Y87590D01*
X468949Y87623D01*
X468960Y87617D01*
X469061Y87546D01*
X470143Y86585D01*
X470955Y85773D01*
X471613Y85268D01*
X472379Y84951D01*
X473202Y84842D01*
X510075D01*
X546731Y48186D01*
X546750Y48039D01*
X547127Y47130D01*
X547726Y46348D01*
X548508Y45749D01*
X549417Y45372D01*
X550394Y45243D01*
X551370Y45372D01*
X552280Y45749D01*
X553061Y46348D01*
X553661Y47130D01*
X554038Y48039D01*
X554166Y49016D01*
X554038Y49992D01*
X553661Y50902D01*
X553061Y51683D01*
X552280Y52283D01*
X551370Y52660D01*
X551223Y52679D01*
X513637Y90265D01*
X512979Y90770D01*
X512213Y91088D01*
X511391Y91196D01*
X474522D01*
X474196Y91535D01*
X473815Y91976D01*
X473690Y92137D01*
X473604Y92261D01*
X473598Y92271D01*
X473630Y92520D01*
X473462Y93796D01*
X472970Y94985D01*
X472187Y96005D01*
X471166Y96789D01*
X469977Y97281D01*
X468701Y97449D01*
D02*
G37*
G36*
X182267Y48594D02*
X178846D01*
Y45173D01*
X179378Y45243D01*
X180340Y45641D01*
X181165Y46275D01*
X181799Y47101D01*
X182197Y48062D01*
X182267Y48594D01*
D02*
G37*
G36*
X177846D02*
X174425D01*
X174495Y48062D01*
X174893Y47101D01*
X175527Y46275D01*
X176353Y45641D01*
X177314Y45243D01*
X177846Y45173D01*
Y48594D01*
D02*
G37*
G36*
X422153Y42853D02*
Y40028D01*
X424979D01*
X424929Y40405D01*
X424590Y41223D01*
X424051Y41925D01*
X423349Y42465D01*
X422531Y42803D01*
X422153Y42853D01*
D02*
G37*
G36*
X421153D02*
X420776Y42803D01*
X419958Y42465D01*
X419255Y41925D01*
X418716Y41223D01*
X418378Y40405D01*
X418328Y40028D01*
X421153D01*
Y42853D01*
D02*
G37*
G36*
X447351Y42656D02*
Y39831D01*
X450176D01*
X450126Y40209D01*
X449788Y41026D01*
X449249Y41729D01*
X448546Y42268D01*
X447728Y42606D01*
X447351Y42656D01*
D02*
G37*
G36*
X446351D02*
X445973Y42606D01*
X445155Y42268D01*
X444453Y41729D01*
X443914Y41026D01*
X443575Y40209D01*
X443525Y39831D01*
X446351D01*
Y42656D01*
D02*
G37*
G36*
X309843Y49332D02*
X308609Y49170D01*
X307460Y48694D01*
X306473Y47936D01*
X305716Y46950D01*
X305240Y45800D01*
X305077Y44567D01*
X305240Y43334D01*
X305716Y42184D01*
X306473Y41197D01*
X307460Y40440D01*
X308609Y39964D01*
X309843Y39802D01*
X311076Y39964D01*
X312225Y40440D01*
X313212Y41197D01*
X313969Y42184D01*
X314445Y43334D01*
X314608Y44567D01*
X314445Y45800D01*
X313969Y46950D01*
X313212Y47936D01*
X312225Y48694D01*
X311076Y49170D01*
X309843Y49332D01*
D02*
G37*
G36*
X379134Y47574D02*
X378080Y47436D01*
X377099Y47029D01*
X376256Y46382D01*
X375609Y45539D01*
X375202Y44557D01*
X375064Y43504D01*
X375202Y42450D01*
X375609Y41469D01*
X376256Y40626D01*
X377099Y39979D01*
X378080Y39572D01*
X379134Y39434D01*
X380187Y39572D01*
X381169Y39979D01*
X382012Y40626D01*
X382659Y41469D01*
X383065Y42450D01*
X383204Y43504D01*
X383065Y44557D01*
X382659Y45539D01*
X382012Y46382D01*
X381169Y47029D01*
X380187Y47436D01*
X379134Y47574D01*
D02*
G37*
G36*
X331102D02*
X330049Y47436D01*
X329067Y47029D01*
X328224Y46382D01*
X327577Y45539D01*
X327171Y44557D01*
X327032Y43504D01*
X327171Y42450D01*
X327577Y41469D01*
X328224Y40626D01*
X329067Y39979D01*
X330049Y39572D01*
X331102Y39434D01*
X332156Y39572D01*
X333137Y39979D01*
X333980Y40626D01*
X334627Y41469D01*
X335034Y42450D01*
X335173Y43504D01*
X335034Y44557D01*
X334627Y45539D01*
X333980Y46382D01*
X333137Y47029D01*
X332156Y47436D01*
X331102Y47574D01*
D02*
G37*
G36*
X469201Y42480D02*
Y37902D01*
X473779D01*
X473669Y38733D01*
X473156Y39974D01*
X472338Y41039D01*
X471273Y41856D01*
X470032Y42370D01*
X469201Y42480D01*
D02*
G37*
G36*
X468201D02*
X467369Y42370D01*
X466129Y41856D01*
X465063Y41039D01*
X464246Y39974D01*
X463732Y38733D01*
X463623Y37902D01*
X468201D01*
Y42480D01*
D02*
G37*
G36*
X424979Y39028D02*
X422153D01*
Y36202D01*
X422531Y36252D01*
X423349Y36591D01*
X424051Y37130D01*
X424590Y37832D01*
X424929Y38650D01*
X424979Y39028D01*
D02*
G37*
G36*
X421153D02*
X418328D01*
X418378Y38650D01*
X418716Y37832D01*
X419255Y37130D01*
X419958Y36591D01*
X420776Y36252D01*
X421153Y36202D01*
Y39028D01*
D02*
G37*
G36*
X450176Y38831D02*
X447351D01*
Y36005D01*
X447728Y36055D01*
X448546Y36394D01*
X449249Y36933D01*
X449788Y37635D01*
X450126Y38453D01*
X450176Y38831D01*
D02*
G37*
G36*
X446351D02*
X443525D01*
X443575Y38453D01*
X443914Y37635D01*
X444453Y36933D01*
X445155Y36394D01*
X445973Y36055D01*
X446351Y36005D01*
Y38831D01*
D02*
G37*
G36*
X401878Y38504D02*
Y35539D01*
X404843D01*
X404788Y35953D01*
X404435Y36805D01*
X403874Y37536D01*
X403143Y38097D01*
X402292Y38449D01*
X401878Y38504D01*
D02*
G37*
G36*
X400878D02*
X400464Y38449D01*
X399613Y38097D01*
X398882Y37536D01*
X398321Y36805D01*
X397968Y35953D01*
X397914Y35539D01*
X400878D01*
Y38504D01*
D02*
G37*
G36*
X298622Y41702D02*
X297764Y41589D01*
X296964Y41258D01*
X296277Y40731D01*
X295750Y40044D01*
X295419Y39244D01*
X295306Y38386D01*
X295419Y37528D01*
X295750Y36728D01*
X296277Y36041D01*
X296964Y35515D01*
X297764Y35183D01*
X298622Y35070D01*
X299480Y35183D01*
X300280Y35515D01*
X300967Y36041D01*
X301494Y36728D01*
X301825Y37528D01*
X301938Y38386D01*
X301825Y39244D01*
X301494Y40044D01*
X300967Y40731D01*
X300280Y41258D01*
X299480Y41589D01*
X298622Y41702D01*
D02*
G37*
G36*
X279528Y47150D02*
X275591D01*
X274871Y47055D01*
X274201Y46777D01*
X273625Y46336D01*
X273183Y45760D01*
X272906Y45090D01*
X272811Y44370D01*
X272906Y43651D01*
X273183Y42980D01*
X273625Y42405D01*
X273918Y42180D01*
Y41560D01*
X273625Y41336D01*
X273183Y40760D01*
X272906Y40089D01*
X272811Y39370D01*
X272906Y38651D01*
X273183Y37980D01*
X273625Y37405D01*
X273736Y37319D01*
Y37303D01*
X274244Y36880D01*
X274830Y36489D01*
X275367Y36201D01*
X275855Y36018D01*
X276294Y35940D01*
X276683Y35966D01*
X277024Y36096D01*
X277316Y36331D01*
X275999Y34915D01*
X275957Y34870D01*
X277559D01*
X282456D01*
X282420Y35145D01*
X282121Y35867D01*
X281645Y36487D01*
X281382Y36689D01*
Y37319D01*
X281493Y37405D01*
X281935Y37980D01*
X282213Y38651D01*
X282307Y39370D01*
X282213Y40089D01*
X281935Y40760D01*
X281493Y41336D01*
X281200Y41560D01*
Y42180D01*
X281493Y42405D01*
X281935Y42980D01*
X282213Y43651D01*
X282307Y44370D01*
X282213Y45090D01*
X281935Y45760D01*
X281493Y46336D01*
X280918Y46777D01*
X280247Y47055D01*
X279528Y47150D01*
D02*
G37*
G36*
X452284Y100828D02*
X451050Y100666D01*
X449901Y100190D01*
X448914Y99433D01*
X448157Y98446D01*
X447681Y97297D01*
X447518Y96063D01*
X447681Y94830D01*
X448157Y93681D01*
X448914Y92694D01*
X449901Y91936D01*
X451050Y91460D01*
X452284Y91298D01*
X452451Y91320D01*
X452653Y91315D01*
X452960Y91284D01*
X453254Y91232D01*
X453534Y91157D01*
X453803Y91062D01*
X454063Y90944D01*
X454313Y90805D01*
X454555Y90642D01*
X454688Y90536D01*
X509384Y35840D01*
X510100Y35362D01*
X510945Y35194D01*
X513994D01*
X514185Y35171D01*
X514482Y35110D01*
X514770Y35025D01*
X515051Y34915D01*
X515326Y34780D01*
X515596Y34619D01*
X515862Y34431D01*
X516123Y34215D01*
X516287Y34059D01*
X516396Y33916D01*
X517417Y33132D01*
X518606Y32640D01*
X519882Y32472D01*
X521158Y32640D01*
X522347Y33132D01*
X523368Y33916D01*
X524151Y34937D01*
X524643Y36126D01*
X524811Y37402D01*
X524643Y38677D01*
X524151Y39866D01*
X523368Y40887D01*
X522347Y41671D01*
X521158Y42163D01*
X519882Y42331D01*
X518606Y42163D01*
X517417Y41671D01*
X516396Y40887D01*
X516287Y40745D01*
X516123Y40589D01*
X515862Y40372D01*
X515596Y40184D01*
X515326Y40023D01*
X515051Y39888D01*
X514770Y39779D01*
X514482Y39693D01*
X514185Y39632D01*
X513994Y39609D01*
X511860D01*
X457810Y93659D01*
X457705Y93791D01*
X457542Y94034D01*
X457402Y94284D01*
X457285Y94543D01*
X457189Y94813D01*
X457115Y95093D01*
X457063Y95387D01*
X457032Y95694D01*
X457027Y95896D01*
X457049Y96063D01*
X456886Y97297D01*
X456410Y98446D01*
X455653Y99433D01*
X454666Y100190D01*
X453517Y100666D01*
X452284Y100828D01*
D02*
G37*
G36*
X473779Y36902D02*
X469201D01*
Y32323D01*
X470032Y32433D01*
X471273Y32947D01*
X472338Y33764D01*
X473156Y34830D01*
X473669Y36070D01*
X473779Y36902D01*
D02*
G37*
G36*
X468201D02*
X463623D01*
X463732Y36070D01*
X464246Y34830D01*
X465063Y33764D01*
X466129Y32947D01*
X467369Y32433D01*
X468201Y32323D01*
Y36902D01*
D02*
G37*
G36*
X404843Y34539D02*
X401878D01*
Y31575D01*
X402292Y31629D01*
X403143Y31982D01*
X403874Y32543D01*
X404435Y33274D01*
X404788Y34126D01*
X404843Y34539D01*
D02*
G37*
G36*
X400878D02*
X397914D01*
X397968Y34126D01*
X398321Y33274D01*
X398882Y32543D01*
X399613Y31982D01*
X400464Y31629D01*
X400878Y31575D01*
Y34539D01*
D02*
G37*
G36*
X282456Y33870D02*
X278059D01*
Y31376D01*
X279528D01*
X280303Y31478D01*
X281025Y31777D01*
X281645Y32253D01*
X282121Y32873D01*
X282420Y33595D01*
X282456Y33870D01*
D02*
G37*
G36*
X277059D02*
X275028D01*
X274195Y32975D01*
X275254Y31563D01*
X275354Y31407D01*
X275591Y31376D01*
X277059D01*
Y33870D01*
D02*
G37*
G36*
X574815Y22683D02*
X573464Y22550D01*
X572166Y22156D01*
X570969Y21516D01*
X569920Y20655D01*
X569059Y19606D01*
X568419Y18409D01*
X568025Y17110D01*
X567892Y15760D01*
X568025Y14409D01*
X568419Y13110D01*
X569059Y11913D01*
X569920Y10864D01*
X570969Y10003D01*
X572166Y9364D01*
X573464Y8970D01*
X574815Y8837D01*
X576166Y8970D01*
X577464Y9364D01*
X578661Y10003D01*
X579710Y10864D01*
X580571Y11913D01*
X581211Y13110D01*
X581605Y14409D01*
X581738Y15760D01*
X581605Y17110D01*
X581211Y18409D01*
X580571Y19606D01*
X579710Y20655D01*
X578661Y21516D01*
X577464Y22156D01*
X576166Y22550D01*
X574815Y22683D01*
D02*
G37*
G36*
X15760D02*
X14409Y22550D01*
X13110Y22156D01*
X11913Y21516D01*
X10864Y20655D01*
X10003Y19606D01*
X9364Y18409D01*
X8970Y17110D01*
X8837Y15760D01*
X8970Y14409D01*
X9364Y13110D01*
X10003Y11913D01*
X10864Y10864D01*
X11913Y10003D01*
X13110Y9364D01*
X14409Y8970D01*
X15760Y8837D01*
X17110Y8970D01*
X18409Y9364D01*
X19606Y10003D01*
X20655Y10864D01*
X21516Y11913D01*
X22156Y13110D01*
X22550Y14409D01*
X22683Y15760D01*
X22550Y17110D01*
X22156Y18409D01*
X21516Y19606D01*
X20655Y20655D01*
X19606Y21516D01*
X18409Y22156D01*
X17110Y22550D01*
X15760Y22683D01*
D02*
G37*
%LPD*%
G36*
X520497Y330988D02*
X520379Y331085D01*
X520223Y331171D01*
X520029Y331247D01*
X519797Y331313D01*
X519528Y331369D01*
X519220Y331415D01*
X518493Y331476D01*
X517614Y331496D01*
Y336220D01*
X518072Y336226D01*
X519220Y336302D01*
X519528Y336347D01*
X519797Y336403D01*
X520029Y336469D01*
X520223Y336545D01*
X520379Y336632D01*
X520497Y336728D01*
Y330988D01*
D02*
G37*
G36*
X88972Y324484D02*
X89056Y324028D01*
X89195Y323560D01*
X89390Y323080D01*
X89641Y322589D01*
X89947Y322085D01*
X90309Y321570D01*
X90726Y321043D01*
X91729Y319953D01*
X88945Y317169D01*
X88394Y317698D01*
X87327Y318589D01*
X86812Y318951D01*
X86309Y319257D01*
X85817Y319507D01*
X85337Y319702D01*
X84869Y319841D01*
X84413Y319925D01*
X83969Y319953D01*
X88945Y324929D01*
X88972Y324484D01*
D02*
G37*
G36*
X156907Y265925D02*
X156871Y265944D01*
X156802Y265961D01*
X156699Y265975D01*
X156393Y265999D01*
X155380Y266023D01*
X155043Y266024D01*
Y269961D01*
X156907Y270059D01*
Y265925D01*
D02*
G37*
G36*
X414187Y332071D02*
X413953Y331988D01*
X413746Y331851D01*
X413567Y331658D01*
X413415Y331410D01*
X413291Y331106D01*
X413195Y330748D01*
X413126Y330335D01*
X413085Y329866D01*
X413071Y329343D01*
X410315D01*
X410301Y329866D01*
X410260Y330335D01*
X410191Y330748D01*
X410094Y331106D01*
X409970Y331410D01*
X409819Y331658D01*
X409640Y331851D01*
X409433Y331988D01*
X409199Y332071D01*
X408937Y332099D01*
X414449D01*
X414187Y332071D01*
D02*
G37*
G36*
X404494Y319908D02*
X404301Y319710D01*
X403845Y319175D01*
X403734Y319016D01*
X403643Y318867D01*
X403573Y318728D01*
X403523Y318600D01*
X403493Y318480D01*
X403484Y318371D01*
X401009Y320846D01*
X401118Y320855D01*
X401237Y320885D01*
X401366Y320935D01*
X401505Y321005D01*
X401654Y321096D01*
X401812Y321207D01*
X402159Y321491D01*
X402347Y321663D01*
X402545Y321856D01*
X404494Y319908D01*
D02*
G37*
G36*
X60168Y335529D02*
X59935Y335442D01*
X59729Y335297D01*
X59550Y335095D01*
X59399Y334834D01*
X59275Y334515D01*
X59179Y334139D01*
X59110Y333704D01*
X59069Y333212D01*
X59055Y332662D01*
X56299D01*
X56286Y333212D01*
X56244Y333704D01*
X56176Y334139D01*
X56079Y334515D01*
X55956Y334834D01*
X55804Y335095D01*
X55626Y335297D01*
X55420Y335442D01*
X55186Y335529D01*
X54925Y335558D01*
X60430D01*
X60168Y335529D01*
D02*
G37*
G36*
X59067Y328736D02*
X59159Y327854D01*
X59239Y327496D01*
X59342Y327193D01*
X59469Y326945D01*
X59618Y326752D01*
X59791Y326614D01*
X59986Y326531D01*
X60205Y326504D01*
X55229D01*
X55432Y326531D01*
X55614Y326614D01*
X55775Y326752D01*
X55914Y326945D01*
X56032Y327193D01*
X56128Y327496D01*
X56203Y327854D01*
X56256Y328268D01*
X56288Y328736D01*
X56299Y329260D01*
X59055D01*
X59067Y328736D01*
D02*
G37*
G36*
X98136Y334706D02*
X98073Y334601D01*
X98017Y334474D01*
X97969Y334326D01*
X97928Y334157D01*
X97894Y333966D01*
X97850Y333520D01*
X97839Y333265D01*
X97835Y332989D01*
X97835D01*
Y332989D01*
X96517Y332989D01*
X95079Y332989D01*
Y332989D01*
X95079D01*
X95075Y333265D01*
X95019Y333966D01*
X94986Y334157D01*
X94945Y334326D01*
X94897Y334474D01*
X94841Y334601D01*
X94778Y334706D01*
X94707Y334789D01*
X96533Y334789D01*
X98207Y334789D01*
X98136Y334706D01*
D02*
G37*
G36*
X96457Y326027D02*
X97835Y326027D01*
Y326027D01*
X97835D01*
X97838Y325750D01*
X97894Y325049D01*
X97928Y324859D01*
X97969Y324689D01*
X98017Y324541D01*
X98073Y324415D01*
X98136Y324310D01*
X98207Y324226D01*
X96807Y324226D01*
X94707Y324226D01*
X94707Y324226D01*
X94707D01*
X94727Y324251D01*
X94777Y324310D01*
X94841Y324415D01*
X94896Y324541D01*
X94945Y324689D01*
X94986Y324859D01*
X95019Y325049D01*
X95064Y325495D01*
X95075Y325750D01*
X95079Y326027D01*
X95079D01*
Y326027D01*
X96457Y326027D01*
D02*
G37*
G36*
X232585Y322573D02*
X232522Y322468D01*
X232466Y322341D01*
X232417Y322193D01*
X232377Y322024D01*
X232343Y321833D01*
X232298Y321387D01*
X232287Y321132D01*
X232284Y320856D01*
X229528D01*
X229524Y321132D01*
X229468Y321833D01*
X229435Y322024D01*
X229394Y322193D01*
X229345Y322341D01*
X229290Y322468D01*
X229226Y322573D01*
X229156Y322656D01*
X232656D01*
X232585Y322573D01*
D02*
G37*
G36*
X232297Y312848D02*
X232339Y312378D01*
X232408Y311963D01*
X232504Y311603D01*
X232628Y311298D01*
X232780Y311049D01*
X232959Y310855D01*
X233166Y310717D01*
X233400Y310634D01*
X233662Y310606D01*
X228150D01*
X228412Y310634D01*
X228646Y310717D01*
X228852Y310855D01*
X229032Y311049D01*
X229183Y311298D01*
X229307Y311603D01*
X229404Y311963D01*
X229472Y312378D01*
X229514Y312848D01*
X229528Y313374D01*
X232284D01*
X232297Y312848D01*
D02*
G37*
G36*
X244463Y285689D02*
X244354Y285680D01*
X244235Y285651D01*
X244106Y285601D01*
X243968Y285530D01*
X243819Y285439D01*
X243660Y285328D01*
X243314Y285045D01*
X243125Y284872D01*
X242927Y284679D01*
X240978Y286628D01*
X241171Y286826D01*
X241627Y287361D01*
X241739Y287520D01*
X241829Y287668D01*
X241900Y287807D01*
X241950Y287936D01*
X241979Y288055D01*
X241988Y288164D01*
X244463Y285689D01*
D02*
G37*
G36*
X226775Y267876D02*
X226831Y267176D01*
X226865Y266985D01*
X226905Y266815D01*
X226954Y266667D01*
X227010Y266541D01*
X227073Y266436D01*
X227144Y266352D01*
X223643D01*
X223714Y266436D01*
X223778Y266541D01*
X223833Y266667D01*
X223882Y266815D01*
X223923Y266985D01*
X223956Y267176D01*
X224001Y267621D01*
X224012Y267876D01*
X224016Y268153D01*
X226771D01*
X226775Y267876D01*
D02*
G37*
G36*
X158986Y290945D02*
X156063Y288022D01*
X156051Y288060D01*
X156014Y288121D01*
X155951Y288205D01*
X155752Y288438D01*
X155052Y289170D01*
X154815Y289409D01*
X157599Y292193D01*
X158986Y290945D01*
D02*
G37*
G36*
X67604Y212380D02*
X67621Y212314D01*
X67665Y212227D01*
X67737Y212118D01*
X67836Y211988D01*
X68116Y211662D01*
X68741Y211011D01*
X65570Y208614D01*
X63739Y211628D01*
X67615Y212423D01*
X67604Y212380D01*
D02*
G37*
G36*
X80512Y198425D02*
X76575Y193673D01*
X76547Y194449D01*
X76463Y195202D01*
X76324Y195931D01*
X76129Y196638D01*
X75879Y197321D01*
X75573Y197982D01*
X75211Y198620D01*
X74793Y199234D01*
X74320Y199825D01*
X73791Y200394D01*
Y205961D01*
X74320Y205472D01*
X74793Y205117D01*
X75211Y204896D01*
X75573Y204810D01*
X75879Y204858D01*
X76129Y205040D01*
X76324Y205357D01*
X76463Y205809D01*
X76547Y206394D01*
X76575Y207115D01*
X80512Y198425D01*
D02*
G37*
G36*
X98986Y120945D02*
X96063Y118022D01*
X96051Y118060D01*
X96014Y118121D01*
X95951Y118204D01*
X95752Y118438D01*
X95052Y119170D01*
X94815Y119409D01*
X97599Y122193D01*
X98986Y120945D01*
D02*
G37*
G36*
Y115040D02*
X98948Y115027D01*
X98887Y114990D01*
X98804Y114928D01*
X98571Y114728D01*
X97838Y114029D01*
X97599Y113791D01*
X94815Y116575D01*
X96063Y117963D01*
X98986Y115040D01*
D02*
G37*
G36*
X68274Y84466D02*
X67772Y83955D01*
X66262Y82201D01*
X66008Y81836D01*
X65804Y81501D01*
X65649Y81195D01*
X65544Y80918D01*
X65489Y80670D01*
X59135Y83087D01*
X59640Y83176D01*
X60144Y83308D01*
X60649Y83483D01*
X61154Y83703D01*
X61658Y83966D01*
X62162Y84273D01*
X62666Y84624D01*
X63170Y85018D01*
X64178Y85939D01*
X68274Y84466D01*
D02*
G37*
G36*
X65290Y71024D02*
X65127Y70857D01*
X65050Y70644D01*
X65059Y70383D01*
X65154Y70075D01*
X65334Y69720D01*
X65601Y69318D01*
X65953Y68868D01*
X66391Y68372D01*
X66915Y67829D01*
X63587Y67259D01*
X63109Y67718D01*
X62212Y68460D01*
X61793Y68744D01*
X61393Y68969D01*
X61013Y69136D01*
X60653Y69245D01*
X60312Y69295D01*
X59991Y69287D01*
X59690Y69220D01*
X65539Y71144D01*
X65290Y71024D01*
D02*
G37*
G36*
X85851Y47047D02*
X85823Y47309D01*
X85740Y47543D01*
X85602Y47750D01*
X85408Y47929D01*
X85159Y48081D01*
X84854Y48205D01*
X84495Y48301D01*
X84079Y48370D01*
X83609Y48412D01*
X83083Y48425D01*
Y51181D01*
X83609Y51195D01*
X84079Y51236D01*
X84495Y51305D01*
X84854Y51402D01*
X85159Y51526D01*
X85408Y51677D01*
X85602Y51856D01*
X85740Y52063D01*
X85823Y52297D01*
X85851Y52559D01*
Y47047D01*
D02*
G37*
G36*
X257477Y271547D02*
X257174Y271767D01*
X256815Y271876D01*
X256401Y271875D01*
X255931Y271762D01*
X255405Y271539D01*
X254824Y271206D01*
X254187Y270761D01*
X253494Y270206D01*
X251941Y268763D01*
X249157Y271547D01*
X249934Y272351D01*
X251155Y273793D01*
X251599Y274430D01*
X251933Y275011D01*
X252156Y275537D01*
X252269Y276007D01*
X252270Y276421D01*
X252161Y276780D01*
X251941Y277083D01*
X257477Y271547D01*
D02*
G37*
G36*
X256663Y187508D02*
X256809Y185736D01*
X256897Y185303D01*
X257003Y184949D01*
X257130Y184673D01*
X257276Y184476D01*
X257441Y184358D01*
X257626Y184319D01*
X251744D01*
X251929Y184358D01*
X252094Y184476D01*
X252240Y184673D01*
X252366Y184949D01*
X252473Y185303D01*
X252561Y185736D01*
X252629Y186248D01*
X252707Y187508D01*
X252716Y188256D01*
X256653D01*
X256663Y187508D01*
D02*
G37*
G36*
X257312Y178437D02*
X257006Y178660D01*
X256644Y178771D01*
X256226D01*
X255753Y178660D01*
X255224Y178437D01*
X254640Y178103D01*
X253999Y177658D01*
X253303Y177101D01*
X251744Y175653D01*
X248960Y178437D01*
X249740Y179245D01*
X250965Y180692D01*
X251410Y181333D01*
X251744Y181917D01*
X251967Y182446D01*
X252078Y182919D01*
Y183337D01*
X251967Y183699D01*
X251744Y184005D01*
X257312Y178437D01*
D02*
G37*
G36*
X254128Y93408D02*
X255577Y92181D01*
X256217Y91734D01*
X256802Y91399D01*
X257331Y91175D01*
X257804Y91063D01*
X258221Y91062D01*
X258582Y91172D01*
X258887Y91393D01*
X253331Y85837D01*
X253553Y86142D01*
X253663Y86504D01*
X253662Y86921D01*
X253549Y87393D01*
X253325Y87922D01*
X252990Y88507D01*
X252543Y89148D01*
X251985Y89844D01*
X250535Y91405D01*
X253319Y94189D01*
X254128Y93408D01*
D02*
G37*
G36*
X287847Y274420D02*
X287884Y274359D01*
X287946Y274276D01*
X288146Y274043D01*
X288845Y273310D01*
X289083Y273071D01*
X286299Y270287D01*
X284911Y271535D01*
X287835Y274459D01*
X287847Y274420D01*
D02*
G37*
G36*
X288886Y182795D02*
X287638Y181407D01*
X284715Y184331D01*
X284753Y184343D01*
X284814Y184380D01*
X284897Y184442D01*
X285130Y184642D01*
X285863Y185342D01*
X286102Y185579D01*
X288886Y182795D01*
D02*
G37*
G36*
X287650Y181310D02*
X287687Y181249D01*
X287749Y181166D01*
X287949Y180933D01*
X288649Y180200D01*
X288886Y179961D01*
X286102Y177177D01*
X284715Y178425D01*
X287638Y181349D01*
X287650Y181310D01*
D02*
G37*
G36*
X290461Y89881D02*
X289213Y88494D01*
X286290Y91417D01*
X286328Y91429D01*
X286389Y91466D01*
X286472Y91529D01*
X286705Y91728D01*
X287438Y92428D01*
X287677Y92665D01*
X290461Y89881D01*
D02*
G37*
G36*
X380887Y316146D02*
X380936Y315974D01*
X381020Y315783D01*
X381137Y315573D01*
X381288Y315343D01*
X381473Y315093D01*
X381944Y314535D01*
X382551Y313900D01*
X379210Y310559D01*
X378883Y310880D01*
X378017Y311638D01*
X377767Y311823D01*
X377537Y311974D01*
X377327Y312091D01*
X377136Y312174D01*
X376965Y312223D01*
X376813Y312239D01*
X380871Y316298D01*
X380887Y316146D01*
D02*
G37*
G36*
X47172Y211920D02*
X47055Y211757D01*
X46952Y211576D01*
X46862Y211376D01*
X46786Y211158D01*
X46724Y210922D01*
X46676Y210666D01*
X46642Y210393D01*
X46621Y210101D01*
X46614Y209790D01*
X43858D01*
X43851Y210101D01*
X43796Y210666D01*
X43748Y210922D01*
X43686Y211158D01*
X43610Y211376D01*
X43521Y211576D01*
X43417Y211757D01*
X43300Y211920D01*
X43169Y212065D01*
X47303D01*
X47172Y211920D01*
D02*
G37*
G36*
X42543Y197130D02*
X42294Y196876D01*
X41563Y196018D01*
X41446Y195843D01*
X41355Y195684D01*
X41290Y195540D01*
X41252Y195413D01*
X41240Y195301D01*
X38765Y197775D01*
X38877Y197788D01*
X39005Y197826D01*
X39148Y197891D01*
X39308Y197981D01*
X39483Y198099D01*
X39674Y198242D01*
X40102Y198608D01*
X40594Y199078D01*
X42543Y197130D01*
D02*
G37*
G36*
X413400Y210024D02*
X413165Y209941D01*
X412959Y209803D01*
X412780Y209610D01*
X412628Y209362D01*
X412504Y209059D01*
X412408Y208701D01*
X412339Y208288D01*
X412297Y207819D01*
X412284Y207295D01*
X409528D01*
X409514Y207819D01*
X409473Y208288D01*
X409404Y208701D01*
X409307Y209059D01*
X409183Y209362D01*
X409032Y209610D01*
X408852Y209803D01*
X408646Y209941D01*
X408412Y210024D01*
X408150Y210051D01*
X413661D01*
X413400Y210024D01*
D02*
G37*
G36*
X406660Y193727D02*
X406467Y193529D01*
X406011Y192993D01*
X405899Y192835D01*
X405809Y192686D01*
X405738Y192548D01*
X405688Y192419D01*
X405659Y192299D01*
X405650Y192190D01*
X403175Y194665D01*
X403284Y194674D01*
X403403Y194704D01*
X403532Y194754D01*
X403671Y194824D01*
X403819Y194915D01*
X403978Y195026D01*
X404324Y195310D01*
X404513Y195483D01*
X404711Y195675D01*
X406660Y193727D01*
D02*
G37*
G36*
X241117Y193366D02*
X241008Y193357D01*
X240889Y193328D01*
X240760Y193278D01*
X240621Y193207D01*
X240472Y193116D01*
X240314Y193005D01*
X239967Y192721D01*
X239779Y192549D01*
X239581Y192356D01*
X237632Y194305D01*
X237825Y194503D01*
X238281Y195038D01*
X238392Y195197D01*
X238483Y195345D01*
X238553Y195484D01*
X238603Y195613D01*
X238633Y195732D01*
X238642Y195841D01*
X241117Y193366D01*
D02*
G37*
G36*
X225791Y174569D02*
X225847Y173868D01*
X225880Y173678D01*
X225921Y173508D01*
X225970Y173360D01*
X226026Y173234D01*
X226089Y173129D01*
X226159Y173045D01*
X222659D01*
X222730Y173129D01*
X222793Y173234D01*
X222849Y173360D01*
X222898Y173508D01*
X222938Y173678D01*
X222972Y173868D01*
X223017Y174314D01*
X223028Y174569D01*
X223031Y174846D01*
X225787D01*
X225791Y174569D01*
D02*
G37*
G36*
X161978Y247768D02*
X162010Y247570D01*
X162065Y247369D01*
X162143Y247164D01*
X162244Y246956D01*
X162367Y246745D01*
X162514Y246531D01*
X162683Y246313D01*
X162875Y246092D01*
X163090Y245867D01*
X161141Y243918D01*
X160916Y244133D01*
X160477Y244494D01*
X160263Y244641D01*
X160052Y244764D01*
X159844Y244865D01*
X159639Y244943D01*
X159438Y244998D01*
X159240Y245030D01*
X159045Y245040D01*
X161968Y247963D01*
X161978Y247768D01*
D02*
G37*
G36*
X202327Y199294D02*
X202361Y198808D01*
X202391Y198597D01*
X202429Y198407D01*
X202475Y198239D01*
X202530Y198093D01*
X202594Y197968D01*
X202665Y197865D01*
X202746Y197784D01*
X199257Y197508D01*
X199316Y197590D01*
X199368Y197694D01*
X199415Y197820D01*
X199455Y197967D01*
X199489Y198136D01*
X199517Y198327D01*
X199555Y198774D01*
X199567Y199308D01*
X202323Y199570D01*
X202327Y199294D01*
D02*
G37*
G36*
X456033Y213557D02*
X456070Y213189D01*
X456134Y212833D01*
X456225Y212489D01*
X456343Y212156D01*
X456488Y211836D01*
X456660Y211527D01*
X456859Y211230D01*
X457086Y210946D01*
X457339Y210673D01*
X455391Y208724D01*
X455118Y208977D01*
X454833Y209204D01*
X454536Y209403D01*
X454227Y209575D01*
X453907Y209720D01*
X453575Y209838D01*
X453230Y209929D01*
X452874Y209993D01*
X452506Y210030D01*
X452126Y210040D01*
X456024Y213937D01*
X456033Y213557D01*
D02*
G37*
G36*
X519513Y152642D02*
X519216Y152925D01*
X518909Y153179D01*
X518593Y153403D01*
X518268Y153597D01*
X517933Y153761D01*
X517589Y153895D01*
X517236Y154000D01*
X516873Y154074D01*
X516501Y154119D01*
X516119Y154134D01*
Y156890D01*
X516501Y156905D01*
X516873Y156949D01*
X517236Y157024D01*
X517589Y157129D01*
X517933Y157263D01*
X518268Y157427D01*
X518593Y157621D01*
X518909Y157845D01*
X519216Y158098D01*
X519513Y158382D01*
Y152642D01*
D02*
G37*
G36*
X239188Y101437D02*
X239078Y101428D01*
X238959Y101399D01*
X238830Y101348D01*
X238692Y101278D01*
X238543Y101187D01*
X238384Y101076D01*
X238038Y100792D01*
X237849Y100620D01*
X237651Y100427D01*
X235702Y102376D01*
X235895Y102574D01*
X236351Y103109D01*
X236463Y103268D01*
X236554Y103416D01*
X236624Y103555D01*
X236674Y103684D01*
X236703Y103803D01*
X236713Y103912D01*
X239188Y101437D01*
D02*
G37*
G36*
X226382Y81853D02*
X226438Y81152D01*
X226471Y80961D01*
X226512Y80792D01*
X226560Y80644D01*
X226616Y80517D01*
X226679Y80412D01*
X226750Y80329D01*
X223250D01*
X223321Y80412D01*
X223384Y80517D01*
X223440Y80644D01*
X223488Y80792D01*
X223529Y80961D01*
X223563Y81152D01*
X223607Y81598D01*
X223618Y81853D01*
X223622Y82129D01*
X226378D01*
X226382Y81853D01*
D02*
G37*
G36*
X161978Y237768D02*
X162010Y237570D01*
X162065Y237369D01*
X162143Y237164D01*
X162244Y236956D01*
X162367Y236745D01*
X162514Y236531D01*
X162683Y236313D01*
X162875Y236092D01*
X163090Y235867D01*
X161141Y233918D01*
X160916Y234133D01*
X160477Y234494D01*
X160263Y234641D01*
X160052Y234764D01*
X159844Y234865D01*
X159639Y234943D01*
X159438Y234998D01*
X159240Y235030D01*
X159045Y235040D01*
X161968Y237963D01*
X161978Y237768D01*
D02*
G37*
G36*
X197849Y107254D02*
X198384Y106798D01*
X198543Y106687D01*
X198692Y106596D01*
X198830Y106526D01*
X198959Y106476D01*
X199078Y106446D01*
X199188Y106437D01*
X196713Y103962D01*
X196703Y104071D01*
X196674Y104190D01*
X196624Y104319D01*
X196554Y104458D01*
X196463Y104607D01*
X196352Y104765D01*
X196068Y105112D01*
X195895Y105300D01*
X195703Y105498D01*
X197651Y107447D01*
X197849Y107254D01*
D02*
G37*
G36*
X413597Y92111D02*
X413362Y92028D01*
X413156Y91890D01*
X412977Y91697D01*
X412825Y91449D01*
X412701Y91146D01*
X412604Y90788D01*
X412535Y90374D01*
X412494Y89906D01*
X412480Y89382D01*
X409725D01*
X409711Y89906D01*
X409669Y90374D01*
X409600Y90788D01*
X409504Y91146D01*
X409380Y91449D01*
X409228Y91697D01*
X409049Y91890D01*
X408843Y92028D01*
X408608Y92111D01*
X408347Y92138D01*
X413858D01*
X413597Y92111D01*
D02*
G37*
G36*
X404888Y76601D02*
X404695Y76403D01*
X404239Y75867D01*
X404128Y75709D01*
X404037Y75560D01*
X403967Y75422D01*
X403917Y75293D01*
X403887Y75173D01*
X403878Y75064D01*
X401403Y77539D01*
X401512Y77548D01*
X401631Y77578D01*
X401760Y77628D01*
X401899Y77698D01*
X402048Y77789D01*
X402206Y77900D01*
X402553Y78184D01*
X402741Y78357D01*
X402940Y78549D01*
X404888Y76601D01*
D02*
G37*
G36*
X161978Y157768D02*
X162010Y157570D01*
X162065Y157369D01*
X162143Y157164D01*
X162244Y156956D01*
X162367Y156745D01*
X162514Y156531D01*
X162683Y156313D01*
X162875Y156092D01*
X163090Y155867D01*
X161141Y153919D01*
X160916Y154133D01*
X160477Y154494D01*
X160263Y154641D01*
X160052Y154764D01*
X159844Y154865D01*
X159639Y154943D01*
X159438Y154998D01*
X159240Y155030D01*
X159045Y155040D01*
X161968Y157963D01*
X161978Y157768D01*
D02*
G37*
G36*
Y147768D02*
X162010Y147570D01*
X162065Y147369D01*
X162143Y147164D01*
X162244Y146956D01*
X162367Y146745D01*
X162514Y146531D01*
X162683Y146313D01*
X162875Y146092D01*
X163090Y145867D01*
X161141Y143919D01*
X160916Y144133D01*
X160477Y144494D01*
X160263Y144641D01*
X160052Y144764D01*
X159844Y144865D01*
X159639Y144943D01*
X159438Y144998D01*
X159240Y145030D01*
X159045Y145040D01*
X161968Y147963D01*
X161978Y147768D01*
D02*
G37*
G36*
X179738Y74265D02*
X179779Y73794D01*
X179848Y73379D01*
X179945Y73019D01*
X180069Y72715D01*
X180220Y72466D01*
X180399Y72272D01*
X180606Y72134D01*
X180840Y72051D01*
X181102Y72023D01*
X175590D01*
X175852Y72051D01*
X176086Y72134D01*
X176293Y72272D01*
X176472Y72466D01*
X176624Y72715D01*
X176748Y73019D01*
X176844Y73379D01*
X176913Y73794D01*
X176954Y74265D01*
X176968Y74791D01*
X179724D01*
X179738Y74265D01*
D02*
G37*
G36*
X176446Y62953D02*
X176885Y62592D01*
X177099Y62446D01*
X177310Y62322D01*
X177518Y62222D01*
X177723Y62144D01*
X177924Y62089D01*
X178122Y62056D01*
X178317Y62047D01*
X175394Y59124D01*
X175384Y59318D01*
X175352Y59516D01*
X175297Y59718D01*
X175219Y59922D01*
X175118Y60130D01*
X174995Y60341D01*
X174848Y60556D01*
X174679Y60773D01*
X174487Y60995D01*
X174273Y61219D01*
X176221Y63168D01*
X176446Y62953D01*
D02*
G37*
G36*
X472797Y92085D02*
X472844Y91971D01*
X472925Y91830D01*
X473042Y91662D01*
X473194Y91466D01*
X473603Y90994D01*
X474480Y90081D01*
X471139Y86740D01*
X470808Y87068D01*
X469559Y88178D01*
X469390Y88295D01*
X469249Y88377D01*
X469136Y88423D01*
X469049Y88435D01*
X472786Y92172D01*
X472797Y92085D01*
D02*
G37*
G36*
X456230Y95644D02*
X456267Y95276D01*
X456331Y94920D01*
X456422Y94575D01*
X456540Y94243D01*
X456685Y93923D01*
X456857Y93614D01*
X457056Y93317D01*
X457283Y93032D01*
X457536Y92759D01*
X455587Y90811D01*
X455314Y91064D01*
X455030Y91290D01*
X454733Y91490D01*
X454424Y91662D01*
X454104Y91807D01*
X453771Y91925D01*
X453427Y92016D01*
X453071Y92080D01*
X452703Y92117D01*
X452323Y92126D01*
X456220Y96024D01*
X456230Y95644D01*
D02*
G37*
G36*
X516954Y34532D02*
X516657Y34815D01*
X516350Y35069D01*
X516034Y35293D01*
X515709Y35487D01*
X515374Y35651D01*
X515030Y35785D01*
X514677Y35889D01*
X514314Y35964D01*
X513942Y36009D01*
X513560Y36024D01*
Y38780D01*
X513942Y38794D01*
X514314Y38839D01*
X514677Y38914D01*
X515030Y39018D01*
X515374Y39153D01*
X515709Y39317D01*
X516034Y39511D01*
X516350Y39735D01*
X516657Y39988D01*
X516954Y40272D01*
Y34532D01*
D02*
G37*
D10*
X249173Y257927D02*
X254685Y252415D01*
Y181378D02*
Y252415D01*
X309843Y85748D02*
Y86417D01*
X284685Y181378D02*
X290748Y175315D01*
X35236Y224173D02*
Y333159D01*
X47677Y345600D01*
Y347638D01*
X240465Y359442D02*
X247306D01*
X99016Y76039D02*
Y97992D01*
X98976Y76000D02*
X99016Y76039D01*
X61614Y81181D02*
X62205D01*
X65236Y211732D02*
Y214173D01*
X248900Y95824D02*
X256260Y88464D01*
X99708Y347300D02*
X159016Y287992D01*
X78543Y333943D02*
X91900Y347300D01*
X78543Y138465D02*
X99016Y117992D01*
X62205Y81181D02*
X99016Y117992D01*
X86457Y322441D02*
X140905Y267992D01*
X159016D01*
X286260Y88464D02*
X290748Y92952D01*
Y175315D01*
X270800Y37291D02*
Y129842D01*
X277559D01*
X159016Y277992D02*
X240465Y359442D01*
X247306D02*
X268106D01*
X91900Y347300D02*
X99708D01*
X98780Y49803D02*
Y75803D01*
X78543Y227480D02*
Y333943D01*
Y138465D02*
Y198425D01*
X98976Y49803D02*
Y76000D01*
X98780Y75803D02*
X98976Y76000D01*
X393898Y42520D02*
X401378Y35039D01*
X393898Y42520D02*
Y142913D01*
X403150Y152165D01*
X437795Y167283D02*
X445472Y159606D01*
X437795Y167283D02*
Y270827D01*
X445079Y278110D01*
X57677Y357638D02*
Y361417D01*
X47677Y347638D02*
X57677Y357638D01*
X78543Y198425D02*
Y227480D01*
X65236Y211732D02*
X78543Y198425D01*
X270800Y37291D02*
X273721Y34370D01*
X277559D01*
X271666Y223149D02*
X279330D01*
X270800Y224016D02*
X271666Y223149D01*
X270800Y129842D02*
Y224016D01*
Y285400D01*
X281890Y296490D01*
Y345658D01*
X268106Y359442D02*
X281890Y345658D01*
X249173Y268779D02*
X254882Y274488D01*
X249173Y257927D02*
Y268779D01*
X248900Y175593D02*
X254685Y181378D01*
X248900Y95824D02*
Y175593D01*
X284882Y274488D02*
X290945Y268425D01*
Y187638D02*
Y268425D01*
X284685Y181378D02*
X290945Y187638D01*
D11*
X230906Y306693D02*
Y324442D01*
X159016Y247992D02*
X200945Y206063D01*
X159016Y237992D02*
X191100Y205908D01*
X164200Y73240D02*
X178346Y59094D01*
X159016Y147992D02*
X164200Y142808D01*
X159016Y157992D02*
X178346Y138662D01*
X510551Y155512D02*
X522441D01*
X452087Y213976D02*
X510551Y155512D01*
X96457Y322441D02*
X96457Y336575D01*
X403150Y192165D02*
X410906Y199921D01*
Y213976D01*
X411693Y329055D02*
Y336024D01*
X400984Y318346D02*
X411693Y329055D01*
X61614Y71181D02*
X82992Y49803D01*
X40216Y196752D02*
X45236Y201772D01*
Y214173D01*
X82992Y49803D02*
X88780D01*
X164200Y73240D02*
Y142808D01*
X178346Y69094D02*
Y138662D01*
X57677Y324016D02*
Y337917D01*
X96457Y322441D02*
X96457Y336575D01*
X401378Y75039D02*
X411102Y84764D01*
X38740Y195276D02*
X40216Y196752D01*
X411102Y84764D02*
Y96063D01*
X452284D02*
X510945Y37402D01*
X519882D01*
X191100Y112050D02*
Y205908D01*
X225394Y269094D02*
X244488Y288189D01*
X225394Y264567D02*
Y269094D01*
X200945Y197244D02*
Y206063D01*
Y197244D02*
X201142Y197047D01*
X241142Y195866D02*
Y195866D01*
X224409Y179134D02*
X241142Y195866D01*
X224409Y171260D02*
Y179134D01*
X191100Y112050D02*
X199213Y103937D01*
X225000Y89725D02*
X239212Y103937D01*
X225000Y78543D02*
Y89725D01*
D12*
X544200Y75210D02*
X550394Y69016D01*
X413026Y367126D02*
X490551D01*
X486258Y333858D02*
X523425D01*
X544200Y310853D02*
X550394Y317047D01*
X544200Y199225D02*
Y310853D01*
Y199225D02*
X550394Y193032D01*
X544200Y186838D02*
X550394Y193032D01*
X544200Y75210D02*
Y186838D01*
X468701Y92520D02*
X473202Y88019D01*
X511391D01*
X550394Y49016D01*
X391339Y268937D02*
X398622Y261653D01*
X391339Y268937D02*
Y301772D01*
X376772Y316339D02*
X391339Y301772D01*
X401772Y249372D02*
X486258Y333858D01*
X544291Y323150D02*
X550394Y317047D01*
X544291Y323150D02*
Y333386D01*
X510551Y367126D02*
X544291Y333386D01*
X401772Y220866D02*
Y249372D01*
Y220866D02*
X401772D01*
X323819Y249213D02*
X357874Y283268D01*
Y311974D01*
X413026Y367126D01*
X323819Y249213D02*
X358268Y214764D01*
Y197638D02*
Y214764D01*
X324606Y163976D02*
X358268Y197638D01*
X324606Y163976D02*
X356299Y132283D01*
Y100197D02*
Y132283D01*
X323228Y67126D02*
X356299Y100197D01*
D13*
X15760Y15760D02*
D03*
Y377965D02*
D03*
X574815D02*
D03*
Y15760D02*
D03*
D14*
X445472Y189606D02*
D03*
Y159606D02*
D03*
X445079Y308110D02*
D03*
Y278110D02*
D03*
X420866Y308504D02*
D03*
Y278504D02*
D03*
X268106Y329442D02*
D03*
Y359442D02*
D03*
X247306Y329442D02*
D03*
Y359442D02*
D03*
X422441Y189606D02*
D03*
Y159606D02*
D03*
X421653Y69528D02*
D03*
Y39528D02*
D03*
X446851Y69331D02*
D03*
Y39331D02*
D03*
D15*
X522441Y155512D02*
D03*
X471260D02*
D03*
Y210630D02*
D03*
X522441D02*
D03*
X523425Y278740D02*
D03*
X472244D02*
D03*
Y333858D02*
D03*
X523425D02*
D03*
X321654Y316339D02*
D03*
Y367520D02*
D03*
X376772D02*
D03*
Y316339D02*
D03*
X519882Y37402D02*
D03*
X468701D02*
D03*
Y92520D02*
D03*
X519882D02*
D03*
D16*
X61614Y81181D02*
D03*
Y76181D02*
D03*
X277559Y129842D02*
D03*
Y134842D02*
D03*
X279330Y223149D02*
D03*
Y228149D02*
D03*
X277559Y34370D02*
D03*
Y39370D02*
D03*
D17*
X61614Y71181D02*
D03*
X277559Y139842D02*
D03*
X279330Y233149D02*
D03*
X277559Y44370D02*
D03*
D18*
X241142Y195866D02*
D03*
X201142D02*
D03*
X244488Y288189D02*
D03*
X204488D02*
D03*
X199213Y103937D02*
D03*
X239212D02*
D03*
X96457Y322441D02*
D03*
X230906Y364442D02*
D03*
Y324442D02*
D03*
X78740Y195276D02*
D03*
X38740D02*
D03*
X118504Y75984D02*
D03*
X78504D02*
D03*
X225394Y264567D02*
D03*
X225000Y78543D02*
D03*
X47717Y304016D02*
D03*
Y324016D02*
D03*
X57717Y304016D02*
D03*
X67717D02*
D03*
Y324016D02*
D03*
X96457Y376575D02*
D03*
Y336575D02*
D03*
X403150Y152165D02*
D03*
Y192165D02*
D03*
X401378Y35039D02*
D03*
Y75039D02*
D03*
X300197Y132874D02*
D03*
Y172874D02*
D03*
X401772Y220866D02*
D03*
Y260866D02*
D03*
X400984Y278346D02*
D03*
Y318346D02*
D03*
X298622Y38386D02*
D03*
Y78386D02*
D03*
X297638Y266142D02*
D03*
Y226142D02*
D03*
X224409Y171260D02*
D03*
D19*
X254685Y181378D02*
D03*
X256260Y88464D02*
D03*
X88780Y49803D02*
D03*
X254882Y274488D02*
D03*
D20*
X254685Y171378D02*
D03*
X284685Y181378D02*
D03*
Y171378D02*
D03*
X256260Y78464D02*
D03*
X286260Y88464D02*
D03*
Y78464D02*
D03*
X550394Y173032D02*
D03*
Y193032D02*
D03*
Y297047D02*
D03*
Y317047D02*
D03*
Y49016D02*
D03*
Y69016D02*
D03*
X490551Y367126D02*
D03*
X510551D02*
D03*
X35236Y224173D02*
D03*
X45236D02*
D03*
X55236D02*
D03*
X65236D02*
D03*
Y214173D02*
D03*
X55236D02*
D03*
X45236D02*
D03*
X35236D02*
D03*
X98780Y49803D02*
D03*
X159016Y287992D02*
D03*
Y277992D02*
D03*
Y267992D02*
D03*
Y257992D02*
D03*
Y247992D02*
D03*
Y237992D02*
D03*
Y227992D02*
D03*
Y217992D02*
D03*
Y207992D02*
D03*
Y197992D02*
D03*
Y187992D02*
D03*
Y177992D02*
D03*
Y167992D02*
D03*
Y157992D02*
D03*
Y147992D02*
D03*
Y137992D02*
D03*
Y127992D02*
D03*
Y117992D02*
D03*
Y107992D02*
D03*
Y97992D02*
D03*
X99016D02*
D03*
Y107992D02*
D03*
Y117992D02*
D03*
Y127992D02*
D03*
Y137992D02*
D03*
Y147992D02*
D03*
Y157992D02*
D03*
Y167992D02*
D03*
Y177992D02*
D03*
Y187992D02*
D03*
Y197992D02*
D03*
Y207992D02*
D03*
Y217992D02*
D03*
Y227992D02*
D03*
Y237992D02*
D03*
Y247992D02*
D03*
Y287992D02*
D03*
Y277992D02*
D03*
Y267992D02*
D03*
Y257992D02*
D03*
X254882Y264488D02*
D03*
X284882Y274488D02*
D03*
Y264488D02*
D03*
X178346Y49094D02*
D03*
Y59094D02*
D03*
D21*
X311221Y181417D02*
D03*
X309843Y274527D02*
D03*
X309843Y85748D02*
D03*
D22*
X311221Y140236D02*
D03*
X452874Y336024D02*
D03*
X452284Y96063D02*
D03*
X309843Y233346D02*
D03*
X271969Y306693D02*
D03*
X309843Y44567D02*
D03*
X452087Y213976D02*
D03*
D23*
X411693Y336024D02*
D03*
X411102Y96063D02*
D03*
X230788Y306693D02*
D03*
X410906Y213976D02*
D03*
D24*
X86457Y322441D02*
D03*
X235394Y264567D02*
D03*
X235000Y78543D02*
D03*
X234409Y171260D02*
D03*
D25*
X57717Y324016D02*
D03*
D26*
X47677Y347638D02*
D03*
D27*
X57677Y337917D02*
D03*
Y361417D02*
D03*
D28*
X178346Y69094D02*
D03*
D29*
X380512Y187598D02*
D03*
Y140354D02*
D03*
X332480Y187598D02*
D03*
X324606Y163976D02*
D03*
X332480Y140354D02*
D03*
X379724Y272835D02*
D03*
Y225591D02*
D03*
X331693Y272835D02*
D03*
X323819Y249213D02*
D03*
X331693Y225591D02*
D03*
X379134Y90748D02*
D03*
Y43504D02*
D03*
X331102Y90748D02*
D03*
X323228Y67126D02*
D03*
X331102Y43504D02*
D03*
M02*
